<svg width="21" height="21" viewBox="0 0 21 21" fill="none" xmlns="http://www.w3.org/2000/svg">
<path d="M2.79017 10.5037C2.79017 5.56957 6.40235 1.51551 11.0228 1.04787C10.7292 1.01841 10.4285 1 10.1278 1C5.08626 1 1 5.25291 1 10.5C1 15.7471 5.08626 20 10.1278 20C10.4285 20 10.7292 19.9853 11.0228 19.9521C6.40235 19.4845 2.79017 15.4304 2.79017 10.4963V10.5037Z" fill="#9E1100"/>
<path d="M19.7087 9.12635C19.6237 13.8727 15.8594 17.6506 11.2991 17.5622C7.57016 17.4886 4.46389 14.8558 3.50159 11.2988C3.78108 15.7064 7.2659 19.2302 11.5857 19.3149C16.146 19.4033 19.9103 15.6291 19.9988 10.8791C20.0129 10.0138 19.9068 9.1779 19.691 8.38623C19.7051 8.62925 19.7157 8.87596 19.7087 9.12266V9.12635Z" fill="#DF2F00"/>
<path d="M7.74268 15.4375L15.5119 3.51465V8.08054L10.6296 15.4375H7.74268Z" fill="#5A5B5D"/>
<path d="M13.8109 11.1147L18.7816 3.68408V8.01799L13.8215 15.073L13.8109 11.1147Z" fill="#5A5B5D"/>
<path d="M16.6587 11.5268L18.7814 8.49268V15.4372H16.6587V11.5268Z" fill="#5A5B5D"/>
</svg>
