<svg width="19" height="10" viewBox="0 0 19 10" fill="none" xmlns="http://www.w3.org/2000/svg">
<path d="M9.2346 2.09025L1.70185 9.623C1.50319 9.82167 1.26927 9.9185 1.0001 9.9135C0.730769 9.90833 0.496771 9.80642 0.298105 9.60775C0.0994382 9.40892 0.000102596 9.17492 0.000102608 8.90575C0.000102619 8.63658 0.0994382 8.40258 0.298105 8.20375L7.95385 0.53275C8.13469 0.351916 8.33727 0.217916 8.5616 0.13075C8.78594 0.0435829 9.01027 -4.13806e-07 9.2346 -4.04e-07C9.45894 -3.94194e-07 9.68327 0.0435829 9.90761 0.13075C10.1319 0.217916 10.3345 0.351916 10.5154 0.53275L18.1866 8.20375C18.3853 8.40258 18.482 8.63917 18.4769 8.9135C18.4717 9.18783 18.3698 9.42433 18.1711 9.623C17.9724 9.82167 17.7384 9.921 17.4691 9.921C17.1999 9.921 16.966 9.82167 16.7674 9.623L9.2346 2.09025Z" fill="white"/>
</svg>
