<svg width="128" height="43" viewBox="0 0 128 43" fill="none" xmlns="http://www.w3.org/2000/svg">
<g clip-path="url(#clip0_60_70)">
<path d="M37.4434 32.6958C36.5688 32.3794 36.403 32.1684 36.403 31.8054C36.403 31.4424 36.6547 31.1538 37.2531 31.1538C37.692 31.1538 37.9835 31.2996 38.3027 31.5665L38.6157 31.1786C38.2474 30.8808 37.873 30.707 37.2838 30.707C36.4675 30.707 35.9151 31.129 35.9151 31.8364C35.9151 32.4756 36.2343 32.7858 37.1795 33.1271C37.9805 33.4188 38.2229 33.6515 38.2229 34.061C38.2229 34.5295 37.8608 34.8212 37.2808 34.8212C36.8296 34.8212 36.4491 34.6102 36.1176 34.2906L35.7954 34.6567C36.1391 35.0104 36.67 35.2711 37.2654 35.2711C38.1769 35.2711 38.7139 34.7312 38.7139 34.0393C38.7139 33.3474 38.4162 33.0527 37.4465 32.6989L37.4434 32.6958Z" fill="#004289"/>
<path d="M40.6965 31.8148C40.2699 31.8148 39.8832 31.9203 39.5948 32.0785L39.7728 32.4633C40.0398 32.305 40.3221 32.2088 40.6658 32.2088C41.1445 32.2088 41.3778 32.4477 41.3778 32.9442V33.3351C41.1844 33.2265 40.8868 33.1427 40.5584 33.1427C39.9109 33.1427 39.3032 33.4592 39.3032 34.2039C39.3032 35.0044 39.8403 35.265 40.3497 35.265C40.8223 35.265 41.1446 35.0416 41.3778 34.7903V35.1967H41.8443V32.8821C41.8443 32.1127 41.4023 31.8086 40.6965 31.8086V31.8148ZM41.3747 34.3869C41.1752 34.6631 40.8561 34.8833 40.4326 34.8833C40.0305 34.8833 39.7605 34.6693 39.7605 34.1759C39.7605 33.7602 40.049 33.5244 40.5308 33.5244C40.9297 33.5244 41.1599 33.5988 41.3747 33.7167V34.39V34.3869Z" fill="#004289"/>
<path d="M46.5521 33.2572V35.1995H47.0185V33.1796C47.0185 32.2116 46.6012 31.8145 45.9321 31.8145C45.3982 31.8145 45.1312 32.0658 44.9378 32.3822C44.7813 32.0658 44.5021 31.8145 44.0386 31.8145C43.652 31.8145 43.3758 32.0037 43.207 32.2892V31.8858H42.7344V35.2026H43.207V33.2603C43.207 32.525 43.4863 32.224 43.9374 32.224C44.3885 32.224 44.6432 32.5001 44.6432 33.2603V35.2026H45.1128V33.2603C45.1128 32.525 45.3982 32.224 45.8432 32.224C46.3158 32.224 46.549 32.5001 46.549 33.2603L46.5521 33.2572Z" fill="#004289"/>
<path d="M48.8997 33.2708C48.3442 33.0163 48.1785 32.9077 48.1785 32.6254C48.1785 32.3834 48.3749 32.2158 48.7217 32.2158C49.0685 32.2158 49.2833 32.3089 49.538 32.5137L49.7989 32.1631C49.5503 31.9552 49.2004 31.8125 48.7524 31.8125C48.154 31.8125 47.7274 32.1538 47.7274 32.6564C47.7274 33.187 48.0005 33.3887 48.6603 33.6741C49.2403 33.9254 49.4337 34.0775 49.4337 34.3505C49.4337 34.6732 49.2219 34.8624 48.7708 34.8624C48.4455 34.8624 48.1386 34.729 47.8778 34.4963L47.6016 34.8407C47.9146 35.0951 48.3074 35.2658 48.7585 35.2658C49.3263 35.2658 49.8817 34.9834 49.8817 34.3288C49.8817 33.7362 49.5196 33.5531 48.8966 33.2677L48.8997 33.2708Z" fill="#004289"/>
<path d="M52.619 33.822C52.619 34.548 52.2599 34.8552 51.8088 34.8552C51.281 34.8552 51.0324 34.5356 51.0324 33.822V31.8828H50.5659V33.9027C50.5659 34.8552 51.0232 35.2678 51.7137 35.2678C52.128 35.2678 52.4318 35.0724 52.619 34.7931V35.1996H53.0885V31.8828H52.619V33.822Z" fill="#004289"/>
<path d="M56.4031 35.1995V33.1796C56.4031 32.224 55.9459 31.8145 55.2523 31.8145C54.8411 31.8145 54.5342 32.0099 54.3501 32.2892V31.8858H53.8774V35.2026H54.3501V33.2603C54.3501 32.5343 54.703 32.224 55.1572 32.224C55.6819 32.224 55.9336 32.5467 55.9336 33.2603V35.2026H56.4031V35.1995Z" fill="#004289"/>
<path d="M57.8791 36.057L58.0295 36.4169C59.2478 36.3796 59.6897 35.8987 59.6897 34.8997V31.8808H59.2202V32.2531C58.99 31.9862 58.7077 31.8125 58.2965 31.8125C57.609 31.8125 57.0566 32.4175 57.0566 33.5934C57.0566 34.7694 57.5784 35.2658 58.232 35.2658C58.677 35.2658 58.99 35.0424 59.2202 34.7911V34.9617C59.2202 35.7343 58.9716 36.0259 57.876 36.0539L57.8791 36.057ZM58.3548 34.8562C57.8361 34.8562 57.5231 34.4219 57.5231 33.5872C57.5231 32.6968 57.7901 32.2221 58.3364 32.2221C58.7261 32.2221 59.0422 32.4423 59.2233 32.7185V34.3784C58.9931 34.6701 58.7046 34.8562 58.3548 34.8562Z" fill="#004289"/>
<path d="M64.8637 32.9566C64.8637 31.4394 64.0166 30.7754 62.8689 30.7754H61.7119V35.1998H62.783C63.9522 35.1998 64.8637 34.5607 64.8637 32.9566ZM62.1999 31.2222H62.8321C63.8387 31.2222 64.3757 31.8427 64.3757 32.9721C64.3757 34.2442 63.7865 34.7499 62.8443 34.7499H62.1999V31.2222Z" fill="#004289"/>
<path d="M66.1131 32.2931V31.8835H65.6436V35.2003H66.1131V33.2518C66.1131 32.6188 66.3709 32.2496 66.8281 32.2496C67.046 32.2496 67.1872 32.2993 67.3192 32.3768L67.4358 31.899C67.3253 31.8494 67.1688 31.8184 66.9233 31.8184C66.5704 31.8184 66.2604 32.0324 66.1131 32.2962V32.2931Z" fill="#004289"/>
<path d="M70.2403 34.8838L70.0194 34.5425C69.7186 34.7442 69.4946 34.859 69.111 34.859C68.577 34.859 68.2425 34.4091 68.1995 33.7048H70.3846C70.3999 33.6272 70.406 33.559 70.406 33.4473C70.406 32.5009 69.9396 31.8184 69.0834 31.8184C68.3039 31.8184 67.73 32.473 67.73 33.5248C67.73 34.8311 68.4604 35.2716 69.0619 35.2716C69.556 35.2716 69.8444 35.1382 70.2403 34.8869V34.8838ZM69.0834 32.2248C69.6572 32.2248 69.9334 32.6747 69.9703 33.317H68.1995C68.2548 32.5754 68.5954 32.2248 69.0834 32.2248Z" fill="#004289"/>
<path d="M71.9712 35.2689C72.4408 35.2689 72.763 35.0455 72.9932 34.7942V35.2006H73.4627V32.886C73.4627 32.1166 73.0208 31.8125 72.3149 31.8125C71.8884 31.8125 71.5017 31.918 71.2132 32.0762L71.3881 32.461C71.6582 32.3027 71.9375 32.2065 72.2812 32.2065C72.763 32.2065 72.9932 32.4454 72.9932 32.9419V33.3328C72.7998 33.2242 72.5052 33.1404 72.1768 33.1404C71.5262 33.1404 70.9155 33.4569 70.9155 34.2016C70.9155 35.0021 71.4556 35.2627 71.9682 35.2627L71.9712 35.2689ZM72.1523 33.5221C72.5512 33.5221 72.7845 33.5965 72.9962 33.7144V34.3877C72.7968 34.6639 72.4776 34.8842 72.0541 34.8842C71.6551 34.8842 71.382 34.6701 71.382 34.1767C71.382 33.761 71.6735 33.5252 72.1523 33.5252V33.5221Z" fill="#004289"/>
<path d="M78.1706 33.2572V35.1995H78.6402V33.1796C78.6402 32.2116 78.2228 31.8145 77.5538 31.8145C77.0229 31.8145 76.7528 32.0658 76.5626 32.3822C76.406 32.0658 76.1268 31.8145 75.6634 31.8145C75.2736 31.8145 75.0005 32.0037 74.8317 32.2892V31.8858H74.3652V35.2026H74.8317V33.2603C74.8317 32.525 75.114 32.224 75.5652 32.224C76.0163 32.224 76.2741 32.5001 76.2741 33.2603V35.2026H76.7405V33.2603C76.7405 32.525 77.026 32.224 77.474 32.224C77.9466 32.224 78.1799 32.5001 78.1799 33.2603L78.1706 33.2572Z" fill="#004289"/>
<path d="M37.4434 39.2767C36.5657 38.9603 36.4061 38.7524 36.4061 38.3863C36.4061 38.0201 36.6578 37.7378 37.2562 37.7378C37.695 37.7378 37.9897 37.8805 38.3058 38.1474L38.6188 37.7626C38.2505 37.4679 37.873 37.291 37.2869 37.291C36.4675 37.291 35.9182 37.7068 35.9182 38.4204C35.9182 39.0595 36.2373 39.3667 37.1825 39.708C37.9835 40.0028 38.226 40.2324 38.226 40.645C38.226 41.1104 37.8638 41.4021 37.2808 41.4021C36.8296 41.4021 36.4491 41.1911 36.1176 40.8715L35.7954 41.2376C36.1391 41.5913 36.67 41.8488 37.2654 41.8488C38.1769 41.8488 38.7108 41.3121 38.7108 40.6171C38.7108 39.9221 38.4132 39.6304 37.4465 39.2767H37.4434Z" fill="#004289"/>
<path d="M40.7024 38.8052C41.0339 38.8052 41.2518 38.9231 41.4881 39.1403L41.7704 38.7866C41.5126 38.557 41.172 38.3926 40.7331 38.3926C40.0457 38.3926 39.3184 38.9107 39.3184 40.1363C39.3184 41.2936 39.9782 41.8459 40.6994 41.8459C41.1597 41.8459 41.4789 41.669 41.7551 41.3836L41.4727 41.0826C41.2487 41.3029 41.0369 41.4332 40.7178 41.4332C40.1378 41.4332 39.791 40.9089 39.791 40.0928C39.791 39.2768 40.1869 38.799 40.6994 38.799L40.7024 38.8052Z" fill="#004289"/>
<path d="M43.7743 38.3953C43.363 38.3953 43.0531 38.5908 42.8659 38.87V37.3125H42.3994V41.7866H42.8659V39.8443C42.8659 39.1183 43.2249 38.808 43.6791 38.808C44.207 38.808 44.4556 39.1276 44.4556 39.8443V41.7866H44.9251V39.7605C44.9251 38.808 44.4678 38.3953 43.7743 38.3953Z" fill="#004289"/>
<path d="M47.0181 38.3965C46.2202 38.3965 45.585 39.0015 45.585 40.1278C45.585 41.2541 46.1957 41.8529 46.9936 41.8529C47.7915 41.8529 48.4329 41.2292 48.4329 40.103C48.4329 38.9767 47.816 38.3965 47.0181 38.3965ZM47.0089 41.4402C46.4381 41.4402 46.0545 40.9872 46.0545 40.1154C46.0545 39.2435 46.4381 38.8091 47.0089 38.8091C47.5797 38.8091 47.9633 39.2435 47.9633 40.1154C47.9633 40.9872 47.5767 41.4402 47.0089 41.4402Z" fill="#004289"/>
<path d="M49.6082 37.3105H49.1387V41.7846H49.6082V37.3105Z" fill="#004289"/>
<path d="M51.7535 38.3965C51.3269 38.3965 50.9402 38.5051 50.6548 38.6633L50.8298 39.0511C51.0998 38.8929 51.3822 38.7967 51.7259 38.7967C52.2046 38.7967 52.4378 39.0387 52.4378 39.529V39.923C52.2445 39.8144 51.9499 39.7306 51.6215 39.7306C50.9709 39.7306 50.3633 40.0471 50.3633 40.7949C50.3633 41.5953 50.9003 41.8529 51.4128 41.8529C51.8824 41.8529 52.2046 41.6326 52.4378 41.3813V41.7877H52.9074V39.4762C52.9074 38.7005 52.4624 38.3996 51.7566 38.3996L51.7535 38.3965ZM52.4348 40.9686C52.2384 41.2416 51.9131 41.465 51.4926 41.465C51.0937 41.465 50.8236 41.2509 50.8236 40.7576C50.8236 40.3388 51.1121 40.1092 51.5939 40.1092C51.9929 40.1092 52.223 40.1774 52.4348 40.2984V40.9686Z" fill="#004289"/>
<path d="M54.2669 38.8777V38.462H53.7974V41.7819H54.2669V39.8334C54.2669 39.2035 54.5185 38.8281 54.9789 38.8281C55.1998 38.8281 55.341 38.8777 55.473 38.9553L55.5927 38.4744C55.4791 38.4248 55.3257 38.3906 55.0802 38.3906C54.7303 38.3906 54.4142 38.6047 54.27 38.8746L54.2669 38.8777Z" fill="#004289"/>
<path d="M57.391 39.8547C56.8356 39.6003 56.6668 39.4855 56.6668 39.2094C56.6668 38.9705 56.8663 38.7998 57.21 38.7998C57.5537 38.7998 57.7747 38.896 58.0294 39.0977L58.2902 38.7502C58.0386 38.5423 57.6918 38.3965 57.2407 38.3965C56.6453 38.3965 56.2126 38.7378 56.2126 39.2435C56.2126 39.7493 56.4888 39.9757 57.1455 40.2581C57.7256 40.5094 57.9189 40.6645 57.9189 40.9345C57.9189 41.2603 57.7071 41.4464 57.2591 41.4464C56.9307 41.4464 56.6269 41.313 56.363 41.0803L56.0898 41.4278C56.4029 41.6822 56.7957 41.8498 57.2468 41.8498C57.8146 41.8498 58.37 41.5643 58.37 40.9159C58.37 40.3201 58.0079 40.1402 57.388 39.8547H57.391Z" fill="#004289"/>
<path d="M60.5122 38.3953C60.0948 38.3953 59.791 38.5908 59.6038 38.87V37.3125H59.1343V41.7866H59.6038V39.8443C59.6038 39.1183 59.9598 38.808 60.4171 38.808C60.9418 38.808 61.1904 39.1276 61.1904 39.8443V41.7866H61.66V39.7605C61.66 38.808 61.2058 38.3953 60.5122 38.3953Z" fill="#004289"/>
<path d="M63.0534 38.4609H62.5869V41.7808H63.0534V38.4609Z" fill="#004289"/>
<path d="M62.8294 37.1953C62.6391 37.1953 62.4888 37.3473 62.4888 37.5397C62.4888 37.7321 62.6391 37.8748 62.8294 37.8748C63.0043 37.8748 63.1547 37.7197 63.1547 37.5397C63.1547 37.3473 63.0043 37.1953 62.8294 37.1953Z" fill="#004289"/>
<path d="M65.4563 38.3965C65.0143 38.3965 64.7013 38.6199 64.4681 38.8712V38.4647H63.9985V43.004H64.4681V41.4123C64.6982 41.676 64.9806 41.8529 65.3949 41.8529C66.0792 41.8529 66.6316 41.2447 66.6316 40.0719C66.6316 38.8991 66.1099 38.3965 65.4563 38.3965ZM65.355 41.4402C64.9683 41.4402 64.6491 41.2199 64.4681 40.9407V39.2839C64.6982 38.9953 64.9867 38.806 65.3366 38.806C65.8583 38.806 66.1713 39.2404 66.1713 40.075C66.1713 40.9655 65.9012 41.4371 65.3581 41.4371L65.355 41.4402Z" fill="#004289"/>
<path d="M69.1144 37.8062H71.1951V37.3594H68.6265V41.7838H69.1144V39.7205H70.3143V39.2737H69.1144V37.8062Z" fill="#004289"/>
<path d="M72.6189 38.3965C71.8209 38.3965 71.1826 39.0015 71.1826 40.1278C71.1826 41.2541 71.7964 41.8529 72.5943 41.8529C73.3922 41.8529 74.0336 41.2292 74.0336 40.103C74.0336 38.9767 73.4229 38.3965 72.6189 38.3965ZM72.6097 41.4402C72.0388 41.4402 71.6614 40.9872 71.6614 40.1154C71.6614 39.2435 72.0419 38.8091 72.6097 38.8091C73.1774 38.8091 73.5671 39.2435 73.5671 40.1154C73.5671 40.9872 73.1805 41.4402 72.6097 41.4402Z" fill="#004289"/>
<path d="M76.621 40.4032C76.621 41.1292 76.268 41.4395 75.8108 41.4395C75.286 41.4395 75.0343 41.1199 75.0343 40.4032V38.4609H74.5679V40.4839C74.5679 41.4364 75.0251 41.8491 75.7187 41.8491C76.1269 41.8491 76.4338 41.6567 76.621 41.3775V41.7839H77.0936V38.464H76.621V40.4063V40.4032Z" fill="#004289"/>
<path d="M79.2538 38.3957C78.8425 38.3957 78.5356 38.5911 78.3484 38.8704V38.4639H77.8789V41.7838H78.3484V39.8415C78.3484 39.1155 78.7044 38.8052 79.1617 38.8052C79.6865 38.8052 79.9351 39.1248 79.9351 39.8415V41.7838H80.4046V39.7578C80.4046 38.8052 79.9473 38.3926 79.2538 38.3926V38.3957Z" fill="#004289"/>
<path d="M83.2251 38.8402C82.9918 38.5733 82.7126 38.3934 82.2983 38.3934C81.6109 38.3934 81.0615 38.9984 81.0615 40.1774C81.0615 41.3564 81.5802 41.8498 82.2369 41.8498C82.6819 41.8498 82.9918 41.6295 83.222 41.3782V41.7846H83.6915V37.3105H83.222V38.8402H83.2251ZM83.2251 40.9624C82.9918 41.2509 82.7064 41.4402 82.3566 41.4402C81.8379 41.4402 81.5249 41.0058 81.5249 40.1712C81.5249 39.2776 81.7919 38.806 82.3382 38.806C82.7248 38.806 83.0409 39.0263 83.2251 39.3056V40.9593V40.9624Z" fill="#004289"/>
<path d="M85.68 38.3965C85.2565 38.3965 84.8698 38.5051 84.5814 38.6633L84.7532 39.0511C85.0233 38.8929 85.3056 38.7967 85.6493 38.7967C86.1281 38.7967 86.3582 39.0387 86.3582 39.529V39.923C86.1649 39.8144 85.8703 39.7306 85.5389 39.7306C84.8913 39.7306 84.2837 40.0471 84.2837 40.7949C84.2837 41.5953 84.8238 41.8529 85.3363 41.8529C85.8059 41.8529 86.1281 41.6326 86.3582 41.3813V41.7877H86.8278V39.4762C86.8278 38.7005 86.3859 38.3996 85.677 38.3996L85.68 38.3965ZM86.3613 40.9686C86.1618 41.2416 85.8457 41.465 85.4161 41.465C85.0202 41.465 84.7532 41.2509 84.7532 40.7576C84.7532 40.3388 85.0386 40.1092 85.5205 40.1092C85.9194 40.1092 86.1526 40.1774 86.3613 40.2984V40.9686Z" fill="#004289"/>
<path d="M88.3254 37.3105H87.8528V38.4616H87.4478V38.8619H87.8528V41.0989C87.8528 41.6481 88.0738 41.8467 88.482 41.8467C88.7275 41.8467 88.9024 41.8094 89.0835 41.735L89.1172 41.3254C88.9669 41.3875 88.8441 41.4185 88.6538 41.4185C88.4052 41.4185 88.3254 41.3161 88.3254 41.0214V38.8619H89.1387V38.4616H88.3254V37.3105Z" fill="#004289"/>
<path d="M90.2037 37.1953C90.0104 37.1953 89.8569 37.3473 89.8569 37.5397C89.8569 37.7321 90.0104 37.8748 90.2037 37.8748C90.3786 37.8748 90.526 37.7197 90.526 37.5397C90.526 37.3473 90.3756 37.1953 90.2037 37.1953Z" fill="#004289"/>
<path d="M90.4275 38.4609H89.958V41.7808H90.4275V38.4609Z" fill="#004289"/>
<path d="M92.5695 38.3965C91.7716 38.3965 91.1333 39.0015 91.1333 40.1278C91.1333 41.2541 91.744 41.8529 92.545 41.8529C93.346 41.8529 93.9812 41.2292 93.9812 40.103C93.9812 38.9767 93.3675 38.3965 92.5695 38.3965ZM92.5573 41.4402C91.9895 41.4402 91.6059 40.9872 91.6059 40.1154C91.6059 39.2435 91.9895 38.8091 92.5573 38.8091C93.125 38.8091 93.5148 39.2435 93.5148 40.1154C93.5148 40.9872 93.1281 41.4402 92.5573 41.4402Z" fill="#004289"/>
<path d="M96.0347 38.3957C95.6234 38.3957 95.3165 38.5911 95.1263 38.8704V38.4639H94.6567V41.7838H95.1263V39.8415C95.1263 39.1155 95.4823 38.8052 95.9395 38.8052C96.4643 38.8052 96.716 39.1248 96.716 39.8415V41.7838H97.1824V39.7578C97.1824 38.8052 96.7252 38.3926 96.0347 38.3926V38.3957Z" fill="#004289"/>
<path d="M53.8497 22.0664C51.9655 22.0695 50.4126 23.5588 50.4126 25.4266C50.4126 27.2944 51.9655 28.7682 53.8497 28.7744C55.7525 28.7682 57.29 27.2758 57.29 25.4266C57.29 23.5774 55.7525 22.0695 53.8497 22.0664ZM53.8037 27.2417C52.8186 27.2417 52.0759 26.4288 52.0759 25.4266C52.0759 24.4244 52.8708 23.596 53.8528 23.596C54.8349 23.596 55.6021 24.4089 55.6021 25.4266C55.6021 26.4443 54.798 27.2417 53.8068 27.2417H53.8037Z" fill="#004289"/>
<path d="M38.0785 19.7552C38.6033 20.2795 39.2048 20.7387 39.7971 21.0335L39.8585 21.0676L40.8743 19.8545L40.7761 19.7986C39.8125 19.2712 39.0575 18.6041 38.5634 17.7633C38.0724 16.9348 37.8207 15.973 37.8207 14.8219V13.7422H36.004V14.7071C36.004 15.9544 35.7247 16.9348 35.1999 17.7943C34.6138 18.7468 33.7453 19.5132 32.6343 20.2237L32.5361 20.2857L33.6379 21.4399L33.6992 21.4058C34.356 21.0459 35.0526 20.4905 35.6572 19.87C36.182 19.327 36.6362 18.7468 36.9124 18.1976C37.1794 18.7375 37.5875 19.2867 38.0785 19.7583V19.7552Z" fill="#004289"/>
<path d="M36.1113 27.9794H43.716V22.7266H36.1113V27.9794ZM37.8207 24.2096H42.0067V26.4963H37.8207V24.2096Z" fill="#004289"/>
<path d="M61.4663 27.9794H70.0653V22.7266H61.4663V27.9794ZM63.1573 24.2096H68.3774V26.4963H63.1573V24.2096Z" fill="#004289"/>
<path d="M43.7466 13.4316H42.0557V22.1253H43.7466V18.278H45.726V16.7329H43.7466V13.4316Z" fill="#004289"/>
<path d="M78.8055 20.1984C79.3609 20.6856 79.9962 21.0951 80.5946 21.3588L80.656 21.3868L81.5705 20.1364L81.4723 20.0867C80.6008 19.6369 79.8243 19.0784 79.2658 18.3958C78.698 17.7008 78.3605 16.8631 78.3605 15.8547V15.5599H80.877V14.0645H74.0456V15.5599H76.559V15.9199C76.559 16.8382 76.2583 17.6946 75.7581 18.4361C75.1719 19.3266 74.3157 20.0433 73.484 20.5087L73.3735 20.5677L74.4967 21.7436L74.5581 21.7126C75.1627 21.3651 75.8317 20.8407 76.4025 20.2512C76.8598 19.7672 77.271 19.2552 77.5227 18.7433C77.8265 19.2397 78.293 19.7361 78.8085 20.1984H78.8055Z" fill="#004289"/>
<path d="M91.0352 24.2448H97.1821V27.9773H98.8884V22.7617H91.0352V24.2448Z" fill="#004289"/>
<path d="M95.2765 18.2652C95.2765 17.443 94.9113 16.686 94.3712 16.1089H96.0591V14.6289H92.8367V13H91.0046V14.6289H87.7056V16.1089H89.4303C88.9024 16.686 88.5372 17.4368 88.5372 18.2652C88.5372 20.0989 90.0318 21.5882 91.9007 21.5944C93.7697 21.5882 95.2734 20.0989 95.2765 18.2652ZM90.1668 18.197C90.1668 17.1824 91.0138 16.323 91.9007 16.323C92.7876 16.323 93.6316 17.1855 93.6346 18.197C93.6346 19.196 92.7876 20.0586 91.9007 20.0617C91.0107 20.0586 90.1699 19.196 90.1668 18.197Z" fill="#004289"/>
<path d="M98.8886 13.4316H97.2007V22.1564H98.8886V18.8272H100.874V17.2821H98.8886V13.4316Z" fill="#004289"/>
<path d="M84.5658 13.4316H82.8779V22.1564H84.5658V18.278H86.5483V16.7329H84.5658V13.4316Z" fill="#004289"/>
<path d="M55.915 16.0193H53.2573V17.5489H55.915V22.4325H57.6059V13.4316H55.915V16.0193Z" fill="#004289"/>
<path d="M51.6216 19.9817C52.1495 20.5029 52.7663 20.9621 53.3556 21.2724L53.42 21.3096L54.4358 20.0965L54.3376 20.0406C53.374 19.5287 52.6344 18.8647 52.1372 18.0363C51.6339 17.2141 51.3823 16.215 51.3823 15.0639V13.7422H49.5624V14.9522C49.5624 16.1995 49.2862 17.1769 48.7737 18.0208C48.1906 18.9888 47.3037 19.7614 46.1928 20.4657L46.0977 20.5277L47.2055 21.685L47.2608 21.6478C47.9144 21.2848 48.5957 20.7604 49.2003 20.1616C49.7466 19.6125 50.2007 19.0136 50.4769 18.4396C50.7378 18.964 51.1368 19.4977 51.6216 19.9848V19.9817Z" fill="#004289"/>
<path d="M80.9417 22.0664C79.0574 22.0695 77.5045 23.5588 77.5015 25.4266C77.5045 27.2758 79.0543 28.7682 80.9417 28.7744C82.8413 28.7682 84.3819 27.2758 84.3819 25.4266C84.3819 23.5774 82.8413 22.0695 80.9417 22.0664ZM80.8926 27.2417C79.9105 27.2417 79.1617 26.4288 79.1617 25.4266C79.1617 24.4244 79.9535 23.596 80.9417 23.596C81.9299 23.596 82.6879 24.4089 82.691 25.4266C82.691 26.4257 81.8838 27.2417 80.8926 27.2417Z" fill="#004289"/>
<path d="M63.5258 18.4165H65.2167V13.9766H60.6533V15.4534H63.5258V18.4165Z" fill="#004289"/>
<path d="M68.6018 18.4165H70.2958V13.9766H65.7324V15.4534H68.6018V18.4165Z" fill="#004289"/>
<path d="M111.704 17.3627H110.283V13.6736H108.684V27.6047H110.283V19.0382H111.704V27.977H113.361V13.4316H111.704V17.3627Z" fill="#004289"/>
<path d="M106.34 19.2894C105.959 18.4486 105.802 17.5085 105.802 16.3543V15.8051H107.721V14.2383H102.147V15.8051H104.127V16.3853C104.127 17.4775 103.986 18.371 103.645 19.1995C103.249 20.152 102.583 21.0083 101.521 21.9267L101.448 21.995L102.497 23.0468L102.562 22.9971C103.09 22.6031 103.642 22.0322 104.102 21.4427C104.492 20.9463 104.82 20.4312 105.026 19.9782C105.238 20.4188 105.569 20.9246 105.956 21.3962C106.404 21.9484 106.91 22.4728 107.395 22.7862L107.46 22.8296L108.344 21.7623L108.273 21.6971C107.322 20.8594 106.732 20.1116 106.346 19.2863L106.34 19.2894Z" fill="#004289"/>
<path d="M59.2383 20.4842H64.8513V22.1411H66.6834V20.4842H72.3854V18.998H59.2383V20.4842Z" fill="#004289"/>
<path d="M122.988 20.0092H117.274V15.6127H121.626V14.0645H115.562V21.5109H122.988V20.0092Z" fill="#004289"/>
<path d="M119.757 23.3418H118.047V27.9772H126.042V26.4507H119.757V23.3418Z" fill="#004289"/>
<path d="M126.002 17.4581V13.4277H124.314V24.1599H126.002V19.0032H128V17.4581H126.002Z" fill="#004289"/>
<path d="M35.8477 8.94191L31.4685 7.10823L35.8477 5.27455L35.0683 3.37882L30.692 5.2125L32.5057 0.784977L30.6276 0L28.8169 4.42752L27.0032 0L25.1251 0.784977L26.9388 5.2125L22.5626 3.37882L21.7861 5.27455L26.1624 7.10823L21.7861 8.94191L22.5626 10.8377L26.9388 9.00397L25.1251 13.4315L27.0032 14.2165L28.8169 9.79205L30.6276 14.2165L32.5057 13.4284L30.692 9.00397L35.0683 10.8377L35.8477 8.94191Z" fill="#009FE3"/>
<path d="M7.51246 21.2938H10.4248V13.4316H0.466309V16.0813H7.51246V21.2938Z" fill="#009FE3"/>
<path d="M18.8738 21.2938H21.7862V13.4316H11.8276V16.0813H18.8738V21.2938Z" fill="#009FE3"/>
<path d="M0 25.3606H18.8736V29.4096H21.786V22.7109H0V25.3606Z" fill="#009FE3"/>
<path d="M7.04639 41.7848H21.7862V30.7734H7.04639V41.7848ZM9.95569 33.4262H18.8739V39.1383H9.95569V33.4262Z" fill="#009FE3"/>
</g>
<defs>
<clipPath id="clip0_60_70">
<rect width="128" height="43" fill="white"/>
</clipPath>
</defs>
</svg>
