<svg width="22" height="22" viewBox="0 0 22 22" fill="none" xmlns="http://www.w3.org/2000/svg">
<path d="M7.37147 8.99237C6.36827 7.96303 5.86667 6.7217 5.86667 5.26838C5.86667 3.81531 6.36827 2.57398 7.37147 1.54439C8.37467 0.514795 9.58418 0 11 0C12.4158 0 13.6253 0.514795 14.6285 1.54439C15.6317 2.57398 16.1333 3.81531 16.1333 5.26838C16.1333 6.7217 15.6317 7.96303 14.6285 8.99237C13.6253 10.022 12.4158 10.5368 11 10.5368C9.58418 10.5368 8.37467 10.022 7.37147 8.99237ZM0 19.7131V18.6534C0 17.9164 0.195067 17.2337 0.5852 16.6056C0.975334 15.9774 1.49673 15.4944 2.1494 15.1568C3.59896 14.4275 5.06134 13.8804 6.53657 13.5157C8.01179 13.1509 9.4996 12.9685 11 12.9685C12.5004 12.9685 13.9882 13.1509 15.4634 13.5157C16.9387 13.8804 18.401 14.4275 19.8506 15.1568C20.5033 15.4944 21.0247 15.9774 21.4148 16.6056C21.8049 17.2337 22 17.9164 22 18.6534V19.7131C22 20.3479 21.7833 20.8877 21.3499 21.3328C20.9165 21.7776 20.3905 22 19.7718 22H2.22823C1.60954 22 1.0835 21.7776 0.6501 21.3328C0.2167 20.8877 0 20.3479 0 19.7131ZM2.2 19.7421H19.8V18.6534C19.8 18.3486 19.714 18.0664 19.5419 17.8067C19.3698 17.5473 19.1362 17.3356 18.8412 17.1715C17.5774 16.5328 16.2898 16.0489 14.9783 15.7197C13.6669 15.3908 12.3408 15.2264 11 15.2264C9.65922 15.2264 8.33311 15.3908 7.02167 15.7197C5.71022 16.0489 4.42261 16.5328 3.15883 17.1715C2.86379 17.3356 2.63022 17.5473 2.45813 17.8067C2.28604 18.0664 2.2 18.3486 2.2 18.6534V19.7421ZM13.0717 7.39455C13.6461 6.80499 13.9333 6.09627 13.9333 5.26838C13.9333 4.44049 13.6461 3.73177 13.0717 3.14221C12.4972 2.55266 11.8067 2.25788 11 2.25788C10.1933 2.25788 9.50278 2.55266 8.92833 3.14221C8.35389 3.73177 8.06667 4.44049 8.06667 5.26838C8.06667 6.09627 8.35389 6.80499 8.92833 7.39455C9.50278 7.9841 10.1933 8.27888 11 8.27888C11.8067 8.27888 12.4972 7.9841 13.0717 7.39455Z" fill="#515662"/>
</svg>
