<svg width="10" height="19" viewBox="0 0 10 19" fill="none" xmlns="http://www.w3.org/2000/svg">
<path d="M2.09025 9.24245L9.623 16.7752C9.82167 16.9739 9.9185 17.2078 9.9135 17.4769C9.90833 17.7463 9.80642 17.9803 9.60775 18.1789C9.40892 18.3776 9.17492 18.4769 8.90575 18.4769C8.63658 18.4769 8.40258 18.3776 8.20375 18.1789L0.53275 10.5232C0.351917 10.3424 0.217917 10.1398 0.13075 9.91545C0.0435833 9.69111 0 9.46678 0 9.24245C0 9.01811 0.0435833 8.79378 0.13075 8.56945C0.217917 8.34511 0.351917 8.14253 0.53275 7.9617L8.20375 0.290446C8.40258 0.0917794 8.63917 -0.00497022 8.9135 0.000196444C9.18783 0.00536311 9.42433 0.107279 9.623 0.305946C9.82167 0.504613 9.921 0.738613 9.921 1.00795C9.921 1.27711 9.82167 1.51103 9.623 1.7097L2.09025 9.24245Z" fill="#E4F2FD"/>
</svg>
