<svg width="8" height="4" viewBox="0 0 8 4" fill="none" xmlns="http://www.w3.org/2000/svg">
<path d="M4.00272 2.95694L7.10351 0.143541C7.20898 0.0478469 7.33203 0.00159481 7.47265 0.0047846C7.61328 0.0079744 7.73633 0.0574161 7.8418 0.15311C7.94727 0.248804 8 0.360446 8 0.488038C8 0.61563 7.94727 0.727273 7.8418 0.822966L4.6039 3.77033C4.51952 3.84689 4.4246 3.90431 4.31913 3.94258C4.21366 3.98086 4.10819 4 4.00272 4C3.89725 4 3.79178 3.98086 3.68631 3.94258C3.58085 3.90431 3.48592 3.84689 3.40155 3.77033L0.1531 0.822966C0.0476312 0.727273 -0.00334553 0.614035 0.000170111 0.483254C0.00368575 0.352472 0.0581781 0.239234 0.163647 0.143541C0.269116 0.0478469 0.392164 -1.34182e-08 0.532789 -1.34182e-08C0.673414 -1.34182e-08 0.796462 0.0478469 0.901931 0.143541L4.00272 2.95694Z" fill="white"/>
</svg>
