<svg width="136" height="136" viewBox="0 0 136 136" fill="none" xmlns="http://www.w3.org/2000/svg">
<rect width="136" height="136" fill="white"/>
<path fill-rule="evenodd" clip-rule="evenodd" d="M57.7283 100.829C57.0819 100.829 56.5442 101.161 56.3269 101.708L53.6328 108.835L53.4155 109.603L53.1983 108.835L51.0419 101.929V101.818C50.8246 101.271 50.2869 100.829 49.6405 100.829H46.1915C45.4365 100.94 44.8987 101.487 44.8987 102.365C44.8987 102.586 45.0074 102.802 45.0074 103.023L45.4365 104.559L43.8178 108.835L43.4919 109.603L43.2747 108.835L41.2269 101.929V101.818H41.1183C41.0097 101.271 40.4719 100.829 39.8256 100.829H36.3765C35.6215 100.94 34.9751 101.487 34.9751 102.365C34.9751 102.586 35.0837 102.802 35.1924 103.023L40.2547 118.587C40.4719 119.244 41.0097 119.68 41.656 119.68C42.3024 119.68 42.8401 119.244 43.0574 118.691L46.6151 109.481L46.941 108.603L47.1583 109.481L50.1783 118.581C50.2869 119.238 50.9333 119.675 51.5796 119.675C52.226 119.675 52.7637 119.238 52.981 118.686L59.0156 102.901C59.1242 102.68 59.1242 102.465 59.1242 102.244C59.1242 101.476 58.4778 100.818 57.7228 100.818L57.7283 100.829Z" fill="#302E2F"/>
<path fill-rule="evenodd" clip-rule="evenodd" d="M83.2683 100.829C82.6219 100.829 82.0842 101.161 81.8669 101.708L79.1728 108.835L78.9556 109.603L78.7383 108.835L76.582 101.929V101.818C76.3647 101.271 75.827 100.829 75.1806 100.829H71.7315C70.9765 100.94 70.4388 101.487 70.4388 102.365C70.4388 102.586 70.4388 102.802 70.5474 103.023L70.9765 104.559L69.3579 108.835L69.032 109.603L68.8147 108.835L66.767 101.929L66.6583 101.818C66.5497 101.271 66.012 100.829 65.3656 100.829H61.9165C61.1615 100.94 60.5151 101.487 60.5151 102.365C60.5151 102.586 60.6238 102.802 60.7324 103.023L65.7947 118.587C66.012 119.244 66.5497 119.68 67.1961 119.68C67.8424 119.68 68.3802 119.244 68.5974 118.691L72.1552 109.481L72.4811 108.603L72.6983 109.481L75.7183 118.581C75.827 119.238 76.4733 119.675 77.1197 119.675C77.7661 119.675 78.3038 119.238 78.521 118.686L84.5556 102.901C84.6642 102.68 84.6642 102.465 84.6642 102.244C84.6642 101.476 84.0179 100.818 83.2629 100.818L83.2683 100.829Z" fill="#302E2F"/>
<path fill-rule="evenodd" clip-rule="evenodd" d="M99.8616 100.829H87.9011C87.1461 100.829 86.6084 101.376 86.6084 102.144V118.254C86.717 119.022 87.2548 119.569 88.0098 119.569H91.3502C92.1052 119.569 92.643 119.022 92.643 118.254C92.643 118.365 92.643 110.691 92.643 110.691H97.6021C98.2484 110.691 98.8948 110.033 98.8948 109.376C98.8948 108.608 98.2484 107.95 97.6021 107.95H92.643V103.674H99.8616C100.617 103.674 101.263 103.017 101.263 102.249C101.263 101.481 100.617 100.823 99.8616 100.823V100.829Z" fill="#302E2F"/>
<path fill-rule="evenodd" clip-rule="evenodd" d="M81.3235 49.3136C83.4799 51.7225 83.6917 59.1812 89.1886 56.2198C92.4204 54.4684 92.4204 47.0097 88.0045 44.2749C84.4467 42.192 82.5076 45.0429 81.2149 48.5512C81.1063 48.8827 81.1063 49.0982 81.3235 49.3192V49.3136Z" fill="#302E2F"/>
<path fill-rule="evenodd" clip-rule="evenodd" d="M72.8121 48.106C70.4439 49.9679 68.9339 55.3381 64.7298 53.4762C61.2807 51.7248 60.9603 44.9291 66.8862 41.7468C70.9817 39.7744 73.0294 43.6087 73.0294 47.664C73.0294 47.7745 72.9208 47.9955 72.8121 48.1004V48.106Z" fill="#302E2F"/>
<path fill-rule="evenodd" clip-rule="evenodd" d="M78.4179 61.5922C80.6829 61.3712 80.1397 59.1833 78.4179 58.7413C76.9079 58.1943 74.6483 57.8628 72.921 57.9733C70.0097 57.9733 70.1183 60.2772 71.6283 60.7137C72.8124 61.0452 73.5674 61.1502 74.5397 62.4651C75.4033 64.2165 74.9688 61.9181 78.4179 61.5866V61.5922Z" fill="#302E2F"/>
<path fill-rule="evenodd" clip-rule="evenodd" d="M89.0857 23.4476C91.8884 18.6243 96.842 19.5028 99.3243 21.9117C102.018 24.5415 102.556 27.6134 101.481 29.6963C100.079 32.5471 96.4184 35.945 94.0447 32.6576C92.9693 31.1217 90.8129 29.3703 89.5202 28.9283C87.6897 28.0498 87.3638 26.4089 89.0911 23.4476H89.0857Z" fill="#302E2F"/>
<path fill-rule="evenodd" clip-rule="evenodd" d="M100.4 44.6024C100.183 43.724 99.7535 43.8345 99.7535 44.4919C99.9707 53.26 94.7944 62.6855 83.8062 62.796C81.0034 62.796 81.8671 67.2878 76.6961 64.9894C73.0298 62.47 70.8788 67.5088 68.2934 62.1385C67.647 60.6026 66.7834 59.9451 65.7079 59.6192C54.8229 56.8788 51.3738 41.6411 60.9661 29.3647C62.7965 30.5691 63.5515 30.7901 65.5993 28.8177C66.5715 27.8287 68.402 26.7348 69.3688 26.4088C71.6338 25.5304 72.9266 24.5469 70.8788 20.0496C69.9337 17.9336 68.6519 16.8065 67.2831 16.3203H63.6222C62.5032 16.6573 61.4875 17.2375 60.7488 17.8562C57.9461 20.1601 56.1156 23.7734 59.5647 28.0497C49.8638 34.7349 48.142 42.956 48.3592 50.1936C48.5765 57.7573 46.7406 57.0998 49.1142 64.7739C49.3315 65.4314 48.7883 65.4314 48.4679 65.2104C38.3378 58.6357 32.841 38.4642 48.6851 27.3923C49.011 27.0608 48.9024 26.6243 47.6097 27.3923C33.9219 34.7349 32.6292 48.9837 34.8942 58.6302C35.9696 63.2325 34.3564 64.1109 36.0783 70.2491C40.1737 82.962 43.6228 84.0614 48.5765 84.3874C57.5224 84.3874 51.3792 79.3432 51.8083 73.1C51.8083 72.6635 52.2374 72.553 52.4547 73.321C57.4138 84.5034 60.8574 94.6969 73.7902 93.708C81.2261 92.719 77.1307 88.9952 76.5929 86.8018C71.0961 68.2767 84.458 63.8955 80.6884 81.9785C78.2116 92.393 86.0766 91.2936 91.682 87.5698C97.3907 83.8405 104.506 58.5252 100.411 44.6024H100.4ZM78.6298 66.6303C77.3371 69.9176 70.9766 68.8237 70.7648 65.5364C70.7648 65.4259 70.982 65.4259 70.982 65.5364C73.8934 66.1938 76.5875 66.5253 78.418 66.5253C78.5266 66.5253 78.6352 66.4148 78.6352 66.6358L78.6298 66.6303Z" fill="#302E2F"/>
<path fill-rule="evenodd" clip-rule="evenodd" d="M50.7221 90.0892C50.7221 91.8406 49.3207 93.266 47.5989 93.266C45.7684 93.266 44.3671 91.8406 44.3671 90.0892C44.3671 88.3378 45.7684 86.8018 47.5989 86.8018C49.3207 86.8018 50.7221 88.3378 50.7221 90.0892ZM47.5989 86.2549C45.4425 86.2549 43.7207 87.9013 43.7207 90.0892C43.7207 92.2771 45.4425 93.9235 47.5989 93.9235C49.7553 93.9235 51.3685 92.1721 51.3685 90.0892C51.3685 87.8958 49.6466 86.2549 47.5989 86.2549Z" fill="#302E2F"/>
<path fill-rule="evenodd" clip-rule="evenodd" d="M48.6741 90.6356C48.5655 91.1825 48.1364 91.514 47.7019 91.514C46.9469 91.514 46.4091 90.8566 46.4091 90.0886C46.4091 89.3206 46.8382 88.6632 47.5932 88.6632C48.131 88.6632 48.5655 88.9947 48.6687 89.4311H49.2064C49.0978 88.5527 48.4514 88.1162 47.5878 88.1162C46.5123 88.1162 45.7573 88.9947 45.7573 90.0886C45.7573 91.1825 46.5123 92.061 47.6964 92.061C48.4514 92.061 48.9892 91.514 49.2064 90.6356H48.6687H48.6741Z" fill="#302E2F"/>
<path fill-rule="evenodd" clip-rule="evenodd" d="M100.617 95.1328C100.617 96.8842 99.2158 98.3096 97.494 98.3096C95.6635 98.3096 94.2622 96.8842 94.2622 95.1328C94.2622 93.3814 95.6635 91.8455 97.494 91.8455C99.2158 91.8455 100.617 93.3814 100.617 95.1328ZM97.4885 91.293C95.3322 91.293 93.6104 92.9394 93.6104 95.1273C93.6104 97.3151 95.3322 98.9616 97.4885 98.9616C99.6449 98.9616 101.258 97.2102 101.258 95.1273C101.258 92.9339 99.5363 91.293 97.4885 91.293Z" fill="#302E2F"/>
<path fill-rule="evenodd" clip-rule="evenodd" d="M96.8414 95.3485H97.3791L98.3514 96.995H98.9978L97.9223 95.3485C98.46 95.238 98.8946 95.017 98.8946 94.3596C98.8946 93.5916 98.4654 93.2656 97.6018 93.2656H96.3091V96.995H96.8468V95.3485H96.8414ZM96.8414 94.9121V93.8181H97.4877C97.9168 93.8181 98.3514 93.8181 98.3514 94.2546C98.3514 94.912 97.9223 94.9121 97.4877 94.9121H96.8414Z" fill="#302E2F"/>
</svg>
