<svg width="78" height="100" viewBox="0 0 78 100" fill="none" xmlns="http://www.w3.org/2000/svg">
<rect width="78" height="100" fill="white"/>
<path fill-rule="evenodd" clip-rule="evenodd" d="M33.2057 67.9879C32.8487 67.9879 32.5517 68.1679 32.4317 68.4649L30.9437 72.3349L30.8237 72.7519L30.7037 72.3349L29.5127 68.5849V68.5249C29.3927 68.2279 29.0957 67.9879 28.7387 67.9879H26.8337C26.4167 68.0479 26.1197 68.3449 26.1197 68.8219C26.1197 68.9419 26.1797 69.0589 26.1797 69.1789L26.4167 70.0129L25.5227 72.3349L25.3427 72.7519L25.2227 72.3349L24.0917 68.5849V68.5249H24.0317C23.9717 68.2279 23.6747 67.9879 23.3177 67.9879H21.4127C20.9957 68.0479 20.6387 68.3449 20.6387 68.8219C20.6387 68.9419 20.6987 69.0589 20.7587 69.1789L23.5547 77.6299C23.6747 77.9869 23.9717 78.2239 24.3287 78.2239C24.6857 78.2239 24.9827 77.9869 25.1027 77.6869L27.0677 72.6859L27.2477 72.2089L27.3677 72.6859L29.0357 77.6269C29.0957 77.9839 29.4527 78.2209 29.8097 78.2209C30.1667 78.2209 30.4637 77.9839 30.5837 77.6839L33.9167 69.1129C33.9767 68.9929 33.9767 68.8759 33.9767 68.7559C33.9767 68.3389 33.6197 67.9819 33.2027 67.9819L33.2057 67.9879Z" fill="#302E2F"/>
<path fill-rule="evenodd" clip-rule="evenodd" d="M47.3121 67.9879C46.9551 67.9879 46.6581 68.1679 46.5381 68.4649L45.0501 72.3349L44.9301 72.7519L44.8101 72.3349L43.6191 68.5849V68.5249C43.4991 68.2279 43.2021 67.9879 42.8451 67.9879H40.9401C40.5231 68.0479 40.2261 68.3449 40.2261 68.8219C40.2261 68.9419 40.2261 69.0589 40.2861 69.1789L40.5231 70.0129L39.6291 72.3349L39.4491 72.7519L39.3291 72.3349L38.1981 68.5849L38.1381 68.5249C38.0781 68.2279 37.7811 67.9879 37.4241 67.9879H35.5191C35.1021 68.0479 34.7451 68.3449 34.7451 68.8219C34.7451 68.9419 34.8051 69.0589 34.8651 69.1789L37.6611 77.6299C37.7811 77.9869 38.0781 78.2239 38.4351 78.2239C38.7921 78.2239 39.0891 77.9869 39.2091 77.6869L41.1741 72.6859L41.3541 72.2089L41.4741 72.6859L43.1421 77.6269C43.2021 77.9839 43.5591 78.2209 43.9161 78.2209C44.2731 78.2209 44.5701 77.9839 44.6901 77.6839L48.0231 69.1129C48.0831 68.9929 48.0831 68.8759 48.0831 68.7559C48.0831 68.3389 47.7261 67.9819 47.3091 67.9819L47.3121 67.9879Z" fill="#302E2F"/>
<path fill-rule="evenodd" clip-rule="evenodd" d="M56.4767 67.9881H49.8707C49.4537 67.9881 49.1567 68.2851 49.1567 68.7021V77.4501C49.2167 77.8671 49.5137 78.1641 49.9307 78.1641H51.7757C52.1927 78.1641 52.4897 77.8671 52.4897 77.4501C52.4897 77.5101 52.4897 73.3431 52.4897 73.3431H55.2287C55.5857 73.3431 55.9427 72.9861 55.9427 72.6291C55.9427 72.2121 55.5857 71.8551 55.2287 71.8551H52.4897V69.5331H56.4767C56.8937 69.5331 57.2507 69.1761 57.2507 68.7591C57.2507 68.3421 56.8937 67.9851 56.4767 67.9851V67.9881Z" fill="#302E2F"/>
<path fill-rule="evenodd" clip-rule="evenodd" d="M46.2381 40.0161C47.4291 41.3241 47.5461 45.3741 50.5821 43.7661C52.3671 42.8151 52.3671 38.7651 49.9281 37.2801C47.9631 36.1491 46.8921 37.6971 46.1781 39.6021C46.1181 39.7821 46.1181 39.8991 46.2381 40.0191V40.0161Z" fill="#302E2F"/>
<path fill-rule="evenodd" clip-rule="evenodd" d="M41.5366 39.3591C40.2286 40.3701 39.3946 43.2861 37.0726 42.2751C35.1676 41.3241 34.9906 37.6341 38.2636 35.9061C40.5256 34.8351 41.6566 36.9171 41.6566 39.1191C41.6566 39.1791 41.5966 39.2991 41.5366 39.3561V39.3591Z" fill="#302E2F"/>
<path fill-rule="evenodd" clip-rule="evenodd" d="M44.6326 46.6821C45.8836 46.5621 45.5836 45.3741 44.6326 45.1341C43.7986 44.8371 42.5506 44.6571 41.5966 44.7171C39.9886 44.7171 40.0486 45.9681 40.8826 46.2051C41.5366 46.3851 41.9536 46.4421 42.4906 47.1561C42.9676 48.1071 42.7276 46.8591 44.6326 46.6791V46.6821Z" fill="#302E2F"/>
<path fill-rule="evenodd" clip-rule="evenodd" d="M50.525 25.9698C52.073 23.3508 54.809 23.8278 56.18 25.1358C57.668 26.5638 57.965 28.2318 57.371 29.3628C56.597 30.9108 54.575 32.7558 53.264 30.9708C52.67 30.1368 51.479 29.1858 50.765 28.9458C49.754 28.4688 49.574 27.5778 50.528 25.9698H50.525Z" fill="#302E2F"/>
<path fill-rule="evenodd" clip-rule="evenodd" d="M56.774 37.4571C56.654 36.9801 56.417 37.0401 56.417 37.3971C56.537 42.1581 53.678 47.2761 47.609 47.3361C46.061 47.3361 46.538 49.7751 43.682 48.5271C41.657 47.1591 40.469 49.8951 39.041 46.9791C38.684 46.1451 38.207 45.7881 37.613 45.6111C31.601 44.1231 29.696 35.8491 34.994 29.1831C36.005 29.8371 36.422 29.9571 37.553 28.8861C38.09 28.3491 39.101 27.7551 39.635 27.5781C40.886 27.1011 41.6 26.5671 40.469 24.1251C39.947 22.9761 39.239 22.3641 38.483 22.1001H36.461C35.843 22.2831 35.282 22.5981 34.874 22.9341C33.326 24.1851 32.315 26.1471 34.22 28.4691C28.862 32.0991 27.911 36.5631 28.031 40.4931C28.151 44.6001 27.137 44.2431 28.448 48.4101C28.568 48.7671 28.268 48.7671 28.091 48.6471C22.496 45.0771 19.46 34.1241 28.211 28.1121C28.391 27.9321 28.331 27.6951 27.617 28.1121C20.057 32.0991 19.343 39.8361 20.594 45.0741C21.188 47.5731 20.297 48.0501 21.248 51.3831C23.51 58.2861 25.415 58.8831 28.151 59.0601C33.092 59.0601 29.699 56.3211 29.936 52.9311C29.936 52.6941 30.173 52.6341 30.293 53.0511C33.032 59.1231 34.934 64.6581 42.077 64.1211C46.184 63.5841 43.922 61.5621 43.625 60.3711C40.589 50.3121 47.969 47.9331 45.887 57.7521C44.519 63.4071 48.863 62.8101 51.959 60.7881C55.112 58.7631 59.042 45.0171 56.78 37.4571H56.774ZM44.75 49.4181C44.036 51.2031 40.523 50.6091 40.406 48.8241C40.406 48.7641 40.526 48.7641 40.526 48.8241C42.134 49.1811 43.622 49.3611 44.633 49.3611C44.693 49.3611 44.753 49.3011 44.753 49.4211L44.75 49.4181Z" fill="#302E2F"/>
<path fill-rule="evenodd" clip-rule="evenodd" d="M29.3358 62.156C29.3358 63.107 28.5618 63.881 27.6108 63.881C26.5998 63.881 25.8258 63.107 25.8258 62.156C25.8258 61.205 26.5998 60.371 27.6108 60.371C28.5618 60.371 29.3358 61.205 29.3358 62.156ZM27.6108 60.074C26.4198 60.074 25.4688 60.968 25.4688 62.156C25.4688 63.344 26.4198 64.238 27.6108 64.238C28.8018 64.238 29.6927 63.287 29.6927 62.156C29.6927 60.965 28.7418 60.074 27.6108 60.074Z" fill="#302E2F"/>
<path fill-rule="evenodd" clip-rule="evenodd" d="M28.2048 62.453C28.1448 62.75 27.9078 62.93 27.6678 62.93C27.2508 62.93 26.9538 62.573 26.9538 62.156C26.9538 61.739 27.1908 61.382 27.6078 61.382C27.9048 61.382 28.1448 61.562 28.2018 61.799H28.4988C28.4388 61.322 28.0818 61.085 27.6048 61.085C27.0108 61.085 26.5938 61.562 26.5938 62.156C26.5938 62.75 27.0107 63.227 27.6647 63.227C28.0817 63.227 28.3788 62.93 28.4988 62.453H28.2018H28.2048Z" fill="#302E2F"/>
<path fill-rule="evenodd" clip-rule="evenodd" d="M56.8939 64.8951C56.8939 65.8461 56.1199 66.6201 55.1689 66.6201C54.1579 66.6201 53.3839 65.8461 53.3839 64.8951C53.3839 63.9441 54.1579 63.1101 55.1689 63.1101C56.1199 63.1101 56.8939 63.9441 56.8939 64.8951ZM55.1659 62.8101C53.9749 62.8101 53.0239 63.7041 53.0239 64.8921C53.0239 66.0801 53.9749 66.9741 55.1659 66.9741C56.3569 66.9741 57.2479 66.0231 57.2479 64.8921C57.2479 63.7011 56.2969 62.8101 55.1659 62.8101Z" fill="#302E2F"/>
<path fill-rule="evenodd" clip-rule="evenodd" d="M54.8087 65.0121H55.1056L55.6427 65.9061H55.9997L55.4056 65.0121C55.7026 64.9521 55.9427 64.8321 55.9427 64.4751C55.9427 64.0581 55.7056 63.8811 55.2286 63.8811H54.5146V65.9061H54.8117V65.0121H54.8087ZM54.8087 64.7751V64.1811H55.1656C55.4026 64.1811 55.6427 64.1811 55.6427 64.4181C55.6427 64.7751 55.4056 64.7751 55.1656 64.7751H54.8087Z" fill="#302E2F"/>
</svg>
