<svg width="13" height="7" viewBox="0 0 13 7" fill="none" xmlns="http://www.w3.org/2000/svg">
<path d="M6.50279 5.52517L11.8027 0.21026C11.9425 0.0700863 12.107 0.00176343 12.2964 0.0052913C12.4859 0.00893675 12.6506 0.0808464 12.7903 0.22102C12.9301 0.361312 13 0.526416 13 0.716333C13 0.90625 12.9301 1.07135 12.7903 1.21165L7.4039 6.62411C7.27667 6.7517 7.13414 6.84624 6.9763 6.90775C6.81847 6.96925 6.66063 7 6.50279 7C6.34496 7 6.18712 6.96925 6.02929 6.90775C5.87145 6.84624 5.72892 6.7517 5.60169 6.62411L0.204352 1.21165C0.0645741 1.07135 -0.00349695 0.904428 0.000138214 0.710866C0.00377337 0.517303 0.0754795 0.350435 0.215257 0.210261C0.355035 0.0700868 0.519673 2.21857e-07 0.70917 2.13574e-07C0.89855 2.05296e-07 1.06313 0.0700868 1.20291 0.210261L6.50279 5.52517Z" fill="white" fill-opacity="0.8"/>
</svg>
