<svg width="106" height="106" viewBox="0 0 106 106" fill="none" xmlns="http://www.w3.org/2000/svg">
<mask id="path-1-inside-1_84_381" fill="white">
<path d="M53 0C82.2711 0 106 23.7289 106 53C106 82.2711 82.2711 106 53 106C23.7289 106 0 82.2711 0 53C0 23.7289 23.7289 0 53 0ZM49.5781 76.7041L39.666 92.0244L49.6738 104.761L49.5156 104.884C50.6673 104.96 51.8291 105 53 105C62.812 105 71.9884 102.281 79.8193 97.5576L79.5176 97.4072L85.8525 84.7363L72.373 73.0557L49.5781 76.7041ZM20.0264 92.9824H19.7529C27.6695 99.5726 37.5729 103.857 48.4336 104.802L38.7744 92.5088L20.0264 88.9365V92.9824ZM86.8369 85.0029L80.8926 96.8926C87.3608 92.7736 92.8563 87.2641 96.96 80.7852L86.8369 85.0029ZM1.41309 59.5879C3.06329 72.6405 9.55289 84.1843 19.0264 92.3672V88.4385L8.8916 65.4043L1.41309 59.5879ZM9.86035 65.125L19.877 87.8906L38.8145 91.498L48.708 76.208L38.6924 55.2666L19.7451 48.9502L9.86035 65.125ZM77.6211 48.6738L73.0713 72.3369L86.5664 84.0332L97.4395 79.5029L97.5654 79.8057C102.284 71.9777 105 62.8063 105 53C105 52.4084 104.988 51.8192 104.969 51.2324L104.702 51.4795L104.425 51.1777L93.8105 39.6797L77.6211 48.6738ZM39.6562 54.9619L49.5703 75.6924L72.1006 72.0869L76.6074 48.6553L54.9756 39.6426L39.6562 54.9619ZM4.84082 34.8652L4.64941 34.4033L4.53223 34.123C2.25147 39.9748 1 46.3412 1 53C1 54.7547 1.08708 56.4892 1.25684 58.1992L9.16309 64.3486L18.9971 48.2559L15.4355 30.4502L4.84082 34.8652ZM16.3467 29.9092L19.959 47.9668L38.918 54.2871L54.3311 38.873L51.6191 18.0762L31.7812 13.5674L16.3467 29.9092ZM92.9824 20.0264H89.8955L94.3672 38.8086L104.928 50.249C104.325 38.6775 99.938 28.1085 92.9824 19.7529V20.0264ZM52.6113 17.9541L55.3174 38.7012L77.1436 47.7949L93.3379 38.7988L88.8301 19.8691L68.8057 9.85645L52.6113 17.9541ZM33.8828 4.62598C20.5456 9.90113 9.91092 20.533 4.63184 33.8682L15.5156 29.333L31.1748 12.7529L33.8828 4.62598ZM69.1357 8.90332L89.3809 19.0264H92.3672C85.1405 10.6598 75.2926 4.62014 64.0986 2.18652L69.1357 8.90332ZM53 1C46.329 1 39.9514 2.25619 34.0908 4.54492L34.4033 4.64844L34.8779 4.80664L32.2617 12.6514L52.0059 17.1387L68.0469 9.11816L62.8281 2.15918L63.0713 1.97559C59.813 1.33612 56.4457 1 53 1Z"/>
</mask>
<path d="M49.5781 76.7041L49.4201 75.7167L48.9804 75.787L48.7385 76.1609L49.5781 76.7041ZM39.666 92.0244L38.8264 91.4812L38.4385 92.0808L38.8797 92.6423L39.666 92.0244ZM49.6738 104.761L50.2878 105.55L51.081 104.933L50.4601 104.143L49.6738 104.761ZM49.5156 104.884L48.9017 104.094L46.827 105.708L49.4496 105.882L49.5156 104.884ZM79.8193 97.5576L80.3358 98.4139L81.8938 97.4742L80.2654 96.6626L79.8193 97.5576ZM79.5176 97.4072L78.6231 96.96L78.1754 97.8556L79.0715 98.3022L79.5176 97.4072ZM85.8525 84.7363L86.747 85.1835L87.0942 84.4891L86.5074 83.9806L85.8525 84.7363ZM72.373 73.0557L73.0279 72.2999L72.6755 71.9945L72.215 72.0682L72.373 73.0557ZM20.0264 92.9824V93.9824H21.0264V92.9824H20.0264ZM19.7529 92.9824V91.9824H16.9886L19.1131 93.751L19.7529 92.9824ZM48.4336 104.802L48.3469 105.798L50.6453 105.998L49.2199 104.184L48.4336 104.802ZM38.7744 92.5088L39.5607 91.891L39.3294 91.5965L38.9616 91.5265L38.7744 92.5088ZM20.0264 88.9365L20.2135 87.9542L19.0264 87.728V88.9365H20.0264ZM86.8369 85.0029L86.4523 84.0798L86.1089 84.2229L85.9425 84.5557L86.8369 85.0029ZM80.8926 96.8926L79.9981 96.4454L78.3828 99.6764L81.4297 97.7361L80.8926 96.8926ZM96.96 80.7852L97.8048 81.3202L99.5002 78.6434L96.5754 79.8621L96.96 80.7852ZM1.41309 59.5879L2.02701 58.7985L0.117578 57.3135L0.420983 59.7133L1.41309 59.5879ZM19.0264 92.3672L18.3727 93.124L20.0264 94.5523V92.3672H19.0264ZM19.0264 88.4385H20.0264V88.2282L19.9417 88.0357L19.0264 88.4385ZM8.8916 65.4043L9.80692 65.0016L9.7051 64.7701L9.50553 64.6149L8.8916 65.4043ZM9.86035 65.125L9.00707 64.6035L8.73458 65.0494L8.94503 65.5277L9.86035 65.125ZM19.877 87.8906L18.9616 88.2934L19.1734 88.7746L19.6898 88.873L19.877 87.8906ZM38.8145 91.498L38.6273 92.4804L39.2884 92.6063L39.654 92.0413L38.8145 91.498ZM48.708 76.208L49.5476 76.7513L49.8516 76.2814L49.6101 75.7765L48.708 76.208ZM38.6924 55.2666L39.5945 54.8351L39.4114 54.4522L39.0086 54.3179L38.6924 55.2666ZM19.7451 48.9502L20.0614 48.0015L19.3067 47.7499L18.8918 48.4287L19.7451 48.9502ZM77.6211 48.6738L77.1355 47.7997L76.7272 48.0264L76.6391 48.485L77.6211 48.6738ZM73.0713 72.3369L72.0893 72.1481L71.9803 72.7147L72.4163 73.0926L73.0713 72.3369ZM86.5664 84.0332L85.9115 84.7889L86.3794 85.1944L86.951 84.9563L86.5664 84.0332ZM97.4395 79.5029L98.3627 79.1187L97.9783 78.1951L97.0548 78.5798L97.4395 79.5029ZM97.5654 79.8057L96.6422 80.1899L97.4015 82.0146L98.4219 80.3219L97.5654 79.8057ZM104.969 51.2324L105.968 51.199L105.895 49.0106L104.289 50.499L104.969 51.2324ZM104.702 51.4795L103.966 52.1562L104.645 52.8955L105.382 52.213L104.702 51.4795ZM104.425 51.1777L105.161 50.501L105.16 50.4994L104.425 51.1777ZM93.8105 39.6797L94.5453 39.0014L94.0121 38.4238L93.3249 38.8055L93.8105 39.6797ZM39.6562 54.9619L38.9491 54.2548L38.4489 54.7551L38.7541 55.3934L39.6562 54.9619ZM49.5703 75.6924L48.6682 76.1238L48.9905 76.7979L49.7283 76.6798L49.5703 75.6924ZM72.1006 72.0869L72.2586 73.0743L72.9503 72.9637L73.0826 72.2758L72.1006 72.0869ZM76.6074 48.6553L77.5894 48.8442L77.7431 48.0451L76.992 47.7322L76.6074 48.6553ZM54.9756 39.6426L55.3602 38.7195L54.742 38.4619L54.2685 38.9355L54.9756 39.6426ZM4.84082 34.8652L3.91699 35.248L4.30057 36.1737L5.22548 35.7883L4.84082 34.8652ZM4.64941 34.4033L5.57325 34.0205L5.57201 34.0176L4.64941 34.4033ZM4.53223 34.123L5.45483 33.7373L4.49967 31.4529L3.6005 33.7599L4.53223 34.123ZM1.25684 58.1992L0.261727 58.298L0.304123 58.7251L0.642889 58.9886L1.25684 58.1992ZM9.16309 64.3486L8.54914 65.138L9.43271 65.8252L10.0164 64.8701L9.16309 64.3486ZM18.9971 48.2559L19.8504 48.7773L20.0544 48.4434L19.9776 48.0597L18.9971 48.2559ZM15.4355 30.4502L16.4161 30.2541L16.1769 29.0579L15.0509 29.5271L15.4355 30.4502ZM16.3467 29.9092L15.6197 29.2225L15.2647 29.5984L15.3661 30.1053L16.3467 29.9092ZM19.959 47.9668L18.9784 48.163L19.0922 48.732L19.6427 48.9155L19.959 47.9668ZM38.918 54.2871L38.6017 55.2358L39.1881 55.4313L39.6251 54.9942L38.918 54.2871ZM54.3311 38.873L55.0382 39.5801L55.3863 39.232L55.3227 38.7437L54.3311 38.873ZM51.6191 18.0762L52.6107 17.9469L52.5206 17.2556L51.8408 17.101L51.6191 18.0762ZM31.7812 13.5674L32.0029 12.5923L31.4462 12.4657L31.0543 12.8807L31.7812 13.5674ZM92.9824 20.0264V21.0264H93.9824V20.0264H92.9824ZM89.8955 20.0264V19.0264H88.6295L88.9227 20.258L89.8955 20.0264ZM94.3672 38.8086L93.3944 39.0402L93.455 39.2947L93.6324 39.4869L94.3672 38.8086ZM104.928 50.249L104.193 50.9273L106.07 52.9613L105.926 50.197L104.928 50.249ZM92.9824 19.7529L93.751 19.1131L91.9824 16.9886V19.7529H92.9824ZM52.6113 17.9541L52.1641 17.0597L51.5277 17.3779L51.6197 18.0834L52.6113 17.9541ZM55.3174 38.7012L54.3258 38.8305L54.4004 39.4024L54.9328 39.6243L55.3174 38.7012ZM77.1436 47.7949L76.759 48.718L77.2059 48.9042L77.6292 48.6691L77.1436 47.7949ZM93.3379 38.7988L93.8235 39.673L94.4863 39.3048L94.3107 38.5672L93.3379 38.7988ZM88.8301 19.8691L89.8029 19.6375L89.6948 19.1835L89.2773 18.9747L88.8301 19.8691ZM68.8057 9.85645L69.2529 8.96203L68.8057 8.7384L68.3584 8.96203L68.8057 9.85645ZM33.8828 4.62598L34.8315 4.9421L35.5096 2.90717L33.515 3.69607L33.8828 4.62598ZM4.63184 33.8682L3.70204 33.5001L2.83028 35.7022L5.01647 34.7912L4.63184 33.8682ZM15.5156 29.333L15.9003 30.2561L16.0966 30.1743L16.2426 30.0196L15.5156 29.333ZM31.1748 12.7529L31.9018 13.4396L32.0536 13.2788L32.1235 13.0691L31.1748 12.7529ZM69.1357 8.90332L68.3357 9.50328L68.4774 9.69216L68.6885 9.79774L69.1357 8.90332ZM89.3809 19.0264L88.9336 19.9208L89.1448 20.0264H89.3809V19.0264ZM92.3672 19.0264V20.0264H94.5523L93.124 18.3727L92.3672 19.0264ZM64.0986 2.18652L64.3111 1.20935L61.6882 0.639134L63.2986 2.78649L64.0986 2.18652ZM34.0908 4.54492L33.727 3.61344L31.144 4.62221L33.7764 5.4942L34.0908 4.54492ZM34.4033 4.64844L34.7195 3.69975L34.7178 3.69916L34.4033 4.64844ZM34.8779 4.80664L35.8266 5.12301L36.143 4.17423L35.1942 3.85796L34.8779 4.80664ZM32.2617 12.6514L31.3131 12.335L30.9639 13.3819L32.0401 13.6265L32.2617 12.6514ZM52.0059 17.1387L51.7842 18.1138L52.1331 18.1931L52.4531 18.0331L52.0059 17.1387ZM68.0469 9.11816L68.4941 10.0126L69.5658 9.47676L68.8469 8.5182L68.0469 9.11816ZM62.8281 2.15918L62.2256 1.36111L61.4301 1.96171L62.0281 2.75914L62.8281 2.15918ZM63.0713 1.97559L63.6739 2.77366L65.4598 1.42526L63.2639 0.994305L63.0713 1.97559ZM53 0V1C81.7188 1 105 24.2812 105 53H106H107C107 23.1766 82.8234 -1 53 -1V0ZM106 53H105C105 81.7188 81.7188 105 53 105V106V107C82.8234 107 107 82.8234 107 53H106ZM53 106V105C24.2812 105 1 81.7188 1 53H0H-1C-1 82.8234 23.1766 107 53 107V106ZM0 53H1C1 24.2812 24.2812 1 53 1V0V-1C23.1766 -1 -1 23.1766 -1 53H0ZM49.5781 76.7041L48.7385 76.1609L38.8264 91.4812L39.666 92.0244L40.5056 92.5676L50.4177 77.2473L49.5781 76.7041ZM39.666 92.0244L38.8797 92.6423L48.8875 105.379L49.6738 104.761L50.4601 104.143L40.4523 91.4066L39.666 92.0244ZM49.6738 104.761L49.0599 103.971L48.9017 104.094L49.5156 104.884L50.1296 105.673L50.2878 105.55L49.6738 104.761ZM49.5156 104.884L49.4496 105.882C50.6224 105.959 51.8063 106 53 106V105V104C51.8519 104 50.7121 103.961 49.5816 103.886L49.5156 104.884ZM53 105V106C62.9992 106 72.3536 103.229 80.3358 98.4139L79.8193 97.5576L79.3028 96.7013C71.6234 101.334 62.6248 104 53 104V105ZM79.8193 97.5576L80.2654 96.6626L79.9636 96.5122L79.5176 97.4072L79.0715 98.3022L79.3733 98.4526L79.8193 97.5576ZM79.5176 97.4072L80.412 97.8544L86.747 85.1835L85.8525 84.7363L84.9581 84.2891L78.6231 96.96L79.5176 97.4072ZM85.8525 84.7363L86.5074 83.9806L73.0279 72.2999L72.373 73.0557L71.7182 73.8114L85.1977 85.4921L85.8525 84.7363ZM72.373 73.0557L72.215 72.0682L49.4201 75.7167L49.5781 76.7041L49.7362 77.6915L72.5311 74.0431L72.373 73.0557ZM20.0264 92.9824V91.9824H19.7529V92.9824V93.9824H20.0264V92.9824ZM19.7529 92.9824L19.1131 93.751C27.1812 100.467 37.2762 104.835 48.3469 105.798L48.4336 104.802L48.5203 103.806C37.8696 102.879 28.1577 98.6779 20.3927 92.2139L19.7529 92.9824ZM48.4336 104.802L49.2199 104.184L39.5607 91.891L38.7744 92.5088L37.9881 93.1266L47.6473 105.42L48.4336 104.802ZM38.7744 92.5088L38.9616 91.5265L20.2135 87.9542L20.0264 88.9365L19.8392 89.9189L38.5872 93.4911L38.7744 92.5088ZM20.0264 88.9365H19.0264V92.9824H20.0264H21.0264V88.9365H20.0264ZM86.8369 85.0029L85.9425 84.5557L79.9981 96.4454L80.8926 96.8926L81.787 97.3398L87.7314 85.4501L86.8369 85.0029ZM80.8926 96.8926L81.4297 97.7361C88.022 93.5381 93.6225 87.9233 97.8048 81.3202L96.96 80.7852L96.1152 80.2501C92.0901 86.6049 86.6997 92.0091 80.3554 96.0491L80.8926 96.8926ZM96.96 80.7852L96.5754 79.8621L86.4523 84.0798L86.8369 85.0029L87.2215 85.926L97.3446 81.7082L96.96 80.7852ZM1.41309 59.5879L0.420983 59.7133C2.10323 73.0194 8.71886 84.7853 18.3727 93.124L19.0264 92.3672L19.68 91.6104C10.3869 83.5834 4.02335 72.2617 2.40519 59.4625L1.41309 59.5879ZM19.0264 92.3672H20.0264V88.4385H19.0264H18.0264V92.3672H19.0264ZM19.0264 88.4385L19.9417 88.0357L9.80692 65.0016L8.8916 65.4043L7.97628 65.807L18.111 88.8412L19.0264 88.4385ZM8.8916 65.4043L9.50553 64.6149L2.02701 58.7985L1.41309 59.5879L0.79916 60.3773L8.27768 66.1937L8.8916 65.4043ZM9.86035 65.125L8.94503 65.5277L18.9616 88.2934L19.877 87.8906L20.7923 87.4879L10.7757 64.7223L9.86035 65.125ZM19.877 87.8906L19.6898 88.873L38.6273 92.4804L38.8145 91.498L39.0016 90.5157L20.0641 86.9083L19.877 87.8906ZM38.8145 91.498L39.654 92.0413L49.5476 76.7513L48.708 76.208L47.8684 75.6648L37.9749 90.9548L38.8145 91.498ZM48.708 76.208L49.6101 75.7765L39.5945 54.8351L38.6924 55.2666L37.7903 55.6981L47.8059 76.6395L48.708 76.208ZM38.6924 55.2666L39.0086 54.3179L20.0614 48.0015L19.7451 48.9502L19.4289 49.8989L38.3761 56.2153L38.6924 55.2666ZM19.7451 48.9502L18.8918 48.4287L9.00707 64.6035L9.86035 65.125L10.7136 65.6465L20.5984 49.4717L19.7451 48.9502ZM77.6211 48.6738L76.6391 48.485L72.0893 72.1481L73.0713 72.3369L74.0533 72.5257L78.6031 48.8626L77.6211 48.6738ZM73.0713 72.3369L72.4163 73.0926L85.9115 84.7889L86.5664 84.0332L87.2214 83.2775L73.7262 71.5812L73.0713 72.3369ZM86.5664 84.0332L86.951 84.9563L97.8241 80.426L97.4395 79.5029L97.0548 78.5798L86.1818 83.1101L86.5664 84.0332ZM97.4395 79.5029L96.5162 79.8871L96.6422 80.1899L97.5654 79.8057L98.4887 79.4215L98.3627 79.1187L97.4395 79.5029ZM97.5654 79.8057L98.4219 80.3219C103.232 72.3426 106 62.9934 106 53H105H104C104 62.6192 101.336 71.6128 96.709 79.2894L97.5654 79.8057ZM105 53H106C106 52.3954 105.988 51.7949 105.968 51.199L104.969 51.2324L103.969 51.2658C103.989 51.8436 104 52.4215 104 53H105ZM104.969 51.2324L104.289 50.499L104.022 50.746L104.702 51.4795L105.382 52.213L105.648 51.9659L104.969 51.2324ZM104.702 51.4795L105.438 50.8028L105.161 50.501L104.425 51.1777L103.689 51.8544L103.966 52.1562L104.702 51.4795ZM104.425 51.1777L105.16 50.4994L94.5453 39.0014L93.8105 39.6797L93.0758 40.358L103.69 51.856L104.425 51.1777ZM93.8105 39.6797L93.3249 38.8055L77.1355 47.7997L77.6211 48.6738L78.1067 49.548L94.2962 40.5538L93.8105 39.6797ZM39.6562 54.9619L38.7541 55.3934L48.6682 76.1238L49.5703 75.6924L50.4725 75.2609L40.5584 54.5305L39.6562 54.9619ZM49.5703 75.6924L49.7283 76.6798L72.2586 73.0743L72.1006 72.0869L71.9426 71.0995L49.4123 74.7049L49.5703 75.6924ZM72.1006 72.0869L73.0826 72.2758L77.5894 48.8442L76.6074 48.6553L75.6254 48.4664L71.1186 71.898L72.1006 72.0869ZM76.6074 48.6553L76.992 47.7322L55.3602 38.7195L54.9756 39.6426L54.591 40.5657L76.2228 49.5784L76.6074 48.6553ZM54.9756 39.6426L54.2685 38.9355L38.9491 54.2548L39.6562 54.9619L40.3634 55.669L55.6827 40.3497L54.9756 39.6426ZM4.84082 34.8652L5.76465 34.4824L5.57324 34.0205L4.64941 34.4033L3.72559 34.7861L3.91699 35.248L4.84082 34.8652ZM4.64941 34.4033L5.57201 34.0176L5.45483 33.7373L4.53223 34.123L3.60963 34.5088L3.72681 34.7891L4.64941 34.4033ZM4.53223 34.123L3.6005 33.7599C1.27535 39.7255 0 46.215 0 53H1H2C2 46.4674 3.2276 40.224 5.46396 34.4862L4.53223 34.123ZM1 53H0C0 54.7878 0.0887196 56.5552 0.261727 58.298L1.25684 58.1992L2.25194 58.1004C2.08543 56.4231 2 54.7216 2 53H1ZM1.25684 58.1992L0.642889 58.9886L8.54914 65.138L9.16309 64.3486L9.77703 63.5593L1.87078 57.4099L1.25684 58.1992ZM9.16309 64.3486L10.0164 64.8701L19.8504 48.7773L18.9971 48.2559L18.1438 47.7344L8.30979 63.8272L9.16309 64.3486ZM18.9971 48.2559L19.9776 48.0597L16.4161 30.2541L15.4355 30.4502L14.455 30.6463L18.0165 48.452L18.9971 48.2559ZM15.4355 30.4502L15.0509 29.5271L4.45616 33.9422L4.84082 34.8652L5.22548 35.7883L15.8202 31.3733L15.4355 30.4502ZM16.3467 29.9092L15.3661 30.1053L18.9784 48.163L19.959 47.9668L20.9396 47.7706L17.3273 29.713L16.3467 29.9092ZM19.959 47.9668L19.6427 48.9155L38.6017 55.2358L38.918 54.2871L39.2342 53.3384L20.2752 47.0181L19.959 47.9668ZM38.918 54.2871L39.6251 54.9942L55.0382 39.5801L54.3311 38.873L53.6239 38.166L38.2108 53.58L38.918 54.2871ZM54.3311 38.873L55.3227 38.7437L52.6107 17.9469L51.6191 18.0762L50.6275 18.2055L53.3395 39.0024L54.3311 38.873ZM51.6191 18.0762L51.8408 17.101L32.0029 12.5923L31.7812 13.5674L31.5596 14.5425L51.3975 19.0513L51.6191 18.0762ZM31.7812 13.5674L31.0543 12.8807L15.6197 29.2225L16.3467 29.9092L17.0737 30.5958L32.5082 14.254L31.7812 13.5674ZM92.9824 20.0264V19.0264H89.8955V20.0264V21.0264H92.9824V20.0264ZM89.8955 20.0264L88.9227 20.258L93.3944 39.0402L94.3672 38.8086L95.34 38.577L90.8683 19.7948L89.8955 20.0264ZM94.3672 38.8086L93.6324 39.4869L104.193 50.9273L104.928 50.249L105.663 49.5707L95.102 38.1303L94.3672 38.8086ZM104.928 50.249L105.926 50.197C105.312 38.4024 100.84 27.6288 93.751 19.1131L92.9824 19.7529L92.2139 20.3927C99.0362 28.5882 103.338 38.9527 103.929 50.3011L104.928 50.249ZM92.9824 19.7529H91.9824V20.0264H92.9824H93.9824V19.7529H92.9824ZM52.6113 17.9541L51.6197 18.0834L54.3258 38.8305L55.3174 38.7012L56.309 38.5718L53.6029 17.8248L52.6113 17.9541ZM55.3174 38.7012L54.9328 39.6243L76.759 48.718L77.1436 47.7949L77.5282 46.8718L55.702 37.7781L55.3174 38.7012ZM77.1436 47.7949L77.6292 48.6691L93.8235 39.673L93.3379 38.7988L92.8523 37.9247L76.6579 46.9207L77.1436 47.7949ZM93.3379 38.7988L94.3107 38.5672L89.8029 19.6375L88.8301 19.8691L87.8573 20.1008L92.3651 39.0305L93.3379 38.7988ZM88.8301 19.8691L89.2773 18.9747L69.2529 8.96203L68.8057 9.85645L68.3584 10.7509L88.3829 20.7636L88.8301 19.8691ZM68.8057 9.85645L68.3584 8.96203L52.1641 17.0597L52.6113 17.9541L53.0586 18.8485L69.2529 10.7509L68.8057 9.85645ZM33.8828 4.62598L33.515 3.69607C19.9209 9.07283 9.08281 19.908 3.70204 33.5001L4.63184 33.8682L5.56163 34.2362C10.739 21.1579 21.1703 10.7294 34.2506 5.55588L33.8828 4.62598ZM4.63184 33.8682L5.01647 34.7912L15.9003 30.2561L15.5156 29.333L15.131 28.4099L4.2472 32.9451L4.63184 33.8682ZM15.5156 29.333L16.2426 30.0196L31.9018 13.4396L31.1748 12.7529L30.4478 12.0663L14.7886 28.6464L15.5156 29.333ZM31.1748 12.7529L32.1235 13.0691L34.8315 4.9421L33.8828 4.62598L32.9341 4.30985L30.2261 12.4368L31.1748 12.7529ZM69.1357 8.90332L68.6885 9.79774L88.9336 19.9208L89.3809 19.0264L89.8281 18.1319L69.583 8.0089L69.1357 8.90332ZM89.3809 19.0264V20.0264H92.3672V19.0264V18.0264H89.3809V19.0264ZM92.3672 19.0264L93.124 18.3727C85.7597 9.84689 75.7227 3.69029 64.3111 1.20935L64.0986 2.18652L63.8862 3.1637C74.8624 5.54999 84.5212 11.4727 91.6104 19.68L92.3672 19.0264ZM64.0986 2.18652L63.2986 2.78649L68.3357 9.50328L69.1357 8.90332L69.9358 8.30336L64.8987 1.58656L64.0986 2.18652ZM53 1V0C46.2025 0 39.7017 1.28015 33.727 3.61344L34.0908 4.54492L34.4546 5.47641C40.2011 3.23222 46.4555 2 53 2V1ZM34.0908 4.54492L33.7764 5.4942L34.0889 5.59771L34.4033 4.64844L34.7178 3.69916L34.4053 3.59565L34.0908 4.54492ZM34.4033 4.64844L34.0871 5.59712L34.5617 5.75532L34.8779 4.80664L35.1942 3.85796L34.7195 3.69975L34.4033 4.64844ZM34.8779 4.80664L33.9293 4.49027L31.3131 12.335L32.2617 12.6514L33.2104 12.9677L35.8266 5.12301L34.8779 4.80664ZM32.2617 12.6514L32.0401 13.6265L51.7842 18.1138L52.0059 17.1387L52.2275 16.1635L32.4833 11.6762L32.2617 12.6514ZM52.0059 17.1387L52.4531 18.0331L68.4941 10.0126L68.0469 9.11816L67.5997 8.22374L51.5586 16.2442L52.0059 17.1387ZM68.0469 9.11816L68.8469 8.5182L63.6282 1.55922L62.8281 2.15918L62.0281 2.75914L67.2468 9.71813L68.0469 9.11816ZM62.8281 2.15918L63.4307 2.95725L63.6739 2.77366L63.0713 1.97559L62.4687 1.17751L62.2256 1.36111L62.8281 2.15918ZM63.0713 1.97559L63.2639 0.994305C59.9426 0.342492 56.5109 0 53 0V1V2C56.3805 2 59.6833 2.32975 62.8787 2.95687L63.0713 1.97559Z" fill="#231A11" fill-opacity="0.2" mask="url(#path-1-inside-1_84_381)"/>
</svg>
