<svg width="263" height="192" viewBox="0 0 263 192" fill="none" xmlns="http://www.w3.org/2000/svg">
<path fill-rule="evenodd" clip-rule="evenodd" d="M102.464 5.00694C109.711 0.416923 120.29 -0.41071 129.34 0.157331C134.913 0.506546 140.963 2.28191 146.102 4.47862C150.907 6.53254 154.982 8.9831 157.137 11.0353L157.544 11.4415C158.455 12.4059 159.367 13.5922 159.586 15.0372H159.585C159.744 16.0715 159.51 17.0995 159.291 17.9884C157.198 26.5436 153.581 34.8465 147.931 41.6524V41.6534C145.026 45.1507 141.54 48.2295 137.671 50.6251L137.666 50.6183C136.696 51.3182 135.427 52.0267 134.378 52.545C132.502 53.4697 130.552 54.1938 128.575 54.8224L128.569 54.8243C126.914 55.326 124.824 56.1418 122.587 55.4054L122.557 55.3956C122.196 55.251 121.878 55.0585 121.59 54.8409C121.456 58.9411 121.603 62.5477 121.991 65.6769C122.039 65.6164 122.09 65.5583 122.136 65.4972L122.5 65.0177L122.904 65.462C125.486 68.2945 127.634 71.5228 129.242 75.0148L129.244 75.0187C129.519 75.6327 129.871 76.417 129.779 77.2599C129.699 78.0884 129.209 78.7817 128.834 79.3194L128.83 79.3243C128.616 79.6217 128.395 79.9186 128.174 80.214C128.223 80.257 128.27 80.3012 128.318 80.3419C131.832 83.1086 137.89 88.0013 144.05 89.3224C155.638 91.8055 168.408 92.031 181.464 91.8458C194.5 91.6609 207.835 91.0651 220.471 91.9249H220.472C225.225 92.251 230.145 92.5188 234.728 94.1105L235.171 94.2687L235.173 94.2696C235.669 94.4546 236.159 94.6519 236.641 94.8683C243.14 92.1479 248.421 86.5341 250.563 79.8185V79.8175C253.084 71.9363 251.223 62.7973 245.812 56.5333V56.5323C245.329 55.9727 244.814 55.4249 244.291 54.8634C243.77 54.3051 243.243 53.7342 242.749 53.1417C241.761 51.9568 240.884 50.6561 240.433 49.1183L240.431 49.1134C240.281 48.5787 240.168 47.9315 240.304 47.3067C240.448 46.6492 240.858 46.0659 241.642 45.6817L241.643 45.6808C242.74 45.1482 244.007 45.3495 244.97 45.9864C249.603 49.0416 254.621 52.165 258.005 56.7579L258.327 57.2062V57.2071C261.802 62.1932 262.917 68.2669 262.668 74.337C262.418 80.408 260.801 86.5134 258.771 91.6085C256.935 96.2308 254.013 100.384 250.147 103.548C249.635 103.968 249.046 104.405 248.404 104.739C250.798 108.131 252.587 111.982 253.668 115.966L253.786 116.416C254.975 121.109 255.151 127.067 254.753 132.991C254.341 139.115 253.313 145.245 252.123 149.98V149.981C251.417 152.782 250.557 155.525 249.704 158.237C248.849 160.954 248 163.639 247.305 166.345C245.96 171.583 245.202 176.867 246.109 182.503L246.202 183.05L246.24 183.301C246.39 184.541 245.973 185.59 245.163 186.439C244.319 187.323 243.058 187.98 241.601 188.469C238.808 189.406 235.112 189.779 231.653 189.81L231.654 189.813C226.94 189.911 224.134 189.523 222.491 189.097C221.669 188.883 221.132 188.658 220.79 188.477C220.657 188.406 220.555 188.34 220.475 188.285C217.458 188.65 214.515 188.913 211.239 188.693L211.241 188.661C209.685 188.549 207.778 188.201 206.66 187.97V187.969C205.492 187.737 204.4 187.051 203.836 185.943C203.515 185.333 203.388 184.636 203.513 183.945L203.514 183.942C203.737 182.767 204.643 181.904 205.35 181.184C206.116 180.404 206.682 179.769 206.744 178.966C206.784 178.337 206.501 177.706 206.163 176.962V176.961C204.312 172.943 202.966 168.707 202.074 164.385C176.072 167.98 149.835 167.551 124.274 163.161C124.187 170.644 123.896 177.872 123.006 185.032V185.033C122.864 186.162 122.675 187.487 121.912 188.529L121.911 188.528C120.809 190.041 118.844 190.516 117.223 190.788C117.221 190.789 117.217 190.79 117.213 190.791C117.203 190.793 117.189 190.796 117.172 190.8C117.137 190.808 117.085 190.819 117.017 190.832C116.881 190.859 116.676 190.898 116.401 190.942C115.851 191.032 115.017 191.148 113.87 191.259C111.574 191.48 108.022 191.679 102.974 191.594C97.8457 191.508 95.2177 189.968 93.8883 188.337C93.2298 187.529 92.911 186.722 92.7575 186.113C92.6809 185.81 92.6459 185.554 92.6296 185.371C92.6214 185.28 92.6172 185.205 92.6159 185.152C92.6153 185.129 92.6158 185.109 92.6159 185.094L92.6139 184.904C92.6259 183.968 92.9817 183.14 93.4079 182.393C93.6349 181.994 93.892 181.603 94.1354 181.228C94.3806 180.849 94.6138 180.482 94.8171 180.11C95.0521 179.663 95.1792 179.165 95.2028 178.649C95.2612 176.969 95.3819 172.734 95.3122 168.033C95.2468 163.622 95.0144 158.834 94.4167 155.363L93.113 162.197L93.111 162.207L93.109 162.216C92.6867 164.048 92.2676 165.885 91.8483 167.721C91.4291 169.557 91.0102 171.394 90.5876 173.228C89.9597 175.962 89.1714 178.683 88.0641 181.28L88.0631 181.281C87.5707 182.426 86.9386 183.567 85.9655 184.456L85.9645 184.457C84.3317 185.943 82.0908 186.42 80.0075 186.672L79.1256 186.769C77.4126 186.939 75.683 187.056 73.9391 187.096L73.9381 187.095C70.9555 187.252 68.1964 186.796 66.1872 186.302C65.1796 186.054 64.3564 185.795 63.7838 185.599C63.4978 185.5 63.2732 185.417 63.1198 185.359C63.0435 185.329 62.9844 185.305 62.944 185.289C62.9241 185.281 62.9079 185.275 62.8971 185.271C62.8919 185.268 62.8874 185.266 62.8844 185.265C62.8832 185.264 62.8814 185.264 62.8805 185.264L62.8796 185.263C62.8811 185.259 62.898 185.218 63.0729 184.802L62.8786 185.263L62.8708 185.26V185.259C61.9805 184.866 60.951 184.321 60.3698 183.358L60.3688 183.356C59.6528 182.157 59.8478 180.848 60.4079 179.708C60.9661 178.573 61.9156 177.533 62.8629 176.769L62.8649 176.768C63.5422 176.226 64.1366 175.77 64.4811 175.148C64.7749 174.6 64.8484 173.951 64.9284 173.204C67.156 152.288 69.3668 131.335 69.6022 110.334C69.5207 110.255 69.448 110.168 69.3805 110.078L69.3727 110.067C66.9728 108.259 65.2576 105.658 64.0348 102.965V102.964C63.1488 101.005 62.4882 98.9537 61.8385 96.9405C52.4624 96.2689 43.2133 97.41 34.0797 98.1173C25.1491 98.8088 16.3445 99.0818 7.79361 96.7628L6.96744 96.5304C5.46851 96.0926 3.84923 95.4315 2.55045 94.4698C1.24845 93.5057 0.229475 92.208 0.0328718 90.505C-0.134139 89.0526 0.35294 87.7277 1.09244 86.5577C1.82939 85.3919 2.84124 84.3402 3.77994 83.421C7.06256 80.2034 10.3488 76.9886 13.6344 73.7745C16.9201 70.5604 20.2058 67.3462 23.4879 64.129C27.792 59.9162 32.1363 55.5852 34.1452 50.0675C34.8306 48.1761 35.2243 46.1953 35.5378 44.1642C35.8477 42.1556 36.0856 40.044 36.4499 38.0079C36.5896 37.2306 36.7528 36.4581 36.9352 35.6905C31.8825 42.9998 28.67 48.8986 26.9909 52.2804L26.9899 52.2823C26.0891 54.0835 23.5823 54.3684 22.3493 52.7511V52.7521C12.4468 39.7802 8.69224 19.7562 7.36588 9.69151V9.69053C6.86338 5.82182 9.54461 2.24364 13.404 1.67003L14.6208 1.4962C27.13 -0.194911 37.6532 1.21382 45.1188 3.08214C48.9717 4.04637 52.012 5.13287 54.0915 5.98057C55.1311 6.40439 55.9316 6.76935 56.4733 7.02842C56.7242 7.14841 56.9199 7.24609 57.0583 7.31651C58.4344 6.42988 59.8589 5.61699 61.3288 4.88878L61.3297 4.8878C64.026 3.55939 66.8531 2.52094 69.7565 1.75889L70.7829 1.5001C81.0782 -0.974021 92.2396 0.0838378 101.803 4.67979L102.464 5.00694ZM244.42 46.8214C243.694 46.3412 242.803 46.2306 242.081 46.5812L242.08 46.5802C241.565 46.8328 241.358 47.1671 241.281 47.5196C241.197 47.9053 241.259 48.3629 241.394 48.8419C241.789 50.1882 242.568 51.3636 243.516 52.5011C243.991 53.0701 244.502 53.6227 245.023 54.1817C245.541 54.7374 246.071 55.3016 246.569 55.879C252.032 62.2029 254.018 71.3188 251.749 79.3487L251.516 80.1222C249.26 87.1968 243.678 93.0799 236.825 95.8771L236.623 95.9591L236.425 95.8673C235.908 95.6274 235.375 95.4108 234.825 95.2062V95.2071C230.278 93.534 225.351 93.2623 220.404 92.923C207.821 92.0668 194.557 92.6602 181.477 92.8458C168.416 93.0311 155.549 92.8086 143.841 90.2999C137.4 88.9187 131.142 83.8386 127.685 81.1173L127.672 81.1056C127.638 81.0771 127.605 81.0471 127.572 81.0177C118.473 93.1677 106.079 102.825 92.0592 108.64L92.0602 108.641C88.8009 110 84.8527 110.499 80.9255 110.674C80.9085 110.687 80.8917 110.7 80.8747 110.713C80.8182 110.756 80.7614 110.799 80.7038 110.841C80.3831 111.077 80.038 111.307 79.651 111.5L79.6501 111.499C76.7956 112.938 73.3132 112.483 70.5944 110.926C70.3246 131.787 68.1299 152.594 65.9235 173.311V173.312C65.8478 174.018 65.7647 174.875 65.359 175.627L65.3561 175.632C64.8952 176.465 64.1121 177.048 63.4899 177.546L63.4909 177.547C62.6184 178.251 61.7806 179.183 61.3053 180.15C60.8323 181.112 60.7473 182.038 61.2262 182.841L61.3063 182.964C61.7272 183.568 62.447 183.979 63.2663 184.341L63.2692 184.342C63.2711 184.343 63.2742 184.344 63.278 184.346C63.2864 184.349 63.2998 184.354 63.3171 184.361C63.3527 184.376 63.4079 184.398 63.4792 184.425C63.6139 184.477 63.8109 184.549 64.0622 184.636C64.7232 181.944 66.0667 180.368 67.2926 179.465C67.9238 179 68.5168 178.718 68.9557 178.552C69.1752 178.469 69.3582 178.413 69.488 178.379C69.5525 178.362 69.6051 178.35 69.6423 178.342C69.6606 178.338 69.6762 178.335 69.6872 178.333C69.6924 178.332 69.6974 178.331 69.7008 178.33C69.7024 178.33 69.7046 178.329 69.7057 178.329H69.7077C69.7085 178.332 69.7156 178.367 69.7946 178.821L69.8805 179.314H69.8815C69.881 179.314 69.8792 179.314 69.8776 179.315C69.8731 179.315 69.8643 179.317 69.8532 179.319C69.8298 179.325 69.792 179.333 69.7428 179.346C69.6434 179.372 69.4942 179.417 69.3102 179.486C68.9414 179.626 68.4316 179.868 67.8854 180.271C66.8305 181.048 65.6124 182.445 65.0153 184.944C65.4261 185.068 65.9001 185.201 66.4264 185.33C67.8455 185.679 69.6399 186.006 71.613 186.1C72.2778 183.436 73.6125 181.872 74.8317 180.974C75.4628 180.509 76.0558 180.227 76.4948 180.061C76.7143 179.977 76.8972 179.922 77.027 179.888C77.0915 179.871 77.1441 179.859 77.1813 179.851C77.1997 179.847 77.2152 179.844 77.2262 179.842C77.2315 179.841 77.2364 179.84 77.2399 179.839C77.2415 179.839 77.2435 179.838 77.2448 179.838H77.2467C77.2477 179.842 77.2556 179.882 77.3337 180.33L77.4196 180.822H77.4206C77.4198 180.823 77.4182 180.823 77.4167 180.823C77.4121 180.824 77.4033 180.826 77.3923 180.828C77.3688 180.833 77.3311 180.842 77.2819 180.855C77.1824 180.881 77.0333 180.925 76.8493 180.995C76.4804 181.135 75.9707 181.377 75.4245 181.779C74.4166 182.522 73.2593 183.83 72.6374 186.125C73.0529 186.127 73.475 186.12 73.901 186.097L73.9089 186.096H73.9167C75.6303 186.057 77.3336 185.941 79.026 185.774L79.902 185.677C81.9389 185.428 83.8991 184.984 85.2917 183.717C86.1116 182.968 86.6749 181.977 87.1442 180.886C88.2203 178.362 88.9931 175.702 89.613 173.003L90.8737 167.498C91.2929 165.662 91.7118 163.825 92.1344 161.991L93.8756 152.859C93.8121 152.611 93.7467 152.363 93.6755 152.115L93.6745 152.112C92.1377 146.657 89.1624 141.501 83.9889 133.689L84.4059 133.413L84.8229 133.137C89.9966 140.949 93.0529 146.219 94.6364 151.839L94.8161 152.495C94.9866 153.151 95.1318 153.809 95.2692 154.476L95.2702 154.48C95.9817 158.083 96.2423 163.304 96.3122 168.018C96.3822 172.742 96.2614 176.996 96.2028 178.684V178.689C96.1738 179.34 96.0137 179.985 95.7038 180.575L95.6999 180.582C95.4753 180.994 95.22 181.391 94.9743 181.771C94.7253 182.155 94.4868 182.52 94.277 182.888C93.8574 183.624 93.5885 184.317 93.6159 185.057V185.129C93.6167 185.162 93.6195 185.214 93.6256 185.282C93.6379 185.42 93.665 185.623 93.7272 185.869C93.8516 186.363 94.1133 187.03 94.6637 187.705C95.3988 188.607 96.6887 189.569 98.9674 190.125C98.6175 187.896 99.1339 186.19 99.7936 185.008C100.158 184.355 100.562 183.867 100.878 183.54C101.035 183.377 101.172 183.254 101.271 183.169C101.321 183.127 101.361 183.094 101.39 183.071C101.405 183.06 101.416 183.051 101.424 183.044C101.429 183.041 101.432 183.038 101.435 183.036C101.437 183.035 101.438 183.034 101.439 183.033L101.441 183.032L102.029 183.841H102.03C102.03 183.841 102.028 183.841 102.026 183.843C102.022 183.846 102.016 183.851 102.007 183.859C101.988 183.873 101.958 183.897 101.92 183.93C101.843 183.995 101.73 184.098 101.597 184.235C101.33 184.512 100.981 184.931 100.667 185.495C100.071 186.562 99.5849 188.164 100.019 190.34C100.885 190.484 101.87 190.575 102.991 190.594C105.029 190.628 106.819 190.614 108.378 190.572C108.103 188.252 108.718 186.527 109.453 185.357C109.85 184.724 110.279 184.258 110.611 183.948C110.777 183.794 110.92 183.678 111.023 183.599C111.075 183.559 111.117 183.529 111.147 183.508C111.162 183.497 111.174 183.489 111.183 183.483L111.198 183.473L111.2 183.472V183.471C111.201 183.472 111.216 183.494 111.472 183.891C111.706 184.253 111.738 184.303 111.743 184.31L111.742 184.312C111.738 184.314 111.731 184.32 111.721 184.326C111.702 184.34 111.671 184.362 111.632 184.393C111.551 184.454 111.434 184.549 111.294 184.68C111.013 184.942 110.643 185.342 110.299 185.889C109.666 186.898 109.109 188.423 109.381 190.542C111.185 190.476 112.639 190.372 113.774 190.263C114.901 190.154 115.714 190.041 116.241 189.955C116.504 189.912 116.697 189.876 116.822 189.852C116.884 189.839 116.93 189.83 116.96 189.823C116.974 189.82 116.985 189.818 116.992 189.817C116.994 189.816 116.997 189.815 116.998 189.815H116.999L117.015 189.811L117.032 189.808C118.681 189.533 120.262 189.096 121.104 187.94V187.939C121.692 187.135 121.867 186.068 122.012 184.909C122.919 177.618 123.205 170.242 123.283 162.567L123.289 161.979L123.869 162.079C149.648 166.568 176.129 167.01 202.364 163.338L204.544 163.026C206.529 162.734 208.512 162.414 210.49 162.073C209.586 159.397 209 156.602 208.888 153.777L208.887 153.766V153.765C208.809 148.704 209.202 143.602 210.437 138.66L210.922 138.782L211.407 138.903C210.199 143.734 209.811 148.741 209.887 153.738L209.915 154.282C210.074 156.867 210.64 159.432 211.49 161.908L211.524 161.902L211.666 162.3C212.461 164.532 213.474 166.7 214.666 168.712C216.084 170.857 217.575 172.947 219.384 174.725L219.752 175.077L219.758 175.082L219.764 175.088C220.238 175.562 220.745 175.982 221.257 176.452C221.742 176.899 222.224 177.386 222.514 177.92L222.518 177.927L222.541 177.968C222.553 177.993 222.569 178.03 222.582 178.076C222.585 178.087 222.586 178.099 222.589 178.109L222.647 178.385C222.66 178.455 222.666 178.509 222.673 178.563C222.682 178.644 222.687 178.704 222.719 178.869C222.744 178.981 222.777 179.125 222.794 179.274L222.797 179.301V179.342C222.829 180.023 222.65 180.635 222.393 181.224C222.14 181.802 221.78 182.419 221.452 183.045L221.432 183.082L221.407 183.116C220.953 183.712 220.491 184.526 220.277 185.299C220.058 186.091 220.134 186.685 220.501 187.044L220.516 187.06L220.531 187.076C220.533 187.078 220.54 187.086 220.556 187.1C220.577 187.117 220.604 187.139 220.639 187.166C220.71 187.22 220.8 187.283 220.903 187.354L221.215 187.568C221.23 187.576 221.244 187.586 221.259 187.594C221.52 187.732 221.982 187.931 222.743 188.128C223.257 188.262 223.907 188.392 224.719 188.505C224.732 186.505 225.305 184.956 225.896 183.891C226.207 183.329 226.524 182.902 226.764 182.612C226.885 182.468 226.987 182.356 227.06 182.28C227.097 182.243 227.127 182.213 227.148 182.192C227.159 182.182 227.168 182.174 227.174 182.168C227.178 182.165 227.18 182.162 227.182 182.16C227.183 182.159 227.184 182.159 227.185 182.158L227.186 182.157C227.19 182.161 227.223 182.196 227.523 182.526C227.813 182.846 227.853 182.89 227.858 182.896L227.857 182.898L227.779 182.976C227.721 183.035 227.636 183.128 227.533 183.252C227.326 183.501 227.047 183.877 226.77 184.376C226.236 185.34 225.709 186.764 225.719 188.625C227.122 188.768 228.912 188.852 231.189 188.818V188.813C231.479 188.813 231.771 188.809 232.064 188.804C232.086 186.83 232.655 185.299 233.241 184.242C233.552 183.681 233.868 183.253 234.109 182.964C234.229 182.819 234.331 182.708 234.405 182.632C234.442 182.594 234.471 182.565 234.493 182.544C234.503 182.534 234.513 182.526 234.519 182.52L234.529 182.51L234.531 182.509C234.534 182.512 234.565 182.545 234.868 182.878C235.158 183.197 235.197 183.241 235.203 183.247L235.202 183.249L235.124 183.327C235.066 183.387 234.981 183.479 234.878 183.604C234.671 183.852 234.392 184.228 234.115 184.728C233.6 185.657 233.091 187.013 233.064 188.777C236.027 188.667 238.999 188.287 241.284 187.521C242.67 187.056 243.755 186.464 244.439 185.748C245.103 185.053 245.398 184.236 245.217 183.227L245.122 182.661C244.185 176.836 244.975 171.402 246.338 166.096C247.04 163.359 247.898 160.648 248.751 157.937C249.605 155.221 250.455 152.504 251.153 149.735C252.329 145.058 253.348 138.987 253.756 132.924C254.163 126.853 253.955 120.83 252.703 116.229V116.228C251.6 112.164 249.741 108.243 247.244 104.836L246.86 104.313L247.464 104.074C248.182 103.791 248.876 103.299 249.514 102.775C253.24 99.7263 256.064 95.7153 257.842 91.2384V91.2374C259.842 86.2187 261.424 80.2268 261.669 74.296C261.913 68.3642 260.817 62.5291 257.507 57.7784V57.7794C254.258 53.13 249.258 50.0116 244.421 46.8214H244.42ZM210.869 163.029C208.275 163.478 205.671 163.886 203.067 164.252C203.889 168.208 205.096 172.084 206.726 175.777L207.073 176.546L207.074 176.548C207.385 177.232 207.803 178.108 207.741 179.037V179.042C207.647 180.266 206.782 181.153 206.063 181.885C205.287 182.674 204.653 183.311 204.497 184.123L204.498 184.124C204.426 184.521 204.478 184.932 204.643 185.317L204.721 185.48L204.724 185.485C205.097 186.221 205.825 186.737 206.684 186.95L206.858 186.989L206.863 186.99C206.937 187.006 207.014 187.019 207.094 187.035C207.434 185.719 208.193 184.725 208.884 184.05C209.277 183.667 209.655 183.379 209.935 183.188C210.075 183.092 210.193 183.019 210.276 182.97C210.318 182.945 210.351 182.925 210.375 182.912C210.386 182.906 210.396 182.9 210.403 182.897C210.406 182.895 210.41 182.893 210.412 182.892L210.415 182.891L210.416 182.89L210.882 183.775C210.882 183.775 210.881 183.775 210.88 183.775C210.876 183.777 210.87 183.781 210.862 183.785C210.846 183.794 210.82 183.81 210.787 183.829C210.72 183.869 210.621 183.931 210.5 184.014C210.257 184.18 209.926 184.431 209.583 184.766C208.985 185.349 208.366 186.168 208.079 187.223C209.071 187.402 210.248 187.583 211.261 187.659C211.591 186.304 212.365 185.284 213.07 184.596C213.463 184.213 213.84 183.925 214.121 183.734C214.261 183.638 214.378 183.565 214.462 183.516C214.503 183.491 214.536 183.471 214.56 183.458C214.572 183.452 214.582 183.446 214.589 183.442C214.592 183.441 214.595 183.439 214.597 183.438L214.6 183.437L214.601 183.436L215.068 184.32C215.068 184.321 215.066 184.321 215.065 184.321C215.062 184.323 215.055 184.327 215.048 184.331C215.031 184.34 215.005 184.355 214.972 184.375C214.905 184.415 214.806 184.477 214.685 184.56C214.442 184.726 214.111 184.977 213.768 185.312C213.175 185.89 212.562 186.701 212.271 187.744C214.779 187.842 217.114 187.665 219.506 187.393C219.053 186.687 219.1 185.803 219.313 185.032C219.566 184.12 220.085 183.209 220.585 182.546C220.938 181.876 221.247 181.35 221.477 180.823C221.676 180.37 221.792 179.963 221.8 179.548L221.798 179.369C221.787 179.288 221.768 179.201 221.743 179.086L221.741 179.076C221.698 178.86 221.689 178.764 221.679 178.678C221.673 178.62 221.664 178.553 221.623 178.374C221.416 178.006 221.052 177.622 220.58 177.188C220.123 176.768 219.545 176.283 219.056 175.795V175.794C216.989 173.856 215.341 171.545 213.819 169.243L213.812 169.234L213.806 169.223C212.651 167.273 211.663 165.182 210.869 163.029ZM133.975 144.449C134.209 144.189 134.664 144.202 134.898 144.449C135.496 145.06 136.016 145.736 136.445 146.477C136.627 146.789 136.497 147.166 136.211 147.361C135.925 147.556 135.496 147.426 135.327 147.127C135.125 146.773 134.897 146.433 134.646 146.104C134.436 145.841 134.218 145.588 133.988 145.346L133.975 145.372C133.728 145.112 133.741 144.709 133.975 144.449ZM135.288 142.604C135.431 142.318 135.898 142.175 136.172 142.369C137.459 143.305 138.434 144.592 138.941 146.113C139.058 146.464 138.811 146.815 138.486 146.919C138.135 147.036 137.783 146.789 137.679 146.464C137.653 146.386 137.614 146.295 137.589 146.217C137.576 146.178 137.55 146.139 137.537 146.101C137.527 146.061 137.509 146.028 137.519 146.051C137.449 145.907 137.388 145.764 137.316 145.632C137.16 145.333 136.978 145.047 136.783 144.775C136.757 144.736 136.731 144.709 136.705 144.67C136.77 144.748 136.744 144.709 136.705 144.657C136.653 144.592 136.6 144.541 136.548 144.476C136.432 144.333 136.315 144.215 136.185 144.085C136.055 143.968 135.938 143.851 135.808 143.747C135.756 143.695 135.691 143.643 135.626 143.591C135.73 143.695 135.639 143.604 135.613 143.591C135.587 143.565 135.508 143.514 135.508 143.514L135.522 143.487C135.223 143.279 135.106 142.942 135.288 142.604ZM136.822 140.147C136.991 139.848 137.407 139.73 137.706 139.912C139.435 140.926 140.722 142.603 141.255 144.527C141.346 144.878 141.151 145.242 140.8 145.333C140.449 145.424 140.085 145.216 139.994 144.878C139.929 144.67 139.864 144.449 139.786 144.241C139.76 144.189 139.747 144.137 139.721 144.085C139.76 144.189 139.682 144.007 139.682 144.007C139.63 143.916 139.591 143.813 139.539 143.722C139.344 143.332 139.11 142.967 138.85 142.629C138.928 142.72 138.798 142.565 138.798 142.565C138.772 142.526 138.746 142.499 138.72 142.46C138.642 142.369 138.564 142.291 138.486 142.2C138.33 142.044 138.174 141.901 138.018 141.758C137.94 141.68 137.849 141.615 137.771 141.55C137.745 141.524 137.654 141.459 137.719 141.511C137.667 141.472 137.615 141.434 137.563 141.395C137.381 141.265 137.199 141.147 137.017 141.043L137.056 141.03C136.757 140.861 136.653 140.446 136.822 140.147ZM238.351 126.107C238.13 125.288 239.391 124.949 239.599 125.755C240.145 127.861 240.107 130.033 240.029 132.191C240.003 133.022 238.703 133.022 238.728 132.191C238.793 130.163 238.858 128.095 238.339 126.107H238.351ZM235.076 125.171C234.634 124.456 235.764 123.806 236.193 124.521C237.233 126.263 237.416 128.317 237.416 130.306C237.415 131.137 236.116 131.137 236.116 130.306C236.116 128.551 235.999 126.718 235.076 125.184V125.171ZM79.3874 79.5577C76.8944 77.2782 73.366 76.0421 70.1423 76.8019C67.8113 77.3566 65.8042 78.8792 63.9909 80.6358C64.2968 80.7938 64.6726 80.9949 65.0973 81.2452C66.2762 81.9401 67.8482 83.0007 69.4196 84.4659C72.5638 87.3977 75.7285 91.9716 75.7018 98.4708L74.7018 98.4669C74.7271 92.3304 71.7491 88.0051 68.738 85.1974C67.2318 83.793 65.7221 82.7742 64.5895 82.1066C64.0239 81.7732 63.5534 81.5282 63.2262 81.3673C63.106 81.3082 63.0045 81.2613 62.9254 81.2247C62.4847 81.1733 62.0658 81.1695 61.6735 81.2276C61.671 81.2281 61.6682 81.2291 61.6657 81.2296L61.6403 81.2345L61.6149 81.2364C61.5848 81.2387 61.5549 81.2422 61.5251 81.2452C60.7676 81.3293 60.0738 81.6202 59.3659 82.0011C59.1181 82.1355 58.8677 82.281 58.612 82.4317C58.5554 82.4731 58.496 82.5176 58.4333 82.5636C57.9733 82.9029 57.361 83.3635 56.7858 83.8165C56.78 83.8212 56.7741 83.8265 56.7682 83.8312L56.7653 83.8341C56.7633 83.8357 56.759 83.8393 56.7536 83.8439C56.742 83.8535 56.7225 83.8701 56.696 83.8937C56.6424 83.9412 56.5581 84.0182 56.445 84.13C56.2182 84.3541 55.8735 84.7182 55.4176 85.2648C54.5257 86.3342 53.2092 88.1026 51.5153 90.8907C51.7388 90.9625 51.963 91.0324 52.1881 91.0978H52.1872L52.5485 91.2032V91.2267C54.7912 91.9335 56.6034 92.0244 57.9499 91.9884H57.9782C58.5296 91.9752 58.9916 91.9446 59.3903 91.9249C59.7377 91.9078 60.0705 91.8984 60.3395 91.9347L60.3747 91.9327L60.4508 91.9513C60.527 91.9703 60.6137 92.0005 60.6706 92.0206C60.7013 92.0314 60.7293 92.0407 60.7487 92.048C60.7582 92.0515 60.7665 92.0546 60.7721 92.0567C60.7747 92.0577 60.7774 92.059 60.779 92.0597L60.7809 92.0607H60.7819L60.9626 92.13L61.0212 92.2482C61.3411 92.5399 61.5364 92.9131 61.6725 93.256L61.8034 93.6134V93.6153C62.1033 94.502 62.4032 95.4148 62.6901 96.3146L62.9157 97.0216C63.5262 98.9101 64.1413 100.772 64.946 102.552H64.945C66.0719 105.033 67.6 107.366 69.6589 109.026L70.0778 109.35L70.0837 109.355L70.0895 109.359C70.1826 109.432 70.2692 109.499 70.3522 109.561L70.5973 109.727L70.6051 109.732L70.6139 109.736C73.1668 111.405 76.5486 111.923 79.2116 110.594C79.657 110.365 80.0703 110.086 80.4635 109.767L80.4674 109.764C82.5138 108.134 83.7376 105.477 84.4284 102.777C84.9432 100.768 85.2297 98.7064 85.2926 96.6368C85.3335 95.2439 85.2733 93.8472 85.113 92.461L85.0241 92.5011V91.7804C84.8576 90.6329 84.6414 89.4925 84.3385 88.3819V88.38C83.6106 85.6726 82.4412 83.0654 80.6921 80.9513L80.6725 80.9278C80.2525 80.4319 79.8492 79.9705 79.3923 79.5616L79.3874 79.5577ZM122.478 66.6691C122.327 66.852 122.181 67.0249 122.044 67.2003L122.039 67.2071C121.16 68.286 120.246 69.3297 119.3 70.34C119.055 70.6023 118.806 70.8614 118.556 71.1192C118.17 71.5182 117.779 71.9124 117.382 72.3009C117.357 72.3263 117.33 72.3516 117.304 72.3771C116.015 73.6373 114.674 74.8437 113.29 76.0001C113.249 76.0339 113.208 76.067 113.168 76.1007C112.863 76.354 112.556 76.605 112.248 76.8536C111.692 77.3008 111.129 77.7387 110.561 78.171C110.395 78.2977 110.229 78.4254 110.061 78.5509C109.852 78.7078 109.641 78.8627 109.429 79.0177C109.282 79.1261 109.134 79.2354 108.986 79.3429C108.779 79.4927 108.57 79.6401 108.362 79.7882C108.182 79.9161 108.003 80.0454 107.822 80.172C107.585 80.3374 107.346 80.4999 107.108 80.6632C106.987 80.7459 106.867 80.8291 106.746 80.9112C106.526 81.0599 106.305 81.2067 106.085 81.3536C105.907 81.4718 105.729 81.5901 105.55 81.7071C105.303 81.8693 105.054 82.0296 104.805 82.1896C104.676 82.2725 104.547 82.3562 104.418 82.4386C104.138 82.6166 103.856 82.7925 103.574 82.9679C103.462 83.0373 103.351 83.1069 103.239 83.1759C102.97 83.3419 102.699 83.5064 102.428 83.67C102.305 83.7448 102.181 83.8204 102.057 83.8946C100.962 84.5503 99.8531 85.1868 98.734 85.8067C98.6326 85.8629 98.531 85.9188 98.4294 85.9747C94.4069 88.1885 90.2508 90.1843 86.071 92.0362C86.2443 93.4193 86.3213 94.8134 86.3005 96.2062C86.2987 96.3348 86.297 96.4633 86.2936 96.5919C86.2925 96.6306 86.2909 96.6694 86.2897 96.7081C86.2835 96.9113 86.2757 97.1145 86.2653 97.3175C86.2638 97.3468 86.2611 97.3761 86.2594 97.4054C86.1694 99.0686 85.9406 100.725 85.5671 102.352L85.3971 103.051C84.7998 105.385 83.7799 107.798 82.1266 109.595C85.5722 109.373 88.8905 108.856 91.6628 107.705H91.6637C105.684 101.89 118.065 92.1838 127.086 79.9718L127.418 79.5235L127.432 79.5372C127.631 79.2708 127.828 79.0061 128.018 78.7413C128.421 78.1638 128.734 77.6866 128.784 77.1651L128.785 77.1564C128.845 76.625 128.627 76.0862 128.332 75.4288V75.4278C126.85 72.2101 124.895 69.2226 122.556 66.5733C122.53 66.6053 122.504 66.6377 122.478 66.6691ZM102.299 6.04112C92.4427 1.0037 80.7006 -0.103845 70.0124 2.72569H70.0114C67.1693 3.4716 64.4054 4.4879 61.7721 5.78526L61.7712 5.78428C53.6559 9.80505 46.9085 16.4233 42.4713 24.3185L42.0495 25.086C39.9871 28.9335 38.4578 33.0608 37.5973 37.3292L37.4342 38.1847C37.0706 40.2174 36.8465 42.24 36.526 44.3165C36.209 46.3704 35.8041 48.4269 35.0856 50.4093H35.0846C33.2478 55.4548 29.5563 59.5182 25.7975 63.2589L24.1881 64.8439C20.9056 68.0614 17.6192 71.2753 14.3337 74.4894L4.48014 84.1358C4.15964 84.4497 3.83864 84.7722 3.52799 85.1026C6.98983 82.9508 11.5275 82.6357 15.2536 84.3097H15.2546C15.3587 84.3563 15.4564 84.4084 15.5485 84.463L15.902 84.6232L15.8512 84.672C16.4391 85.1428 16.7185 85.7942 16.821 86.4454C16.9499 87.2648 16.809 88.1169 16.6676 88.7159L16.6354 88.8546L16.6169 88.8722C16.2941 90.085 15.5582 91.1152 14.8083 92.005C14.8044 92.0096 14.8004 92.0141 14.7965 92.0187L14.7946 92.0206C14.7817 92.0357 14.7685 92.0505 14.7555 92.0655C14.6632 92.1729 14.5697 92.2811 14.4733 92.3878C13.6946 93.2515 12.7767 94.0762 11.6422 94.5499H11.6403C10.0881 95.1906 8.35886 95.0787 6.81119 94.8009V94.7999C5.24682 94.5214 3.59261 94.0211 2.32096 92.9191C2.25269 92.8599 2.18636 92.7978 2.12076 92.7345C2.41619 93.0689 2.75938 93.3804 3.14518 93.6661C4.31292 94.5308 5.80889 95.1502 7.24772 95.5704H7.24674C15.8696 98.0846 24.7975 97.833 34.0026 97.1202C42.9456 96.4277 52.1699 95.2959 61.5075 95.9142C61.4757 95.8151 61.4437 95.7162 61.4118 95.6173C61.2955 95.2604 61.1772 94.904 61.0592 94.5499C60.9881 94.3379 60.919 94.125 60.8454 93.9132L60.8473 93.9122C60.6934 93.4668 60.5516 93.1491 60.3151 92.9552C60.2992 92.9497 60.2833 92.9451 60.2692 92.9405C59.5034 92.9888 58.7422 93.0131 57.9655 92.9884C57.7799 92.9933 57.5858 92.9951 57.3835 92.9942C57.3008 92.9939 57.2169 92.9909 57.1315 92.9894C57.0025 92.987 56.8703 92.9862 56.735 92.9806C56.7275 92.9803 56.7201 92.9789 56.7126 92.9786C56.3516 92.9633 55.9687 92.935 55.5641 92.8898C55.2562 92.8554 54.9359 92.8109 54.6032 92.754C54.5637 92.7473 54.5239 92.7416 54.484 92.7345C54.4762 92.7331 54.4685 92.731 54.4606 92.7296C54.1904 92.681 53.9125 92.6238 53.6266 92.5577C53.076 92.4305 52.4958 92.2701 51.8883 92.0655L51.5485 91.9493C51.3196 91.8793 51.0907 91.8054 50.862 91.7276C50.8302 91.7169 50.798 91.7073 50.7663 91.6964C50.7125 91.6778 50.6588 91.6588 50.6051 91.6398C50.4245 91.5763 50.2435 91.5111 50.0641 91.4415L49.4577 91.1925C49.3522 91.1469 49.247 91.099 49.1413 91.0509C46.9965 90.0805 44.8403 88.588 43.9264 86.2901C42.7361 83.3125 44.2408 79.5603 47.1608 78.2276L47.1618 78.2267C48.1093 77.7985 49.117 77.6223 50.0846 77.4913C51.0726 77.3576 51.9992 77.2716 52.8971 77.0411L52.9362 77.0304L53.1676 76.9659C55.9537 76.1367 58.1885 73.9117 60.0631 71.4747C61.0367 70.2005 61.8973 68.917 62.8737 67.5968C63.8316 66.3016 64.8578 65.033 66.0758 63.922L66.11 63.8917C67.5313 62.5961 69.1967 61.5619 70.9938 60.8722C71.0032 60.8685 71.0127 60.865 71.0221 60.8614C71.1894 60.7976 71.3576 60.7365 71.527 60.6788C71.5487 60.6714 71.5707 60.6647 71.5924 60.6573C71.7518 60.6038 71.9118 60.552 72.0729 60.504C72.1154 60.4913 72.1583 60.4802 72.2008 60.4679C72.3352 60.4292 72.4697 60.3913 72.6051 60.3565C72.6859 60.3357 72.7671 60.3164 72.8483 60.297C72.9621 60.2699 73.0757 60.2422 73.1901 60.2179C73.3068 60.1929 73.4243 60.1715 73.5417 60.1495C73.6087 60.137 73.6756 60.123 73.7428 60.1114C73.8969 60.0849 74.0517 60.0624 74.2067 60.0411C74.2549 60.0345 74.3029 60.0267 74.3512 60.0206C74.3587 60.0197 74.3662 60.0186 74.3737 60.0177L74.9528 59.9581C75.1625 59.9409 75.3783 59.9317 75.5983 59.9298H75.6003C77.1434 59.9164 78.9049 60.2719 80.487 60.9347C82.2774 61.6849 83.9196 62.8649 84.7214 64.4454C84.7255 64.4536 84.7299 64.4616 84.734 64.4698H84.735C84.8152 64.6299 84.891 64.7891 84.9626 64.9464L84.9714 64.965C84.9792 64.9823 84.986 65.0003 84.9938 65.0177C85.0491 65.1413 85.1019 65.2639 85.152 65.3858C85.1673 65.423 85.1821 65.4602 85.1969 65.4972C85.2362 65.5954 85.2742 65.693 85.3102 65.7901C85.348 65.8919 85.3834 65.9932 85.4176 66.0939C85.4312 66.1337 85.4447 66.1733 85.4577 66.213C85.4861 66.2996 85.5129 66.3859 85.5387 66.4718C85.555 66.5257 85.5714 66.5793 85.5866 66.6329C85.6108 66.7182 85.6331 66.8033 85.6549 66.8878C85.6682 66.9391 85.6817 66.9901 85.694 67.0411C85.7167 67.135 85.7377 67.2284 85.7575 67.3214C85.766 67.3615 85.7739 67.4016 85.7819 67.4415C85.8002 67.5331 85.8171 67.6242 85.8327 67.715C85.8414 67.7659 85.8492 67.8167 85.8571 67.8673C85.8691 67.9448 85.8812 68.0218 85.8913 68.0987C85.897 68.1424 85.9018 68.1861 85.9069 68.2296C85.9178 68.3228 85.9271 68.4155 85.9352 68.5079C85.9386 68.5461 85.9421 68.5842 85.945 68.6222C85.9521 68.716 85.9583 68.8094 85.9626 68.9025C85.9639 68.9302 85.9644 68.9578 85.9655 68.9855C85.9692 69.0852 85.9717 69.1844 85.9723 69.2833C85.9725 69.3084 85.9723 69.3335 85.9723 69.3585C85.9722 69.4609 85.9717 69.5627 85.9684 69.6642C85.8943 71.9849 85.0038 74.0468 84.0592 76.089L83.3825 77.5538C83.3813 77.5564 83.3798 77.559 83.3786 77.5616V77.5636C83.3183 77.6961 83.257 77.828 83.194 77.9591C83.1659 78.0176 83.1367 78.0756 83.1081 78.1339C83.082 78.187 83.0565 78.2403 83.0299 78.2931C82.9836 78.3856 82.936 78.4776 82.8883 78.5694C82.8585 78.6268 82.8288 78.6842 82.7985 78.7413C82.464 79.3724 82.0988 79.9857 81.7096 80.5821L81.8053 80.7023C83.4785 82.871 84.5974 85.4508 85.3044 88.0792C85.5434 88.9559 85.7293 89.8455 85.8796 90.7345L85.9225 91.0079C99.1825 85.1125 112.049 77.8005 121.124 66.7423C120.604 63.1225 120.418 58.8638 120.622 53.9454C120.375 53.6709 120.142 53.384 119.919 53.1065C119.649 52.7707 119.395 52.4507 119.132 52.1573L119.128 52.1524L119.123 52.1466C117.768 50.5355 116.704 48.724 115.833 46.8292C115.112 45.2652 114.522 43.6436 114.011 42.0294L114.009 42.0245C112.531 37.1849 111.565 32.2191 110.642 27.2804L110.64 27.2726L110.639 27.2638C110.075 23.5255 109.932 19.7271 109.828 15.9835V15.9786C109.821 15.6111 109.811 15.2401 109.799 14.8712L109.751 13.7814C108.946 10.0777 106.347 8.31055 102.299 6.04112ZM14.3171 85.0196C10.8555 83.6618 6.70443 84.1227 3.63443 86.2325L3.63248 86.2335C3.43788 86.3659 3.25117 86.5063 3.07291 86.6515C2.42509 87.1843 1.9113 87.7896 1.69693 88.5099V88.5128C1.31651 89.763 1.91874 91.2205 2.98697 92.1476L3.194 92.3165C4.24947 93.1322 5.60435 93.5522 7.00065 93.8028C8.49464 94.071 9.98956 94.1413 11.2712 93.6124C12.2035 93.2227 12.9952 92.5283 13.7243 91.7228C13.8284 91.6074 13.932 91.4905 14.0338 91.3712C14.7875 90.4767 15.4248 89.5503 15.6696 88.5128C15.8012 87.9547 15.9066 87.2574 15.8083 86.6329C15.7132 86.0303 15.4381 85.5314 14.8171 85.2482L14.3171 85.0196ZM76.4421 60.961C75.9497 60.9222 75.4752 60.9192 75.0339 60.9552C71.9807 61.2045 69.0507 62.5737 66.7751 64.6388C66.7674 64.6458 66.7592 64.6523 66.7516 64.6593C65.61 65.7063 64.6307 66.9157 63.6872 68.1915C62.7735 69.427 61.8549 70.7768 60.8981 72.0255C60.8838 72.0443 60.8705 72.0643 60.8561 72.0831C59.0434 74.4554 56.7662 76.7953 53.8395 77.7989C53.6135 77.8768 53.3838 77.9477 53.1501 78.0089H53.1491L53.1471 78.0099C52.9288 78.0659 52.7077 78.1127 52.486 78.1554C52.4395 78.1644 52.3929 78.1733 52.3463 78.1817C51.7191 78.2959 51.0875 78.37 50.487 78.4474C50.3972 78.459 50.3077 78.4706 50.2194 78.4825C49.624 78.5631 49.0553 78.6572 48.5153 78.8048C48.299 78.8639 48.0874 78.9316 47.8805 79.0108C47.7773 79.0504 47.6747 79.0922 47.5739 79.1378C46.8134 79.4853 46.1663 80.0362 45.6657 80.7042C45.5655 80.8379 45.4706 80.9758 45.3825 81.1183C44.5015 82.5416 44.2353 84.3684 44.8551 85.9191L44.8561 85.92C44.8812 85.983 44.9079 86.0458 44.9352 86.1075C45.7831 87.9971 47.6742 89.3088 49.7126 90.211C49.7595 90.2317 49.8061 90.2533 49.8532 90.2735L49.8551 90.2745C50.0836 90.3735 50.3161 90.4653 50.5495 90.5538C52.3179 87.6251 53.7006 85.7613 54.6491 84.6241C55.1237 84.0551 55.4905 83.6674 55.7419 83.4191C55.8674 83.2951 55.9653 83.2055 56.0329 83.1456C56.0664 83.1159 56.0931 83.0931 56.112 83.0773C56.1212 83.0695 56.1288 83.0624 56.1344 83.0577C56.137 83.0556 56.1395 83.0533 56.1413 83.0519C56.1421 83.0512 56.1435 83.0504 56.1442 83.0499H56.1452V83.0489L56.1462 83.047C56.1761 83.0234 56.2068 83.0003 56.237 82.9767C56.7887 82.5368 57.3806 82.0967 57.8278 81.7687C57.9051 81.7116 57.9772 81.6564 58.0456 81.6066L58.0651 81.5919L58.0866 81.5792C58.3179 81.4428 58.5554 81.3046 58.7995 81.171C59.5475 80.7587 60.3644 80.3866 61.2809 80.2667C61.3583 80.256 61.4365 80.2475 61.5153 80.2403C61.5278 80.2385 61.5408 80.2372 61.5534 80.2355C62.0159 80.1604 62.4845 80.171 62.944 80.2208C64.8672 78.292 67.1447 76.4454 69.9128 75.7901V75.7911C73.4155 74.9527 77.1438 76.2452 79.8092 78.5548L80.0631 78.7814L80.0651 78.7823C80.4123 79.1021 80.7328 79.4344 81.0368 79.7765C81.3008 79.3604 81.5527 78.9374 81.7887 78.506C81.793 78.4982 81.7972 78.4903 81.8014 78.4825C82.0394 78.0462 82.2618 77.6018 82.4674 77.1495L83.154 75.6573C83.828 74.1939 84.4388 72.804 84.7546 71.3351C85.1127 69.6687 85.0854 67.9061 84.2702 65.8692C84.2042 65.7046 84.1337 65.5375 84.0573 65.3692L83.8415 64.9181H83.8405C83.7482 64.7335 83.6391 64.5547 83.5173 64.38C83.4551 64.291 83.3903 64.2027 83.321 64.1163C83.1058 63.8478 82.8575 63.5924 82.5807 63.3517C81.8967 62.7577 81.0408 62.2519 80.0964 61.8565C79.0807 61.4314 77.9924 61.1472 76.9606 61.0148C76.8664 61.0027 76.7726 60.992 76.6794 60.9825C76.5998 60.9744 76.5207 60.9673 76.4421 60.961ZM129.277 1.15538C120.49 0.603869 110.463 1.39697 103.508 5.53624C105.914 6.90884 107.898 8.2295 109.221 10.0733C109.086 9.60441 108.92 9.17028 108.715 8.77842L108.701 8.75206L108.69 8.72471C108.247 7.55939 107.483 6.79195 106.328 6.10362L106.84 5.24424C106.841 5.24491 106.842 5.24554 106.843 5.2462L106.853 5.23155C108.133 5.99405 109.08 6.91096 109.627 8.32921C110.384 9.816 110.658 11.7292 110.762 13.7081H110.758L110.759 13.7091L110.761 13.7472C110.8 14.4734 110.84 15.2271 110.84 15.9962H110.84C110.943 19.7299 111.086 23.4618 111.637 27.1232C112.56 32.0626 113.518 36.9763 114.977 41.755L115.189 42.4122C115.676 43.8861 116.231 45.3418 116.892 46.7355C117.702 48.4363 118.672 50.0438 119.876 51.4757H119.875C120.155 51.7901 120.425 52.1299 120.685 52.4532C120.951 52.784 121.21 53.1014 121.48 53.3907C121.925 53.8605 122.369 54.2388 122.913 54.4601C124.775 55.067 126.502 54.4059 128.272 53.8692C130.221 53.2499 132.119 52.5437 133.935 51.6485L134.764 51.2218C135.615 50.7673 136.501 50.2393 137.187 49.7315L137.195 49.7413C140.948 47.4097 144.335 44.4165 147.162 41.0138C152.692 34.3523 156.252 26.1982 158.319 17.7501V17.7491C158.542 16.8448 158.723 16.0005 158.597 15.1896L158.596 15.1876C158.425 14.0593 157.699 13.0612 156.817 12.128C154.938 10.1488 150.795 7.57212 145.71 5.39854C140.638 3.23064 134.702 1.4953 129.277 1.15538ZM44.8766 4.05186C37.5101 2.20832 27.1161 0.816258 14.7546 2.48741L13.5514 2.65928C10.2359 3.15194 7.92488 6.22845 8.35709 9.56065C9.662 19.4626 13.3003 38.7875 22.6921 51.5431L23.1442 52.1446V52.1456C23.9131 53.1539 25.514 52.9974 26.0954 51.8351C27.965 48.0698 31.6961 41.2479 37.7057 32.8526L37.7096 32.8546C38.5917 30.0049 39.7587 27.2437 41.1686 24.6134V24.6124C44.7295 17.9876 49.8749 12.1929 56.0924 7.95518C56.0758 7.94716 56.0589 7.93804 56.0417 7.92979C55.5167 7.67871 54.7345 7.32316 53.7145 6.90733C51.6734 6.07526 48.6784 5.00332 44.8766 4.05186ZM45.484 38.7403C46.5043 38.7404 47.3913 39.3 48.0055 40.1251C48.62 40.9506 48.9869 42.0684 48.987 43.2833C48.987 44.4982 48.6199 45.616 48.0055 46.4415C47.3913 47.2667 46.5043 47.8262 45.484 47.8263C45.4815 47.8263 45.4788 47.8253 45.4762 47.8253C45.4744 47.8253 45.4722 47.8263 45.4704 47.8263C45.4429 47.8263 45.4156 47.8232 45.3883 47.8224C45.3544 47.8212 45.3204 47.8218 45.2868 47.8194C44.3441 47.7568 43.5259 47.2174 42.9489 46.4425C42.3344 45.6169 41.9674 44.4983 41.9674 43.2833C41.9675 42.0683 42.3344 40.9506 42.9489 40.1251C43.5631 39.3001 44.4502 38.7405 45.4704 38.7403H45.484ZM45.4772 39.7403C44.849 39.7428 44.237 40.0869 43.7643 40.7218C43.2902 41.3586 42.9812 42.2626 42.9811 43.2833C42.9811 44.3041 43.2902 45.2079 43.7643 45.8448C44.2371 46.4799 44.8489 46.8229 45.4772 46.8253C46.1055 46.8229 46.7173 46.4798 47.1901 45.8448C47.6642 45.2079 47.9733 44.3041 47.9733 43.2833C47.9733 42.2625 47.6642 41.3587 47.1901 40.7218C46.7173 40.0868 46.1055 39.7427 45.4772 39.7403ZM77.2389 37.2521C78.1837 37.3166 78.999 37.8557 79.5739 38.63C80.187 39.456 80.5504 40.5743 80.5505 41.7882C80.5505 41.9196 80.5462 42.0499 80.5378 42.1788C80.4689 43.2408 80.1216 44.2097 79.5749 44.9464C78.9615 45.7728 78.0737 46.3312 77.0475 46.3312L76.8581 46.3243C76.7327 46.3157 76.6095 46.2994 76.4889 46.2745C75.7043 46.1127 75.0242 45.6178 74.5251 44.9474C74.1409 44.4313 73.8542 43.8006 73.693 43.1036C73.6769 43.0339 73.6617 42.9636 73.6481 42.8927C73.6345 42.8217 73.6229 42.75 73.612 42.6778C73.59 42.5335 73.5724 42.3869 73.5612 42.2384C73.55 42.0901 73.5446 41.9399 73.5446 41.7882C73.5446 41.6362 73.55 41.4856 73.5612 41.337C73.5724 41.1888 73.59 41.0426 73.612 40.8985C73.6669 40.5379 73.7547 40.1915 73.8717 39.8653C73.8952 39.8001 73.9193 39.7355 73.945 39.672C74.0993 39.2904 74.2946 38.9396 74.5251 38.63C75.0242 37.9595 75.7043 37.4639 76.4889 37.3019C76.6698 37.2645 76.8564 37.2452 77.0475 37.2452L77.2389 37.2521ZM76.9303 38.2491C76.3414 38.2892 75.7727 38.6293 75.3278 39.2267C74.8538 39.8635 74.5446 40.7675 74.5446 41.7882C74.5446 42.8089 74.8537 43.7128 75.3278 44.3497C75.7727 44.9473 76.3413 45.2872 76.9303 45.3273C76.9693 45.3299 77.0084 45.3312 77.0475 45.3312C77.6779 45.331 78.292 44.9867 78.7663 44.3497C79.2404 43.7128 79.5505 42.8091 79.5505 41.7882C79.5504 41.6606 79.5461 41.5348 79.5368 41.4112C79.4712 40.5456 79.1822 39.784 78.7673 39.2267C78.3669 38.689 77.8668 38.3603 77.3415 38.2706C77.2922 38.2623 77.2428 38.2552 77.193 38.2511C77.1839 38.2503 77.1748 38.2497 77.1657 38.2491L77.0475 38.2452C77.0084 38.2452 76.9693 38.2465 76.9303 38.2491ZM17.7546 20.0528C17.7416 19.2208 19.0423 19.2208 19.0553 20.0528C19.0815 21.9506 20.0823 23.6272 21.0182 25.213C21.4472 25.928 20.3291 26.5784 19.9001 25.8634C18.8471 24.0825 17.8074 22.1847 17.7682 20.0528H17.7546ZM16.2858 17.0235C16.6495 17.1277 16.8058 17.4914 16.7409 17.8292C16.3119 20.0002 16.7019 22.288 17.7809 24.212C18.1969 24.94 17.0658 25.5901 16.6628 24.8624C15.4018 22.6135 14.9989 20.0006 15.4928 17.4786H15.4792C15.5572 17.1276 15.9608 16.9325 16.2858 17.0235ZM139.63 19.0519C139.942 18.8699 140.319 18.9993 140.514 19.2853C141.528 20.7933 142.204 22.5359 142.477 24.3429C142.529 24.6937 142.399 25.0445 142.022 25.1485C141.71 25.2265 141.267 25.0445 141.215 24.6935C140.955 22.9905 140.344 21.3783 139.382 19.9483L139.396 19.9357C139.201 19.6498 139.344 19.221 139.63 19.0519ZM141.514 15.9054C141.761 15.6714 142.203 15.6456 142.437 15.9054C143.659 17.2574 144.556 18.8828 145.024 20.6378C145.115 20.9886 144.908 21.3523 144.57 21.4435C144.232 21.5345 143.854 21.3264 143.763 20.9884C143.36 19.4545 142.58 18.0118 141.514 16.8419V16.8282C141.281 16.5682 141.254 16.1653 141.514 15.9054ZM144.049 15.6593C144.296 15.3993 144.725 15.4254 144.972 15.6593C145.869 16.4783 146.52 17.5182 146.91 18.6622C147.027 19.0132 146.78 19.3638 146.455 19.4679C146.104 19.5849 145.753 19.3378 145.649 19.0128C145.61 18.87 145.557 18.7403 145.506 18.6105C145.454 18.5195 145.545 18.7138 145.506 18.6358C145.492 18.61 145.466 18.5836 145.466 18.5577C145.428 18.4929 145.402 18.4409 145.376 18.3761C145.259 18.1422 145.129 17.9212 144.986 17.7003C144.908 17.5963 144.83 17.4791 144.752 17.3751C144.739 17.3621 144.713 17.3364 144.7 17.3107C144.661 17.2587 144.609 17.2063 144.57 17.1544C144.401 16.9594 144.219 16.7768 144.024 16.5948L144.049 16.5821C143.777 16.3352 143.816 15.9063 144.049 15.6593Z" fill="#231A11" fill-opacity="0.2"/>
</svg>
