<svg width="378" height="239" viewBox="0 0 378 239" fill="none" xmlns="http://www.w3.org/2000/svg">
<path fill-rule="evenodd" clip-rule="evenodd" d="M279.337 0.101432C288.814 -0.552186 298.497 1.96821 306.406 7.22448C314.315 12.4808 320.396 20.46 323.305 29.5077C325.116 35.138 325.677 41.3664 324.098 47.0663C328.001 48.4068 331.764 50.2802 334.739 52.9432L335.036 53.2137L335.936 54.0712C345.034 62.9302 350.294 74.1576 349.368 88.3163C349.633 88.407 349.976 88.5069 350.4 88.6151C351.015 88.7719 351.759 88.9408 352.617 89.1434C354.325 89.5469 356.448 90.0701 358.718 90.8299C363.249 92.3473 368.413 94.8272 372.063 99.2548C376.545 104.687 378.69 113.937 376.963 123.707C375.259 133.345 369.781 143.533 358.999 151.164L358.482 151.525C354.988 153.936 351.486 155.984 347.974 157.723C351.378 160.089 354.687 162.59 357.873 165.252H357.874C363.246 169.725 368.36 174.705 372.325 180.487H372.33L372.478 180.708C373.217 181.801 373.925 182.928 374.578 184.081V184.082C376.609 187.686 378.249 191.809 377.891 196.059L377.838 196.555C377.686 197.71 377.344 198.847 376.87 199.918L376.86 199.941L376.848 199.962L375.722 201.957L375.707 201.981L375.691 202.004C374.712 203.357 373.414 204.469 371.888 205.139L371.869 205.146L371.85 205.153L370.527 205.608L370.155 205.737L370.118 205.68C367.561 206.156 364.928 205.42 362.631 204.466H362.63C357.04 202.13 352.312 198.292 347.663 194.502L347.657 194.497L347.646 194.512C345.873 193.059 344.115 191.627 342.308 190.26C336.006 185.496 329.032 181.597 321.669 178.727L320.191 178.166C314.378 176.017 307.953 174.324 302.621 171.092L301.997 170.713L301.037 171.607C299.265 173.257 296.257 175.745 294.05 177.266C300.429 180.693 306.159 184.313 311.358 188.788C315.162 191.878 318.449 195.233 321.27 198.976L321.829 199.73L321.839 199.744C322.392 200.563 322.924 201.386 323.432 202.228L323.932 203.077L323.933 203.079C326.053 206.805 327.734 211.043 327.522 215.437C327.31 219.832 324.839 224.379 320.626 225.996L320.624 225.997C319.212 226.53 317.733 226.686 316.274 226.585L316.261 226.583L316.246 226.582L314.9 226.408L314.887 226.407L314.486 226.327C312.564 225.914 310.713 225.097 309.067 224.052L308.72 223.824C306.124 222.091 303.681 220.059 300.982 217.877L300.975 217.887C300.498 217.479 299.913 217.078 299.351 216.712C298.806 216.357 298.255 216.018 297.904 215.766V215.765C295.243 213.901 292.456 212.221 289.677 210.494V210.493C285.511 207.946 281.905 206.088 277.426 205.243C269.443 204.052 261.369 201.932 254.508 198.972V198.971C251.342 197.615 248.424 195.73 245.501 194.073L245.485 194.064L245.47 194.055C241.762 191.585 237.741 189.134 234.348 184.793L234.345 184.787C233.7 183.939 233.1 183.05 232.526 182.159C224.601 182.687 216.707 183.566 208.157 183.223C182.838 182.209 155.949 190.697 138.832 199.976C138.815 199.997 138.798 200.019 138.779 200.042L138.757 200.068C138.726 200.111 138.697 200.155 138.666 200.197C133.808 206.902 127.832 212.826 120.908 217.962L120.909 217.963C118.048 220.176 115.118 222.345 111.935 224.148L111.932 224.15C107.946 226.363 103.706 228.1 99.3827 229.513L99.3768 229.515C96.9788 230.26 94.5265 230.749 92.1044 231.234L92.1034 231.233C89.5915 231.779 87.0322 232.213 84.4217 232.258L84.4208 232.257C81.3145 232.371 78.2165 232.314 75.12 232.006L75.121 232.007C73.299 231.838 71.3866 231.696 69.5536 231.178L69.5526 231.179C68.8077 230.991 67.9272 230.792 67.2001 230.578L67.1932 230.607C63.2317 229.671 58.4301 228.422 54.4159 227.432C53.1396 232.118 51.6663 235.273 49.9481 237.043C49.0711 237.946 48.1161 238.504 47.0829 238.702C46.0506 238.9 44.9888 238.73 43.9149 238.266C41.7659 237.338 40.3243 235.517 39.4296 233.976C38.9792 233.201 38.6597 232.482 38.452 231.957C38.3481 231.694 38.2712 231.479 38.2206 231.328C38.1953 231.252 38.1768 231.193 38.1639 231.151C38.1576 231.131 38.1527 231.115 38.1493 231.103C38.1476 231.098 38.1463 231.093 38.1454 231.09L38.1444 231.089C37.8004 229.942 37.1687 227.572 37.0311 226.371L37.0321 226.37C36.6393 222.871 36.5506 219.187 37.704 215.775C39.0816 211.7 41.9138 208.615 45.3465 206.145L45.6922 205.897L45.7206 205.926C49.3046 203.405 53.5301 201.49 57.4725 199.766C61.0517 198.202 64.7654 196.375 67.9276 194.086C61.2297 194.332 54.3953 193.251 47.8456 191.941C41.4311 190.661 34.8991 189.227 28.828 191.075V191.074C28.1876 191.272 27.4522 191.539 26.7596 191.728C26.0443 191.924 25.2877 192.064 24.4979 192.02V192.021C21.5334 191.863 19.535 189.164 19.0087 186.38L18.9891 186.348L18.9764 186.233C18.8304 184.914 19.0351 183.59 19.2674 182.611C19.3843 182.119 19.5093 181.706 19.6063 181.416C19.6547 181.271 19.6968 181.157 19.7264 181.077C19.7413 181.037 19.7532 181.005 19.7616 180.983C19.7656 180.973 19.769 180.965 19.7714 180.959C19.7725 180.956 19.7736 180.953 19.7743 180.951L19.7762 180.949V180.948L19.7801 180.938C20.7323 178.729 22.2769 176.731 23.7538 174.892C27.2668 170.499 31.3249 165.647 37.0487 164.343H37.0497C40.0347 163.668 43.1621 164.059 46.0672 164.177L47.0712 164.206C57.3741 164.412 67.6955 161.259 76.2206 155.471C77.3114 145.351 80.2393 135.771 86.6854 125.995C79.7898 118.006 69.7676 111.987 59.4422 111.884H58.9452C56.1758 111.909 53.4734 112.35 50.7528 112.877C48.3832 113.336 45.9845 113.863 43.5516 114.223L42.5067 114.366C29.8497 115.943 16.0622 111.707 6.12584 103.198C4.25654 101.601 2.43946 99.605 1.27721 97.4559C0.115346 95.3074 -0.421056 92.9471 0.385608 90.6786C1.11383 88.6197 2.82227 87.2084 4.85826 86.4305C6.89382 85.653 9.29929 85.4895 11.5204 85.9481C15.9158 86.8559 19.7089 89.6062 23.1747 92.2762L23.1756 92.2772C26.6566 94.9656 30.1335 97.7156 34.2274 98.9247C38.9055 100.304 43.515 99.4986 48.2557 98.3124C52.9599 97.1353 57.8285 95.5692 62.8368 95.5868C69.7344 95.611 76.1562 99.7187 81.1542 104.897C85.8525 109.766 89.366 115.655 90.8973 120.215C93.4128 117.059 96.3174 113.87 99.6649 110.62L100.492 109.832C104.673 105.908 109.724 102.098 115.788 98.4842L115.763 98.4413C127.648 91.3633 143.434 85.0272 164.329 79.994C180.654 76.0638 195.74 74.8828 210.645 75.9393L210.644 75.9462L210.693 75.9501C221.009 76.6778 231.241 78.4874 241.727 81.1678C243.232 80.3261 245.173 79.9272 247.213 79.7928C249.217 79.6609 251.36 79.7814 253.364 80.0116C257.058 70.7889 263.128 62.5251 270.763 56.1874C268.439 53.4151 265.289 51.3743 261.798 51.035C259.017 50.7676 256.245 51.5709 253.439 52.4051C245.722 54.7013 237.794 57.0781 229.653 57.1815L228.865 57.1844C225.819 57.1662 222.666 56.7951 219.831 55.5243C216.983 54.2501 214.456 51.9703 213.394 48.9706L213.393 48.9696C211.698 44.1301 214.19 38.8607 217.399 35.1298C226.304 24.7888 241.93 21.3508 254.742 25.954C265.91 29.9648 274.605 39.5163 278.586 50.6747C281.735 48.8372 285.058 47.2892 288.516 46.1092L288.517 46.1102C293.572 44.3996 298.923 43.3692 304.289 43.6571L304.29 43.6581C307.166 43.813 312.083 44.1639 317.379 45.2567C317.363 44.835 317.361 44.4156 317.352 44.0165C317.339 43.3906 317.31 42.796 317.2 42.2215V42.2206C316.713 39.7526 314.642 37.8133 312.278 36.5604L312.277 36.5614C309.071 34.8645 305.519 34.2611 301.807 34.0233C299.952 33.9044 298.068 33.8766 296.17 33.8465C294.277 33.8165 292.37 33.7837 290.491 33.6512C284.033 33.1926 277.671 31.4961 271.85 28.66V28.661C266.701 26.1562 261.368 22.0011 260.691 16.0741C260.161 11.4258 262.8 6.87103 266.516 4.17565C270.216 1.48933 274.846 0.419188 279.337 0.102409V0.101432ZM45.5858 207.212C42.4199 209.559 39.8955 212.416 38.6512 216.096C37.5695 219.296 37.6372 222.803 38.0253 226.259H38.0243C38.1138 227.038 38.4455 228.413 38.7528 229.557C42.2306 228.498 43.8728 227.082 44.6503 225.976C45.0547 225.401 45.2345 224.897 45.3153 224.55C45.3557 224.376 45.3719 224.239 45.3778 224.151C45.3807 224.107 45.3818 224.075 45.3817 224.057C45.3817 224.05 45.3818 224.046 45.3817 224.043L45.8807 224.01C46.3791 223.976 46.3797 223.977 46.3797 223.977V223.986C46.38 223.991 46.3805 223.996 46.3807 224.003C46.3812 224.016 46.3816 224.032 46.3817 224.053C46.3819 224.093 46.3804 224.149 46.3758 224.218C46.3666 224.355 46.3435 224.545 46.2899 224.776C46.1823 225.239 45.9525 225.864 45.4686 226.552C44.5298 227.886 42.6697 229.413 39.0233 230.52L39.1034 230.802L39.1053 230.807H39.1044V230.808C39.1048 230.81 39.1061 230.813 39.1073 230.817C39.1097 230.825 39.1137 230.838 39.119 230.855C39.1297 230.89 39.1461 230.943 39.1688 231.011C39.2144 231.147 39.285 231.345 39.3817 231.59C39.5755 232.08 39.8751 232.751 40.2948 233.473C40.426 233.7 40.5688 233.929 40.7225 234.159C44.2501 233.097 45.9095 231.668 46.6922 230.556C47.0965 229.981 47.2765 229.478 47.3573 229.13C47.3978 228.955 47.4139 228.818 47.4198 228.73C47.4227 228.686 47.4238 228.654 47.4237 228.636C47.4237 228.63 47.4238 228.625 47.4237 228.622L47.9217 228.589C48.415 228.555 48.4216 228.556 48.4217 228.557L48.4208 228.557L48.4217 228.559C48.4218 228.561 48.4217 228.563 48.4217 228.565C48.422 228.57 48.4225 228.576 48.4227 228.582C48.4232 228.595 48.4236 228.612 48.4237 228.632C48.4239 228.672 48.4214 228.728 48.4169 228.797C48.4077 228.934 48.3855 229.125 48.3319 229.356C48.2242 229.82 47.9936 230.444 47.5096 231.132C46.5956 232.431 44.8099 233.913 41.3524 235.013C42.1195 235.955 43.0952 236.823 44.3114 237.348C45.2457 237.752 46.1018 237.872 46.8944 237.72C47.6861 237.568 48.4658 237.135 49.2313 236.347C50.7756 234.756 52.2042 231.78 53.4764 227.08C53.4768 224.787 53.2825 222.188 52.7294 220.007L52.7284 220.006C51.526 215.217 49.0217 210.763 45.5858 207.212ZM211.428 77.0096C212.827 80.5969 213.323 84.5798 213.007 88.4198L212.952 89.0048C212.373 94.6469 210.241 100.018 207.538 104.974L206.97 105.993C203.378 112.307 198.369 118.554 191.358 120.856L190.674 121.066C184.043 122.956 176.948 120.97 170.891 117.986L170.892 117.985C169.088 117.102 167.403 116.178 165.565 115.96L165.566 115.961C163.218 115.688 160.884 116.574 158.516 117.474L158.515 117.473C154.47 119.022 150.232 120.497 145.823 120.705L145.822 120.706C138.583 121.043 131.502 117.878 126.123 113.111V113.11C121.847 109.333 118.555 104.615 115.895 99.5878C110.067 103.095 105.206 106.779 101.176 110.561L100.361 111.338C96.859 114.738 93.852 118.065 91.2743 121.35C91.2849 121.388 91.2962 121.425 91.3065 121.463L91.4022 121.825L91.4032 121.828C91.664 122.894 91.6262 125.682 88.6874 127.688L88.2967 127.954L88.0096 127.582C87.8011 127.312 87.5851 127.05 87.3631 126.785C81.0692 136.414 78.2301 145.846 77.1854 155.844L77.161 155.841C76.6426 160.786 76.5609 165.862 76.7245 171.189L76.8094 173.491V173.492C76.9436 176.81 77.413 180.364 76.6395 183.748L76.6405 183.749C75.6853 187.951 73.0853 191.237 69.787 193.891L69.8046 193.913C66.2917 196.744 61.9548 198.898 57.8739 200.682C53.9749 202.387 49.8915 204.24 46.4305 206.648C49.9209 210.302 52.466 214.86 53.6971 219.762H53.6981C54.225 221.84 54.435 224.244 54.4696 226.416C58.5184 227.413 63.3371 228.666 67.3446 229.614L67.3553 229.582C68.0751 229.802 68.9597 229.997 69.7967 230.208L69.8046 230.21L69.8114 230.213C71.5396 230.704 73.3506 230.838 75.2128 231.011L75.2167 231.012C78.2642 231.315 81.3205 231.371 84.3944 231.258H84.4051C86.9225 231.215 89.4109 230.796 91.8993 230.255L91.9081 230.254C94.3385 229.767 96.7395 229.286 99.0799 228.559C103.354 227.162 107.528 225.45 111.442 223.278L112.024 222.943C114.92 221.246 117.622 219.243 120.298 217.173L120.305 217.167C127.157 212.085 133.062 206.228 137.856 199.61C137.86 199.605 137.864 199.598 137.868 199.593L137.861 199.587L137.961 199.463C140.058 196.559 141.969 193.523 143.613 190.322V190.32C145.638 186.417 147.31 182.325 148.575 178.12C149.04 176.129 149.379 174.09 149.536 172.051H149.525C149.562 171.498 149.578 170.926 149.58 170.361L150.58 170.364C150.578 170.945 150.561 171.539 150.522 172.117L149.915 172.076L150.534 172.124C150.373 174.225 150.023 176.319 149.548 178.355L149.544 178.37L149.54 178.386C148.256 182.66 146.558 186.817 144.502 190.78L144.501 190.779C143.18 193.349 141.692 195.812 140.079 198.182C157.365 189.202 183.497 181.236 208.197 182.224L209.798 182.275C217.477 182.452 224.633 181.698 231.922 181.199C230.957 179.612 230.088 177.96 229.377 176.235L229.372 176.225V176.224C227.526 171.46 226.627 166.582 225.329 161.743L226.294 161.484C227.619 166.423 228.483 171.158 230.302 175.853L230.606 176.568C231.341 178.225 232.226 179.819 233.201 181.362C233.817 182.327 234.454 183.28 235.137 184.178L235.445 184.564C238.644 188.504 242.377 190.795 245.999 193.206C248.989 194.901 251.807 196.727 254.903 198.053H254.904C261.674 200.974 269.667 203.077 277.588 204.258L277.597 204.259L277.606 204.262C282.268 205.14 286.001 207.073 290.201 209.641L290.205 209.644C292.97 211.362 295.791 213.065 298.482 214.951L298.488 214.955H298.487C298.814 215.19 299.312 215.494 299.897 215.875C300.431 216.223 301.017 216.625 301.524 217.046L301.533 217.036C304.282 219.258 306.702 221.275 309.274 222.993L309.603 223.208C311.263 224.261 313.126 225.059 315.033 225.417L316.347 225.586C316.861 225.622 317.374 225.62 317.882 225.581C318.113 222.701 317.005 220.428 315.792 218.841C315.158 218.011 314.499 217.373 314 216.945C313.751 216.732 313.542 216.571 313.397 216.465C313.325 216.412 313.269 216.371 313.231 216.346C313.213 216.333 313.199 216.323 313.19 216.317C313.186 216.314 313.182 216.312 313.181 216.311H313.18L313.724 215.472L313.724 215.473H313.726C313.727 215.473 313.729 215.474 313.73 215.475C313.734 215.478 313.739 215.482 313.745 215.486C313.758 215.495 313.777 215.507 313.8 215.522C313.845 215.554 313.909 215.6 313.99 215.659C314.152 215.779 314.381 215.955 314.651 216.186C315.191 216.649 315.901 217.336 316.587 218.233C317.87 219.912 319.08 222.351 318.894 225.444C319.279 225.37 319.661 225.274 320.035 225.146L320.27 225.061C321.279 224.674 322.183 224.09 322.971 223.365C323.308 219.427 322.366 216.88 321.364 215.324C320.853 214.53 320.321 213.984 319.923 213.641C319.724 213.47 319.557 213.35 319.444 213.273C319.388 213.235 319.345 213.208 319.317 213.191C319.304 213.183 319.293 213.177 319.288 213.174L319.284 213.172H319.285L319.763 212.294H319.764L319.766 212.295C319.767 212.295 319.769 212.297 319.77 212.298C319.774 212.3 319.78 212.303 319.786 212.307C319.798 212.314 319.815 212.323 319.836 212.336C319.877 212.361 319.935 212.397 320.006 212.445C320.148 212.541 320.345 212.685 320.575 212.884C321.037 213.281 321.635 213.897 322.205 214.782C323.216 216.352 324.117 218.742 324.036 222.212C325.525 220.321 326.404 217.855 326.523 215.39C326.722 211.273 325.148 207.234 323.066 203.574C322.427 202.462 321.74 201.387 321.015 200.312C318.128 196.342 314.722 192.809 310.728 189.564L310.723 189.559L310.718 189.556C304.488 184.192 297.468 180.058 289.399 175.972L289.388 175.966L289.389 175.965C285.525 173.884 283.517 173.548 279.345 171.837L279.313 171.823C276.075 170.231 273.355 168.722 270.799 166.777L270.788 166.77V166.769C268.503 164.938 266.652 162.621 264.87 160.401L265.261 160.088L265.651 159.775C267.444 162.009 269.224 164.232 271.404 165.981L271.871 166.33C274.215 168.05 276.732 169.439 279.74 170.918C283.742 172.557 285.956 172.98 289.863 175.085H289.862C290.943 175.632 292.007 176.181 293.053 176.734C294.822 175.566 297.317 173.562 299.192 171.919C299.185 171.919 299.178 171.921 299.171 171.922L299.126 170.922C299.612 170.9 300.103 170.832 300.615 170.748L301.747 170.561L301.733 170.554L302.709 170.196C305.704 169.096 308.175 166.897 309.018 164.163C294.468 161.771 281.127 153.977 270.337 141.99C257.278 127.469 246.274 107.346 250.775 88.1317L251.018 87.1415C251.553 85.0491 252.216 82.9891 252.987 80.9755C251.099 80.7693 249.118 80.6707 247.278 80.7919C245.359 80.9183 243.634 81.2814 242.331 81.9764L242.068 82.1337C240.918 82.8201 240.142 83.7706 239.909 85.1249L239.896 85.1229C239.006 90.2728 238.061 97.1499 239.918 106.328C241.776 115.511 246.447 127.033 256.847 141.438C264.296 151.757 273.14 159.216 281.001 164.053C284.931 166.471 288.611 168.231 291.74 169.365C294.881 170.503 297.431 170.996 299.113 170.92L299.136 171.42L299.159 171.919C297.284 172.004 294.589 171.46 291.399 170.305C288.198 169.145 284.458 167.354 280.477 164.905C272.516 160.006 263.57 152.459 256.035 142.022C245.571 127.527 240.829 115.877 238.937 106.527C237.045 97.1724 238.012 90.1533 238.912 84.952L238.924 84.954C239.145 83.6681 239.769 82.6802 240.645 81.9266C230.771 79.4433 221.128 77.7474 211.428 77.0096ZM47.4237 228.622H47.4227L47.4237 228.62L47.4227 228.619H47.4237C47.4237 228.62 47.4237 228.621 47.4237 228.622ZM53.9745 227.158L54.0008 227.165L54.0067 227.147H53.9764L53.9305 227.145L53.9745 227.158ZM45.3817 224.04C45.3818 224.041 45.3817 224.042 45.3817 224.043H45.3807L45.3817 224.041L45.3807 224.039L45.3817 224.04ZM119.397 200.468C119.516 200.158 119.969 200.083 120.226 200.215C120.55 200.386 120.598 200.733 120.479 201.044C119.795 202.9 118.53 204.504 116.929 205.658L116.823 205.716C116.601 205.803 116.324 205.728 116.158 205.561L116.085 205.472C115.923 205.218 115.983 204.907 116.179 204.706L116.271 204.628C117.711 203.587 118.793 202.129 119.397 200.468ZM371.798 181.491C367.286 181.531 362.796 182.641 358.825 184.758L358.824 184.757C358.818 184.76 358.812 184.763 358.807 184.766C354.733 186.937 351.218 190.167 348.647 194.013C353.195 197.718 357.716 201.328 363.013 203.542H363.014C365.316 204.498 367.79 205.149 370.103 204.662C370.336 203.003 369.469 201.089 368.445 199.512C367.939 198.732 367.415 198.063 367.016 197.59C366.818 197.353 366.65 197.166 366.534 197.039C366.476 196.975 366.431 196.927 366.4 196.894C366.385 196.879 366.374 196.867 366.366 196.859L366.356 196.849L366.355 196.848L367.072 196.15V196.151C367.073 196.152 367.075 196.153 367.076 196.154C367.079 196.157 367.082 196.16 367.087 196.165C367.096 196.174 367.109 196.189 367.126 196.207C367.16 196.243 367.21 196.296 367.272 196.364C367.397 196.5 367.573 196.698 367.782 196.946C368.199 197.442 368.75 198.144 369.284 198.967C370.247 200.45 371.22 202.432 371.134 204.341L371.497 204.216C372.551 203.751 373.491 203.042 374.275 202.166C374.603 200.054 373.848 198.2 372.963 196.836C372.512 196.141 372.034 195.585 371.67 195.203C371.488 195.013 371.335 194.865 371.229 194.767C371.177 194.719 371.135 194.682 371.108 194.658C371.095 194.646 371.084 194.638 371.078 194.633C371.075 194.63 371.072 194.628 371.071 194.627L371.07 194.626L371.708 193.857L371.714 193.861C371.716 193.863 371.72 193.866 371.724 193.87C371.734 193.878 371.748 193.89 371.765 193.904C371.798 193.934 371.846 193.977 371.906 194.032C372.026 194.143 372.195 194.305 372.393 194.513C372.789 194.928 373.309 195.532 373.802 196.291C374.529 197.411 375.211 198.891 375.335 200.605L375.965 199.491C376.463 198.359 376.795 197.166 376.893 195.976L376.894 195.975C377.227 192.026 375.706 188.118 373.708 184.573V184.574C373.114 183.525 372.47 182.496 371.798 181.491ZM116.558 195.489C116.786 194.742 117.975 195.005 117.748 195.752C116.91 198.471 115.474 200.96 113.529 203.048C113.002 203.629 112.099 202.807 112.638 202.228C114.434 200.307 115.792 197.999 116.571 195.491L116.558 195.489ZM346.952 158.23C334.383 164.243 321.827 166.069 310.012 164.327C309.183 167.186 306.831 169.45 304.005 170.741C309.043 173.581 314.919 175.152 320.537 177.228H320.536C328.537 180.176 336.11 184.321 342.911 189.462H342.912C344.591 190.733 346.226 192.057 347.858 193.392C350.514 189.442 354.135 186.122 358.336 183.884L359.13 183.476C362.85 181.64 366.967 180.634 371.117 180.503C367.531 175.415 363.032 170.943 358.244 166.87L357.234 166.02C353.932 163.261 350.494 160.675 346.952 158.23ZM76.0653 156.776C67.5155 162.373 57.2792 165.411 47.0506 165.207L46.0262 165.176C43 165.053 40.0857 164.68 37.2704 165.316L37.2714 165.317C31.9412 166.531 28.0865 171.075 24.534 175.517V175.518C23.0522 177.363 21.5909 179.264 20.6991 181.334C20.6978 181.337 20.6962 181.342 20.6942 181.347C20.6875 181.364 20.676 181.391 20.663 181.426C20.6369 181.496 20.6001 181.601 20.5555 181.734C20.4661 182.002 20.3489 182.385 20.2401 182.843C20.0709 183.555 19.9276 184.432 19.9296 185.328C21.2395 185.582 22.4471 185.179 23.368 184.666C23.8468 184.399 24.2364 184.11 24.5057 183.888C24.64 183.777 24.7436 183.683 24.8124 183.618C24.8466 183.586 24.8722 183.56 24.8885 183.544L24.909 183.523C24.911 183.525 24.9382 183.551 25.2704 183.869C25.6162 184.201 25.6303 184.215 25.6307 184.216L25.6288 184.217C25.6283 184.217 25.6285 184.219 25.6278 184.22C25.6259 184.222 25.6231 184.224 25.62 184.227C25.6136 184.234 25.6038 184.243 25.5926 184.254C25.5703 184.276 25.5389 184.308 25.4979 184.347C25.4154 184.424 25.2949 184.532 25.1424 184.658C24.838 184.91 24.3976 185.236 23.8534 185.539C22.8801 186.081 21.5343 186.565 20.0233 186.356C20.1925 187.157 20.4893 187.915 20.8905 188.58C23.0077 189.178 24.5224 188.573 25.5243 187.822C26.0417 187.434 26.4256 187.002 26.6805 186.668C26.8075 186.501 26.902 186.36 26.9628 186.263C26.993 186.214 27.0153 186.176 27.0292 186.152C27.0359 186.14 27.041 186.132 27.0438 186.127C27.0452 186.124 27.0464 186.122 27.0467 186.121C27.0466 186.121 27.046 186.122 27.4881 186.354L27.9305 186.589L27.9286 186.591C27.9282 186.591 27.9281 186.593 27.9276 186.594C27.9259 186.597 27.9235 186.601 27.9208 186.606C27.9152 186.617 27.9073 186.631 27.8973 186.648C27.8775 186.683 27.8489 186.732 27.8114 186.792C27.7362 186.912 27.6245 187.08 27.4764 187.274C27.1809 187.662 26.7327 188.164 26.1239 188.621C25.1237 189.371 23.6988 189.986 21.8446 189.785C22.5932 190.505 23.5172 190.967 24.5526 191.022H24.5536C25.1921 191.058 25.8316 190.945 26.496 190.764C27.1824 190.576 27.8114 190.342 28.535 190.119L28.537 190.118C34.8975 188.182 41.7029 189.697 48.0409 190.962C55.0361 192.36 62.2666 193.477 69.2753 193.016C72.4059 190.469 74.7864 187.393 75.6649 183.527L75.7889 182.923C76.3443 179.897 75.9412 176.767 75.8104 173.533C75.5622 167.708 75.5667 162.168 76.0653 156.776ZM246.37 165.907C246.686 165.89 247.027 166.152 247.015 166.486C246.966 168.233 247.553 169.972 248.699 171.272L248.774 171.369C248.929 171.606 248.949 171.902 248.735 172.128C248.547 172.343 248.152 172.404 247.923 172.206L247.879 172.163C246.513 170.614 245.747 168.612 245.806 166.543L245.791 166.552C245.803 166.218 246.016 165.929 246.37 165.907ZM240.982 163.096C241.291 162.379 242.372 162.955 242.052 163.67C240.939 166.166 240.471 168.905 240.679 171.631C240.741 172.418 239.52 172.472 239.466 171.7C239.258 168.749 239.783 165.81 240.979 163.107L240.982 163.096ZM304.236 44.6571C299.031 44.3778 293.81 45.3741 288.839 47.0565L288.838 47.0555C285.383 48.2342 282.062 49.79 278.915 51.6415C279.358 52.9801 279.745 54.3467 280.051 55.7303C280.137 56.1212 280.033 56.5309 279.868 56.8905C279.699 57.2599 279.438 57.6372 279.126 57.9921C278.504 58.7 277.626 59.3788 276.696 59.7831L276.692 59.7733C275.841 60.1383 274.734 60.3197 273.786 59.8309V59.8319C272.959 59.4075 272.468 58.5661 272.079 57.9549L271.843 57.6034C271.696 57.391 271.542 57.1806 271.385 56.9706C263.788 63.2819 257.766 71.5329 254.152 80.7323L254.151 80.7362C253.293 82.9043 252.565 85.1295 251.987 87.3895L251.749 88.3592C247.364 107.077 258.079 126.866 271.079 141.322L272.099 142.433C282.708 153.789 295.669 161.089 309.722 163.263L309.72 163.274C321.534 165.108 334.139 163.313 346.784 157.205L346.793 157.2L346.788 157.189C350.505 155.397 354.213 153.256 357.914 150.703V150.702C368.809 143.192 374.292 133.072 375.978 123.533C377.668 113.973 375.543 105.042 371.293 99.8905C367.816 95.673 362.857 93.2716 358.4 91.7792C356.176 91.0343 354.089 90.519 352.388 90.1171C351.54 89.917 350.779 89.7426 350.153 89.5829C349.534 89.4249 349.008 89.2715 348.641 89.1073L348.322 88.9647L348.347 88.6161C349.399 74.1603 343.894 62.8314 334.354 53.9452V53.9442C331.38 51.1786 327.485 49.2475 323.388 47.8807L323.386 47.8885L322.849 47.7694L322.862 47.7225C321.178 47.1887 319.483 46.7505 317.81 46.3807L317.453 46.3016L317.452 46.2938C312.125 45.1709 307.145 44.8138 304.236 44.6571ZM311.614 101.182C316.185 99.7613 321.472 101.242 325.404 106.047C326.843 107.807 327.516 110.076 328.223 112.122C328.945 114.214 329.705 116.092 331.257 117.359V117.36C332.198 118.133 333.332 118.595 334.574 118.949C335.195 119.126 335.835 119.275 336.487 119.423C337.135 119.57 337.797 119.718 338.444 119.892C342.234 120.916 345.805 123.028 348.232 126.154L348.464 126.461V126.462C350.863 129.731 352.193 134.233 350.783 138.171C350.023 140.29 347.74 142.483 344.516 144.075C341.396 145.615 337.329 146.622 332.708 146.467L332.709 146.481L332.169 146.452C327.416 146.188 322.096 144.704 316.647 141.302L316.646 141.301C308.054 135.933 304.256 126.853 302.914 120.316L302.898 120.32C302.282 117.302 302.168 114.771 302.374 113.362L302.377 113.345L302.381 113.326C303.32 106.867 307.054 102.599 311.614 101.182ZM324.63 106.68C320.925 102.153 316.049 100.85 311.911 102.136C307.769 103.423 304.254 107.341 303.367 113.494L303.363 113.513C303.192 114.696 303.265 116.912 303.786 119.656C307.295 119.224 310.937 119.945 314.154 121.401H314.156C318.317 123.301 321.846 126.355 324.891 129.692L324.92 129.724L324.929 129.737C327.264 132.295 329.407 135.104 330.867 138.305C331.894 140.545 332.553 142.993 332.679 145.466C337.162 145.627 341.089 144.652 344.074 143.179C347.186 141.643 349.205 139.606 349.842 137.833C351.104 134.308 349.934 130.154 347.658 127.054V127.053C345.387 123.973 341.918 121.866 338.183 120.857C337.56 120.689 336.92 120.546 336.266 120.397C335.615 120.25 334.951 120.096 334.301 119.911C333.001 119.541 331.717 119.032 330.623 118.134V118.133C328.828 116.665 327.996 114.527 327.278 112.448C326.544 110.323 325.928 108.268 324.63 106.68ZM313.742 122.311C310.691 120.931 307.27 120.254 304.005 120.635C305.408 126.975 309.127 135.423 317.177 140.452C322.273 143.634 327.23 145.077 331.673 145.413C331.542 143.118 330.924 140.83 329.958 138.722L329.959 138.721C328.553 135.639 326.472 132.908 324.161 130.381L324.133 130.348L324.125 130.336C321.135 127.064 317.721 124.129 313.742 122.311ZM11.3182 86.9276C9.27109 86.5049 7.06102 86.6602 5.21569 87.3651C3.3712 88.0697 1.93236 89.3035 1.32799 91.0135V91.0145C0.651009 92.9186 1.07046 94.9727 2.15612 96.9803C3.17361 98.8618 4.75202 100.652 6.43737 102.143L6.77526 102.438C16.5042 110.77 30.0132 114.915 42.3827 113.374C45.1304 113.029 47.8162 112.426 50.5624 111.894C53.296 111.365 56.072 110.909 58.9364 110.884H58.9374C69.7239 110.792 80.1289 116.97 87.2587 125.13L87.2665 125.119L87.6952 125.627C87.9637 125.945 88.2311 126.264 88.494 126.589C90.638 124.905 90.6059 122.786 90.4315 122.068L90.3426 121.728C90.3117 121.616 90.2798 121.502 90.245 121.386L90.2352 121.354L90.2108 121.362C88.9101 116.883 85.3445 110.679 80.4344 105.592C75.5197 100.499 69.34 96.6095 62.8329 96.5868C57.9872 96.5698 53.297 98.0825 48.4989 99.2831C43.7373 100.474 38.8986 101.346 33.9442 99.8846C30.174 98.7712 26.9238 96.4219 23.8651 94.0721L22.5643 93.0682C19.0848 90.3876 15.4593 87.783 11.3182 86.9276ZM210.31 76.9188C195.596 75.9023 180.694 77.0828 164.562 80.9667C144.006 85.9183 128.457 92.1253 116.731 99.0311C119.363 104.023 122.602 108.666 126.786 112.362V112.363C132.019 117 138.855 120.029 145.775 119.707L146.568 119.656C150.522 119.33 154.368 117.992 158.16 116.54L158.161 116.539C160.476 115.658 163.047 114.661 165.682 114.967L165.682 114.968C167.732 115.211 169.605 116.243 171.332 117.089H171.333C177.306 120.031 184.123 121.894 190.399 120.105C197.377 118.107 202.425 111.96 206.1 105.499C209.033 100.325 211.357 94.7415 211.957 88.9022L212.01 88.3368C212.328 84.4669 211.789 80.4644 210.31 76.9188ZM356.941 98.0673C361.28 97.4255 365.854 98.837 369.088 101.785L369.089 101.786C370.788 103.341 371.522 106.096 370.725 108.609V108.611C369.921 111.106 367.922 113.081 365.584 114.144C363.247 115.207 360.609 115.42 358.104 115.109H358.103C355.697 114.808 353.278 113.983 351.39 112.37C349.499 110.756 348.227 108.278 348.426 105.735L348.461 105.404C348.677 103.759 349.504 102.245 350.644 101.069L350.56 101.051L351.356 100.398C352.951 99.0901 354.943 98.3603 356.941 98.0673ZM368.414 102.524C365.495 99.8629 361.393 98.5432 357.467 99.0067L357.088 99.0565C355.354 99.3106 353.67 99.9115 352.3 100.931L352.003 101.174C350.58 102.342 349.567 104.026 349.423 105.814L349.406 106.22C349.393 108.248 350.449 110.251 352.039 111.609C353.736 113.059 355.951 113.832 358.227 114.117L358.673 114.167C360.905 114.383 363.177 114.141 365.171 113.234C367.296 112.267 369.069 110.488 369.773 108.305C370.46 106.135 369.804 103.796 368.414 102.523V102.524ZM228.091 98.7049C228.406 98.6876 228.732 98.9585 228.735 99.2831C228.721 101.15 229.136 103 229.988 104.672C230.135 104.966 230.106 105.322 229.802 105.516L229.696 105.567C229.436 105.664 229.087 105.586 228.958 105.329C228.009 103.474 227.501 101.428 227.512 99.3485C227.512 99.0123 227.749 98.7293 228.091 98.7049ZM225.047 96.286C225.344 96.3517 225.605 96.696 225.511 97.0116L225.283 97.7469C224.753 99.502 224.288 101.501 225.197 103.164C225.567 103.857 224.537 104.513 224.167 103.821C222.951 101.595 223.604 99.033 224.321 96.7479C224.416 96.4326 224.702 96.2101 225.047 96.286ZM333.591 86.2069C334.449 83.4715 337.077 81.6918 339.559 82.4715C342.04 83.251 343.195 86.2014 342.333 88.951C341.474 91.6864 338.847 93.4653 336.364 92.6854C333.884 91.9061 332.729 88.9565 333.591 86.2069ZM339.26 83.4266C337.453 82.8591 335.29 84.1351 334.546 86.5057C333.8 88.886 334.855 91.1628 336.664 91.7313C338.471 92.2987 340.634 91.0227 341.379 88.6522C342.125 86.272 341.069 83.9953 339.26 83.4266ZM303.321 84.2762C304.18 81.5416 306.795 79.7586 309.29 80.5409C311.77 81.3199 312.926 84.2698 312.066 87.0087C311.235 89.6577 308.756 91.4126 306.333 90.8085L306.099 90.743C303.619 89.964 302.462 87.0148 303.321 84.2762ZM308.991 81.496C307.173 80.9257 305.021 82.2035 304.276 84.5751C303.533 86.9426 304.588 89.2203 306.398 89.7889C308.217 90.3586 310.369 89.0802 311.113 86.7089C311.856 84.3416 310.801 82.0648 308.991 81.496ZM254.404 26.8954C241.945 22.4191 226.767 25.7837 218.157 35.7821L218.156 35.7811C215.022 39.4242 212.824 44.3136 214.338 48.6366C215.286 51.3174 217.576 53.4202 220.241 54.6122C222.896 55.8021 225.89 56.1666 228.871 56.1844C237.114 56.2307 245.16 53.8247 253.154 51.4462C255.927 50.6215 258.887 49.7499 261.893 50.0389L262.266 50.0809C265.856 50.5454 269.032 52.6341 271.383 55.37L271.857 55.9452C272.236 56.4242 272.589 56.9104 272.914 57.4042L272.919 57.411C273.362 58.1053 273.707 58.666 274.243 58.9413L274.252 58.9452C274.824 59.2362 275.588 59.1617 276.303 58.8544L276.306 58.8622C277.083 58.5221 277.841 57.9394 278.375 57.3319C278.642 57.0278 278.841 56.7312 278.959 56.4735C279.081 56.2064 279.092 56.0335 279.073 55.9462C278.829 54.8403 278.533 53.7432 278.196 52.662L277.846 51.5848C274.05 40.4271 265.448 30.8615 254.404 26.8954ZM305.852 8.05651C298.371 3.08457 289.256 0.618321 280.274 1.04967L279.406 1.10046C275.006 1.41089 270.59 2.455 267.103 4.9862C263.601 7.52704 261.205 11.7583 261.684 15.9608C262.298 21.3402 267.193 25.2833 272.288 27.7616C277.993 30.5412 284.229 32.2035 290.561 32.6532C292.409 32.7835 294.289 32.8175 296.185 32.8475C298.077 32.8775 299.987 32.9046 301.871 33.0253C305.404 33.2516 308.891 33.8078 312.105 35.3544L312.745 35.6766C315.146 36.9493 317.462 38.9968 318.123 41.7606L318.182 42.0311V42.0331C318.309 42.6953 318.338 43.3603 318.351 43.996C318.362 44.5147 318.363 45.0051 318.391 45.4882C319.961 45.8439 321.555 46.2599 323.143 46.7626C324.646 41.3069 324.118 35.2985 322.353 29.8143C319.515 20.9845 313.575 13.1889 305.852 8.05651Z" fill="#231A11" fill-opacity="0.2"/>
</svg>
