<svg width="59" height="19" viewBox="0 0 59 19" fill="none" xmlns="http://www.w3.org/2000/svg">
<path d="M21.623 7.18772C21.623 7.78055 21.2151 8.21136 20.6538 8.21136C20.0925 8.21136 19.6846 7.78055 19.6846 7.18772C19.6846 6.59489 20.0925 6.16406 20.6538 6.16406C21.2151 6.16406 21.623 6.59489 21.623 7.18772Z" fill="#9E1100"/>
<path d="M21.4451 8.81934H19.8623V14.3352H21.4451V8.81934Z" fill="#5A5B5D"/>
<path d="M22.1211 8.81909H23.7039V9.38246C24.0142 8.9406 24.4953 8.68652 25.1612 8.68652C25.4541 8.68652 25.6424 8.70493 25.8446 8.77858L25.862 10.3472C25.6389 10.2257 25.3634 10.1594 25.0532 10.1594C24.2094 10.1594 23.7039 10.6675 23.7039 11.4997V14.3129H22.1211V8.8154V8.81909Z" fill="#5A5B5D"/>
<path d="M26.1025 8.81909H27.6854V9.38246C27.9957 8.9406 28.4768 8.68652 29.1427 8.68652C29.4355 8.68652 29.6238 8.70493 29.826 8.77858L29.8434 10.3472C29.6203 10.2257 29.3449 10.1594 29.0346 10.1594C28.1909 10.1594 27.6854 10.6675 27.6854 11.4997V14.3129H26.1025V8.8154V8.81909Z" fill="#5A5B5D"/>
<path d="M35.1539 11.5689C35.1539 13.2406 33.9999 14.4484 32.3892 14.4484C30.7784 14.4484 29.6279 13.2369 29.6279 11.5689C29.6279 9.90089 30.7819 8.68945 32.3892 8.68945C33.9964 8.68945 35.1539 9.90089 35.1539 11.5689ZM31.1585 11.5689C31.1585 12.4121 31.6466 13.0234 32.3926 13.0234C33.1387 13.0234 33.6268 12.4121 33.6268 11.5689C33.6268 10.7257 33.1387 10.1145 32.3926 10.1145C31.6466 10.1145 31.1585 10.7257 31.1585 11.5689Z" fill="#5A5B5D"/>
<path d="M35.5645 8.81909H37.1473V9.38246C37.4576 8.9406 37.9387 8.68652 38.6046 8.68652C38.8974 8.68652 39.0857 8.70493 39.2879 8.77858L39.3053 10.3472C39.0822 10.2257 38.8068 10.1594 38.4965 10.1594C37.6528 10.1594 37.1473 10.6675 37.1473 11.4997V14.3129H35.5645V8.8154V8.81909Z" fill="#5A5B5D"/>
<path d="M41.1287 14.3201H39.5459V6.43652H41.1287V14.3201Z" fill="#5A5B5D"/>
<path d="M41.5371 11.5689C41.5371 9.89721 42.6562 8.68945 44.246 8.68945C45.8358 8.68945 46.955 9.88984 46.955 11.5689C46.955 11.7272 46.9445 11.9077 46.9201 12.1028H43.1095C43.235 12.7398 43.6499 13.1081 44.246 13.1081C44.6993 13.1081 45.0723 12.9387 45.2048 12.6772H46.7946C46.5296 13.7267 45.5081 14.452 44.246 14.452C42.6562 14.452 41.5371 13.2517 41.5371 11.5726V11.5689ZM45.4105 11.0239C45.278 10.3685 44.8701 10.0114 44.246 10.0114C43.622 10.0114 43.235 10.3685 43.099 11.0239H45.4105Z" fill="#5A5B5D"/>
<path d="M51.933 10.4718H50.406C50.3537 10.1331 49.9876 9.92688 49.5274 9.92688C49.0672 9.92688 48.7011 10.1036 48.7011 10.3503C48.7011 10.6228 49.0463 10.7554 49.9353 10.9027C51.4728 11.1457 52.0237 11.6796 52.0237 12.6296C52.0237 13.7563 50.9045 14.4486 49.5797 14.4486C48.2549 14.4486 47.188 13.7342 47.1357 12.5817H48.6628C48.7151 12.9389 49.1056 13.1746 49.6041 13.1746C50.1027 13.1746 50.4827 12.9757 50.4827 12.7253C50.4827 12.4749 50.1271 12.2945 49.2311 12.1546C47.9864 11.9558 47.1706 11.5544 47.1706 10.4387C47.1706 9.32301 48.227 8.69336 49.5518 8.69336C50.8766 8.69336 51.8703 9.38929 51.933 10.4755V10.4718Z" fill="#5A5B5D"/>
<path d="M56.9984 10.4718H55.4714C55.4191 10.1331 55.053 9.92688 54.5928 9.92688C54.1326 9.92688 53.7666 10.1036 53.7666 10.3503C53.7666 10.6228 54.1117 10.7554 55.0007 10.9027C56.5382 11.1457 57.0891 11.6796 57.0891 12.6296C57.0891 13.7563 55.97 14.4486 54.6451 14.4486C53.3203 14.4486 52.2535 13.7342 52.2012 12.5817H53.7282C53.7805 12.9389 54.171 13.1746 54.6695 13.1746C55.1681 13.1746 55.5481 12.9757 55.5481 12.7253C55.5481 12.4749 55.1925 12.2945 54.2965 12.1546C53.0518 11.9558 52.236 11.5544 52.236 10.4387C52.236 9.32301 53.2924 8.69336 54.6172 8.69336C55.9421 8.69336 56.9357 9.38929 56.9984 10.4755V10.4718Z" fill="#5A5B5D"/>
<path d="M26.7363 15.1264H28.5039V18.1016H26.7363V15.1264ZM28.1413 17.7407V15.4836H27.0989V17.7407H28.1413ZM29.1036 15.0049H29.4662V18.2967H29.1036V15.0049Z" fill="#5A5B5D"/>
<path d="M31.2135 17.7518C31.5099 17.7518 31.8306 17.6892 32.0189 17.5971V17.9433C31.8306 18.0427 31.4959 18.1016 31.1926 18.1016H30.0177V16.4262H31.2554V15.4762H30.0107V15.1264H31.6145V16.776H30.3768V17.7518H31.2135ZM32.7894 15.0049V18.2967H32.4233V16.7097H31.8237V16.3415H32.4233V15.0086H32.7894V15.0049Z" fill="#5A5B5D"/>
<path d="M33.3302 16.4115H34.7248V15.4762H33.3232V15.1264H35.0874V16.765H33.6928V17.7518H34.6062C34.9026 17.7518 35.2233 17.6892 35.4116 17.5934V17.9433C35.2233 18.0427 34.8956 18.1016 34.5958 18.1016H33.3337V16.4152L33.3302 16.4115ZM35.701 15.0049H36.0636V18.2967H35.701V15.0049Z" fill="#5A5B5D"/>
<path d="M39.5636 17.7812V18.1383H36.4502V17.7812H39.5636ZM36.513 17.0742V16.7133C37.1893 16.7133 37.8099 15.9438 37.9703 15.0195L38.3433 15.0895C38.298 15.3436 38.2283 15.5866 38.1237 15.8075L39.4973 16.7833L39.2986 17.0889L37.9668 16.1131C37.6181 16.6949 37.0882 17.0779 36.513 17.0779V17.0742Z" fill="#5A5B5D"/>
<path d="M42.7558 17.972V18.2518H40.0364V17.4638H42.3235V17.2282H40.0295V16.9483H40.6187V16.6648H39.7471V16.3702H41.0336C41.4624 16.3702 41.8389 16.3334 42.0551 16.2377V16.5322C41.8563 16.6243 41.4659 16.6648 41.0231 16.6648H40.9743V16.9483H42.6791V17.7363H40.3955V17.972H42.7558ZM39.9074 15.5859C39.9074 15.2324 40.27 15.0115 40.8174 15.0115C41.3648 15.0115 41.7273 15.2324 41.7273 15.5859C41.7273 15.9394 41.3648 16.1603 40.8174 16.1603C40.27 16.1603 39.9074 15.9431 39.9074 15.5859ZM40.2561 15.5859C40.2561 15.7663 40.4792 15.8805 40.8139 15.8805C41.1486 15.8805 41.3717 15.77 41.3717 15.5859C41.3717 15.4018 41.1521 15.2913 40.8139 15.2913C40.4757 15.2913 40.2561 15.3981 40.2561 15.5859ZM42.3165 15.7811H41.8877V15.4386H42.3165V15.0078H42.6791V16.7716H42.3165V15.7811Z" fill="#5A5B5D"/>
<path d="M43.042 17.7806H46.1553V18.1378H43.042V17.7806ZM43.2477 15.1258H45.9531V15.4792H43.6172V16.7128H45.988V17.0663H43.2477V15.1221V15.1258Z" fill="#5A5B5D"/>
<path d="M50.8072 15.1299L49.9182 18.2155H49.5312L48.827 15.7522L48.1192 18.2155H47.7322L46.8467 15.1299H47.2441L47.9379 17.6043L48.6282 15.1299H49.0361L49.7299 17.6117L50.4237 15.1299H50.8107H50.8072Z" fill="#5A5B5D"/>
<path d="M53.1508 17.1152C53.1508 17.778 52.7011 18.2714 52.084 18.2714C51.4669 18.2714 51.0137 17.778 51.0137 17.1152C51.0137 16.4524 51.4634 15.959 52.084 15.959C52.7046 15.959 53.1508 16.4524 53.1508 17.1152ZM51.3867 17.1152C51.3867 17.5755 51.6726 17.9216 52.0875 17.9216C52.5024 17.9216 52.7848 17.5755 52.7848 17.1152C52.7848 16.6549 52.4989 16.3088 52.0875 16.3088C51.6761 16.3088 51.3867 16.6549 51.3867 17.1152Z" fill="#5A5B5D"/>
<path d="M54.2002 16.0103V16.3491C54.2908 16.1834 54.5419 15.9551 54.9533 15.9551C55.0823 15.9551 55.1659 15.9661 55.2391 15.9919V16.3712C55.159 16.3343 55.0578 16.3086 54.9289 16.3086C54.5035 16.3086 54.2037 16.6694 54.2037 17.0708V18.2122H53.8271V16.0066H54.2037L54.2002 16.0103Z" fill="#5A5B5D"/>
<path d="M55.7998 18.2153V15.0303H56.1763V18.2153H55.7998Z" fill="#5A5B5D"/>
<path d="M56.8525 17.1146C56.8525 16.4555 57.2953 15.9584 57.8845 15.9584C58.2645 15.9584 58.519 16.1499 58.6236 16.3413V15.0342H59.0002V18.2193H58.6236V17.8915C58.519 18.0793 58.261 18.2745 57.8845 18.2745C57.2918 18.2745 56.8525 17.7774 56.8525 17.1183V17.1146ZM58.6341 17.1146C58.6341 16.6543 58.3412 16.3082 57.9194 16.3082C57.4975 16.3082 57.2221 16.6543 57.2221 17.1146C57.2221 17.5749 57.501 17.921 57.9194 17.921C58.3377 17.921 58.6341 17.5749 58.6341 17.1146Z" fill="#5A5B5D"/>
<path d="M1.76412 9.50368C1.76412 4.56957 5.32373 0.515506 9.87696 0.04787C9.58759 0.0184126 9.29125 0 8.9949 0C4.02679 0 0 4.25291 0 9.50001C0 14.7471 4.02679 19 8.9949 19C9.29125 19 9.58759 18.9853 9.87696 18.9521C5.32373 18.4845 1.76412 14.4304 1.76412 9.49632V9.50368Z" fill="#9E1100"/>
<path d="M18.436 8.12586C18.3524 12.8722 14.6428 16.6501 10.1489 16.5617C6.4742 16.4881 3.41314 13.8553 2.46484 10.2983C2.74027 14.7059 6.17437 18.2297 10.4313 18.3144C14.9252 18.4028 18.6348 14.6286 18.7219 9.87858C18.7359 9.01327 18.6313 8.17741 18.4186 7.38574C18.4325 7.62877 18.443 7.87547 18.436 8.12218V8.12586Z" fill="#DF2F00"/>
<path d="M6.64453 14.4375L14.3007 2.51465V7.08054L9.48943 14.4375H6.64453Z" fill="#5A5B5D"/>
<path d="M12.625 10.1142L17.5234 2.68359V7.0175L12.6355 14.0725L12.625 10.1142Z" fill="#5A5B5D"/>
<path d="M15.4307 10.5273L17.5225 7.49316V14.4377H15.4307V10.5273Z" fill="#5A5B5D"/>
</svg>
