<svg width="140" height="45" viewBox="0 0 140 45" fill="none" xmlns="http://www.w3.org/2000/svg">
<path d="M51.3067 17.0241C51.3067 18.4281 50.3388 19.4485 49.0069 19.4485C47.6749 19.4485 46.707 18.4281 46.707 17.0241C46.707 15.62 47.6749 14.5996 49.0069 14.5996C50.3388 14.5996 51.3067 15.62 51.3067 17.0241Z" fill="white"/>
<path d="M50.8867 20.8867H47.1309V33.9507H50.8867V20.8867Z" fill="white"/>
<path d="M52.4883 20.8862H56.2441V22.2205C56.9804 21.174 58.122 20.5723 59.7021 20.5723C60.397 20.5723 60.8438 20.6159 61.3236 20.7903L61.3649 24.5054C60.8355 24.2176 60.1819 24.0606 59.4457 24.0606C57.4437 24.0606 56.2441 25.2641 56.2441 27.2351V33.8978H52.4883V20.8775V20.8862Z" fill="white"/>
<path d="M61.9375 20.8862H65.6933V22.2205C66.4296 21.174 67.5712 20.5723 69.1513 20.5723C69.8463 20.5723 70.293 20.6159 70.7728 20.7903L70.8142 24.5054C70.2847 24.2176 69.6312 24.0606 68.8949 24.0606C66.8929 24.0606 65.6933 25.2641 65.6933 27.2351V33.8978H61.9375V20.8775V20.8862Z" fill="white"/>
<path d="M83.415 27.3999C83.415 31.3592 80.6768 34.2196 76.8548 34.2196C73.0327 34.2196 70.3027 31.3504 70.3027 27.3999C70.3027 23.4493 73.041 20.5801 76.8548 20.5801C80.6685 20.5801 83.415 23.4493 83.415 27.3999ZM73.9345 27.3999C73.9345 29.3969 75.0927 30.8446 76.863 30.8446C78.6334 30.8446 79.7916 29.3969 79.7916 27.3999C79.7916 25.4028 78.6334 23.9551 76.863 23.9551C75.0927 23.9551 73.9345 25.4028 73.9345 27.3999Z" fill="white"/>
<path d="M84.3906 20.8862H88.1464V22.2205C88.8827 21.174 90.0244 20.5723 91.6045 20.5723C92.2994 20.5723 92.7461 20.6159 93.2259 20.7903L93.2673 24.5054C92.7378 24.2176 92.0843 24.0606 91.348 24.0606C89.346 24.0606 88.1464 25.2641 88.1464 27.2351V33.8978H84.3906V20.8775V20.8862Z" fill="white"/>
<path d="M97.5937 33.9157H93.8379V15.2441H97.5937V33.9157Z" fill="white"/>
<path d="M98.5625 27.3999C98.5625 23.4405 101.218 20.5801 104.99 20.5801C108.763 20.5801 111.418 23.4231 111.418 27.3999C111.418 27.7749 111.394 28.2022 111.336 28.6644H102.294C102.591 30.1731 103.576 31.0452 104.99 31.0452C106.066 31.0452 106.951 30.644 107.265 30.0248H111.038C110.409 32.5103 107.985 34.2283 104.99 34.2283C101.218 34.2283 98.5625 31.3853 98.5625 27.4086V27.3999ZM107.754 26.1091C107.439 24.5568 106.471 23.7109 104.99 23.7109C103.51 23.7109 102.591 24.5568 102.269 26.1091H107.754Z" fill="white"/>
<path d="M123.231 24.802H119.607C119.483 23.9997 118.615 23.5113 117.523 23.5113C116.431 23.5113 115.562 23.93 115.562 24.5143C115.562 25.1596 116.381 25.4736 118.491 25.8224C122.139 26.398 123.446 27.6625 123.446 29.9125C123.446 32.5811 120.79 34.2206 117.647 34.2206C114.503 34.2206 111.972 32.5288 111.848 29.7991H115.471C115.595 30.6451 116.522 31.2032 117.705 31.2032C118.888 31.2032 119.789 30.7323 119.789 30.1392C119.789 29.5462 118.946 29.1189 116.82 28.7875C113.866 28.3166 111.93 27.366 111.93 24.7236C111.93 22.0811 114.437 20.5898 117.581 20.5898C120.724 20.5898 123.082 22.2381 123.231 24.8108V24.802Z" fill="white"/>
<path d="M135.25 24.802H131.627C131.503 23.9997 130.634 23.5113 129.542 23.5113C128.45 23.5113 127.582 23.93 127.582 24.5143C127.582 25.1596 128.401 25.4736 130.51 25.8224C134.158 26.398 135.466 27.6625 135.466 29.9125C135.466 32.5811 132.81 34.2206 129.666 34.2206C126.523 34.2206 123.991 32.5288 123.867 29.7991H127.491C127.615 30.6451 128.541 31.2032 129.724 31.2032C130.907 31.2032 131.809 30.7323 131.809 30.1392C131.809 29.5462 130.965 29.1189 128.839 28.7875C125.886 28.3166 123.95 27.366 123.95 24.7236C123.95 22.0811 126.457 20.5898 129.6 20.5898C132.744 20.5898 135.102 22.2381 135.25 24.8108V24.802Z" fill="white"/>
<path d="M63.4414 35.8249H67.6357V42.8714H63.4414V35.8249ZM66.7753 42.0168V36.6708H64.3018V42.0168H66.7753ZM69.0586 35.5371H69.919V43.3336H69.0586V35.5371Z" fill="white"/>
<path d="M74.065 42.0429C74.7682 42.0429 75.5293 41.8947 75.976 41.6767V42.4964C75.5293 42.7319 74.7351 42.8714 74.0154 42.8714H71.2275V38.9034H74.1643V36.6534H71.2109V35.8249H75.0164V39.7319H72.0796V42.0429H74.065ZM77.8043 35.5371V43.3336H76.9357V39.5749H75.5128V38.7028H76.9357V35.5458H77.8043V35.5371Z" fill="white"/>
<path d="M79.0849 38.8685H82.394V36.6534H79.0684V35.8249H83.2544V39.7057H79.9453V42.0429H82.1128C82.8159 42.0429 83.577 41.8947 84.0238 41.6679V42.4964C83.577 42.7319 82.7994 42.8714 82.0879 42.8714H79.0932V38.8772L79.0849 38.8685ZM84.7104 35.5371H85.5708V43.3336H84.7104V35.5371Z" fill="white"/>
<path d="M93.8778 42.113V42.9589H86.4902V42.113H93.8778ZM86.6392 40.4385V39.5839C88.2441 39.5839 89.7166 37.7612 90.0972 35.5723L90.9824 35.738C90.8748 36.3397 90.7094 36.9153 90.4612 37.4385L93.7206 39.7496L93.2491 40.4734L90.0889 38.1624C89.2616 39.5403 88.0042 40.4473 86.6392 40.4473V40.4385Z" fill="white"/>
<path d="M101.454 42.5653V43.2281H95.0011V41.3618H100.428V40.8036H94.9845V40.1408H96.3826V39.4693H94.3145V38.7716H97.3671C98.3846 38.7716 99.2781 38.6845 99.791 38.4577V39.1554C99.3195 39.3734 98.3929 39.4693 97.3423 39.4693H97.2265V40.1408H101.272V42.0071H95.8532V42.5653H101.454ZM94.695 36.9141C94.695 36.0769 95.5553 35.5537 96.8542 35.5537C98.153 35.5537 99.0134 36.0769 99.0134 36.9141C99.0134 37.7513 98.153 38.2746 96.8542 38.2746C95.5553 38.2746 94.695 37.76 94.695 36.9141ZM95.5223 36.9141C95.5223 37.3414 96.0517 37.6118 96.8459 37.6118C97.6401 37.6118 98.1695 37.3502 98.1695 36.9141C98.1695 36.4781 97.6484 36.2164 96.8459 36.2164C96.0435 36.2164 95.5223 36.4693 95.5223 36.9141ZM100.411 37.3763H99.3939V36.5653H100.411V35.5449H101.272V39.7223H100.411V37.3763Z" fill="white"/>
<path d="M102.133 42.111H109.52V42.9569H102.133V42.111ZM102.621 35.8232H109.041V36.6604H103.498V39.5819H109.123V40.4191H102.621V35.8145V35.8232Z" fill="white"/>
<path d="M120.56 35.832L118.45 43.1402H117.532L115.861 37.3059L114.182 43.1402H113.263L111.162 35.832H112.105L113.751 41.6925L115.389 35.832H116.357L118.004 41.71L119.65 35.832H120.568H120.56Z" fill="white"/>
<path d="M126.12 40.5353C126.12 42.105 125.053 43.2736 123.589 43.2736C122.124 43.2736 121.049 42.105 121.049 40.5353C121.049 38.9655 122.116 37.7969 123.589 37.7969C125.061 37.7969 126.12 38.9655 126.12 40.5353ZM121.934 40.5353C121.934 41.6254 122.612 42.4451 123.597 42.4451C124.581 42.4451 125.251 41.6254 125.251 40.5353C125.251 39.4451 124.573 38.6254 123.597 38.6254C122.621 38.6254 121.934 39.4451 121.934 40.5353Z" fill="white"/>
<path d="M128.61 37.9179V38.7202C128.825 38.3278 129.421 37.7871 130.397 37.7871C130.703 37.7871 130.901 37.8133 131.075 37.8743V38.7726C130.885 38.6853 130.645 38.6243 130.339 38.6243C129.33 38.6243 128.618 39.479 128.618 40.4296V43.133H127.725V37.9092H128.618L128.61 37.9179Z" fill="white"/>
<path d="M132.406 43.1413V35.5977H133.3V43.1413H132.406Z" fill="white"/>
<path d="M134.904 40.5347C134.904 38.9737 135.955 37.7964 137.353 37.7964C138.255 37.7964 138.859 38.2499 139.107 38.7033V35.6074H140V43.151H139.107V42.3748C138.859 42.8196 138.246 43.2818 137.353 43.2818C135.947 43.2818 134.904 42.1045 134.904 40.5434V40.5347ZM139.132 40.5347C139.132 39.4446 138.437 38.6249 137.436 38.6249C136.435 38.6249 135.781 39.4446 135.781 40.5347C135.781 41.6249 136.443 42.4446 137.436 42.4446C138.428 42.4446 139.132 41.6249 139.132 40.5347Z" fill="white"/>
<path d="M4.18601 22.5087C4.18601 10.8227 12.6325 1.22093 23.4367 0.113376C22.7501 0.0436089 22.0469 0 21.3437 0C9.55503 0 0 10.0727 0 22.5C0 34.9273 9.55503 45 21.3437 45C22.0469 45 22.7501 44.9651 23.4367 44.8866C12.6325 43.7791 4.18601 34.1773 4.18601 22.4913V22.5087Z" fill="white"/>
<path d="M43.7471 19.2471C43.5485 30.4883 34.7463 39.436 24.0828 39.2267C15.3633 39.0523 8.0998 32.8168 5.84961 24.3924C6.50316 34.8314 14.6518 43.1773 24.7528 43.3779C35.4164 43.5872 44.2186 34.6482 44.4254 23.3982C44.4585 21.3488 44.2104 19.3691 43.7057 17.4941C43.7388 18.0697 43.7636 18.654 43.7471 19.2383V19.2471Z" fill="white"/>
<path d="M15.7656 34.1934L33.9326 5.95508V16.769L22.5162 34.1934H15.7656Z" fill="white"/>
<path d="M29.957 23.9563L41.5802 6.35742V16.6219L29.9818 33.3313L29.957 23.9563Z" fill="white"/>
<path d="M36.6152 24.9321L41.5789 17.7461V34.1938H36.6152V24.9321Z" fill="white"/>
</svg>
