<svg width="107" height="34" viewBox="0 0 107 34" fill="none" xmlns="http://www.w3.org/2000/svg">
<path d="M39.2147 12.8621C39.2147 13.9229 38.4749 14.6939 37.4569 14.6939C36.439 14.6939 35.6992 13.9229 35.6992 12.8621C35.6992 11.8012 36.439 11.0303 37.4569 11.0303C38.4749 11.0303 39.2147 11.8012 39.2147 12.8621Z" fill="#FF4400"/>
<path d="M38.892 15.7812H36.0215V25.6518H38.892V15.7812Z" fill="#FF4400"/>
<path d="M40.1172 15.7812H42.9877V16.7893C43.5504 15.9986 44.423 15.5439 45.6306 15.5439C46.1617 15.5439 46.5032 15.5769 46.8699 15.7087L46.9015 18.5157C46.4968 18.2982 45.9973 18.1796 45.4346 18.1796C43.9045 18.1796 42.9877 19.0889 42.9877 20.5781V25.6122H40.1172V15.7746V15.7812Z" fill="#FF4400"/>
<path d="M47.3379 15.7812H50.2084V16.7893C50.7711 15.9986 51.6437 15.5439 52.8513 15.5439C53.3824 15.5439 53.7239 15.5769 54.0906 15.7087L54.1222 18.5157C53.7175 18.2982 53.218 18.1796 52.6553 18.1796C51.1252 18.1796 50.2084 19.0889 50.2084 20.5781V25.6122H47.3379V15.7746V15.7812Z" fill="#FF4400"/>
<path d="M63.754 20.7025C63.754 23.694 61.6611 25.8552 58.74 25.8552C55.8189 25.8552 53.7324 23.6874 53.7324 20.7025C53.7324 17.7176 55.8252 15.5498 58.74 15.5498C61.6548 15.5498 63.754 17.7176 63.754 20.7025ZM56.5081 20.7025C56.5081 22.2114 57.3933 23.3052 58.7464 23.3052C60.0994 23.3052 60.9846 22.2114 60.9846 20.7025C60.9846 19.1936 60.0994 18.0998 58.7464 18.0998C57.3933 18.0998 56.5081 19.1936 56.5081 20.7025Z" fill="#FF4400"/>
<path d="M64.498 15.7812H67.3686V16.7893C67.9313 15.9986 68.8038 15.5439 70.0115 15.5439C70.5426 15.5439 70.884 15.5769 71.2507 15.7087L71.2823 18.5157C70.8777 18.2982 70.3782 18.1796 69.8155 18.1796C68.2854 18.1796 67.3686 19.0889 67.3686 20.5781V25.6122H64.498V15.7746V15.7812Z" fill="#FF4400"/>
<path d="M74.5893 25.6249H71.7188V11.5176H74.5893V25.6249Z" fill="#FF4400"/>
<path d="M75.3301 20.7025C75.3301 17.711 77.3597 15.5498 80.2429 15.5498C83.126 15.5498 85.1556 17.6979 85.1556 20.7025C85.1556 20.9859 85.1367 21.3087 85.0924 21.6579H78.1816C78.4093 22.7979 79.1617 23.4568 80.2429 23.4568C81.0648 23.4568 81.7414 23.1537 81.9816 22.6858H84.8648C84.3843 24.5637 82.5317 25.8618 80.2429 25.8618C77.3597 25.8618 75.3301 23.7137 75.3301 20.7091V20.7025ZM82.3547 19.7273C82.1144 18.5545 81.3746 17.9153 80.2429 17.9153C79.1111 17.9153 78.4093 18.5545 78.1627 19.7273H82.3547Z" fill="#FF4400"/>
<path d="M94.1825 18.7392H91.4131C91.3183 18.133 90.6544 17.764 89.8198 17.764C88.9852 17.764 88.3213 18.0803 88.3213 18.5218C88.3213 19.0094 88.9473 19.2466 90.5596 19.5101C93.3479 19.945 94.3469 20.9004 94.3469 22.6004C94.3469 24.6167 92.3173 25.8555 89.9147 25.8555C87.512 25.8555 85.5773 24.5772 85.4824 22.5148H88.2518C88.3466 23.1539 89.0548 23.5756 89.9589 23.5756C90.8631 23.5756 91.5522 23.2198 91.5522 22.7717C91.5522 22.3237 90.9073 22.0008 89.2824 21.7504C87.0252 21.3946 85.5456 20.6764 85.5456 18.6799C85.5456 16.6834 87.4614 15.5566 89.8641 15.5566C92.2667 15.5566 94.0687 16.802 94.1825 18.7458V18.7392Z" fill="#FF4400"/>
<path d="M103.37 18.7392H100.601C100.506 18.133 99.8419 17.764 99.0073 17.764C98.1727 17.764 97.5088 18.0803 97.5088 18.5218C97.5088 19.0094 98.1348 19.2466 99.7471 19.5101C102.535 19.945 103.534 20.9004 103.534 22.6004C103.534 24.6167 101.505 25.8555 99.1022 25.8555C96.6995 25.8555 94.7648 24.5772 94.6699 22.5148H97.4393C97.5341 23.1539 98.2423 23.5756 99.1464 23.5756C100.051 23.5756 100.74 23.2198 100.74 22.7717C100.74 22.3237 100.095 22.0008 98.4699 21.7504C96.2127 21.3946 94.7331 20.6764 94.7331 18.6799C94.7331 16.6834 96.6489 15.5566 99.0516 15.5566C101.454 15.5566 103.256 16.802 103.37 18.7458V18.7392Z" fill="#FF4400"/>
<path d="M48.4883 27.069H51.6939V32.393H48.4883V27.069ZM51.0363 31.7473V27.7082H49.1458V31.7473H51.0363ZM52.7814 26.8516H53.439V32.7423H52.7814V26.8516Z" fill="#FF4400"/>
<path d="M56.6071 31.7671C57.1446 31.7671 57.7263 31.6551 58.0677 31.4903V32.1097C57.7263 32.2876 57.1193 32.393 56.5692 32.393H54.4384V29.395H56.683V27.695H54.4258V27.069H57.3342V30.0209H55.0897V31.7671H56.6071ZM59.465 26.8516V32.7423H58.8011V29.9023H57.7136V29.2434H58.8011V26.8582H59.465V26.8516Z" fill="#FF4400"/>
<path d="M60.4443 29.3686H62.9734V27.695H60.4316V27.069H63.6309V30.0012H61.1019V31.7671H62.7584C63.2959 31.7671 63.8776 31.655 64.219 31.4837V32.1097C63.8776 32.2876 63.2832 32.393 62.7395 32.393H60.4506V29.3752L60.4443 29.3686ZM64.7438 26.8516H65.4013V32.7423H64.7438V26.8516Z" fill="#FF4400"/>
<path d="M71.7497 31.8198V32.4589H66.1035V31.8198H71.7497ZM66.2173 30.5547V29.9089C67.444 29.9089 68.5694 28.5318 68.8602 26.8779L69.5368 27.0031C69.4546 27.4578 69.3281 27.8926 69.1384 28.288L71.6296 30.0341L71.2692 30.581L68.8539 28.8349C68.2216 29.876 67.2606 30.5613 66.2173 30.5613V30.5547Z" fill="#FF4400"/>
<path d="M77.5405 32.1617V32.6625H72.6088V31.2524H76.7565V30.8307H72.5961V30.3299H73.6647V29.8225H72.084V29.2954H74.4171C75.1948 29.2954 75.8776 29.2295 76.2696 29.0582V29.5853C75.9092 29.75 75.2011 29.8225 74.3981 29.8225H74.3096V30.3299H77.4014V31.74H73.26V32.1617H77.5405ZM72.3748 27.8919C72.3748 27.2594 73.0324 26.864 74.0251 26.864C75.0177 26.864 75.6753 27.2594 75.6753 27.8919C75.6753 28.5245 75.0177 28.9198 74.0251 28.9198C73.0324 28.9198 72.3748 28.5311 72.3748 27.8919ZM73.0071 27.8919C73.0071 28.2148 73.4118 28.419 74.0187 28.419C74.6257 28.419 75.0304 28.2214 75.0304 27.8919C75.0304 27.5625 74.632 27.3648 74.0187 27.3648C73.4054 27.3648 73.0071 27.5559 73.0071 27.8919ZM76.7438 28.2411H75.9661V27.6283H76.7438V26.8574H77.4014V30.0136H76.7438V28.2411Z" fill="#FF4400"/>
<path d="M78.0586 31.8189H83.7048V32.458H78.0586V31.8189ZM78.4316 27.0681H83.3381V27.7007H79.1018V29.908H83.4013V30.5406H78.4316V27.0615V27.0681Z" fill="#FF4400"/>
<path d="M92.1416 27.0742L90.5293 32.5959H89.8275L88.5503 28.1878L87.2668 32.5959H86.565L84.959 27.0742H85.6798L86.938 31.5021L88.1899 27.0742H88.9297L90.1879 31.5153L91.4461 27.0742H92.1479H92.1416Z" fill="#FF4400"/>
<path d="M96.3915 30.6266C96.3915 31.8127 95.5758 32.6956 94.4567 32.6956C93.3376 32.6956 92.5156 31.8127 92.5156 30.6266C92.5156 29.4406 93.3312 28.5576 94.4567 28.5576C95.5821 28.5576 96.3915 29.4406 96.3915 30.6266ZM93.1921 30.6266C93.1921 31.4503 93.7106 32.0696 94.463 32.0696C95.2154 32.0696 95.7276 31.4503 95.7276 30.6266C95.7276 29.803 95.2091 29.1836 94.463 29.1836C93.7169 29.1836 93.1921 29.803 93.1921 30.6266Z" fill="#FF4400"/>
<path d="M98.2937 28.6496V29.2558C98.4581 28.9593 98.9134 28.5508 99.6594 28.5508C99.8934 28.5508 100.045 28.5705 100.178 28.6167V29.2953C100.032 29.2294 99.8491 29.1833 99.6152 29.1833C98.8438 29.1833 98.3001 29.8291 98.3001 30.5473V32.5899H97.6172V28.643H98.3001L98.2937 28.6496Z" fill="#FF4400"/>
<path d="M101.195 32.5961V26.8965H101.878V32.5961H101.195Z" fill="#FF4400"/>
<path d="M103.105 30.6262C103.105 29.4467 103.908 28.5572 104.977 28.5572C105.666 28.5572 106.128 28.8998 106.317 29.2425V26.9033H107V32.6029H106.317V32.0165C106.128 32.3525 105.66 32.7018 104.977 32.7018C103.902 32.7018 103.105 31.8122 103.105 30.6328V30.6262ZM106.336 30.6262C106.336 29.8025 105.805 29.1832 105.04 29.1832C104.275 29.1832 103.776 29.8025 103.776 30.6262C103.776 31.4498 104.281 32.0692 105.04 32.0692C105.799 32.0692 106.336 31.4498 106.336 30.6262Z" fill="#FF4400"/>
<path d="M3.19931 17.0066C3.19931 8.17713 9.65483 0.922484 17.9123 0.0856621C17.3876 0.0329489 16.8501 0 16.3127 0C7.30277 0 0 7.61048 0 17C0 26.3895 7.30277 34 16.3127 34C16.8501 34 17.3876 33.9736 17.9123 33.9143C9.65483 33.0775 3.19931 25.8229 3.19931 16.9934V17.0066Z" fill="#FF4400"/>
<path d="M33.4352 14.5422C33.2835 23.0356 26.5561 29.7961 18.406 29.6379C11.7419 29.5062 6.19049 24.7949 4.4707 18.4298C4.9702 26.317 11.1981 32.6228 18.9182 32.7744C27.0682 32.9325 33.7956 26.1786 33.9537 17.6786C33.979 16.1302 33.7893 14.6344 33.4036 13.2178C33.4289 13.6527 33.4479 14.0941 33.4352 14.5356V14.5422Z" fill="#FF4400"/>
<path d="M12.0508 25.8356L25.9355 4.5V12.6705L17.2101 25.8356H12.0508Z" fill="#FF4400"/>
<path d="M22.8945 18.1006L31.778 4.80371V12.5591L22.9135 25.1839L22.8945 18.1006Z" fill="#FF4400"/>
<path d="M27.9844 18.8377L31.778 13.4082V25.8353H27.9844V18.8377Z" fill="#FF4400"/>
</svg>
