<svg width="162" height="34" viewBox="0 0 162 34" fill="none" xmlns="http://www.w3.org/2000/svg">
<path d="M1.45155 33.4413V16.7628H4.01312V30.8211H16.394V22.5775L20.7452 18.1096C21.6037 17.2318 22.2687 16.238 22.7403 15.1282C23.2122 14.0187 23.4481 12.8447 23.4481 11.6062C23.4481 10.3858 23.2106 9.22343 22.7356 8.11916C22.2606 7.01518 21.6027 6.0243 20.7619 5.14653L19.3825 3.69188L13.7799 9.42271H7.37602L5.11331 11.7372L3.28734 9.91313L6.32834 6.8025H12.7323L19.3825 0L22.5879 3.26172C23.6825 4.38172 24.5237 5.65441 25.1114 7.07981C25.6995 8.5052 25.9989 10.014 26.0097 11.6062C25.9989 13.1984 25.6995 14.7072 25.1114 16.1326C24.5237 17.558 23.6825 18.8307 22.5879 19.9507L18.9556 23.6491V33.4413H1.45155ZM9.41887 25.5099L0.850439 16.7628C0.570375 16.476 0.358619 16.1422 0.215171 15.7614C0.0717235 15.3809 0 14.9857 0 14.5758C0 14.1659 0.0717235 13.7779 0.215171 13.412C0.358619 13.0457 0.570375 12.7192 0.850439 12.4325L4.14119 9.03972L9.13966 14.0919C9.90357 14.8736 10.4897 15.7678 10.8982 16.7746C11.3066 17.781 11.5108 18.8386 11.5108 19.9472C11.5108 20.9773 11.3356 21.9677 10.9853 22.9185C10.6349 23.8691 10.1128 24.7329 9.41887 25.5099Z" fill="#231A11"/>
<path d="M157.565 17.4466C157.565 15.873 156.727 15.0147 155.174 15.0147C153.253 15.0147 151.046 15.2191 148.307 15.3621C147.919 15.3825 147.653 15.1577 147.653 14.7899V13.1959C147.653 12.8689 147.898 12.6236 148.307 12.5828C151.168 12.2967 153.723 12.2354 155.848 12.2354C158.873 12.2354 160.508 13.8498 160.508 16.854C160.508 18.7137 160.385 20.7164 160.078 22.2287C159.997 22.6375 159.792 22.7396 159.384 22.6783L157.687 22.4331C157.279 22.3718 157.136 22.2287 157.217 21.82C157.32 21.35 157.381 20.8186 157.442 20.2668C154.458 20.2873 150.616 20.4303 148.491 20.5938C148.082 20.6347 147.858 20.369 147.858 19.9603V18.4684C147.858 18.0597 148.082 17.8758 148.491 17.8349C150.412 17.651 154.234 17.5079 157.565 17.5079V17.4466ZM153.968 25.3146C157.156 25.3146 160.058 25.1716 161.325 24.9672C161.754 24.8855 161.999 25.1511 161.999 25.5803V27.0926C161.999 27.4604 161.795 27.6648 161.325 27.7465C160.058 27.9713 157.156 28.094 153.968 28.094C151.107 28.094 148.409 27.9918 146.631 27.7465C146.161 27.6852 145.957 27.4809 145.957 27.0926V25.5803C145.957 25.1511 146.202 24.9059 146.631 24.9672C148.409 25.192 151.107 25.3146 153.968 25.3146Z" fill="#231A11"/>
<path d="M137.074 12.4603C137.504 12.4603 137.749 12.7056 137.749 13.1347V14.5448C137.749 14.974 137.504 15.2192 137.074 15.2192H136.461L136.134 23.8025C136.584 23.7616 136.993 23.7412 137.34 23.7003C137.769 23.6595 138.014 23.9047 138.014 24.3339V25.744C138.014 26.1731 137.79 26.4184 137.361 26.4592C136.482 26.5614 134.602 26.7045 132.476 26.7045C130.351 26.7045 128.491 26.5614 127.612 26.4592C127.183 26.4184 126.958 26.1731 126.958 25.744V24.3339C126.958 23.9047 127.204 23.6595 127.633 23.7003C127.98 23.7412 128.389 23.7616 128.839 23.8025L128.512 15.2192H127.899C127.469 15.2192 127.224 14.974 127.224 14.5448V13.1347C127.224 12.7056 127.469 12.4603 127.899 12.4603H137.074ZM142 28.8094C142 29.2386 141.754 29.4838 141.325 29.4838H139.711C139.282 29.4838 139.036 29.2386 139.036 28.8094V11.8473C139.036 11.4181 139.282 11.1729 139.711 11.1729H141.325C141.754 11.1729 142 11.4181 142 11.8473V18.6934C142.224 18.346 142.694 18.1212 143.267 18.1212H143.921C144.329 18.1212 144.554 18.346 144.554 18.7547V20.3488C144.554 20.7575 144.329 20.9823 143.921 20.9823H143.185C142.49 20.9823 142 21.4523 142 22.1063V28.8094ZM133.212 23.9251L133.539 15.2192H131.434L131.761 23.9251H133.212Z" fill="#231A11"/>
<path d="M108.733 11.6429H116.295C116.724 11.6429 116.969 11.8881 116.969 12.3173V13.7274C116.969 14.1566 116.724 14.4018 116.295 14.4018H115.845L115.784 18.2643C116.049 18.2438 116.295 18.2234 116.519 18.1825C116.949 18.1212 117.194 18.3869 117.194 18.816V20.2262C117.194 20.6553 116.969 20.8597 116.54 20.9414C115.784 21.0845 114.026 21.1867 112.514 21.1867C111.002 21.1867 109.51 21.0845 108.508 20.9414C108.079 20.8801 107.854 20.6553 107.854 20.2262V18.816C107.854 18.3869 108.1 18.1416 108.529 18.1825C108.774 18.203 109.04 18.2438 109.285 18.2643L109.101 14.4018H108.733C108.304 14.4018 108.059 14.1566 108.059 13.7274V12.3173C108.059 11.8881 108.304 11.6429 108.733 11.6429ZM118.543 17.3038C118.4 17.4877 118.154 17.6103 117.868 17.6103H117.276C116.867 17.6103 116.683 17.4264 116.683 17.0176V15.444C116.683 15.0353 116.867 14.8514 117.276 14.8514H117.909C118.318 14.8514 118.543 14.647 118.543 14.0544V12.0107C118.543 11.5816 118.747 11.3772 119.176 11.3772H120.668C121.097 11.3772 121.301 11.5816 121.301 12.0107V20.4714C121.301 20.9006 121.097 21.1049 120.668 21.1049H119.176C118.747 21.1049 118.543 20.9006 118.543 20.4714V17.3038ZM122.323 11.8064C122.323 11.3772 122.528 11.1729 122.957 11.1729H124.449C124.878 11.1729 125.082 11.3772 125.082 11.8064V21.6976C125.082 22.1267 124.878 22.3311 124.449 22.3311H122.957C122.528 22.3311 122.323 22.1267 122.323 21.6976V11.8064ZM118.032 26.3775C117.194 28.0533 114.864 29.6064 111.901 29.6064C111.431 29.6064 110.899 29.6064 110.899 28.9729V27.4402C110.899 27.0519 111.124 26.8475 111.574 26.8475C114.231 26.8475 116.56 25.3352 116.56 23.4755V23.1281C116.56 22.699 116.806 22.4537 117.235 22.4537H118.849C119.278 22.4537 119.524 22.699 119.524 23.1281V23.4755C119.524 25.3352 122.017 26.8475 124.673 26.8475C125.123 26.8475 125.348 27.0519 125.348 27.4402V28.9729C125.348 29.6064 124.817 29.6064 124.346 29.6064C121.383 29.6064 118.89 28.0533 118.032 26.3775ZM111.983 18.4073H113.107L113.168 14.4018H111.778L111.983 18.4073Z" fill="#231A11"/>
<path d="M89.5047 15.0149C88.1764 15.0149 87.645 16.3024 87.645 19.6744C87.645 23.0464 88.1764 24.3543 89.5047 24.3543C90.8535 24.3543 91.3848 23.0668 91.3848 19.6744C91.3848 16.3024 90.8535 15.0149 89.5047 15.0149ZM94.3072 19.6744C94.3072 24.8448 92.8154 27.1132 89.5047 27.1132C86.1941 27.1132 84.7227 24.8448 84.7227 19.6744C84.7227 14.504 86.1941 12.256 89.5047 12.256C92.8358 12.256 94.3072 14.504 94.3072 19.6744ZM99.1915 28.8094C99.1915 29.2386 98.9462 29.4838 98.5171 29.4838H96.9026C96.4735 29.4838 96.2282 29.2386 96.2282 28.8094V11.8473C96.2282 11.4181 96.4735 11.1729 96.9026 11.1729H98.5171C98.9462 11.1729 99.1915 11.4181 99.1915 11.8473V18.6934C99.4163 18.346 99.8863 18.1212 100.459 18.1212H101.112C101.521 18.1212 101.746 18.346 101.746 18.7547V20.3488C101.746 20.7575 101.521 20.9823 101.112 20.9823H100.377C99.6819 20.9823 99.1915 21.4523 99.1915 22.1063V28.8094Z" fill="#231A11"/>
<path d="M80.5197 12.2559C80.9489 12.2559 81.1941 12.5011 81.1941 12.9303V14.3404C81.1941 14.7695 80.9489 15.0148 80.5197 15.0148H76.3916V15.8527C76.3916 18.3255 77.9448 19.6538 80.8263 19.6538C81.2759 19.6538 81.5007 19.8582 81.5007 20.2465V21.7792C81.5007 22.331 81.1328 22.4127 80.6832 22.4127C77.8426 22.4127 75.6968 21.2479 74.8793 19.2451C74.0823 21.2479 71.9365 22.4127 69.0959 22.4127C68.6463 22.4127 68.2785 22.331 68.2785 21.7792V20.2465C68.2785 19.8582 68.5033 19.6538 68.9529 19.6538C71.8548 19.6538 73.4284 18.3255 73.4284 15.8527V15.0148H69.2594C68.8302 15.0148 68.585 14.7695 68.585 14.3404V12.9303C68.585 12.5011 68.8302 12.2559 69.2594 12.2559H80.5197ZM67.461 27.5423C66.991 27.4809 66.7866 27.2766 66.7866 26.8883V25.376C66.7866 24.9468 67.0319 24.722 67.461 24.7629C68.9937 24.906 71.6709 25.0695 73.9597 25.1308C73.5714 24.9468 73.3262 24.5585 73.3262 24.0476V22.5353C73.3262 22.1062 73.5714 21.8609 74.0006 21.8609H75.6355C76.0646 21.8609 76.2894 22.1062 76.2894 22.5353V24.2111C76.2894 25.0695 76.923 25.0695 77.5769 25.0695C78.7009 25.0695 80.7241 24.9468 82.1342 24.7629C82.5634 24.7016 82.829 24.9468 82.829 25.376V26.8883C82.829 27.2561 82.6247 27.4605 82.1546 27.5423C80.8876 27.7671 77.9856 27.8897 74.7976 27.8897C71.9365 27.8897 69.239 27.7875 67.461 27.5423Z" fill="#231A11"/>
<path d="M53.9608 12.256C57.2919 12.256 58.7633 14.504 58.7633 19.6744C58.7633 24.8448 57.2714 27.1132 53.9608 27.1132C50.6501 27.1132 49.1787 24.8448 49.1787 19.6744C49.1787 14.504 50.6501 12.256 53.9608 12.256ZM52.1011 19.6744C52.1011 23.0464 52.6324 24.3543 53.9608 24.3543C55.3096 24.3543 55.8409 23.0668 55.8409 19.6744C55.8409 16.3024 55.3096 15.0149 53.9608 15.0149C52.6324 15.0149 52.1011 16.3024 52.1011 19.6744ZM61.093 11.8473C61.093 11.4181 61.3382 11.1729 61.7674 11.1729H63.3819C63.811 11.1729 64.0563 11.4181 64.0563 11.8473V28.8094C64.0563 29.2386 63.811 29.4838 63.3819 29.4838H61.7674C61.3382 29.4838 61.093 29.2386 61.093 28.8094V11.8473Z" fill="#231A11"/>
<path d="M35.7796 15.0149C34.4513 15.0149 33.9199 16.3024 33.9199 19.6744C33.9199 23.0464 34.4513 24.3543 35.7796 24.3543C37.1284 24.3543 37.6598 23.0668 37.6598 19.6744C37.6598 16.3024 37.1284 15.0149 35.7796 15.0149ZM40.5821 19.6744C40.5821 24.8448 39.0903 27.1132 35.7796 27.1132C32.469 27.1132 30.9976 24.8448 30.9976 19.6744C30.9976 14.504 32.469 12.256 35.7796 12.256C39.1107 12.256 40.5821 14.504 40.5821 19.6744ZM45.4664 28.8094C45.4664 29.2386 45.2211 29.4838 44.792 29.4838H43.1775C42.7484 29.4838 42.5031 29.2386 42.5031 28.8094V11.8473C42.5031 11.4181 42.7484 11.1729 43.1775 11.1729H44.792C45.2211 11.1729 45.4664 11.4181 45.4664 11.8473V18.6934C45.6912 18.346 46.1612 18.1212 46.7334 18.1212H47.3874C47.7961 18.1212 48.0209 18.346 48.0209 18.7547V20.3488C48.0209 20.7575 47.7961 20.9823 47.3874 20.9823H46.6517C45.9568 20.9823 45.4664 21.4523 45.4664 22.1063V28.8094Z" fill="#231A11"/>
</svg>
