<svg width="10" height="5" viewBox="0 0 10 5" fill="none" xmlns="http://www.w3.org/2000/svg">
<path d="M4.65399 1.05345L0.857623 4.84981C0.757498 4.94994 0.639609 4.99874 0.503954 4.99622C0.368215 4.99362 0.250284 4.94225 0.15016 4.84213C0.0500355 4.74192 -2.78155e-05 4.62399 -2.78094e-05 4.48833C-2.78032e-05 4.35268 0.0500355 4.23475 0.15016 4.13454L4.00852 0.268496C4.09965 0.177359 4.20175 0.109826 4.31481 0.0658954C4.42787 0.021965 4.54093 -2.01562e-07 4.65399 -1.96786e-07C4.76705 -1.92009e-07 4.88011 0.021965 4.99317 0.0658954C5.10623 0.109826 5.20833 0.177359 5.29946 0.268496L9.16563 4.13454C9.26576 4.23475 9.31452 4.35398 9.31191 4.49224C9.30931 4.6305 9.25794 4.74969 9.15782 4.84981C9.0577 4.94994 8.93976 5 8.80403 5C8.66837 5 8.55048 4.94994 8.45036 4.84981L4.65399 1.05345Z" fill="white"/>
</svg>
