<svg width="5" height="9" viewBox="0 0 5 9" fill="none" xmlns="http://www.w3.org/2000/svg">
<path d="M3.81437 4.49806L0.145219 0.828911C0.0484493 0.732141 0.00128297 0.618202 0.00371818 0.487093C0.00623493 0.355903 0.055878 0.241924 0.152647 0.145155C0.249497 0.0483855 0.363477 -1.57108e-07 0.494586 -1.52499e-07C0.625696 -1.4789e-07 0.739675 0.0483855 0.836526 0.145155L4.57302 3.87422C4.6611 3.9623 4.72637 4.06098 4.76883 4.17025C4.81129 4.27952 4.83252 4.38879 4.83252 4.49806C4.83252 4.60734 4.81129 4.71661 4.76883 4.82588C4.72637 4.93515 4.6611 5.03383 4.57302 5.12191L0.836526 8.85853C0.739675 8.95529 0.624437 9.00242 0.490811 8.9999C0.357185 8.99739 0.241988 8.94774 0.145218 8.85098C0.048449 8.75421 6.48617e-05 8.64023 6.4866e-05 8.50904C6.48703e-05 8.37793 0.0484491 8.26399 0.145218 8.16722L3.81437 4.49806Z" fill="#15366C"/>
</svg>
