<svg width="21" height="16" viewBox="0 0 21 16" fill="none" xmlns="http://www.w3.org/2000/svg">
<path d="M1.125 2.25C0.80625 2.25 0.539062 2.14219 0.323437 1.92656C0.107812 1.71094 0 1.44375 0 1.125C0 0.80625 0.107812 0.539062 0.323437 0.323437C0.539062 0.107812 0.80625 0 1.125 0H19.125C19.4437 0 19.7109 0.107812 19.9266 0.323437C20.1422 0.539062 20.25 0.80625 20.25 1.125C20.25 1.44375 20.1422 1.71094 19.9266 1.92656C19.7109 2.14219 19.4437 2.25 19.125 2.25H1.125ZM1.125 15.75C0.80625 15.75 0.539062 15.6422 0.323437 15.4266C0.107812 15.2109 0 14.9437 0 14.625C0 14.3063 0.107812 14.0391 0.323437 13.8234C0.539062 13.6078 0.80625 13.5 1.125 13.5H19.125C19.4437 13.5 19.7109 13.6078 19.9266 13.8234C20.1422 14.0391 20.25 14.3063 20.25 14.625C20.25 14.9437 20.1422 15.2109 19.9266 15.4266C19.7109 15.6422 19.4437 15.75 19.125 15.75H1.125ZM1.125 9C0.80625 9 0.539062 8.89219 0.323437 8.67656C0.107812 8.46094 0 8.19375 0 7.875C0 7.55625 0.107812 7.28906 0.323437 7.07344C0.539062 6.85781 0.80625 6.75 1.125 6.75H19.125C19.4437 6.75 19.7109 6.85781 19.9266 7.07344C20.1422 7.28906 20.25 7.55625 20.25 7.875C20.25 8.19375 20.1422 8.46094 19.9266 8.67656C19.7109 8.89219 19.4437 9 19.125 9H1.125Z" fill="white"/>
</svg>
