<svg width="22" height="22" viewBox="0 0 22 22" fill="none" xmlns="http://www.w3.org/2000/svg">
<path d="M6.73026 21.1327C5.39193 20.5546 4.22477 19.7674 3.22879 18.7712C2.23261 17.7752 1.44544 16.6081 0.867263 15.2697C0.289088 13.9314 0 12.5052 0 10.991C0 9.47689 0.289088 8.05364 0.867263 6.72129C1.44544 5.38894 2.23261 4.22477 3.22879 3.22879C4.22477 2.23261 5.39193 1.44544 6.73026 0.867264C8.0686 0.289088 9.49483 0 11.009 0C12.5231 0 13.9464 0.289088 15.2787 0.867264C16.6111 1.44544 17.7752 2.23261 18.7712 3.22879C19.7674 4.22477 20.5546 5.38894 21.1327 6.72129C21.7109 8.05364 22 9.47689 22 10.991C22 12.5052 21.7109 13.9314 21.1327 15.2697C20.5546 16.6081 19.7674 17.7752 18.7712 18.7712C17.7752 19.7674 16.6111 20.5546 15.2787 21.1327C13.9464 21.7109 12.5231 22 11.009 22C9.49483 22 8.0686 21.7109 6.73026 21.1327ZM11 20.2386C11.5909 19.4549 12.0882 18.6644 12.4919 17.8672C12.8957 17.07 13.2245 16.1986 13.4785 15.2529H8.52153C8.79035 16.2283 9.12296 17.1146 9.51934 17.9118C9.91554 18.709 10.4091 19.4846 11 20.2386ZM8.75774 19.9201C8.31388 19.2833 7.91527 18.5593 7.56192 17.7482C7.20857 16.9369 6.93396 16.1052 6.73808 15.2529H2.81021C3.42177 16.4554 4.24195 17.4657 5.27074 18.2837C6.29953 19.1016 7.46186 19.6471 8.75774 19.9201ZM13.2423 19.9201C14.5381 19.6471 15.7005 19.1016 16.7293 18.2837C17.7581 17.4657 18.5782 16.4554 19.1898 15.2529H15.2619C15.0288 16.1125 14.7356 16.9479 14.3822 17.7592C14.0291 18.5705 13.6491 19.2908 13.2423 19.9201ZM2.08189 13.5161H6.38637C6.31361 13.0858 6.26083 12.6638 6.22803 12.2502C6.19541 11.8369 6.1791 11.4201 6.1791 11C6.1791 10.5799 6.19541 10.1631 6.22803 9.74976C6.26083 9.3362 6.31361 8.91425 6.38637 8.4839H2.08189C1.97054 8.87719 1.88525 9.28612 1.826 9.71068C1.76656 10.1352 1.73684 10.565 1.73684 11C1.73684 11.435 1.76656 11.8648 1.826 12.2893C1.88525 12.7139 1.97054 13.1228 2.08189 13.5161ZM8.12292 13.5161H13.8771C13.9496 13.0858 14.0023 12.6676 14.0351 12.2615C14.0677 11.8555 14.0841 11.435 14.0841 11C14.0841 10.565 14.0677 10.1445 14.0351 9.73847C14.0023 9.33244 13.9496 8.91425 13.8771 8.4839H8.12292C8.05036 8.91425 7.99768 9.33244 7.96487 9.73847C7.93225 10.1445 7.91595 10.565 7.91595 11C7.91595 11.435 7.93225 11.8555 7.96487 12.2615C7.99768 12.6676 8.05036 13.0858 8.12292 13.5161ZM15.6136 13.5161H19.9181C20.0295 13.1228 20.1148 12.7139 20.174 12.2893C20.2334 11.8648 20.2632 11.435 20.2632 11C20.2632 10.565 20.2334 10.1352 20.174 9.71068C20.1148 9.28612 20.0295 8.87719 19.9181 8.4839H15.6136C15.6864 8.91425 15.7392 9.3362 15.772 9.74976C15.8046 10.1631 15.8209 10.5799 15.8209 11C15.8209 11.4201 15.8046 11.8369 15.772 12.2502C15.7392 12.6638 15.6864 13.0858 15.6136 13.5161ZM15.2619 6.74705H19.1898C18.5709 5.52972 17.7563 4.51946 16.7461 3.71626C15.7358 2.91326 14.5679 2.36404 13.2423 2.06858C13.6861 2.74247 14.081 3.47957 14.4268 4.27987C14.7728 5.07997 15.0512 5.90237 15.2619 6.74705ZM8.52153 6.74705H13.4785C13.2096 5.77905 12.8715 4.88718 12.4642 4.07145C12.0566 3.25571 11.5685 2.48571 11 1.76145C10.4315 2.48571 9.94342 3.25571 9.53584 4.07145C9.12846 4.88718 8.79035 5.77905 8.52153 6.74705ZM2.81021 6.74705H6.73808C6.94882 5.90237 7.22719 5.07997 7.57321 4.27987C7.91904 3.47957 8.31388 2.74247 8.75774 2.06858C7.42461 2.36404 6.25485 2.91519 5.24845 3.72205C4.24185 4.52872 3.42911 5.53705 2.81021 6.74705Z" fill="#0065BD"/>
</svg>
