<svg width="15" height="15" viewBox="0 0 15 15" fill="none" xmlns="http://www.w3.org/2000/svg">
<path d="M6.63462 8.36538H0.865385C0.620192 8.36538 0.414712 8.2824 0.248942 8.11644C0.0829809 7.95048 0 7.7449 0 7.49971C0 7.25433 0.0829809 7.04885 0.248942 6.88327C0.414712 6.7175 0.620192 6.63462 0.865385 6.63462H6.63462V0.865385C6.63462 0.620192 6.7176 0.414712 6.88356 0.248942C7.04952 0.0829809 7.2551 0 7.50029 0C7.74567 0 7.95115 0.0829809 8.11673 0.248942C8.2825 0.414712 8.36538 0.620192 8.36538 0.865385V6.63462H14.1346C14.3798 6.63462 14.5853 6.7176 14.7511 6.88356C14.917 7.04952 15 7.2551 15 7.50029C15 7.74567 14.917 7.95115 14.7511 8.11673C14.5853 8.2825 14.3798 8.36538 14.1346 8.36538H8.36538V14.1346C8.36538 14.3798 8.2824 14.5853 8.11644 14.7511C7.95048 14.917 7.7449 15 7.49971 15C7.25433 15 7.04885 14.917 6.88327 14.7511C6.7175 14.5853 6.63462 14.3798 6.63462 14.1346V8.36538Z" fill="#FFF9EF"/>
</svg>
