<svg width="30" height="30" viewBox="0 0 30 30" fill="none" xmlns="http://www.w3.org/2000/svg">
<path d="M29.4096 14.676C29.4096 14.9595 29.1898 14.9595 28.4273 15.1787C28.1041 15.2689 27.949 15.7845 27.6905 16.5707C27.1477 18.2464 25.4028 20.9532 21.7708 20.9532C18.1388 20.9532 16.2388 17.8726 16.1095 17.7179C15.9157 17.4601 15.6313 17.241 15.3728 17.241C15.2177 17.241 15.0885 17.3054 14.998 17.3699C13.6925 18.2593 12.2578 19.2776 12.2578 21.5848C12.2578 23.1058 13.5245 24.8588 15.6959 24.8588C17.5442 24.8588 18.7463 23.1187 19.134 21.9071C19.2633 21.4946 19.2245 21.3399 19.4572 21.3399C19.7415 21.3399 19.8449 21.9715 20.2198 21.9715C20.5429 21.9715 20.4395 21.8168 20.8531 21.8168C21.2408 21.8168 21.3313 22.3195 21.6545 22.3195C22.1068 22.3195 22.7014 21.9328 22.9858 21.9328C23.0762 21.9328 23.2443 21.9328 23.2443 22.0231C23.2443 22.1778 22.9599 22.3453 22.7014 22.5644C22.1585 23.0414 21.7449 23.3249 21.3313 24.021C19.8708 26.4958 18.1776 26.9469 17.3245 27.1918C17.0014 27.2821 16.6912 27.4496 16.5619 27.7332C16.0837 28.8159 15.7993 28.9448 15.6701 28.9448C15.515 28.9448 15.4504 28.7515 15.4116 28.339C15.3728 27.9008 15.1272 27.3852 14.2612 27.2305C12.064 26.818 9.3626 24.601 9.3626 21.1079C9.3626 17.9628 11.7538 16.7254 12.9558 15.5267C13.1109 15.372 13.2402 15.1787 13.2402 14.8951V14.8049C13.2402 14.6502 13.2014 14.4568 13.0204 14.199C11.8055 12.6781 10.8878 11.6598 9.23335 11.6598C7.42382 11.6598 5.83402 13.155 5.83402 15.3076C5.83402 17.6277 6.98436 18.414 8.12178 18.7104C8.49661 18.8007 8.62586 18.8393 8.62586 18.9682C8.62586 19.226 8.36736 19.1616 8.36736 19.5354C8.36736 19.8189 8.58709 19.7932 8.58709 20.2314C8.58709 20.5537 8.30273 20.6439 8.30273 21.1208C8.30273 21.5075 8.49661 21.6235 8.49661 21.8555C8.49661 22.1391 8.65171 22.1133 8.65171 22.7062C8.65171 22.8609 8.71634 22.9898 8.58709 22.9898C8.45784 22.9898 8.30273 22.7707 8.10886 22.4871C7.65647 21.8168 7.19117 21.4044 6.82926 21.1595C4.06327 19.1616 3.95987 18.2722 3.26191 16.9059C3.10681 16.5836 3.04218 16.0552 2.71905 15.8876C1.69796 15.3849 1 15.2173 1 14.3924C1 14.0057 1.45238 14.3924 2.15034 14.3924C2.5381 14.3924 2.97755 14.4568 3.19728 13.6577C3.67551 11.9691 5.67892 9.27518 9.18165 9.27518C12.9041 9.27518 14.7524 12.3558 14.8817 12.5105C15.1402 12.8585 15.3599 12.9874 15.6184 12.9874C15.7735 12.9874 15.9027 12.9874 16.1871 12.7296C18.5395 10.6286 18.7334 9.71343 18.7334 8.51469C18.7334 6.9937 17.5184 5.21493 15.3599 5.21493C13.2014 5.21493 12.1803 6.92926 11.8959 8.19244C11.8055 8.60491 11.7408 8.82404 11.547 8.82404C11.2626 8.82404 11.2626 8.43735 10.9395 8.43735C10.4354 8.43735 10.3708 8.65647 10.1123 8.65647C9.76328 8.65647 9.76328 8.02488 9.24627 8.02488C9.11702 8.02488 8.83267 8.17955 8.63879 8.17955C8.16056 8.17955 8.1347 8.26978 7.90205 8.26978C7.64355 8.26978 7.39797 8.14089 7.39797 7.94754C7.39797 7.75419 7.55307 7.6253 8.07008 7.38039C8.74219 7.03237 9.34967 6.77458 9.65988 6.07854C10.6422 3.88729 12.8136 3.19125 13.6408 2.869C13.964 2.74011 14.1191 2.61121 14.2742 2.32764C14.9463 1.11601 15.2306 1 15.4245 1C15.6184 1 15.5796 1.32224 15.683 1.69604C15.7735 2.13429 15.7735 2.4952 16.5102 2.67566C18.5783 3.21703 21.6286 5.1247 21.6286 8.60491C21.6286 12.0851 18.1905 14.2893 18.0354 14.4182C17.6476 14.7017 17.5313 14.9209 17.5313 15.1529C17.5313 15.3075 17.6218 15.5009 17.7252 15.6942C18.5524 17.3441 19.9871 18.4269 21.6415 18.4269C23.6191 18.4269 25.1443 16.5836 25.1443 14.6888C25.1443 12.7941 23.8776 11.6469 22.7531 11.2989C22.3395 11.17 22.1456 11.17 22.1456 10.9508C22.1456 10.693 22.43 10.7962 22.43 10.4095C22.43 10.1259 22.3007 10.1903 22.3007 9.73921C22.3007 9.41696 22.6885 9.32674 22.6885 8.84982C22.6885 8.46313 22.4946 8.34712 22.4946 8.11511C22.4946 7.83153 22.4041 7.85731 22.4041 7.2515C22.4041 7.09682 22.3395 6.96792 22.4687 6.96792C22.6238 6.96792 22.7919 7.18705 22.9728 7.47062C23.4123 8.14089 23.7742 8.64358 24.1232 8.86271C26.6436 10.4481 27.1735 11.4664 27.7551 12.8972C27.8844 13.2194 28.0137 13.7479 28.3885 13.9799C28.7116 14.1733 29.4096 14.3924 29.4096 14.6502" fill="#231815"/>
</svg>
