<svg width="20" height="16" viewBox="0 0 20 16" fill="none" xmlns="http://www.w3.org/2000/svg">
<path d="M1.08333 2.16667C0.776389 2.16667 0.519097 2.06285 0.311458 1.85521C0.103819 1.64757 0 1.39028 0 1.08333C0 0.776389 0.103819 0.519097 0.311458 0.311458C0.519097 0.103819 0.776389 0 1.08333 0H18.4167C18.7236 0 18.9809 0.103819 19.1885 0.311458C19.3962 0.519097 19.5 0.776389 19.5 1.08333C19.5 1.39028 19.3962 1.64757 19.1885 1.85521C18.9809 2.06285 18.7236 2.16667 18.4167 2.16667H1.08333ZM1.08333 15.1667C0.776389 15.1667 0.519097 15.0628 0.311458 14.8552C0.103819 14.6476 0 14.3903 0 14.0833C0 13.7764 0.103819 13.5191 0.311458 13.3115C0.519097 13.1038 0.776389 13 1.08333 13H18.4167C18.7236 13 18.9809 13.1038 19.1885 13.3115C19.3962 13.5191 19.5 13.7764 19.5 14.0833C19.5 14.3903 19.3962 14.6476 19.1885 14.8552C18.9809 15.0628 18.7236 15.1667 18.4167 15.1667H1.08333ZM1.08333 8.66667C0.776389 8.66667 0.519097 8.56285 0.311458 8.35521C0.103819 8.14757 0 7.89028 0 7.58333C0 7.27639 0.103819 7.0191 0.311458 6.81146C0.519097 6.60382 0.776389 6.5 1.08333 6.5H18.4167C18.7236 6.5 18.9809 6.60382 19.1885 6.81146C19.3962 7.0191 19.5 7.27639 19.5 7.58333C19.5 7.89028 19.3962 8.14757 19.1885 8.35521C18.9809 8.56285 18.7236 8.66667 18.4167 8.66667H1.08333Z" fill="white"/>
</svg>
