<svg width="13" height="13" viewBox="0 0 13 13" fill="none" xmlns="http://www.w3.org/2000/svg">
<path d="M6.375 12.75C6.17431 12.75 6.00608 12.6821 5.87031 12.5464C5.73455 12.4106 5.66667 12.2424 5.66667 12.0417V7.08333H0.708333C0.507639 7.08333 0.33941 7.01545 0.203646 6.87969C0.0678819 6.74392 0 6.57569 0 6.375C0 6.17431 0.0678819 6.00608 0.203646 5.87031C0.33941 5.73455 0.507639 5.66667 0.708333 5.66667H5.66667V0.708333C5.66667 0.507639 5.73455 0.33941 5.87031 0.203646C6.00608 0.0678819 6.17431 0 6.375 0C6.57569 0 6.74392 0.0678819 6.87969 0.203646C7.01545 0.33941 7.08333 0.507639 7.08333 0.708333V5.66667H12.0417C12.2424 5.66667 12.4106 5.73455 12.5464 5.87031C12.6821 6.00608 12.75 6.17431 12.75 6.375C12.75 6.57569 12.6821 6.74392 12.5464 6.87969C12.4106 7.01545 12.2424 7.08333 12.0417 7.08333H7.08333V12.0417C7.08333 12.2424 7.01545 12.4106 6.87969 12.5464C6.74392 12.6821 6.57569 12.75 6.375 12.75Z" fill="#EDE59D"/>
</svg>
