<svg width="23" height="16" viewBox="0 0 23 16" fill="none" xmlns="http://www.w3.org/2000/svg">
<path d="M0 14.625V9C0 8.49375 0.103125 8.03438 0.309375 7.62188C0.515625 7.20937 0.7875 6.84375 1.125 6.525V3.375C1.125 2.4375 1.45312 1.64062 2.10938 0.984375C2.76562 0.328125 3.5625 0 4.5 0H9C9.43125 0 9.83437 0.0796875 10.2094 0.239063C10.5844 0.398438 10.9312 0.61875 11.25 0.9C11.5688 0.61875 11.9156 0.398438 12.2906 0.239063C12.6656 0.0796875 13.0688 0 13.5 0H18C18.9375 0 19.7344 0.328125 20.3906 0.984375C21.0469 1.64062 21.375 2.4375 21.375 3.375V6.525C21.7125 6.84375 21.9844 7.20937 22.1906 7.62188C22.3969 8.03438 22.5 8.49375 22.5 9V14.625C22.5 14.9438 22.3922 15.2109 22.1766 15.4266C21.9609 15.6422 21.6938 15.75 21.375 15.75C21.0562 15.75 20.7891 15.6422 20.5734 15.4266C20.3578 15.2109 20.25 14.9438 20.25 14.625V13.5H2.25V14.625C2.25 14.9438 2.14219 15.2109 1.92656 15.4266C1.71094 15.6422 1.44375 15.75 1.125 15.75C0.80625 15.75 0.539062 15.6422 0.323437 15.4266C0.107812 15.2109 0 14.9438 0 14.625ZM12.375 5.625H19.125V3.375C19.125 3.05625 19.0172 2.78906 18.8016 2.57344C18.5859 2.35781 18.3188 2.25 18 2.25H13.5C13.1812 2.25 12.9141 2.35781 12.6984 2.57344C12.4828 2.78906 12.375 3.05625 12.375 3.375V5.625ZM3.375 5.625H10.125V3.375C10.125 3.05625 10.0172 2.78906 9.80156 2.57344C9.58594 2.35781 9.31875 2.25 9 2.25H4.5C4.18125 2.25 3.91406 2.35781 3.69844 2.57344C3.48281 2.78906 3.375 3.05625 3.375 3.375V5.625ZM2.25 11.25H20.25V9C20.25 8.68125 20.1422 8.41406 19.9266 8.19844C19.7109 7.98281 19.4438 7.875 19.125 7.875H3.375C3.05625 7.875 2.78906 7.98281 2.57344 8.19844C2.35781 8.41406 2.25 8.68125 2.25 9V11.25Z" fill="#376B2B" fill-opacity="0.9"/>
</svg>
