<svg width="21" height="23" viewBox="0 0 21 23" fill="none" xmlns="http://www.w3.org/2000/svg">
<path d="M4.5 22.5C4.18125 22.5 3.91406 22.3922 3.69844 22.1766C3.48281 21.9609 3.375 21.6938 3.375 21.375V12.2063C2.3625 11.9438 1.54688 11.4094 0.928125 10.6031C0.309375 9.79688 0 8.8875 0 7.875V1.125C0 0.80625 0.107812 0.539062 0.323437 0.323437C0.539062 0.107812 0.80625 0 1.125 0C1.44375 0 1.71094 0.107812 1.92656 0.323437C2.14219 0.539062 2.25 0.80625 2.25 1.125V6.75H3.375V1.125C3.375 0.80625 3.48281 0.539062 3.69844 0.323437C3.91406 0.107812 4.18125 0 4.5 0C4.81875 0 5.08594 0.107812 5.30156 0.323437C5.51719 0.539062 5.625 0.80625 5.625 1.125V6.75H6.75V1.125C6.75 0.80625 6.85781 0.539062 7.07344 0.323437C7.28906 0.107812 7.55625 0 7.875 0C8.19375 0 8.46094 0.107812 8.67656 0.323437C8.89219 0.539062 9 0.80625 9 1.125V7.875C9 8.8875 8.69063 9.79688 8.07188 10.6031C7.45312 11.4094 6.6375 11.9438 5.625 12.2063V21.375C5.625 21.6938 5.51719 21.9609 5.30156 22.1766C5.08594 22.3922 4.81875 22.5 4.5 22.5ZM15.75 22.5C15.4312 22.5 15.1641 22.3922 14.9484 22.1766C14.7328 21.9609 14.625 21.6938 14.625 21.375V11.7844C13.6125 11.4469 12.7969 10.7391 12.1781 9.66094C11.5594 8.58281 11.25 7.35938 11.25 5.99063C11.25 4.32188 11.6906 2.90625 12.5719 1.74375C13.4531 0.58125 14.5125 0 15.75 0C16.9875 0 18.0469 0.585937 18.9281 1.75781C19.8094 2.92969 20.25 4.35 20.25 6.01875C20.25 7.3875 19.9406 8.60625 19.3219 9.675C18.7031 10.7438 17.8875 11.4469 16.875 11.7844V21.375C16.875 21.6938 16.7672 21.9609 16.5516 22.1766C16.3359 22.3922 16.0688 22.5 15.75 22.5Z" fill="white" fill-opacity="0.6"/>
</svg>
