<svg width="18" height="22" viewBox="0 0 18 22" fill="none" xmlns="http://www.w3.org/2000/svg">
<path d="M4.5 19.125V19.6875C4.5 20.1562 4.33594 20.5547 4.00781 20.8828C3.67969 21.2109 3.28125 21.375 2.8125 21.375C2.34375 21.375 1.94531 21.2109 1.61719 20.8828C1.28906 20.5547 1.125 20.1562 1.125 19.6875V17.9438C0.7875 17.5688 0.515625 17.1516 0.309375 16.6922C0.103125 16.2328 0 15.7312 0 15.1875V4.5C0 2.94375 0.721875 1.80469 2.16563 1.08281C3.60938 0.360938 5.8875 0 9 0C12.225 0 14.5313 0.346875 15.9188 1.04062C17.3063 1.73438 18 2.8875 18 4.5V15.1875C18 15.7312 17.8969 16.2328 17.6906 16.6922C17.4844 17.1516 17.2125 17.5688 16.875 17.9438V19.6875C16.875 20.1562 16.7109 20.5547 16.3828 20.8828C16.0547 21.2109 15.6562 21.375 15.1875 21.375C14.7188 21.375 14.3203 21.2109 13.9922 20.8828C13.6641 20.5547 13.5 20.1562 13.5 19.6875V19.125H4.5ZM2.25 9H15.75V5.625H2.25V9ZM5.0625 15.75C5.53125 15.75 5.92969 15.5859 6.25781 15.2578C6.58594 14.9297 6.75 14.5312 6.75 14.0625C6.75 13.5938 6.58594 13.1953 6.25781 12.8672C5.92969 12.5391 5.53125 12.375 5.0625 12.375C4.59375 12.375 4.19531 12.5391 3.86719 12.8672C3.53906 13.1953 3.375 13.5938 3.375 14.0625C3.375 14.5312 3.53906 14.9297 3.86719 15.2578C4.19531 15.5859 4.59375 15.75 5.0625 15.75ZM12.9375 15.75C13.4062 15.75 13.8047 15.5859 14.1328 15.2578C14.4609 14.9297 14.625 14.5312 14.625 14.0625C14.625 13.5938 14.4609 13.1953 14.1328 12.8672C13.8047 12.5391 13.4062 12.375 12.9375 12.375C12.4688 12.375 12.0703 12.5391 11.7422 12.8672C11.4141 13.1953 11.25 13.5938 11.25 14.0625C11.25 14.5312 11.4141 14.9297 11.7422 15.2578C12.0703 15.5859 12.4688 15.75 12.9375 15.75ZM2.75625 3.375H15.3563C15.075 3.05625 14.4703 2.78906 13.5422 2.57344C12.6141 2.35781 11.1188 2.25 9.05625 2.25C7.05 2.25 5.58281 2.36719 4.65469 2.60156C3.72656 2.83594 3.09375 3.09375 2.75625 3.375ZM4.5 16.875H13.5C14.1187 16.875 14.6484 16.6547 15.0891 16.2141C15.5297 15.7734 15.75 15.2437 15.75 14.625V11.25H2.25V14.625C2.25 15.2437 2.47031 15.7734 2.91094 16.2141C3.35156 16.6547 3.88125 16.875 4.5 16.875Z" fill="white" fill-opacity="0.6"/>
</svg>
