<svg width="25" height="22" viewBox="0 0 25 22" fill="none" xmlns="http://www.w3.org/2000/svg">
<path d="M4.21875 21.7125C3.46875 21.7125 2.86875 21.4078 2.41875 20.7984C1.96875 20.1891 1.81875 19.5 1.96875 18.7313C2.175 17.775 2.31562 16.8188 2.39062 15.8625C2.46563 14.9063 2.5125 13.95 2.53125 12.9938C1.7625 12.6938 1.14844 12.2156 0.689063 11.5594C0.229687 10.9031 0 10.1625 0 9.3375V8.55C0 8.11875 0.126562 7.725 0.379688 7.36875C0.632812 7.0125 0.965625 6.75 1.37813 6.58125C3.15938 5.86875 4.8375 4.9875 6.4125 3.9375C7.9875 2.8875 9.50625 1.74375 10.9688 0.50625C11.175 0.3375 11.3953 0.210938 11.6297 0.126563C11.8641 0.0421875 12.1125 0 12.375 0C12.6375 0 12.8859 0.0421875 13.1203 0.126563C13.3547 0.210938 13.575 0.3375 13.7812 0.50625C15.2437 1.74375 16.7625 2.8875 18.3375 3.9375C19.9125 4.9875 21.5906 5.86875 23.3719 6.58125C23.7844 6.75 24.1172 7.0125 24.3703 7.36875C24.6234 7.725 24.75 8.11875 24.75 8.55V9.3375C24.75 10.1625 24.5203 10.9031 24.0609 11.5594C23.6016 12.2156 22.9875 12.6938 22.2188 12.9938C22.2375 13.95 22.2844 14.9063 22.3594 15.8625C22.4344 16.8188 22.575 17.775 22.7812 18.7313C22.9312 19.5 22.7812 20.1891 22.3313 20.7984C21.8813 21.4078 21.2812 21.7125 20.5312 21.7125H4.21875ZM5.5125 7.0875H19.2375C18 6.39375 16.8141 5.64375 15.6797 4.8375C14.5453 4.03125 13.4438 3.16875 12.375 2.25C11.3062 3.16875 10.2047 4.03125 9.07031 4.8375C7.93594 5.64375 6.75 6.39375 5.5125 7.0875ZM15.1875 11.025C15.6562 11.025 16.0547 10.8609 16.3828 10.5328C16.7109 10.2047 16.875 9.80625 16.875 9.3375H13.5C13.5 9.80625 13.6641 10.2047 13.9922 10.5328C14.3203 10.8609 14.7188 11.025 15.1875 11.025ZM9.5625 11.025C10.0312 11.025 10.4297 10.8609 10.7578 10.5328C11.0859 10.2047 11.25 9.80625 11.25 9.3375H7.875C7.875 9.80625 8.03906 10.2047 8.36719 10.5328C8.69531 10.8609 9.09375 11.025 9.5625 11.025ZM3.9375 11.025C4.40625 11.025 4.80469 10.8609 5.13281 10.5328C5.46094 10.2047 5.625 9.80625 5.625 9.3375H2.25C2.25 9.80625 2.41406 10.2047 2.74219 10.5328C3.07031 10.8609 3.46875 11.025 3.9375 11.025ZM4.10625 19.4625H7.11563C7.28438 18.3375 7.41563 17.2219 7.50938 16.1156C7.60313 15.0094 7.67812 13.8938 7.73438 12.7688C7.54688 12.675 7.37344 12.5766 7.21406 12.4734C7.05469 12.3703 6.9 12.2438 6.75 12.0938C6.4875 12.3563 6.1875 12.5813 5.85 12.7688C5.5125 12.9563 5.15625 13.0969 4.78125 13.1906C4.74375 14.2594 4.67813 15.3141 4.58438 16.3547C4.49063 17.3953 4.33125 18.4313 4.10625 19.4625ZM9.39375 19.4625H15.3563C15.2063 18.4313 15.0891 17.4 15.0047 16.3688C14.9203 15.3375 14.85 14.2969 14.7938 13.2469C14.325 13.2094 13.8844 13.0922 13.4719 12.8953C13.0594 12.6984 12.6938 12.4406 12.375 12.1219C12.0562 12.4406 11.6906 12.6984 11.2781 12.8953C10.8656 13.0922 10.425 13.2094 9.95625 13.2469C9.9 14.2969 9.82969 15.3375 9.74531 16.3688C9.66094 17.4 9.54375 18.4313 9.39375 19.4625ZM17.6344 19.4625H20.6438C20.4188 18.4313 20.2594 17.3953 20.1656 16.3547C20.0719 15.3141 20.0063 14.2594 19.9688 13.1906C19.5938 13.0969 19.2375 12.9609 18.9 12.7828C18.5625 12.6047 18.2625 12.375 18 12.0938C17.85 12.2438 17.6953 12.3703 17.5359 12.4734C17.3766 12.5766 17.2031 12.675 17.0156 12.7688C17.0719 13.8938 17.1516 15.0094 17.2547 16.1156C17.3578 17.2219 17.4844 18.3375 17.6344 19.4625ZM20.8125 11.025C21.2812 11.025 21.6797 10.8609 22.0078 10.5328C22.3359 10.2047 22.5 9.80625 22.5 9.3375H19.125C19.125 9.80625 19.2891 10.2047 19.6172 10.5328C19.9453 10.8609 20.3438 11.025 20.8125 11.025Z" fill="#376B2B" fill-opacity="0.9"/>
</svg>
