<svg width="25" height="23" viewBox="0 0 25 23" fill="none" xmlns="http://www.w3.org/2000/svg">
<path d="M1.125 22.5C1.66875 21.1125 2.02969 19.6828 2.20781 18.2109C2.38594 16.7391 2.49375 15.2625 2.53125 13.7812C1.8 13.5 1.19531 13.0312 0.717187 12.375C0.239062 11.7188 0 10.9688 0 10.125V7.875C2.15625 7.1625 4.35469 6.075 6.59531 4.6125C8.83594 3.15 10.7625 1.6125 12.375 0C13.9875 1.6125 15.9141 3.15 18.1547 4.6125C20.3953 6.075 22.5938 7.1625 24.75 7.875V10.125C24.75 10.9688 24.5109 11.7188 24.0328 12.375C23.5547 13.0312 22.95 13.5 22.2188 13.7812C22.2563 15.2625 22.3641 16.7391 22.5422 18.2109C22.7203 19.6828 23.0812 21.1125 23.625 22.5H1.125ZM5.5125 7.875H19.2375C17.775 7.05 16.4578 6.20156 15.2859 5.32969C14.1141 4.45781 13.1438 3.69375 12.375 3.0375C11.6062 3.69375 10.6359 4.45781 9.46406 5.32969C8.29219 6.20156 6.975 7.05 5.5125 7.875ZM15.1875 11.8125C15.6562 11.8125 16.0547 11.6484 16.3828 11.3203C16.7109 10.9922 16.875 10.5938 16.875 10.125H13.5C13.5 10.5938 13.6641 10.9922 13.9922 11.3203C14.3203 11.6484 14.7188 11.8125 15.1875 11.8125ZM9.5625 11.8125C10.0312 11.8125 10.4297 11.6484 10.7578 11.3203C11.0859 10.9922 11.25 10.5938 11.25 10.125H7.875C7.875 10.5938 8.03906 10.9922 8.36719 11.3203C8.69531 11.6484 9.09375 11.8125 9.5625 11.8125ZM3.9375 11.8125C4.40625 11.8125 4.80469 11.6484 5.13281 11.3203C5.46094 10.9922 5.625 10.5938 5.625 10.125H2.25C2.25 10.5938 2.41406 10.9922 2.74219 11.3203C3.07031 11.6484 3.46875 11.8125 3.9375 11.8125ZM4.10625 20.25H7.11563C7.28438 19.125 7.41563 18.0094 7.50938 16.9031C7.60313 15.7969 7.67812 14.6813 7.73438 13.5563C7.56563 13.4625 7.39688 13.3641 7.22813 13.2609C7.05938 13.1578 6.9 13.0312 6.75 12.8812C6.46875 13.1625 6.16406 13.3922 5.83594 13.5703C5.50781 13.7484 5.15625 13.8844 4.78125 13.9781C4.74375 15.0469 4.67813 16.1016 4.58438 17.1422C4.49063 18.1828 4.33125 19.2188 4.10625 20.25ZM9.39375 20.25H15.3563C15.2063 19.2188 15.0891 18.1875 15.0047 17.1562C14.9203 16.125 14.85 15.0844 14.7938 14.0344C14.3063 13.9969 13.8609 13.8797 13.4578 13.6828C13.0547 13.4859 12.6938 13.2281 12.375 12.9094C12.0562 13.2281 11.6859 13.4859 11.2641 13.6828C10.8422 13.8797 10.4062 13.9969 9.95625 14.0344C9.9 15.0844 9.82969 16.125 9.74531 17.1562C9.66094 18.1875 9.54375 19.2188 9.39375 20.25ZM17.6344 20.25H20.6438C20.4188 19.2188 20.2594 18.1828 20.1656 17.1422C20.0719 16.1016 20.0063 15.0469 19.9688 13.9781C19.5938 13.8844 19.2375 13.7484 18.9 13.5703C18.5625 13.3922 18.2625 13.1625 18 12.8812C17.85 13.0312 17.6906 13.1578 17.5219 13.2609C17.3531 13.3641 17.1844 13.4625 17.0156 13.5563C17.0719 14.6813 17.1516 15.7969 17.2547 16.9031C17.3578 18.0094 17.4844 19.125 17.6344 20.25ZM20.8125 11.8125C21.2812 11.8125 21.6797 11.6484 22.0078 11.3203C22.3359 10.9922 22.5 10.5938 22.5 10.125H19.125C19.125 10.5938 19.2891 10.9922 19.6172 11.3203C19.9453 11.6484 20.3438 11.8125 20.8125 11.8125Z" fill="white" fill-opacity="0.6"/>
</svg>
