<svg width="29" height="29" viewBox="0 0 29 29" fill="none" xmlns="http://www.w3.org/2000/svg">
<path d="M15.1229 14.1667L11.7583 17.5313C11.4986 17.791 11.3688 18.1156 11.3688 18.5052C11.3688 18.8948 11.4986 19.2313 11.7583 19.5146C12.0417 19.7979 12.3781 19.9396 12.7677 19.9396C13.1573 19.9396 13.4938 19.7979 13.7771 19.5146L18.1333 15.1583C18.4167 14.875 18.5583 14.5444 18.5583 14.1667C18.5583 13.7889 18.4167 13.4583 18.1333 13.175L13.7417 8.78333C13.4583 8.5 13.1278 8.36424 12.75 8.37604C12.3722 8.38785 12.0417 8.53542 11.7583 8.81875C11.4986 9.10208 11.3628 9.43264 11.351 9.81042C11.3392 10.1882 11.475 10.5188 11.7583 10.8021L15.1229 14.1667ZM14.1667 28.3333C12.2069 28.3333 10.3653 27.9615 8.64167 27.2177C6.91806 26.474 5.41875 25.4646 4.14375 24.1896C2.86875 22.9146 1.85938 21.4153 1.11563 19.6917C0.371875 17.9681 0 16.1264 0 14.1667C0 12.2069 0.371875 10.3653 1.11563 8.64167C1.85938 6.91806 2.86875 5.41875 4.14375 4.14375C5.41875 2.86875 6.91806 1.85938 8.64167 1.11563C10.3653 0.371875 12.2069 0 14.1667 0C16.1264 0 17.9681 0.371875 19.6917 1.11563C21.4153 1.85938 22.9146 2.86875 24.1896 4.14375C25.4646 5.41875 26.474 6.91806 27.2177 8.64167C27.9615 10.3653 28.3333 12.2069 28.3333 14.1667C28.3333 16.1264 27.9615 17.9681 27.2177 19.6917C26.474 21.4153 25.4646 22.9146 24.1896 24.1896C22.9146 25.4646 21.4153 26.474 19.6917 27.2177C17.9681 27.9615 16.1264 28.3333 14.1667 28.3333ZM14.1667 25.5C17.3306 25.5 20.0104 24.4021 22.2063 22.2063C24.4021 20.0104 25.5 17.3306 25.5 14.1667C25.5 11.0028 24.4021 8.32292 22.2063 6.12708C20.0104 3.93125 17.3306 2.83333 14.1667 2.83333C11.0028 2.83333 8.32292 3.93125 6.12708 6.12708C3.93125 8.32292 2.83333 11.0028 2.83333 14.1667C2.83333 17.3306 3.93125 20.0104 6.12708 22.2063C8.32292 24.4021 11.0028 25.5 14.1667 25.5Z" fill="white"/>
</svg>
