<svg width="43" height="39" viewBox="0 0 43 39" fill="none" xmlns="http://www.w3.org/2000/svg">
<path d="M21.4042 31.0361C24.0797 31.0361 26.3539 30.0997 28.2268 28.2268C30.0997 26.3539 31.0361 24.0797 31.0361 21.4042C31.0361 18.7287 30.0997 16.4545 28.2268 14.5816C26.3539 12.7088 24.0797 11.7723 21.4042 11.7723C18.7287 11.7723 16.4545 12.7088 14.5816 14.5816C12.7088 16.4545 11.7723 18.7287 11.7723 21.4042C11.7723 24.0797 12.7088 26.3539 14.5816 28.2268C16.4545 30.0997 18.7287 31.0361 21.4042 31.0361ZM21.4042 26.7553C19.9059 26.7553 18.6395 26.238 17.605 25.2035C16.5704 24.1689 16.0532 22.9025 16.0532 21.4042C16.0532 19.9059 16.5704 18.6395 17.605 17.605C18.6395 16.5704 19.9059 16.0532 21.4042 16.0532C22.9025 16.0532 24.1689 16.5704 25.2035 17.605C26.238 18.6395 26.7553 19.9059 26.7553 21.4042C26.7553 22.9025 26.238 24.1689 25.2035 25.2035C24.1689 26.238 22.9025 26.7553 21.4042 26.7553ZM4.28084 38.5276C3.10361 38.5276 2.09583 38.1084 1.2575 37.2701C0.419166 36.4318 0 35.424 0 34.2467V8.56169C0 7.38445 0.419166 6.37667 1.2575 5.53834C2.09583 4.70001 3.10361 4.28084 4.28084 4.28084H11.0232L14.983 0H27.8255L31.7853 4.28084H38.5276C39.7048 4.28084 40.7126 4.70001 41.5509 5.53834C42.3893 6.37667 42.8084 7.38445 42.8084 8.56169V34.2467C42.8084 35.424 42.3893 36.4318 41.5509 37.2701C40.7126 38.1084 39.7048 38.5276 38.5276 38.5276H4.28084ZM4.28084 34.2467H38.5276V8.56169H29.8589L25.9526 4.28084H16.8558L12.9496 8.56169H4.28084V34.2467Z" fill="white"/>
</svg>
