<svg width="33" height="30" viewBox="0 0 33 30" fill="none" xmlns="http://www.w3.org/2000/svg">
<path d="M16.0417 5.83333C15.6285 5.83333 15.2821 5.69358 15.0026 5.41406C14.7231 5.13455 14.5833 4.78819 14.5833 4.375V1.45833C14.5833 1.04514 14.7231 0.698785 15.0026 0.419271C15.2821 0.139757 15.6285 0 16.0417 0C16.4549 0 16.8012 0.139757 17.0807 0.419271C17.3602 0.698785 17.5 1.04514 17.5 1.45833V4.375C17.5 4.78819 17.3602 5.13455 17.0807 5.41406C16.8012 5.69358 16.4549 5.83333 16.0417 5.83333ZM23.2604 8.82292C22.9931 8.55556 22.8594 8.21528 22.8594 7.80208C22.8594 7.38889 22.9931 7.04861 23.2604 6.78125L25.3021 4.70313C25.5938 4.41146 25.9401 4.26562 26.3411 4.26562C26.7422 4.26562 27.0885 4.41146 27.3802 4.70313C27.6476 4.97049 27.7812 5.31076 27.7812 5.72396C27.7812 6.13715 27.6476 6.47743 27.3802 6.74479L25.3021 8.82292C25.0347 9.09028 24.6944 9.22396 24.2812 9.22396C23.8681 9.22396 23.5278 9.09028 23.2604 8.82292ZM27.7083 17.5C27.2951 17.5 26.9488 17.3602 26.6693 17.0807C26.3898 16.8012 26.25 16.4549 26.25 16.0417C26.25 15.6285 26.3898 15.2821 26.6693 15.0026C26.9488 14.7231 27.2951 14.5833 27.7083 14.5833H30.625C31.0382 14.5833 31.3845 14.7231 31.6641 15.0026C31.9436 15.2821 32.0833 15.6285 32.0833 16.0417C32.0833 16.4549 31.9436 16.8012 31.6641 17.0807C31.3845 17.3602 31.0382 17.5 30.625 17.5H27.7083ZM25.3021 27.3802L23.2604 25.3021C22.9931 25.0347 22.8594 24.6944 22.8594 24.2812C22.8594 23.8681 22.9931 23.5278 23.2604 23.2604C23.5278 22.9931 23.8681 22.8594 24.2812 22.8594C24.6944 22.8594 25.0347 22.9931 25.3021 23.2604L27.3802 25.3021C27.6719 25.5938 27.8177 25.9401 27.8177 26.3411C27.8177 26.7422 27.6719 27.0885 27.3802 27.3802C27.0885 27.6719 26.7422 27.8177 26.3411 27.8177C25.9401 27.8177 25.5938 27.6719 25.3021 27.3802ZM6.78125 8.82292L4.70312 6.74479C4.43576 6.47743 4.30208 6.13715 4.30208 5.72396C4.30208 5.31076 4.43576 4.97049 4.70312 4.70313C4.99479 4.41146 5.34115 4.26562 5.74219 4.26562C6.14323 4.26562 6.48958 4.41146 6.78125 4.70313L8.82292 6.78125C9.09028 7.04861 9.22396 7.38889 9.22396 7.80208C9.22396 8.21528 9.09028 8.55556 8.82292 8.82292C8.55556 9.09028 8.21528 9.22396 7.80208 9.22396C7.38889 9.22396 7.04861 9.09028 6.78125 8.82292ZM7.29167 26.25H13.8542C14.4618 26.25 14.9783 26.0373 15.4036 25.612C15.829 25.1866 16.0417 24.6701 16.0417 24.0625C16.0417 23.4549 15.8351 22.9384 15.4219 22.513C15.0087 22.0877 14.4983 21.875 13.8906 21.875H12.0312L11.3021 20.125C10.9618 19.3229 10.4271 18.6849 9.69792 18.2109C8.96875 17.737 8.16667 17.5 7.29167 17.5C6.07639 17.5 5.0434 17.9253 4.19271 18.776C3.34201 19.6267 2.91667 20.6597 2.91667 21.875C2.91667 23.0903 3.34201 24.1233 4.19271 24.974C5.0434 25.8247 6.07639 26.25 7.29167 26.25ZM7.29167 29.1667C5.27431 29.1667 3.55469 28.4557 2.13281 27.0339C0.710937 25.612 0 23.8924 0 21.875C0 19.8576 0.710937 18.138 2.13281 16.7161C3.55469 15.2943 5.27431 14.5833 7.29167 14.5833C8.75 14.5833 10.0807 14.9783 11.2839 15.7682C12.487 16.5582 13.3802 17.6215 13.9635 18.9583C15.3733 18.9583 16.5582 19.4809 17.5182 20.526C18.4783 21.5712 18.9583 22.8229 18.9583 24.2812C18.9097 25.6667 18.3932 26.8273 17.4089 27.763C16.4245 28.6988 15.2396 29.1667 13.8542 29.1667H7.29167ZM18.9583 24.2812C18.8368 23.7951 18.7153 23.3212 18.5937 22.8594C18.4722 22.3976 18.3507 21.9236 18.2292 21.4375C19.3229 20.9757 20.204 20.2587 20.8724 19.2865C21.5408 18.3142 21.875 17.2326 21.875 16.0417C21.875 14.4375 21.3038 13.0642 20.1615 11.9219C19.0191 10.7795 17.6458 10.2083 16.0417 10.2083C14.5833 10.2083 13.3073 10.6823 12.2135 11.6302C11.1198 12.5781 10.4757 13.7812 10.2812 15.2396C9.79514 15.1181 9.29688 15.0087 8.78646 14.9115C8.27604 14.8142 7.77778 14.7049 7.29167 14.5833C7.63194 12.4444 8.63455 10.6944 10.2995 9.33333C11.9644 7.97222 13.8785 7.29167 16.0417 7.29167C18.4722 7.29167 20.5382 8.14236 22.2396 9.84375C23.941 11.5451 24.7917 13.6111 24.7917 16.0417C24.7917 17.9132 24.2569 19.5964 23.1875 21.0911C22.1181 22.5859 20.7083 23.6493 18.9583 24.2812Z" fill="white"/>
</svg>
