<svg width="192" height="30" viewBox="0 0 192 30" fill="none" xmlns="http://www.w3.org/2000/svg">
<path d="M191.822 15.214L186.197 15.1431V18.9194C186.197 23.7771 185.338 27.3407 184.926 28.4044C184.657 28.7058 184.03 28.8831 183.654 28.7767C183.421 27.9257 182.937 25.2841 182.937 20.8873V3.90295C182.937 3.19379 180.913 1.72228 180.161 1.49181C179.964 1.42089 180.609 0.676273 180.806 0.676273C182.346 0.676273 186.394 1.59818 186.305 2.30734C186.233 2.78602 186.197 3.35335 186.197 3.97386V13.6893L190.46 12.0228C190.837 11.881 192.52 15.214 191.84 15.214M180.143 17.0578C180.734 17.8734 179.14 21.3305 178.567 20.515C177.743 19.3626 175.486 15.9587 173.462 13.6893C170.757 17.4302 167.39 20.4441 164.362 22.0397C163.986 22.0042 163.538 21.4546 163.538 21.1178C167.282 17.8202 171.509 12.0405 173.283 6.77504C173.39 6.47365 172.118 5.55174 171.563 5.21489C171.384 5.10852 172.154 4.54119 172.351 4.54119C173.372 4.54119 176.202 5.69357 176.883 6.17226C177.259 6.43819 177.295 6.61548 177.116 7.0587C176.364 8.99116 175.36 10.835 174.232 12.537C176.776 14.2744 179.588 16.2778 180.143 17.0578ZM161.962 15.5332L156.302 15.4268V18.9194C156.302 23.7771 155.514 27.3407 155.066 28.4044C154.797 28.7058 154.17 28.8831 153.83 28.7767C153.561 27.9257 153.114 25.2841 153.114 20.8873V3.90295C153.114 3.19379 151.089 1.7932 150.337 1.49181C150.158 1.42089 150.785 0.676273 150.982 0.676273C152.522 0.676273 156.481 1.59818 156.409 2.30734C156.374 2.78602 156.302 3.35335 156.302 3.97386V13.9907L160.583 12.3597C160.995 12.1824 162.679 15.5154 161.962 15.5154M143.566 17.1997C145.143 17.1997 146.307 16.1182 146.307 14.4517C146.307 12.7852 145.214 11.6682 143.566 11.6682C141.918 11.6682 140.826 12.7852 140.826 14.4517C140.826 16.1182 141.918 17.1997 143.566 17.1997ZM138.211 3.0165C138.175 2.87467 138.354 2.41371 138.551 2.43144C139.679 2.64419 140.826 2.83921 142.259 3.0165L145.752 3.38881C146.056 3.42426 147.4 5.25035 146.504 5.25035H141.22C140.324 5.25035 138.264 3.31789 138.193 3.0165M134.7 7.16508C134.664 7.0587 134.879 6.6864 134.968 6.72185C135.56 6.9346 137.655 6.98779 139.644 6.95233L146.79 6.88141C148.85 6.84596 149.459 5.8354 149.782 5.8354C150.122 5.8354 151.43 7.62603 151.43 8.45929C151.43 8.60113 151.286 8.68977 151.054 8.68977C150.713 8.68977 148.725 8.5834 147.149 8.5834L139.464 8.61885C138.228 8.61885 137.405 8.88479 137.028 9.22164C136.061 8.9557 134.861 7.51966 134.736 7.14735M151.77 21.0646C148.689 22.4652 142.778 23.2807 138.73 23.7771C137.637 23.919 136.975 24.114 136.33 24.4863C135.291 24.2204 133.786 22.7134 133.643 22.1461C133.679 21.9688 133.822 21.8092 133.912 21.7028C135.04 21.7028 136.688 21.7383 138.676 21.6319C139.912 21.561 141.077 21.4901 142.133 21.4014L141.936 18.4762C139.321 18.0329 137.709 16.5082 137.709 14.3985C137.709 12.0937 139.733 10.5336 142.921 10.3563C142.957 10.2145 142.993 10.1258 142.993 9.98398C142.993 9.71805 142.921 9.39893 142.545 9.13299C142.545 8.49475 144.605 9.13299 144.605 9.46984C144.605 9.61168 144.426 10.0194 144.337 10.3563C147.453 10.569 149.424 12.1292 149.424 14.3985C149.424 16.5082 147.74 18.0329 145.161 18.4762L145.017 21.1178C148.277 20.7455 150.48 20.2313 151.949 19.7527C152.254 19.6463 152.128 20.8696 151.752 21.0469M112.739 4.52346L112.704 10.1967H120.692L120.889 4.52346H112.722H112.739ZM107.545 3.2647C107.509 3.08741 107.993 2.52009 108.226 2.52009C108.817 2.52009 110.859 2.591 112.202 2.82148H119.815C120.782 2.82148 121.284 2.67965 121.66 2.3428C122.072 2.20097 124.741 2.60873 124.687 3.05196L123.558 9.87761C124.042 10.3208 124.687 11.2073 124.687 11.686C124.687 11.8278 124.544 11.9164 124.311 11.9164C123.97 11.9164 122.699 11.881 120.782 11.881H112.345C112.13 12.2533 111.862 12.5901 111.557 12.9447C111.253 13.2461 110.697 13.3879 110.285 13.2816C109.945 12.466 109.659 10.9059 109.426 8.08699L109.121 4.55892C109.085 4.22207 108.118 3.47745 107.545 3.2647ZM126.568 27.3761C126.568 27.5179 126.46 27.6066 126.191 27.6066H122.663L112.166 27.642C109.247 27.642 108.673 26.6492 108.673 24.7168V21.8269C108.673 21.3128 107.581 20.4264 106.954 20.3377C106.757 20.3022 107.437 19.4513 107.706 19.4513C108.906 19.4513 110.697 19.7172 111.593 20.054C111.772 20.125 112.041 20.2313 111.969 20.6036C111.898 21.0469 111.898 21.6851 111.898 22.2347V24.7522C111.898 25.7982 112.274 25.9401 113.205 25.9401L122.018 25.9046C123.881 25.9046 124.49 24.8763 124.723 24.8763C125.206 24.8763 126.568 26.5783 126.568 27.3584M129.899 16.3841C129.899 16.5614 129.756 16.6501 129.523 16.6501H118.65V18.618C118.65 20.6214 117.898 22.3588 117.379 23.1389C117.11 23.4403 116.519 23.5821 116.143 23.4757C115.838 22.5538 115.39 21.3305 115.39 19.0967V16.6501H108.082C106.846 16.6501 106.022 16.9869 105.646 17.3238C104.679 17.0578 102.726 15.5509 102.726 15.214C102.726 15.0722 102.906 14.6999 102.995 14.7354C103.586 14.9481 105.682 14.9658 107.67 14.9658L124.49 14.9304C126.621 14.9304 127.338 13.7425 127.607 13.7425C127.983 13.7425 129.899 15.5509 129.899 16.3664M81.9841 7.78559C81.9841 9.96626 83.4171 11.42 85.5845 11.42C87.7519 11.42 89.3998 9.96626 89.3998 7.78559C89.3998 5.60493 87.8594 4.15115 85.6203 4.15115C83.3813 4.15115 81.9841 5.62266 81.9841 7.78559ZM78.7241 7.87424C78.7241 4.82485 81.196 2.78602 85.0113 2.57327C85.0471 2.4669 85.083 2.37825 85.083 2.27188C85.083 1.97049 85.0113 1.63364 84.5635 1.31452C84.5635 0.640814 86.8563 1.31452 86.8563 1.68682C86.8563 1.82866 86.6771 2.23642 86.5876 2.57327C90.2238 2.83921 92.624 4.87804 92.624 7.87424C92.624 11.03 89.8476 13.1043 85.692 13.1043C81.5363 13.1043 78.7241 11.03 78.7241 7.87424ZM99.2515 17.1642C99.2515 17.3061 99.1082 17.3947 98.8754 17.3947H91.4239V19.0258C91.4239 23.6176 90.5999 27.1811 90.1521 28.2271C89.8834 28.5285 89.2565 28.6703 88.9162 28.5994C88.6475 27.7484 88.1639 25.1068 88.1639 20.9937V17.3947L82.9156 17.4302V18.4584C82.9156 23.0148 82.0916 26.5783 81.6796 27.6243C81.411 27.9257 80.784 28.0675 80.4079 27.9966C80.175 27.1456 79.6914 24.504 79.6914 20.4264V17.4302H77.4345C76.1985 17.4302 75.3746 17.767 74.9984 18.1039C74.0311 17.8379 72.0787 16.331 72.0787 15.9586C72.0787 15.8523 72.2578 15.48 72.3474 15.5154C72.9385 15.7104 75.0342 15.7459 77.0225 15.7459L93.842 15.675C95.9736 15.675 96.6901 14.4871 96.9588 14.4871C97.3349 14.4871 99.2515 16.3132 99.2515 17.1288M51.6051 6.42046C51.6051 8.282 53.0201 9.61168 55.1338 9.61168C57.2474 9.61168 58.6625 8.282 58.6625 6.42046C58.6625 4.55892 57.2474 3.30016 55.1338 3.30016C53.0201 3.30016 51.6051 4.59438 51.6051 6.42046ZM48.345 6.56229C48.345 3.88522 50.7094 1.93503 54.3814 1.70455C54.4173 1.52726 54.4889 1.40316 54.4889 1.22587C54.4889 0.924479 54.3815 0.605357 53.9695 0.303964C53.9695 -0.405195 56.2622 0.303965 56.2622 0.640815C56.2622 0.853563 56.0294 1.31452 55.8861 1.68682C59.5223 1.9173 61.9583 3.86749 61.9583 6.54456C61.9583 9.36347 59.1819 11.3668 55.1338 11.3668C51.0856 11.3668 48.345 9.36347 48.345 6.54456M64.6093 27.9257C64.6093 28.103 64.466 28.1562 64.2332 28.1562H50.8886C48.5958 28.1562 47.7898 27.3761 47.736 25.6032L47.6644 23.3339C47.6644 22.9971 46.7688 22.5538 46.1956 22.3056C46.1597 22.1283 46.6792 21.561 46.9479 21.561C47.5927 21.561 50.0467 21.7028 50.9244 22.0042H59.6118L59.6476 19.2562H50.9602C49.9034 19.2562 49.2048 19.5222 48.8287 19.8768C47.5927 19.6995 46.5896 18.1039 46.5717 17.8734C46.5359 17.6961 46.715 17.3592 46.8762 17.3947C47.9689 17.5897 49.3481 17.5897 51.3364 17.5897H58.4475C59.4148 17.5897 59.9163 17.4833 60.2925 17.111C60.7045 17.0756 63.445 17.377 63.3555 17.8202L62.4957 21.8269C63.1405 22.3056 63.5525 23.1212 63.5525 23.3162C63.5525 23.4935 63.445 23.6176 63.2838 23.6176C62.9793 23.6176 61.0269 23.5821 59.4327 23.5821H50.9244V25.0713C50.9244 26.2237 51.2647 26.4542 52.8052 26.4542H60.3283C62.4599 26.4542 62.7644 25.5678 62.9972 25.5678C63.4808 25.5678 64.6093 27.1634 64.6093 27.8725M68.5321 14.7708C68.5321 14.9126 68.3888 15.0013 68.1559 15.0013H63.3196L46.7329 15.0367C45.5328 15.0367 44.7089 15.3736 44.3327 15.675C43.3296 15.4091 41.5563 13.9375 41.413 13.5652C41.3772 13.4589 41.5921 13.0866 41.6817 13.122C42.2728 13.3348 44.3506 13.3702 46.3568 13.3702L63.1405 13.2993C65.2362 13.2993 65.9527 12.1115 66.2572 12.1115C66.6334 12.1115 68.5142 13.9375 68.5142 14.7531M30.6299 14.7176C30.6299 15.019 30.397 15.019 29.573 15.2672C29.2327 15.3736 29.0536 15.9055 28.7849 16.7565C28.1938 18.5471 26.313 21.4369 22.4082 21.4369C18.5033 21.4369 16.4434 18.1393 16.3001 17.962C16.1031 17.6961 15.7807 17.4479 15.512 17.4479C15.3328 17.4479 15.2075 17.5188 15.1 17.5897C13.6849 18.5471 12.1445 19.6285 12.1445 22.1106C12.1445 23.7417 13.5237 25.6032 15.8523 25.6032C17.8406 25.6032 19.1481 23.7417 19.5601 22.4475C19.7034 22.0042 19.6676 21.8269 19.9005 21.8269C20.205 21.8269 20.3124 22.5006 20.7244 22.5006C21.0648 22.5006 20.9573 22.3234 21.4051 22.3234C21.8171 22.3234 21.9245 22.8729 22.2649 22.8729C22.7485 22.8729 23.3933 22.4652 23.7158 22.4652C23.8232 22.4652 23.9844 22.4652 23.9844 22.5716C23.9844 22.7488 23.6799 22.9084 23.3933 23.1566C22.8022 23.6708 22.3723 23.9721 21.9245 24.7168C20.3483 27.3584 18.5212 27.8371 17.5898 28.1207C17.2495 28.2271 16.9091 28.3867 16.7658 28.7058C16.2464 29.8582 15.9419 30 15.7986 30C15.6194 30 15.5657 29.805 15.5299 29.3618C15.4941 28.8831 15.2254 28.3335 14.2939 28.1739C11.9295 27.7307 9.00984 25.355 9.00984 21.6142C9.00984 18.2457 11.5892 16.9337 12.8968 15.6395C13.0759 15.4622 13.2013 15.2672 13.2013 14.9658V14.8595C13.2013 14.6999 13.1655 14.4871 12.9505 14.2212C11.6429 12.5901 10.6578 11.5087 8.86654 11.5087C6.91411 11.5087 5.19454 13.1043 5.19454 15.4091C5.19454 17.8911 6.43048 18.7421 7.66642 19.0435C8.0784 19.1499 8.2217 19.1853 8.2217 19.3094C8.2217 19.5754 7.95302 19.5222 7.95302 19.9299C7.95302 20.2313 8.18588 20.1959 8.18588 20.6746C8.18588 21.0114 7.88137 21.1178 7.88137 21.6319C7.88137 22.0397 8.0784 22.1815 8.0784 22.412C8.0784 22.7134 8.25753 22.6779 8.25753 23.3339C8.25753 23.5112 8.32917 23.6353 8.18588 23.6353C8.04258 23.6353 7.88137 23.4048 7.66642 23.0857C7.18279 22.3765 6.66334 21.9333 6.28718 21.6497C3.29585 19.5044 3.18837 18.5648 2.43606 17.0933C2.25694 16.7565 2.2032 16.1714 1.84496 16.0118C0.752312 15.4622 0 15.3027 0 14.4162C0 14.0085 0.483629 14.4162 1.23594 14.4162C1.64792 14.4162 2.13155 14.4871 2.36441 13.6362C2.88386 11.8278 5.03333 8.93798 8.8128 8.93798C12.8251 8.93798 14.8134 12.2356 14.9567 12.4129C15.2254 12.7852 15.4761 12.927 15.7448 12.927C15.9239 12.927 16.0493 12.927 16.3538 12.6611C18.8974 10.4272 19.0944 9.43439 19.0944 8.14017C19.0944 6.50911 17.7868 4.61211 15.4582 4.61211C13.1296 4.61211 12.0191 6.43819 11.7146 7.80332C11.6071 8.24654 11.5355 8.47702 11.3384 8.47702C11.0339 8.47702 11.0339 8.06926 10.6936 8.06926C10.1383 8.06926 10.0846 8.29973 9.79797 8.29973C9.42182 8.29973 9.42182 7.62603 8.86654 7.62603C8.72324 7.62603 8.41874 7.80332 8.2217 7.80332C7.70225 7.80332 7.66642 7.9097 7.43356 7.9097C7.16488 7.9097 6.87829 7.76786 6.87829 7.57285C6.87829 7.37783 7.05741 7.23599 7.59477 6.97006C8.31126 6.59775 8.97401 6.33182 9.31435 5.56947C10.3712 3.22924 12.7177 2.48463 13.6133 2.14778C13.9536 2.00595 14.1327 1.88184 14.2939 1.56272C15.0104 0.268506 15.3328 0.126675 15.5299 0.126675C15.7269 0.126675 15.709 0.463525 15.7986 0.871291C15.906 1.34997 15.906 1.72228 16.6942 1.9173C18.9332 2.50236 22.2111 4.54119 22.2111 8.26427C22.2111 11.9874 18.5033 14.3453 18.3242 14.4871C17.9122 14.7885 17.7689 15.0367 17.7689 15.2672C17.7689 15.4445 17.8764 15.6395 17.9839 15.8523C18.8795 17.6252 20.4199 18.7776 22.2111 18.7776C24.3427 18.7776 25.9906 16.8096 25.9906 14.7708C25.9906 12.732 24.6114 11.5087 23.4113 11.1364C22.9634 10.9945 22.7664 10.9945 22.7664 10.7641C22.7664 10.4981 23.0709 10.5868 23.0709 10.179C23.0709 9.87761 22.9276 9.94853 22.9276 9.46984C22.9276 9.13299 23.3396 9.02662 23.3396 8.51248C23.3396 8.10471 23.1426 7.96288 23.1426 7.7324C23.1426 7.43101 23.0351 7.46647 23.0351 6.8105C23.0351 6.63321 22.9634 6.50911 23.1067 6.50911C23.2859 6.50911 23.4471 6.73958 23.662 7.0587C24.1457 7.76786 24.5218 8.31746 24.898 8.54794C27.6027 10.2499 28.1938 11.3314 28.8207 12.8561C28.964 13.1929 29.0894 13.778 29.5014 14.0085C29.8417 14.2212 30.594 14.4517 30.594 14.7176" fill="white"/>
</svg>
