<svg width="75" height="113" viewBox="0 0 75 113" fill="none" xmlns="http://www.w3.org/2000/svg">
<path fill-rule="evenodd" clip-rule="evenodd" d="M26.1711 92.3907C25.4582 92.3907 24.8651 92.7532 24.6255 93.3511L21.6541 101.143L21.4144 101.983L21.1748 101.143L18.7965 93.5927V93.4719C18.5568 92.874 17.9637 92.3907 17.2508 92.3907H13.4467C12.614 92.5115 12.0209 93.1095 12.0209 94.0699C12.0209 94.3115 12.1407 94.5471 12.1407 94.7887L12.614 96.4679L10.8287 101.143L10.4693 101.983L10.2296 101.143L7.97109 93.5927V93.4719H7.85128C7.73146 92.874 7.13837 92.3907 6.42547 92.3907H2.62131C1.78859 92.5115 1.07568 93.1095 1.07568 94.0699C1.07568 94.3115 1.1955 94.5471 1.31532 94.7887L6.89874 111.804C7.13837 112.523 7.73146 113 8.44436 113C9.15727 113 9.75036 112.523 9.98999 111.919L13.914 101.85L14.2734 100.889L14.513 101.85L17.8439 111.798C17.9637 112.517 18.6766 112.994 19.3896 112.994C20.1025 112.994 20.6955 112.517 20.9352 111.913L27.591 94.6558C27.7108 94.4142 27.7108 94.1786 27.7108 93.937C27.7108 93.0974 26.9979 92.3787 26.1651 92.3787L26.1711 92.3907Z" fill="#302E2F"/>
<path fill-rule="evenodd" clip-rule="evenodd" d="M54.3401 92.3907C53.6272 92.3907 53.0341 92.7532 52.7944 93.3511L49.823 101.143L49.5834 101.983L49.3438 101.143L46.9654 93.5927V93.4719C46.7258 92.874 46.1327 92.3907 45.4198 92.3907H41.6156C40.7829 92.5115 40.1898 93.1095 40.1898 94.0699C40.1898 94.3115 40.1898 94.5471 40.3096 94.7887L40.7829 96.4679L38.9976 101.143L38.6382 101.983L38.3986 101.143L36.14 93.5927L36.0202 93.4719C35.9004 92.874 35.3073 92.3907 34.5944 92.3907H30.7903C29.9575 92.5115 29.2446 93.1095 29.2446 94.0699C29.2446 94.3115 29.3644 94.5471 29.4843 94.7887L35.0677 111.804C35.3073 112.523 35.9004 113 36.6133 113C37.3262 113 37.9193 112.523 38.1589 111.919L42.0829 101.85L42.4424 100.889L42.682 101.85L46.0129 111.798C46.1327 112.517 46.8456 112.994 47.5585 112.994C48.2714 112.994 48.8645 112.517 49.1041 111.913L55.7599 94.6558C55.8797 94.4142 55.8797 94.1786 55.8797 93.937C55.8797 93.0974 55.1668 92.3787 54.3341 92.3787L54.3401 92.3907Z" fill="#302E2F"/>
<path fill-rule="evenodd" clip-rule="evenodd" d="M72.642 92.3911H59.4502C58.6175 92.3911 58.0244 92.989 58.0244 93.8286V111.442C58.1442 112.281 58.7373 112.879 59.57 112.879H63.2544C64.0871 112.879 64.6802 112.281 64.6802 111.442C64.6802 111.563 64.6802 103.173 64.6802 103.173H70.1498C70.8627 103.173 71.5756 102.454 71.5756 101.735C71.5756 100.896 70.8627 100.177 70.1498 100.177H64.6802V95.5018H72.642C73.4747 95.5018 74.1876 94.783 74.1876 93.9434C74.1876 93.1038 73.4747 92.385 72.642 92.385V92.3911Z" fill="#302E2F"/>
<path fill-rule="evenodd" clip-rule="evenodd" d="M52.1951 36.0721C54.5734 38.7057 54.8071 46.8599 60.8698 43.6224C64.4343 41.7076 64.4343 33.5534 59.5638 30.5634C55.6398 28.2863 53.5011 31.403 52.0753 35.2386C51.9555 35.601 51.9555 35.8366 52.1951 36.0782V36.0721Z" fill="#302E2F"/>
<path fill-rule="evenodd" clip-rule="evenodd" d="M42.8082 34.7493C40.1962 36.7849 38.5308 42.656 33.8939 40.6204C30.0898 38.7057 29.7363 31.2762 36.2723 27.7971C40.7893 25.6407 43.0479 29.8326 43.0479 34.2661C43.0479 34.3869 42.9281 34.6285 42.8082 34.7433V34.7493Z" fill="#302E2F"/>
<path fill-rule="evenodd" clip-rule="evenodd" d="M48.9902 49.4934C51.4883 49.2518 50.8893 46.8599 48.9902 46.3767C47.3247 45.7787 44.8326 45.4163 42.9275 45.5371C39.7164 45.5371 39.8362 48.0558 41.5017 48.533C42.8077 48.8954 43.6404 49.0102 44.7127 50.4478C45.6653 52.3625 45.186 49.8498 48.9902 49.4874V49.4934Z" fill="#302E2F"/>
<path fill-rule="evenodd" clip-rule="evenodd" d="M60.7566 7.79147C63.8478 2.51837 69.3114 3.47876 72.0492 6.11229C75.0207 8.98743 75.6137 12.3458 74.4276 14.6229C72.8819 17.7397 68.8441 21.4544 66.2262 17.8605C65.04 16.1813 62.6616 14.2666 61.2358 13.7834C59.2169 12.823 58.8575 11.029 60.7626 7.79147H60.7566Z" fill="#302E2F"/>
<path fill-rule="evenodd" clip-rule="evenodd" d="M73.2352 30.9198C72.9956 29.9594 72.5223 30.0802 72.5223 30.799C72.7619 40.3848 67.0527 50.6894 54.9333 50.8102C51.8421 50.8102 52.7946 55.7209 47.0914 53.2082C43.0476 50.4538 40.6752 55.9625 37.8236 50.0914C37.1107 48.4123 36.1582 47.6935 34.972 47.3371C22.9664 44.3412 19.1623 27.6823 29.742 14.2609C31.7609 15.5777 32.5937 15.8193 34.8522 13.6629C35.9245 12.5818 37.9434 11.3858 39.0098 11.0294C41.508 10.069 42.9338 8.99387 40.6752 4.07714C39.6328 1.76374 38.219 0.531538 36.7093 0H32.6715C31.4374 0.368453 30.3172 1.00267 29.5024 1.67918C26.4112 4.19794 24.3923 8.14824 28.1964 12.8234C17.4968 20.132 15.5978 29.1198 15.8374 37.0325C16.077 45.3015 14.0521 44.5828 16.6701 52.9726C16.9097 53.6914 16.3107 53.6914 15.9572 53.4498C4.78438 46.2619 -1.27831 24.2091 16.1968 12.1046C16.5563 11.7422 16.4365 11.265 15.0107 12.1046C-0.0861435 20.132 -1.51195 35.7097 0.98621 46.2559C2.17239 51.2874 0.393121 52.2478 2.2922 58.9585C6.80926 72.857 10.6134 74.059 16.077 74.4153C25.9439 74.4153 19.1683 68.9006 19.6416 62.0752C19.6416 61.598 20.1148 61.4772 20.3545 62.3168C25.8241 74.5422 29.6222 85.6864 43.8863 84.6052C52.0877 83.524 47.5706 79.4529 46.9776 77.0549C40.9149 56.8021 55.6522 52.0122 51.4946 71.7818C48.7628 83.1676 57.4375 81.9656 63.62 77.8945C69.9163 73.8174 77.7643 46.1411 73.2472 30.9198H73.2352ZM49.2241 55.0021C47.7983 58.596 40.7831 57.4001 40.5494 53.8062C40.5494 53.6854 40.7891 53.6854 40.7891 53.8062C44.0001 54.5249 46.9716 54.8874 48.9905 54.8874C49.1103 54.8874 49.2301 54.7666 49.2301 55.0082L49.2241 55.0021Z" fill="#302E2F"/>
<path fill-rule="evenodd" clip-rule="evenodd" d="M18.4438 80.6489C18.4438 82.5637 16.8982 84.1221 14.9991 84.1221C12.9802 84.1221 11.4346 82.5637 11.4346 80.6489C11.4346 78.7342 12.9802 77.055 14.9991 77.055C16.8982 77.055 18.4438 78.7342 18.4438 80.6489ZM14.9991 76.457C12.6208 76.457 10.7217 78.257 10.7217 80.6489C10.7217 83.0409 12.6208 84.8408 14.9991 84.8408C17.3775 84.8408 19.1567 82.9261 19.1567 80.6489C19.1567 78.251 17.2576 76.457 14.9991 76.457Z" fill="#302E2F"/>
<path fill-rule="evenodd" clip-rule="evenodd" d="M16.1848 81.247C16.065 81.845 15.5917 82.2074 15.1125 82.2074C14.2798 82.2074 13.6867 81.4886 13.6867 80.649C13.6867 79.8094 14.1599 79.0907 14.9927 79.0907C15.5858 79.0907 16.065 79.4531 16.1788 79.9302H16.7719C16.6521 78.9699 15.9392 78.4927 14.9867 78.4927C13.8005 78.4927 12.9678 79.4531 12.9678 80.649C12.9678 81.845 13.8005 82.8054 15.1065 82.8054C15.9392 82.8054 16.5323 82.2074 16.7719 81.247H16.1788H16.1848Z" fill="#302E2F"/>
<path fill-rule="evenodd" clip-rule="evenodd" d="M73.4752 86.1638C73.4752 88.0785 71.9296 89.6369 70.0305 89.6369C68.0116 89.6369 66.466 88.0785 66.466 86.1638C66.466 84.249 68.0116 82.5698 70.0305 82.5698C71.9296 82.5698 73.4752 84.249 73.4752 86.1638ZM70.0245 81.9658C67.6462 81.9658 65.7471 83.7658 65.7471 86.1577C65.7471 88.5496 67.6462 90.3496 70.0245 90.3496C72.4028 90.3496 74.1821 88.4349 74.1821 86.1577C74.1821 83.7598 72.283 81.9658 70.0245 81.9658Z" fill="#302E2F"/>
<path fill-rule="evenodd" clip-rule="evenodd" d="M69.3112 86.3992H69.9043L70.9767 88.1992H71.6896L70.5034 86.3992C71.0965 86.2784 71.5757 86.0368 71.5757 85.318C71.5757 84.4784 71.1025 84.1221 70.1499 84.1221H68.7241V88.1992H69.3172V86.3992H69.3112ZM69.3112 85.922V84.7261H70.0241C70.4974 84.7261 70.9767 84.7261 70.9767 85.2033C70.9767 85.922 70.5034 85.922 70.0241 85.922H69.3112Z" fill="#302E2F"/>
</svg>
