<svg width="56" height="56" viewBox="0 0 56 56" fill="none" xmlns="http://www.w3.org/2000/svg">
<path d="M17.3205 21.601C19.6634 20.1238 19.9781 16.4129 18.0235 13.3124C16.0688 10.2119 12.585 8.89598 10.2421 10.3732C7.89927 11.8504 7.58454 15.5613 9.53918 18.6618C11.4938 21.7623 14.9776 23.0782 17.3205 21.601Z" fill="#D53885"/>
<path d="M33.1373 12.6318C33.514 8.98598 31.5861 5.79964 28.8311 5.51492C26.0761 5.23021 23.5374 7.95494 23.1607 11.6008C22.7839 15.2466 24.7119 18.433 27.4668 18.7177C30.2218 19.0024 32.7605 16.2777 33.1373 12.6318Z" fill="#D53885"/>
<path d="M47.2785 18.4973C49.111 15.3231 48.6521 11.6272 46.2535 10.2423C43.855 8.85737 40.425 10.3079 38.5925 13.4821C36.76 16.6563 37.2188 20.3522 39.6174 21.7371C42.016 23.122 45.446 21.6715 47.2785 18.4973Z" fill="#D53885"/>
<path d="M28.6897 46.1685C28.6897 46.1685 30.0727 44.1578 31.9612 43.5244C33.8498 42.8909 37.749 40.1247 38.2487 38.6196C38.7484 37.1145 39.5039 31.0707 35.4827 30.8208C31.4615 30.5709 30.4504 31.1985 28.6897 34.3425C28.6897 34.3425 26.1735 31.0998 24.6627 30.7685C23.1518 30.4373 19.1248 29.6876 17.8696 33.7148C16.6145 37.7421 19.2526 40.5083 21.269 41.7693C23.2855 43.0304 27.1846 45.0411 27.1846 46.1743C27.1846 46.1743 24.7091 47.0576 23.1169 47.8073C21.5247 48.557 16.4924 49.818 12.971 45.4188C9.44953 41.0197 10.327 30.1932 16.8701 26.0439C23.4133 21.8946 32.3215 20.0989 40.2709 26.6715C46.8141 32.0819 46.4131 40.2061 44.6756 43.78C43.2229 46.7671 39.7712 49.1904 35.3665 48.5686C31.5777 48.0339 30.8397 46.1685 28.7013 46.1685H28.6897Z" fill="#D53885"/>
</svg>
