<svg width="253" height="18" viewBox="0 0 253 18" fill="none" xmlns="http://www.w3.org/2000/svg">
<path d="M35.9696 0.673177C35.5172 0.686362 35.171 0.73929 34.9315 0.831572C34.7053 0.91067 34.5522 1.06854 34.4724 1.30579C34.3925 1.52996 34.3525 1.8861 34.3525 2.37399V9.61378C34.3525 10.1542 34.3453 10.7408 34.332 11.3735C34.3187 12.0064 34.2858 12.62 34.2326 13.2134C34.1926 13.8068 34.1197 14.3278 34.0132 14.7761C33.787 15.6992 33.3074 16.4643 32.5754 17.0709C31.8568 17.6905 30.918 18 29.7602 18V17.6243C30.3589 17.6111 30.8583 17.4664 31.2575 17.1897C31.6701 16.9128 31.9761 16.4508 32.1758 15.8047C32.3887 15.1717 32.4955 14.3211 32.4955 13.253V2.37399C32.4955 1.8861 32.4554 1.52996 32.3756 1.30579C32.2957 1.06864 32.1363 0.910707 31.897 0.831572C31.6707 0.739265 31.3308 0.686364 30.8783 0.673177V0.277191C31.1578 0.290377 31.5244 0.303603 31.9769 0.316789C32.4293 0.32997 32.9019 0.337071 33.3942 0.337071C33.8866 0.337069 34.3591 0.329974 34.8116 0.316789C35.2773 0.303604 35.6635 0.290376 35.9696 0.277191V0.673177ZM29.6277 0.673177C29.1753 0.686391 28.829 0.752525 28.5895 0.87117C28.3636 0.989823 28.2102 1.18053 28.1304 1.4439C28.0505 1.70764 28.0115 2.08407 28.0115 2.57198V8.5253C28.0115 9.44837 27.9509 10.2532 27.8311 10.9389C27.7114 11.6245 27.4987 12.2179 27.1926 12.7189C26.8599 13.2727 26.3742 13.7214 25.7353 14.0643C25.0965 14.3939 24.3643 14.5588 23.5391 14.5588C22.9004 14.5588 22.2882 14.4794 21.7026 14.3212C21.1304 14.1761 20.6241 13.8994 20.1849 13.4906C19.799 13.1214 19.4929 12.7317 19.2667 12.3229C19.0538 11.9142 18.9078 11.4132 18.828 10.8201C18.7482 10.2267 18.7081 9.48177 18.7081 8.58518V2.37399C18.7081 1.8861 18.6681 1.52996 18.5882 1.30579C18.5083 1.06848 18.3481 0.910681 18.1086 0.831572C17.8824 0.739325 17.5433 0.686361 17.0909 0.673177V0.277191C17.3703 0.290373 17.7362 0.303607 18.1885 0.316789C18.6409 0.329972 19.1269 0.337068 19.6458 0.337071C20.1117 0.337071 20.5717 0.329976 21.0242 0.316789C21.4896 0.303612 21.8753 0.290368 22.1813 0.277191V0.673177C21.7289 0.686381 21.3826 0.739289 21.1431 0.831572C20.9171 0.910746 20.7638 1.06859 20.684 1.30579C20.6041 1.52996 20.5641 1.8861 20.5641 2.37399V8.92129C20.5641 9.59361 20.598 10.233 20.6645 10.8394C20.731 11.4328 20.8636 11.9609 21.0632 12.4224C21.2761 12.8707 21.5965 13.2268 22.0224 13.4906C22.4482 13.7409 23.0135 13.8663 23.7185 13.8663C24.7298 13.8663 25.5084 13.6484 26.0541 13.2134C26.6131 12.765 26.9992 12.1515 27.2121 11.3735C27.4383 10.5957 27.5513 9.7191 27.5514 8.74358V2.57198C27.5514 2.08407 27.4918 1.70764 27.372 1.4439C27.2656 1.18053 27.0793 0.989795 26.8135 0.87117C26.5473 0.752508 26.1878 0.686377 25.7353 0.673177V0.277191C25.9748 0.29037 26.2874 0.30361 26.6731 0.316789C27.0724 0.329976 27.4389 0.337071 27.7717 0.337071C28.1175 0.337068 28.4568 0.329967 28.7893 0.316789C29.1352 0.303611 29.4148 0.290369 29.6277 0.277191V0.673177ZM49.7473 0.673177C49.2949 0.686391 48.9486 0.752525 48.7091 0.87117C48.4832 0.989823 48.3298 1.18053 48.25 1.4439C48.1701 1.70764 48.1311 2.08407 48.1311 2.57198V8.5253C48.1311 9.44837 48.0705 10.2532 47.9507 10.9389C47.8309 11.6245 47.6183 12.2179 47.3122 12.7189C46.9795 13.2727 46.4938 13.7214 45.8549 14.0643C45.2161 14.3939 44.4839 14.5588 43.6587 14.5588C43.02 14.5588 42.4078 14.4794 41.8222 14.3212C41.25 14.1761 40.7437 13.8994 40.3045 13.4906C39.9186 13.1214 39.6125 12.7317 39.3862 12.3229C39.1734 11.9142 39.0274 11.4132 38.9476 10.8201C38.8677 10.2267 38.8277 9.48177 38.8277 8.58518V2.37399C38.8277 1.8861 38.7877 1.52996 38.7078 1.30579C38.6279 1.06848 38.4677 0.910681 38.2282 0.831572C38.002 0.739326 37.6629 0.686361 37.2105 0.673177V0.277191C37.4899 0.290373 37.8558 0.303607 38.3081 0.316789C38.7605 0.329972 39.2465 0.337068 39.7654 0.337071C40.2313 0.337071 40.6913 0.329976 41.1438 0.316789C41.6092 0.303612 41.9949 0.290368 42.3009 0.277191V0.673177C41.8485 0.686381 41.5022 0.739289 41.2627 0.831572C41.0367 0.910746 40.8834 1.06859 40.8036 1.30579C40.7237 1.52996 40.6837 1.8861 40.6837 2.37399V8.92129C40.6837 9.59361 40.7176 10.233 40.7841 10.8394C40.8506 11.4328 40.9832 11.9609 41.1828 12.4224C41.3957 12.8707 41.7161 13.2268 42.142 13.4906C42.5677 13.7409 43.1331 13.8663 43.8381 13.8663C44.8494 13.8663 45.628 13.6484 46.1737 13.2134C46.7327 12.765 47.1188 12.1515 47.3317 11.3735C47.5579 10.5957 47.6709 9.7191 47.671 8.74358V2.57198C47.671 2.08407 47.6114 1.70764 47.4916 1.4439C47.3851 1.18053 47.1989 0.989795 46.933 0.87117C46.6669 0.752508 46.3073 0.686377 45.8549 0.673177V0.277191C46.0944 0.29037 46.407 0.30361 46.7927 0.316789C47.1919 0.329976 47.5585 0.337071 47.8913 0.337071C48.2371 0.337068 48.5764 0.329967 48.9089 0.316789C49.2548 0.303611 49.5344 0.290369 49.7473 0.277191V0.673177ZM89.074 0C90.3384 0 91.4434 0.283861 92.3883 0.850888C93.3465 1.41791 94.085 2.236 94.604 3.30407C95.1362 4.35891 95.4023 5.64435 95.4024 7.16059C95.4024 8.63733 95.1301 9.9298 94.5845 11.0374C94.0522 12.145 93.3065 13.0089 92.3484 13.6287C91.3902 14.2484 90.2921 14.5587 89.0546 14.5588C87.7902 14.5588 86.6781 14.2749 85.7198 13.7079C84.7751 13.1409 84.0364 12.3235 83.5041 11.2557C82.9851 10.1876 82.7253 8.90145 82.7253 7.39819C82.7253 5.92134 82.9985 4.62903 83.5441 3.52138C84.0898 2.4137 84.8353 1.54986 85.7802 0.930085C86.7385 0.310358 87.8364 1.27098e-05 89.074 0ZM103.971 0C104.836 0 105.535 0.132252 106.067 0.395986C106.6 0.646525 107.099 0.943636 107.565 1.28647C107.737 1.41799 107.87 1.48328 107.963 1.4835C108.216 1.4835 108.383 1.08158 108.463 0.277191H108.923C108.896 0.765017 108.876 1.35845 108.862 2.0572C108.849 2.75609 108.843 3.67993 108.843 4.82717H108.384C108.29 4.2734 108.176 3.73909 108.043 3.22488C107.91 2.71082 107.691 2.2689 107.385 1.89977C106.999 1.41186 106.493 1.03542 105.868 0.771691C105.242 0.49487 104.597 0.356452 103.932 0.356388C103.266 0.356388 102.66 0.521279 102.115 0.850888C101.582 1.16737 101.123 1.62929 100.737 2.23587C100.351 2.84244 100.052 3.5741 99.8386 4.43119C99.639 5.27512 99.5394 6.23158 99.5394 7.29967C99.5394 9.673 99.9256 11.4133 100.697 12.5209C101.469 13.6154 102.667 14.1628 104.29 14.1628C104.77 14.1628 105.182 14.0967 105.528 13.9648C105.888 13.8198 106.167 13.6813 106.367 13.5495C106.62 13.3781 106.78 13.2203 106.846 13.0753C106.913 12.9171 106.946 12.7125 106.946 12.462V10.5632C106.946 10.0225 106.892 9.61964 106.786 9.3559C106.679 9.09253 106.48 8.91506 106.187 8.82277C105.908 8.73049 105.489 8.67758 104.93 8.66438V8.26839C105.169 8.28157 105.449 8.29481 105.768 8.30799C106.088 8.30799 106.42 8.31509 106.766 8.32827H107.744C108.183 8.32827 108.577 8.32118 108.923 8.30799C109.282 8.29481 109.581 8.28157 109.82 8.26839V8.66438C109.528 8.67757 109.308 8.72338 109.161 8.80249C109.015 8.88164 108.915 9.04042 108.862 9.27767C108.822 9.51504 108.803 9.87757 108.803 10.3652V14.2816H108.403C108.39 14.0574 108.336 13.8132 108.243 13.5495C108.163 13.2859 108.037 13.1545 107.864 13.1545C107.784 13.1545 107.704 13.1738 107.624 13.2134C107.544 13.253 107.405 13.3457 107.205 13.4906C106.766 13.8201 106.3 14.0838 105.808 14.2816C105.316 14.4662 104.743 14.5588 104.091 14.5588C102.72 14.5587 101.542 14.282 100.557 13.7282C99.5857 13.1612 98.8409 12.3499 98.3218 11.2953C97.8028 10.2404 97.543 8.98064 97.543 7.51698C97.543 5.9742 97.8224 4.64222 98.3813 3.52138C98.9403 2.40052 99.6992 1.53667 100.657 0.930085C101.629 0.310448 102.733 7.75205e-05 103.971 0ZM135.372 0.673177C134.92 0.686391 134.574 0.752525 134.334 0.87117C134.108 0.989823 133.955 1.18053 133.875 1.4439C133.795 1.70764 133.756 2.08407 133.756 2.57198V8.5253C133.756 9.44837 133.696 10.2532 133.576 10.9389C133.456 11.6245 133.244 12.2179 132.937 12.7189C132.605 13.2727 132.119 13.7214 131.48 14.0643C130.841 14.3939 130.109 14.5588 129.284 14.5588C128.645 14.5588 128.033 14.4794 127.447 14.3212C126.875 14.1761 126.369 13.8994 125.93 13.4906C125.544 13.1214 125.238 12.7317 125.011 12.3229C124.799 11.9142 124.653 11.4132 124.573 10.8201C124.493 10.2267 124.453 9.48177 124.453 8.58518V2.37399C124.453 1.8861 124.413 1.52996 124.333 1.30579C124.253 1.06848 124.093 0.910681 123.853 0.831572C123.627 0.739325 123.288 0.686361 122.836 0.673177V0.277191C123.115 0.290373 123.481 0.303607 123.933 0.316789C124.386 0.329972 124.872 0.337068 125.391 0.337071C125.857 0.337071 126.317 0.329976 126.769 0.316789C127.234 0.303612 127.62 0.290368 127.926 0.277191V0.673177C127.474 0.686381 127.127 0.739289 126.888 0.831572C126.662 0.910746 126.509 1.06859 126.429 1.30579C126.349 1.52996 126.309 1.8861 126.309 2.37399V8.92129C126.309 9.59361 126.343 10.233 126.409 10.8394C126.476 11.4328 126.608 11.9609 126.808 12.4224C127.021 12.8707 127.341 13.2268 127.767 13.4906C128.193 13.7409 128.758 13.8663 129.463 13.8663C130.475 13.8663 131.253 13.6484 131.799 13.2134C132.358 12.765 132.744 12.1515 132.957 11.3735C133.183 10.5957 133.296 9.7191 133.296 8.74358V2.57198C133.296 2.08407 133.237 1.70764 133.117 1.4439C133.01 1.18053 132.824 0.989796 132.558 0.87117C132.292 0.752508 131.933 0.686377 131.48 0.673177V0.277191C131.72 0.29037 132.032 0.30361 132.418 0.316789C132.817 0.329976 133.184 0.337071 133.517 0.337071C133.862 0.337069 134.202 0.329967 134.534 0.316789C134.88 0.303611 135.16 0.290369 135.372 0.277191V0.673177ZM141.016 0.0598809C141.681 0.0598905 142.186 0.139289 142.532 0.297473C142.878 0.442504 143.184 0.607394 143.451 0.791973C143.61 0.88428 143.738 0.956536 143.831 1.00928C143.937 1.04874 144.037 1.0682 144.13 1.0682C144.263 1.06811 144.356 0.995803 144.409 0.850888C144.475 0.705834 144.529 0.488099 144.569 0.197993H145.028C145.014 0.422166 144.995 0.692802 144.968 1.00928C144.955 1.31257 144.942 1.72164 144.928 2.23587V4.23319H144.469C144.429 3.6003 144.29 2.99374 144.05 2.41359C143.81 1.83337 143.457 1.35823 142.991 0.989C142.539 0.620016 141.94 0.435585 141.195 0.435585C140.49 0.435625 139.904 0.646384 139.438 1.0682C138.986 1.49017 138.76 2.04467 138.76 2.73038C138.76 3.32364 138.913 3.82448 139.219 4.23319C139.525 4.62877 139.931 4.99202 140.437 5.32167C140.956 5.63811 141.514 5.9811 142.113 6.35027C142.805 6.77214 143.417 7.19362 143.95 7.6155C144.495 8.0242 144.922 8.47923 145.228 8.9802C145.547 9.48129 145.707 10.0887 145.707 10.8008C145.707 11.6443 145.514 12.3429 145.128 12.8966C144.742 13.4504 144.23 13.8666 143.591 14.1435C142.952 14.4204 142.247 14.5588 141.475 14.5588C140.769 14.5588 140.211 14.4793 139.798 14.3212C139.385 14.1629 139.032 13.9981 138.739 13.8267C138.447 13.6422 138.221 13.5496 138.061 13.5495C137.928 13.5495 137.828 13.6227 137.762 13.7678C137.709 13.9128 137.661 14.1299 137.621 14.4197H137.162C137.189 14.1429 137.202 13.82 137.202 13.451C137.215 13.0686 137.223 12.574 137.223 11.9675C137.236 11.3609 137.242 10.5958 137.242 9.67269H137.701C137.755 10.4639 137.901 11.2026 138.141 11.8883C138.394 12.5738 138.773 13.1276 139.278 13.5495C139.798 13.9583 140.483 14.1628 141.335 14.1628C141.774 14.1627 142.187 14.0772 142.572 13.9059C142.972 13.7213 143.298 13.4374 143.551 13.055C143.804 12.6594 143.93 12.1516 143.93 11.5319C143.93 10.9914 143.797 10.5231 143.53 10.1276C143.278 9.71892 142.918 9.34325 142.452 9.00048C141.987 8.64449 141.441 8.28118 140.816 7.912C140.19 7.52965 139.605 7.14083 139.059 6.74529C138.513 6.34969 138.074 5.89487 137.741 5.38059C137.422 4.85315 137.263 4.22017 137.263 3.48178C137.263 2.70377 137.435 2.06379 137.781 1.5627C138.141 1.04851 138.607 0.672918 139.179 0.435585C139.751 0.185105 140.363 0.0598809 141.016 0.0598809ZM179.777 0.316789C180.229 0.329967 180.675 0.337071 181.114 0.337071C181.74 0.337069 182.339 0.329974 182.911 0.316789C183.483 0.303608 183.889 0.297476 184.128 0.297473C185.206 0.297473 186.099 0.449081 186.804 0.752374C187.523 1.05565 188.055 1.47094 188.401 1.99828C188.76 2.5125 188.94 3.09264 188.94 3.73869C188.94 4.13429 188.86 4.55654 188.7 5.00488C188.54 5.45318 188.261 5.87551 187.862 6.27107C187.476 6.66655 186.944 6.9964 186.265 7.26007C185.92 7.38758 185.527 7.48044 185.089 7.54306C185.162 7.55368 185.236 7.5641 185.307 7.5759C186.198 7.72097 186.837 7.99165 187.223 8.38719C187.623 8.76961 187.915 9.37006 188.102 10.1875L188.601 12.2051C188.734 12.7848 188.866 13.2066 188.999 13.4703C189.146 13.7208 189.366 13.8398 189.658 13.8267C189.885 13.8135 190.071 13.7412 190.218 13.6094C190.378 13.4775 190.544 13.2994 190.717 13.0753L191.016 13.2926C190.737 13.7013 190.444 14.0178 190.138 14.242C189.845 14.453 189.425 14.5588 188.88 14.5588C188.387 14.5587 187.955 14.4132 187.582 14.1232C187.21 13.833 186.93 13.2661 186.744 12.4224L186.305 10.4444C186.185 9.87736 186.045 9.38899 185.885 8.9802C185.739 8.55844 185.526 8.22848 185.246 7.9912C184.98 7.75397 184.581 7.63578 184.048 7.63578H182.153V12.1848C182.153 12.6595 182.193 13.0156 182.272 13.253C182.352 13.4903 182.505 13.6491 182.732 13.7282C182.971 13.8072 183.317 13.8592 183.77 13.8856V14.2816C183.464 14.2552 183.077 14.242 182.612 14.242C182.159 14.2288 181.7 14.2227 181.234 14.2227C180.715 14.2227 180.229 14.2288 179.777 14.242C179.324 14.242 178.958 14.2552 178.678 14.2816V13.8856C179.131 13.8592 179.471 13.8073 179.697 13.7282C179.936 13.649 180.096 13.4903 180.176 13.253C180.255 13.0156 180.296 12.6595 180.296 12.1848V2.37399C180.296 1.8861 180.255 1.52996 180.176 1.30579C180.096 1.06866 179.936 0.910722 179.697 0.831572C179.471 0.739265 179.131 0.686364 178.678 0.673177V0.277191C178.958 0.290377 179.324 0.303603 179.777 0.316789ZM208.061 0.0598809C208.727 0.0598905 209.232 0.139289 209.578 0.297473C209.924 0.442504 210.23 0.607394 210.496 0.791973C210.656 0.88428 210.783 0.956536 210.877 1.00928C210.983 1.04874 211.083 1.0682 211.176 1.0682C211.309 1.06811 211.401 0.995803 211.455 0.850888C211.521 0.705834 211.575 0.488099 211.614 0.197993H212.074C212.06 0.422166 212.041 0.692802 212.014 1.00928C212.001 1.31257 211.987 1.72164 211.974 2.23587V4.23319H211.515C211.475 3.6003 211.335 2.99374 211.096 2.41359C210.856 1.83337 210.503 1.35823 210.037 0.989C209.585 0.620016 208.986 0.435585 208.241 0.435585C207.536 0.435625 206.95 0.646384 206.484 1.0682C206.032 1.49017 205.806 2.04467 205.806 2.73038C205.806 3.32364 205.959 3.82448 206.265 4.23319C206.571 4.62877 206.977 4.99202 207.482 5.32167C208.001 5.63811 208.56 5.9811 209.159 6.35027C209.851 6.77214 210.463 7.19362 210.995 7.6155C211.541 8.0242 211.967 8.47923 212.273 8.9802C212.593 9.48129 212.753 10.0887 212.753 10.8008C212.753 11.6443 212.56 12.3429 212.174 12.8966C211.788 13.4504 211.276 13.8666 210.637 14.1435C209.998 14.4204 209.292 14.5588 208.52 14.5588C207.815 14.5588 207.256 14.4793 206.844 14.3212C206.431 14.1629 206.078 13.9981 205.785 13.8267C205.493 13.6422 205.266 13.5496 205.107 13.5495C204.974 13.5495 204.874 13.6227 204.808 13.7678C204.754 13.9128 204.707 14.1299 204.667 14.4197H204.208C204.235 14.1429 204.248 13.82 204.248 13.451C204.261 13.0686 204.268 12.574 204.268 11.9675C204.282 11.3609 204.288 10.5958 204.288 9.67269H204.747C204.8 10.4639 204.947 11.2026 205.187 11.8883C205.44 12.5738 205.819 13.1276 206.324 13.5495C206.843 13.9583 207.529 14.1628 208.381 14.1628C208.82 14.1627 209.232 14.0772 209.618 13.9059C210.017 13.7213 210.344 13.4374 210.597 13.055C210.85 12.6594 210.976 12.1516 210.976 11.5319C210.976 10.9914 210.842 10.5231 210.576 10.1276C210.323 9.71892 209.964 9.34325 209.498 9.00048C209.032 8.64449 208.487 8.28118 207.862 7.912C207.236 7.52965 206.651 7.14083 206.105 6.74529C205.559 6.34969 205.12 5.89487 204.787 5.38059C204.468 4.85315 204.308 4.22017 204.308 3.48178C204.308 2.70377 204.481 2.06379 204.827 1.5627C205.186 1.04851 205.653 0.672918 206.225 0.435585C206.797 0.185105 207.409 0.0598809 208.061 0.0598809ZM221.138 0C222.402 0 223.507 0.283861 224.452 0.850888C225.411 1.41791 226.149 2.236 226.668 3.30407C227.2 4.35891 227.466 5.64435 227.466 7.16059C227.466 8.63733 227.194 9.9298 226.649 11.0374C226.116 12.145 225.371 13.0089 224.412 13.6287C223.454 14.2484 222.356 14.5587 221.119 14.5588C219.854 14.5588 218.742 14.2749 217.784 13.7079C216.839 13.1409 216.1 12.3235 215.568 11.2557C215.049 10.1876 214.789 8.90145 214.789 7.39819C214.789 5.92134 215.063 4.62903 215.608 3.52138C216.154 2.4137 216.899 1.54986 217.844 0.930085C218.803 0.310361 219.9 1.27097e-05 221.138 0ZM230.31 0.316789C230.762 0.329967 231.208 0.337071 231.647 0.337071C232.273 0.337069 232.872 0.329974 233.444 0.316789C234.016 0.303608 234.422 0.297476 234.661 0.297473C235.739 0.297473 236.632 0.449081 237.337 0.752374C238.056 1.05565 238.588 1.47094 238.934 1.99828C239.293 2.5125 239.473 3.09264 239.473 3.73869C239.473 4.13429 239.393 4.55654 239.233 5.00488C239.073 5.45318 238.794 5.87551 238.395 6.27107C238.009 6.66655 237.477 6.9964 236.798 7.26007C236.453 7.38758 236.06 7.48044 235.622 7.54306C235.695 7.55368 235.768 7.5641 235.84 7.5759C236.731 7.72097 237.37 7.99165 237.756 8.38719C238.155 8.76961 238.448 9.37006 238.635 10.1875L239.134 12.2051C239.267 12.7848 239.399 13.2066 239.532 13.4703C239.679 13.7208 239.899 13.8398 240.191 13.8267C240.418 13.8135 240.604 13.7412 240.751 13.6094C240.911 13.4775 241.077 13.2994 241.25 13.0753L241.549 13.2926C241.27 13.7013 240.977 14.0178 240.671 14.242C240.378 14.453 239.958 14.5588 239.412 14.5588C238.92 14.5587 238.488 14.4132 238.115 14.1232C237.742 13.833 237.463 13.2661 237.277 12.4224L236.838 10.4444C236.718 9.87736 236.578 9.38899 236.418 8.9802C236.271 8.55844 236.059 8.22848 235.779 7.9912C235.513 7.75397 235.114 7.63578 234.581 7.63578H232.685V12.1848C232.685 12.6595 232.725 13.0156 232.805 13.253C232.885 13.4903 233.038 13.6491 233.264 13.7282C233.504 13.8072 233.85 13.8592 234.303 13.8856V14.2816C233.997 14.2552 233.61 14.242 233.145 14.242C232.692 14.2288 232.233 14.2227 231.767 14.2227C231.248 14.2227 230.762 14.2288 230.31 14.242C229.857 14.242 229.491 14.2552 229.211 14.2816V13.8856C229.664 13.8592 230.004 13.8073 230.23 13.7282C230.469 13.649 230.629 13.4903 230.709 13.253C230.788 13.0156 230.828 12.6595 230.828 12.1848V2.37399C230.828 1.8861 230.788 1.52996 230.709 1.30579C230.629 1.06866 230.469 0.910722 230.23 0.831572C230.004 0.739265 229.664 0.686364 229.211 0.673177V0.277191C229.491 0.290377 229.857 0.303603 230.31 0.316789ZM15.7116 0.673177C15.2591 0.686364 14.913 0.739265 14.6735 0.831572C14.4473 0.910688 14.2942 1.06853 14.2143 1.30579C14.1345 1.52996 14.0944 1.8861 14.0944 2.37399V12.1848C14.0944 12.6595 14.1345 13.0156 14.2143 13.253C14.2942 13.4904 14.4472 13.6491 14.6735 13.7282C14.913 13.8073 15.2592 13.8592 15.7116 13.8856V14.2816C15.4055 14.2552 15.0194 14.242 14.5536 14.242C14.1011 14.2288 13.642 14.2227 13.1762 14.2227C12.6572 14.2227 12.1714 14.2288 11.7189 14.242C11.2666 14.242 10.9007 14.2552 10.6213 14.2816V13.8856C11.0734 13.8592 11.4128 13.8072 11.639 13.7282C11.8785 13.6491 12.0387 13.4904 12.1185 13.253C12.1984 13.0156 12.2375 12.6594 12.2375 12.1848V1.57815L7.4269 14.3801H7.10717L2.0763 1.54338V11.9868C2.0763 12.4615 2.11634 12.838 2.19619 13.1149C2.28936 13.3784 2.46211 13.5699 2.71478 13.6886C2.98096 13.7941 3.37424 13.8592 3.8933 13.8856V14.2816C3.65373 14.2552 3.34054 14.242 2.95458 14.242C2.56876 14.2288 2.20289 14.2227 1.85697 14.2227C1.52424 14.2227 1.18435 14.2288 0.838316 14.242C0.505727 14.242 0.226184 14.2552 0 14.2816V13.8856C0.452509 13.8592 0.792397 13.7941 1.01865 13.6886C1.25805 13.5699 1.4174 13.3784 1.49727 13.1149C1.57713 12.838 1.61717 12.4615 1.61717 11.9868V2.37399C1.61717 1.8861 1.57712 1.52996 1.49727 1.30579C1.41745 1.06866 1.25792 0.910722 1.01865 0.831572C0.792397 0.739265 0.452509 0.686364 0 0.673177V0.277191C0.226183 0.290373 0.505728 0.303607 0.838316 0.316789C1.18435 0.329976 1.52424 0.337071 1.85697 0.337071C2.14958 0.337068 2.44884 0.329962 2.75475 0.316789C3.07416 0.303603 3.34113 0.290377 3.55407 0.277191L7.94354 11.7357L12.2375 0.337071H13.1762C13.642 0.337071 14.1011 0.329974 14.5536 0.316789C15.0194 0.303603 15.4055 0.290377 15.7116 0.277191V0.673177ZM172.149 0.673177C171.697 0.686362 171.351 0.752524 171.111 0.87117C170.885 0.989771 170.732 1.18044 170.652 1.4439C170.572 1.70764 170.532 2.08407 170.532 2.57198V14.3801H170.073L161.688 1.54338V11.9868C161.688 12.4615 161.728 12.838 161.808 13.1149C161.901 13.3784 162.074 13.5699 162.326 13.6886C162.593 13.7941 162.986 13.8592 163.505 13.8856V14.2816C163.265 14.2552 162.952 14.242 162.566 14.242C162.18 14.2288 161.814 14.2227 161.469 14.2227C161.136 14.2227 160.796 14.2288 160.45 14.242C160.117 14.242 159.838 14.2552 159.612 14.2816V13.8856C160.064 13.8592 160.404 13.7941 160.63 13.6886C160.87 13.5699 161.029 13.3784 161.109 13.1149C161.189 12.838 161.229 12.4615 161.229 11.9868V2.37399C161.229 1.8861 161.189 1.52996 161.109 1.30579C161.029 1.06866 160.869 0.910722 160.63 0.831572C160.404 0.739265 160.064 0.686364 159.612 0.673177V0.277191C159.838 0.290373 160.117 0.303607 160.45 0.316789C160.796 0.329976 161.136 0.337071 161.469 0.337071C161.761 0.337068 162.041 0.329973 162.307 0.316789C162.573 0.303608 162.812 0.290372 163.025 0.277191L170.073 11.0374V2.57198C170.073 2.08407 170.026 1.70764 169.933 1.4439C169.853 1.18053 169.68 0.989784 169.414 0.87117C169.161 0.752491 168.775 0.686364 168.256 0.673177V0.277191C168.496 0.290377 168.809 0.303603 169.195 0.316789C169.594 0.329966 169.96 0.337071 170.292 0.337071C170.638 0.337071 170.977 0.329964 171.31 0.316789C171.656 0.303603 171.936 0.290377 172.149 0.277191V0.673177ZM61.5392 0.277191C63.9215 0.277191 65.692 0.87048 66.8499 2.0572C68.0077 3.23077 68.5869 4.91893 68.587 7.121C68.587 8.55834 68.3005 9.81798 67.7282 10.8993C67.1692 11.9673 66.3506 12.7977 65.2727 13.3911C64.1947 13.9845 62.8904 14.2816 61.3599 14.2816C61.1603 14.2816 60.8941 14.2755 60.5615 14.2623C60.2289 14.2491 59.8826 14.242 59.5234 14.242C59.1775 14.2288 58.8579 14.2227 58.5652 14.2227C58.0995 14.2227 57.6402 14.2288 57.1878 14.242C56.7353 14.242 56.3687 14.2552 56.0892 14.2816V13.8856C56.5417 13.8592 56.8816 13.8073 57.1079 13.7282C57.3473 13.649 57.5067 13.4903 57.5865 13.253C57.6663 13.0156 57.7064 12.6595 57.7064 12.1848V2.37399C57.7064 1.8861 57.6663 1.52996 57.5865 1.30579C57.5067 1.06866 57.3471 0.910722 57.1079 0.831572C56.8816 0.739265 56.5417 0.686364 56.0892 0.673177V0.277191C56.3687 0.290377 56.7353 0.310698 57.1878 0.337071C57.6402 0.350245 58.0862 0.350254 58.5252 0.337071C58.991 0.323887 59.5169 0.310657 60.1024 0.297473C60.6878 0.284294 61.1667 0.277193 61.5392 0.277191ZM80.3029 0.277191C80.2497 0.738724 80.2096 1.18742 80.183 1.62258C80.1697 2.05765 80.1625 2.38744 80.1625 2.61158C80.1626 2.84887 80.1697 3.07996 80.183 3.30407C80.1963 3.51489 80.2097 3.69321 80.223 3.83817H79.7639C79.684 3.06027 79.571 2.44661 79.4246 1.99828C79.2782 1.53675 79.0246 1.21321 78.6653 1.0286C78.3192 0.830952 77.7932 0.732092 77.0881 0.732092H75.4319C74.9796 0.732092 74.6333 0.77185 74.3938 0.850888C74.1676 0.9168 74.0145 1.06856 73.9346 1.30579C73.8548 1.52996 73.8147 1.8861 73.8147 2.37399V7.0418H75.1317C75.5708 7.0418 75.9036 6.95622 76.1299 6.78489C76.3694 6.60028 76.5429 6.36932 76.6494 6.0924C76.7558 5.81568 76.8288 5.53236 76.8687 5.24247C76.9087 4.9392 76.9487 4.66854 76.9886 4.43119H77.4478C77.3945 5.18281 77.3678 5.75668 77.3678 6.15228C77.3811 6.54773 77.3883 6.91023 77.3883 7.23979C77.3883 7.56946 77.3945 7.93267 77.4078 8.32827C77.4211 8.7238 77.454 9.2972 77.5072 10.0484H77.0481C76.9949 9.62672 76.929 9.21811 76.8492 8.82277C76.7827 8.41408 76.6224 8.0843 76.3697 7.83377C76.16 7.60295 75.8179 7.47239 75.3432 7.44358L75.1317 7.43779H73.8147V12.1848C73.8147 12.6595 73.8548 13.0156 73.9346 13.253C74.0145 13.4903 74.1675 13.6491 74.3938 13.7282C74.6333 13.794 74.9797 13.8267 75.4319 13.8267H76.8892C77.7273 13.8267 78.3594 13.7146 78.7852 13.4906C79.2244 13.2664 79.5376 12.9032 79.7239 12.4021C79.9234 11.8879 80.0694 11.1957 80.1625 10.3256H80.6217C80.5817 10.6816 80.5622 11.1568 80.5622 11.7502C80.5622 12.0007 80.5684 12.3632 80.5817 12.8377C80.6083 13.2992 80.6484 13.7805 80.7016 14.2816C80.0229 14.2552 79.2576 14.242 78.406 14.242C77.5542 14.2288 76.7953 14.2227 76.1299 14.2227H74.9923C74.5398 14.2227 74.0469 14.2288 73.5145 14.242C72.9824 14.242 72.4437 14.2491 71.8983 14.2623C71.3526 14.2623 70.833 14.2684 70.3406 14.2816V13.8856C70.7931 13.8592 71.133 13.8073 71.3592 13.7282C71.5987 13.649 71.758 13.4903 71.8379 13.253C71.9177 13.0156 71.9578 12.6595 71.9578 12.1848V2.37399C71.9578 1.8861 71.9177 1.52996 71.8379 1.30579C71.758 1.06866 71.5985 0.910722 71.3592 0.831572C71.133 0.739265 70.7931 0.686364 70.3406 0.673177V0.277191C70.833 0.290377 71.3526 0.303603 71.8983 0.316789C72.4437 0.316792 72.9824 0.323896 73.5145 0.337071H78.2061C78.9914 0.323885 79.6907 0.303564 80.3029 0.277191ZM122.24 0.673177C121.987 0.725986 121.735 0.890857 121.482 1.16768C121.229 1.43135 120.949 1.853 120.643 2.4329L117.509 8.58325V12.1848C117.509 12.6594 117.549 13.0156 117.628 13.253C117.708 13.4903 117.861 13.649 118.088 13.7282C118.327 13.8073 118.673 13.8592 119.126 13.8856V14.2816C118.82 14.2552 118.434 14.242 117.969 14.242C117.516 14.2288 117.056 14.2227 116.59 14.2227C116.071 14.2227 115.585 14.2288 115.133 14.242C114.681 14.242 114.315 14.2552 114.035 14.2816V13.8856C114.488 13.8592 114.827 13.8072 115.053 13.7282C115.293 13.6491 115.453 13.4904 115.533 13.253C115.613 13.0156 115.653 12.6595 115.653 12.1848V9.212L111.599 1.80029C111.333 1.31253 111.107 1.00915 110.921 0.890487C110.748 0.758782 110.589 0.692621 110.442 0.692493V0.277191C110.708 0.290366 110.981 0.303613 111.26 0.316789C111.553 0.329976 111.866 0.337071 112.199 0.337071H113.596C114.102 0.323885 114.568 0.303564 114.994 0.277191V0.692493C114.661 0.692493 114.368 0.732198 114.115 0.811289C113.862 0.89041 113.696 1.03589 113.616 1.24687C113.537 1.45779 113.596 1.75427 113.796 2.1364L117.118 8.449L119.665 3.4219C120.037 2.69694 120.217 2.13691 120.204 1.74137C120.204 1.34577 120.051 1.07514 119.745 0.930085C119.439 0.771906 119.006 0.686361 118.447 0.673177V0.277191C118.833 0.290373 119.226 0.303607 119.625 0.316789C120.024 0.329973 120.397 0.337068 120.743 0.337071C121.089 0.337071 121.375 0.329976 121.602 0.316789C121.828 0.30361 122.041 0.29037 122.24 0.277191V0.673177ZM157.908 12.6204C158.107 13.1211 158.333 13.4572 158.586 13.6287C158.839 13.7869 159.072 13.8724 159.285 13.8856V14.2816C159.019 14.2552 158.693 14.242 158.307 14.242C157.921 14.2288 157.535 14.2227 157.149 14.2227C156.63 14.2227 156.144 14.2288 155.692 14.242C155.239 14.242 154.873 14.2552 154.593 14.2816V13.8856C155.272 13.8592 155.705 13.7473 155.892 13.5495C156.078 13.3384 156.038 12.8966 155.772 12.2244L154.547 8.9802H149.719L148.904 11.077C148.692 11.6045 148.565 12.0532 148.525 12.4224C148.485 12.7784 148.518 13.0623 148.625 13.2733C148.745 13.4841 148.938 13.6359 149.204 13.7282C149.483 13.8204 149.829 13.8724 150.242 13.8856V14.2816C149.869 14.2552 149.477 14.242 149.064 14.242C148.665 14.2288 148.292 14.2227 147.946 14.2227C147.614 14.2227 147.327 14.2288 147.087 14.242C146.861 14.242 146.649 14.2552 146.449 14.2816V13.8856C146.715 13.8196 146.988 13.6679 147.267 13.4307C147.546 13.1802 147.8 12.7588 148.026 12.1655L152.717 0.178677H153.037L157.908 12.6204ZM201.586 0.277191C201.533 0.738724 201.493 1.18742 201.466 1.62258C201.453 2.05765 201.445 2.38744 201.445 2.61158C201.445 2.84887 201.453 3.07996 201.466 3.30407C201.479 3.51489 201.493 3.69321 201.506 3.83817H201.047C200.967 3.06027 200.854 2.44661 200.708 1.99828C200.561 1.53675 200.308 1.21321 199.948 1.0286C199.602 0.830954 199.076 0.732092 198.371 0.732092H196.715C196.263 0.732092 195.916 0.771851 195.677 0.850888C195.451 0.9168 195.297 1.06856 195.218 1.30579C195.138 1.52996 195.098 1.8861 195.098 2.37399V7.0418H196.415C196.854 7.0418 197.187 6.95622 197.413 6.78489C197.652 6.60028 197.826 6.36932 197.932 6.0924C198.039 5.81568 198.112 5.53236 198.152 5.24247C198.192 4.9392 198.232 4.66854 198.272 4.43119H198.731C198.677 5.18281 198.651 5.75669 198.651 6.15228C198.664 6.54773 198.671 6.91023 198.671 7.23979C198.671 7.56946 198.677 7.93267 198.691 8.32827C198.704 8.7238 198.737 9.2972 198.79 10.0484H198.331C198.278 9.62672 198.212 9.21811 198.132 8.82277C198.066 8.41408 197.905 8.0843 197.653 7.83377C197.443 7.60295 197.101 7.47239 196.626 7.44358L196.415 7.43779H195.098V12.1848C195.098 12.6595 195.138 13.0156 195.218 13.253C195.297 13.4903 195.45 13.6491 195.677 13.7282C195.916 13.794 196.263 13.8267 196.715 13.8267H198.172C199.01 13.8267 199.642 13.7146 200.068 13.4906C200.507 13.2664 200.82 12.9032 201.007 12.4021C201.206 11.8879 201.352 11.1957 201.445 10.3256H201.905C201.865 10.6816 201.845 11.1568 201.845 11.7502C201.845 12.0007 201.851 12.3632 201.865 12.8377C201.891 13.2992 201.931 13.7805 201.985 14.2816C201.306 14.2552 200.541 14.242 199.689 14.242C198.837 14.2288 198.078 14.2227 197.413 14.2227H196.275C195.823 14.2227 195.33 14.2288 194.797 14.242C194.265 14.242 193.727 14.2491 193.181 14.2623C192.636 14.2623 192.116 14.2684 191.624 14.2816V13.8856C192.076 13.8592 192.416 13.8073 192.642 13.7282C192.882 13.649 193.041 13.4903 193.121 13.253C193.201 13.0156 193.241 12.6595 193.241 12.1848V2.37399C193.241 1.8861 193.201 1.52996 193.121 1.30579C193.041 1.06866 192.881 0.910722 192.642 0.831572C192.416 0.739265 192.076 0.686364 191.624 0.673177V0.277191C192.116 0.290377 192.636 0.303603 193.181 0.316789C193.727 0.316792 194.265 0.323896 194.797 0.337071H199.489C200.274 0.323885 200.974 0.303564 201.586 0.277191ZM253 0.277191C252.947 0.778284 252.907 1.26665 252.88 1.74137C252.867 2.20275 252.861 2.55908 252.861 2.80957C252.861 3.12583 252.867 3.42234 252.88 3.69909C252.893 3.97601 252.907 4.2202 252.92 4.43119H252.461C252.368 3.50812 252.241 2.78266 252.082 2.25519C251.922 1.71468 251.643 1.32582 251.243 1.08848C250.844 0.85112 250.225 0.732092 249.386 0.732092H248.308V11.9868C248.308 12.5143 248.356 12.9101 248.449 13.1738C248.555 13.4375 248.755 13.6156 249.047 13.7079C249.34 13.8002 249.766 13.8592 250.325 13.8856V14.2816C249.979 14.2552 249.54 14.242 249.007 14.242C248.475 14.2288 247.936 14.2227 247.39 14.2227C246.791 14.2227 246.225 14.2288 245.693 14.242C245.174 14.242 244.755 14.2552 244.436 14.2816V13.8856C244.995 13.8592 245.421 13.8002 245.713 13.7079C246.006 13.6156 246.199 13.4375 246.292 13.1738C246.399 12.9101 246.452 12.5142 246.452 11.9868V0.732092H245.374C244.549 0.732092 243.93 0.85112 243.517 1.08848C243.118 1.32583 242.839 1.71469 242.679 2.25519C242.519 2.78266 242.393 3.50812 242.3 4.43119H241.841C241.867 4.2202 241.881 3.97601 241.881 3.69909C241.894 3.42234 241.9 3.12583 241.9 2.80957C241.9 2.55908 241.887 2.20277 241.86 1.74137C241.847 1.26665 241.814 0.778284 241.761 0.277191C242.32 0.290376 242.926 0.303603 243.578 0.316789C244.243 0.32997 244.909 0.337071 245.574 0.337071H249.187C249.852 0.337071 250.518 0.329969 251.183 0.316789C251.848 0.303604 252.454 0.290376 253 0.277191ZM88.9941 0.356388C88.1291 0.356424 87.3773 0.653511 86.7385 1.24687C86.0997 1.84023 85.6005 2.6575 85.2412 3.69909C84.8951 4.74083 84.7216 5.94759 84.7216 7.31899C84.7216 8.71678 84.9147 9.93674 85.3006 10.9785C85.6999 12.007 86.2329 12.8048 86.8983 13.3718C87.577 13.9255 88.3227 14.2024 89.1345 14.2024C89.9994 14.2023 90.7514 13.9052 91.3901 13.3119C92.0288 12.7186 92.521 11.9012 92.8669 10.8597C93.2263 9.80475 93.406 8.59802 93.406 7.23979C93.406 5.82887 93.2067 4.60883 92.8075 3.5803C92.4216 2.55194 91.8956 1.76107 91.2303 1.20728C90.5648 0.640248 89.8193 0.356388 88.9941 0.356388ZM221.058 0.356388C220.193 0.356423 219.441 0.653509 218.803 1.24687C218.164 1.84023 217.665 2.6575 217.305 3.69909C216.959 4.74083 216.786 5.94759 216.786 7.31899C216.786 8.71678 216.979 9.93674 217.365 10.9785C217.764 12.007 218.297 12.8048 218.962 13.3718C219.641 13.9255 220.387 14.2024 221.199 14.2024C222.063 14.2023 222.815 13.9052 223.454 13.3119C224.093 12.7186 224.585 11.9012 224.931 10.8597C225.29 9.80475 225.47 8.59802 225.47 7.23979C225.47 5.82887 225.271 4.60883 224.872 3.5803C224.486 2.55194 223.96 1.76107 223.294 1.20728C222.629 0.640248 221.883 0.356388 221.058 0.356388ZM61.0402 0.633578C60.4281 0.633602 60.0285 0.745534 59.8421 0.969684C59.6559 1.19392 59.5634 1.64894 59.5634 2.33439V12.2244C59.5634 12.9098 59.656 13.3648 59.8421 13.5891C60.0418 13.8133 60.4484 13.9252 61.0606 13.9252C62.5112 13.9252 63.6359 13.6687 64.4344 13.1545C65.2329 12.627 65.7916 11.8618 66.111 10.8597C66.4304 9.8575 66.5906 8.63754 66.5906 7.20019C66.5906 5.72336 66.4109 4.50329 66.0515 3.5407C65.7055 2.56509 65.1261 1.84036 64.3145 1.36567C63.5159 0.877764 62.4243 0.633578 61.0402 0.633578ZM149.872 8.58518H154.397L152.166 2.67919L149.872 8.58518ZM183.629 0.673177C183.017 0.673201 182.618 0.785133 182.431 1.00928C182.245 1.23354 182.153 1.68854 182.153 2.37399V7.23979H183.49C184.435 7.23978 185.154 7.09526 185.646 6.80517C186.152 6.50193 186.491 6.10596 186.664 5.61818C186.85 5.11709 186.944 4.56259 186.944 3.956C186.944 2.91461 186.691 2.11032 186.185 1.54338C185.693 0.963168 184.84 0.673177 183.629 0.673177ZM234.162 0.673177C233.55 0.673201 233.151 0.785133 232.964 1.00928C232.778 1.23354 232.685 1.68854 232.685 2.37399V7.23979H234.023C234.968 7.23978 235.687 7.09526 236.179 6.80517C236.685 6.50193 237.024 6.10596 237.197 5.61818C237.383 5.11709 237.477 4.56259 237.477 3.956C237.476 2.91461 237.224 2.11032 236.718 1.54338C236.226 0.963168 235.373 0.673177 234.162 0.673177Z" fill="#222222"/>
</svg>
