<svg width="212" height="44" viewBox="0 0 212 44" fill="none" xmlns="http://www.w3.org/2000/svg">
<path d="M11.3205 16.601C13.6634 15.1238 13.9781 11.4129 12.0235 8.31241C10.0688 5.21192 6.58502 3.89598 4.24215 5.37316C1.89927 6.85035 1.58454 10.5613 3.53918 13.6618C5.49381 16.7623 8.97763 18.0782 11.3205 16.601Z" fill="white"/>
<path d="M27.1373 7.63279C27.514 3.98696 25.5861 0.800615 22.8311 0.5159C20.0761 0.231185 17.5374 2.95591 17.1607 6.60175C16.7839 10.2476 18.7119 13.4339 21.4668 13.7186C24.2218 14.0034 26.7605 11.2786 27.1373 7.63279Z" fill="white"/>
<path d="M41.279 13.4973C43.1115 10.3231 42.6526 6.62717 40.254 5.24227C37.8555 3.85737 34.4255 5.30789 32.593 8.48209C30.7605 11.6563 31.2193 15.3522 33.6179 16.7371C36.0165 18.122 39.4465 16.6715 41.279 13.4973Z" fill="white"/>
<path d="M22.6901 41.1685C22.6901 41.1685 24.0732 39.1578 25.9617 38.5244C27.8503 37.8909 31.7495 35.1247 32.2492 33.6196C32.7489 32.1145 33.5044 26.0707 29.4832 25.8208C25.462 25.5709 24.4509 26.1985 22.6901 29.3425C22.6901 29.3425 20.174 26.0998 18.6631 25.7685C17.1523 25.4373 13.1253 24.6876 11.8701 28.7148C10.6149 32.7421 13.2531 35.5083 15.2695 36.7693C17.2859 38.0304 21.1851 40.0411 21.1851 41.1743C21.1851 41.1743 18.7096 42.0576 17.1174 42.8073C15.5252 43.557 10.4929 44.818 6.97147 40.4188C3.45002 36.0197 4.32747 25.1932 10.8706 21.0439C17.4138 16.8946 26.322 15.0989 34.2714 21.6715C40.8146 27.0819 40.4136 35.2061 38.6761 38.78C37.2234 41.7671 33.7717 44.1904 29.367 43.5686C25.5782 43.0339 24.8402 41.1685 22.7018 41.1685H22.6901Z" fill="white"/>
<path d="M50.3154 29.1513H57.4397V26.9255H60.2348V29.1513H67.4229V31.377H50.3154V29.1513ZM52.1459 25.6819L56.6843 23.7061C57.1898 23.4969 57.399 23.1831 57.4804 22.9099H52.6049V20.6377H65.1276V22.9099H60.2522C60.3335 23.1831 60.5485 23.4969 61.0483 23.7061L65.5867 25.6819L64.622 27.9541L60.043 25.9783C59.5607 25.7691 59.183 25.496 58.8692 25.1996C58.5554 25.496 58.1777 25.7691 57.6896 25.9783L53.1105 27.9541L52.1459 25.6819ZM53.68 36.0028C53.68 33.6725 55.8242 32.0918 58.8924 32.0918C61.9606 32.0918 64.1223 33.6667 64.1223 36.0028C64.1223 38.339 61.9606 39.9545 58.8924 39.9545C55.8242 39.9545 53.68 38.2925 53.68 36.0028ZM61.3505 36.0028C61.3505 34.9742 60.3858 34.2594 58.8924 34.2594C57.399 34.2594 56.4518 34.9742 56.4518 36.0028C56.4518 37.0314 57.4164 37.7869 58.8924 37.7869C60.3684 37.7869 61.3505 37.0489 61.3505 36.0028Z" fill="white"/>
<path d="M79.1729 24.3799H77.9526C78.3943 25.054 78.6906 25.8502 78.6906 26.7335C78.6906 29.3835 76.7149 31.2547 73.9431 31.2547C71.1712 31.2547 69.1955 29.3835 69.1955 26.7335C69.1955 25.8502 69.4919 25.054 69.9509 24.3799H68.6899V22.1077H72.5775V20.1318H75.2912V22.1077H79.1787V24.3799H79.1729ZM74.4428 32.1148V33.5037H80.6838V32.1148H83.4556V39.0302H71.6652V32.1148H74.437H74.4428ZM73.9198 29.0464C75.1808 29.0464 76.0234 28.1224 76.0234 26.7335C76.0234 25.3446 75.1808 24.3799 73.9198 24.3799C72.6588 24.3799 71.8627 25.3039 71.8627 26.7335C71.8627 28.1631 72.6821 29.0464 73.9198 29.0464ZM74.4428 36.8452H80.6838V35.5841H74.4428V36.8452ZM83.4614 20.3236V24.8216H85.9427V27.1112H83.4614V31.3767H80.6431V20.3236H83.4614Z" fill="white"/>
<path d="M103.887 30.9989V33.2478H99.976V39.2161H97.1403V33.2478H93.4445V39.2161H90.5855V33.2478H86.7793V30.9989H103.887ZM95.2691 20.1143C98.6976 20.1143 101.092 22.154 101.092 25.0539C101.092 27.9537 98.6976 29.9935 95.2691 29.9935C91.8407 29.9935 89.5337 27.9537 89.5337 25.0539C89.5337 22.154 91.9104 20.1143 95.2691 20.1143ZM95.2691 27.7445C97.117 27.7445 98.3141 26.6752 98.3141 25.0539C98.3141 23.4325 97.117 22.34 95.2691 22.34C93.4212 22.34 92.3055 23.4093 92.3055 25.0539C92.3055 26.6985 93.4852 27.7445 95.2691 27.7445Z" fill="white"/>
<path d="M115.154 24.2109C115.073 30.3476 110.575 33.0383 106.287 34.0669L105.7 31.5041C109.378 30.6208 112.423 28.8367 112.51 24.2109H106.229V21.9212H115.16V24.2109H115.154ZM120.744 20.3057V38.5881H117.949V20.3057H120.744Z" fill="white"/>
<path d="M130.118 23.8157H124.004V21.526H132.744V23.8564H136.231V20.3057H139.066V33.6717H136.231V30.4116H132.07V28.1626H136.231V26.0821H132.384C131.268 29.4643 127.654 31.2309 123.999 31.9225L123.534 29.3365C127.253 28.6449 130.088 27.1746 130.112 23.8099L130.118 23.8157ZM129.804 32.8697V36.6762H139.258V38.9019H126.962V32.8697H129.798H129.804Z" fill="white"/>
<path d="M148.573 34.1312V31.2081H143.721V21.416H146.493V24.2345H153.472V21.416H156.243V31.2081H151.391V34.1312H158.556V36.4034H141.449V34.1312H148.573ZM146.487 29.0056H153.466V26.4196H146.487V29.0056Z" fill="white"/>
<path d="M159.666 34.3873H166.791V32.5161C164.333 32.0105 162.711 30.0986 162.694 27.559C162.694 26.4665 163.095 25.4786 163.723 24.6824H161.346V22.4102H166.831V20.2891H169.522V22.4102H175.007V24.6824H172.631C173.258 25.4786 173.659 26.4665 173.659 27.559C173.683 30.0811 172.038 31.9698 169.58 32.4986V34.3873H176.768V36.6363H159.661V34.3873H159.666ZM170.934 27.5532C170.934 25.8505 169.818 24.7173 168.162 24.7173C166.506 24.7173 165.472 25.8505 165.472 27.5532C165.472 29.2559 166.523 30.3485 168.162 30.3485C169.801 30.3485 170.934 29.2559 170.934 27.5532Z" fill="white"/>
<path d="M177.68 29.5294L180.475 25.7869C181.021 25.0488 181.149 24.4851 181.149 23.9389V21.1669H183.88V23.9389C183.88 24.4851 184.008 25.0081 184.595 25.7869L187.39 29.5294L185.287 31.0868L182.532 27.4082L179.778 31.0868L177.674 29.5294H177.68ZM184.38 32.7256V36.6773H194.195V38.903H181.568V32.7256H184.386H184.38ZM187.559 24.4677V20.6032H190.185V33.5043H187.559V26.7167H185.374V24.4677H187.559ZM194.009 20.3242V34.0447H191.359V20.3242H194.009Z" fill="white"/>
<path d="M206.427 34.0037H196.95V21.8755H205.963V24.1652H199.745V26.728H205.48V29.0409H199.745V31.6908H206.427V34.0037ZM212 20.2832V38.6295H209.205V28.9828H206.241V26.7338H209.205V20.2832H212Z" fill="white"/>
<path d="M52.0762 12.595L53.2907 11.3049C53.5638 11.0085 53.6045 10.7238 53.6045 10.4448V10.1252H52.1575V9.53243H55.6615V10.1252H54.2843V10.4448C54.2843 10.7238 54.3192 11.0027 54.5981 11.3049L55.8126 12.595L55.3361 13.0367L54.1216 11.7465C54.0577 11.671 53.9996 11.6013 53.9473 11.5257C53.8892 11.6013 53.8311 11.671 53.7672 11.7465L52.5527 13.0367L52.0762 12.595ZM53.866 13.7631V15.5762H57.7419V16.1515H53.1512V13.7631H53.866ZM56.9806 11.4095H55.6441V10.8284H56.9806V9.08496H57.6954V13.9955H56.9806V11.4095Z" fill="white"/>
<path d="M63.4714 11.9209V9.916H59.6303V9.32324H64.1978V11.9209H65.296V12.502H62.3731V13.6352H64.2849V16.3143H63.5702V14.2222H59.6594V13.6411H61.6642V12.5078H58.7471V11.9267H63.4656L63.4714 11.9209Z" fill="white"/>
<path d="M65.7554 12.4555H68.655V11.456H69.3698V12.4555H72.2753V13.0309H65.7554V12.4555ZM66.4236 11.3456L68.2192 10.4739C68.5911 10.2937 68.6609 10.0613 68.6609 9.916H66.6328V9.32324H71.3688V9.916H69.3407C69.3407 10.0613 69.4221 10.2937 69.7824 10.4739L71.578 11.3456L71.299 11.9035L69.5034 11.0318C69.2826 10.9272 69.1199 10.7935 69.0037 10.654C68.8875 10.7935 68.7248 10.9272 68.4923 11.0318L66.6967 11.9035L66.4178 11.3456H66.4236ZM67.1791 14.9835C67.1791 14.0478 67.9345 13.4725 69.0211 13.4725C70.1078 13.4725 70.869 14.0478 70.869 14.9835C70.869 15.861 70.1078 16.5118 69.0211 16.5118C67.9345 16.5118 67.1791 15.861 67.1791 14.9835ZM70.1775 14.9835C70.1775 14.4721 69.701 14.0711 69.0211 14.0711C68.3413 14.0711 67.8706 14.4721 67.8706 14.9835C67.8706 15.4949 68.3413 15.9133 69.0211 15.9133C69.701 15.9133 70.1775 15.5123 70.1775 14.9835Z" fill="white"/>
<path d="M76.918 10.3924H76.1684C76.4415 10.6655 76.6275 11.0142 76.6275 11.421C76.6275 12.3392 75.9127 12.9958 74.9132 12.9958C73.9137 12.9958 73.2397 12.3392 73.2397 11.421C73.2397 11.02 73.4314 10.6655 73.6929 10.3924H72.9375V9.79961H74.582V9.06738H75.2793V9.79961H76.9238V10.3924H76.918ZM74.9132 12.4321C75.5292 12.4321 75.965 12.0137 75.965 11.421C75.965 10.8282 75.5931 10.4505 75.0643 10.3924H74.7738C74.2566 10.4505 73.9137 10.8515 73.9137 11.421C73.9137 11.9905 74.3263 12.4321 74.9132 12.4321ZM74.6866 13.5944V14.3324H77.6676V13.5944H78.3766V16.2153H73.9835V13.5944H74.6866ZM74.6866 15.64H77.6676V14.8845H74.6866V15.64ZM78.3708 9.09063V10.9154H79.4225V11.5139H78.3708V13.2864H77.656V9.09063H78.3708Z" fill="white"/>
<path d="M86.3029 13.3911V13.9839H84.6177V16.3084H83.8972V13.9839H82.1423V16.3084H81.4101V13.9839H79.7598V13.3911H86.3029ZM83.0023 9.20117C84.1761 9.20117 84.9955 9.95083 84.9955 11.0085C84.9955 12.0662 84.1761 12.8158 83.0023 12.8158C81.8285 12.8158 81.0498 12.0662 81.0498 11.0085C81.0498 9.95083 81.8633 9.20117 83.0023 9.20117ZM83.0023 12.2172C83.7751 12.2172 84.3098 11.7349 84.3098 11.0201C84.3098 10.3053 83.7751 9.79393 83.0023 9.79393C82.2294 9.79393 81.7355 10.2937 81.7355 11.0085C81.7355 11.7233 82.2527 12.2172 83.0023 12.2172Z" fill="white"/>
<path d="M90.6554 10.2762C90.6496 12.4032 88.9993 13.6991 87.3374 14.1582L87.1572 13.4957C88.6274 13.0947 89.9639 12.0661 89.9639 10.2762H87.3606V9.6951H90.6554V10.2762ZM92.6951 9.0791V16.0585H91.9861V9.0791H92.6951Z" fill="white"/>
<path d="M96.5825 10.1251H94.171V9.53238H97.2508V10.1251C97.2508 10.2472 97.245 10.3692 97.2275 10.4854H99.0115V9.0791H99.7321V14.1466H99.0115V12.7693H97.1404V12.1882H99.0115V11.0724H97.0997C96.6755 12.2986 95.4842 13.0657 94.1361 13.333L94.0024 12.6821C95.4552 12.3974 96.5651 11.5547 96.5883 10.131L96.5825 10.1251ZM95.9433 13.9316V15.5762H99.7437V16.1515H95.2169V13.9374H95.9375L95.9433 13.9316Z" fill="white"/>
<path d="M107.309 12.7402V13.3155H104.45V14.687H103.73V13.3155H100.766V12.7402H107.309ZM102.457 14.1233V15.5761H106.368V16.1573H101.754V14.1233H102.457ZM102.486 9.31152V10.1309H105.583V9.31152H106.298V12.0777H101.789V9.31152H102.486ZM102.486 11.5024H105.583V10.6888H102.486V11.5024Z" fill="white"/>
<path d="M107.925 11.0783C107.925 10.0613 108.663 9.34652 109.721 9.34652C110.778 9.34652 111.528 10.0613 111.528 11.0783C111.528 12.0953 110.778 12.8043 109.721 12.8043C108.663 12.8043 107.925 12.0895 107.925 11.0783ZM110.825 11.0783C110.825 10.4042 110.372 9.93927 109.727 9.93927C109.082 9.93927 108.628 10.41 108.628 11.0783C108.628 11.7466 109.082 12.2173 109.727 12.2173C110.372 12.2173 110.825 11.7466 110.825 11.0783ZM109.576 14.8847C109.576 13.9723 110.29 13.3331 111.325 13.3331C112.359 13.3331 113.091 13.9723 113.091 14.8847C113.091 15.7971 112.371 16.4305 111.325 16.4305C110.279 16.4305 109.576 15.7913 109.576 14.8847ZM112.4 14.8847C112.4 14.3152 111.958 13.9317 111.325 13.9317C110.691 13.9317 110.255 14.3152 110.255 14.8847C110.255 15.4542 110.697 15.8261 111.325 15.8261C111.952 15.8261 112.4 15.4426 112.4 14.8847ZM112.679 9.09082H113.393V10.1427H114.428V10.7354H113.393V11.6885H114.428V12.2812H113.393V13.3505H112.679V9.09663V9.09082Z" fill="white"/>
<path d="M114.794 12.6357L115.933 11.2584C116.177 10.9563 116.235 10.6657 116.235 10.4216V9.3872H116.915V10.4216C116.915 10.6773 116.961 10.9388 117.229 11.2584L118.368 12.6357L117.874 13.0483L116.735 11.671C116.677 11.5955 116.619 11.5316 116.578 11.4677C116.531 11.5316 116.479 11.6071 116.421 11.671L115.282 13.0483L114.788 12.6357H114.794ZM116.938 13.7341V15.5763H120.93V16.1516H116.223V13.7399H116.938V13.7341ZM118.78 10.7412V9.22448H119.454V14.1757H118.78V11.3282H117.699V10.747H118.78V10.7412ZM120.872 9.09082V14.3733H120.198V9.09082H120.872Z" fill="white"/>
<path d="M125.76 14.1058H122.215V9.63108H125.591V10.2238H122.924V11.5139H125.364V12.1299H122.924V13.5189H125.765V14.1116L125.76 14.1058ZM127.735 9.07319V16.0758H127.038V12.0835H125.847V11.5081H127.038V9.06738H127.735V9.07319Z" fill="white"/>
</svg>
