<svg width="212" height="44" viewBox="0 0 212 44" fill="none" xmlns="http://www.w3.org/2000/svg">
<path d="M11.3205 16.601C13.6634 15.1238 13.9781 11.4129 12.0235 8.31241C10.0688 5.21192 6.58502 3.89598 4.24215 5.37316C1.89927 6.85035 1.58454 10.5613 3.53918 13.6618C5.49381 16.7623 8.97763 18.0782 11.3205 16.601Z" fill="white"/>
<path d="M27.1373 7.63279C27.514 3.98696 25.5861 0.800615 22.8311 0.5159C20.0761 0.231185 17.5374 2.95591 17.1607 6.60175C16.7839 10.2476 18.7119 13.4339 21.4668 13.7186C24.2218 14.0034 26.7605 11.2786 27.1373 7.63279Z" fill="white"/>
<path d="M41.2785 13.4973C43.111 10.3231 42.6521 6.62717 40.2535 5.24227C37.855 3.85737 34.425 5.30789 32.5925 8.48209C30.76 11.6563 31.2188 15.3522 33.6174 16.7371C36.016 18.122 39.446 16.6715 41.2785 13.4973Z" fill="white"/>
<path d="M22.6897 41.1685C22.6897 41.1685 24.0727 39.1578 25.9612 38.5244C27.8498 37.8909 31.749 35.1247 32.2487 33.6196C32.7484 32.1145 33.5039 26.0707 29.4827 25.8208C25.4615 25.5709 24.4504 26.1985 22.6897 29.3425C22.6897 29.3425 20.1735 26.0998 18.6627 25.7685C17.1518 25.4373 13.1248 24.6876 11.8696 28.7148C10.6145 32.7421 13.2526 35.5083 15.269 36.7693C17.2855 38.0304 21.1846 40.0411 21.1846 41.1743C21.1846 41.1743 18.7091 42.0576 17.1169 42.8073C15.5247 43.557 10.4924 44.818 6.97098 40.4188C3.44953 36.0197 4.32699 25.1932 10.8701 21.0439C17.4133 16.8946 26.3215 15.0989 34.2709 21.6715C40.8141 27.0819 40.4131 35.2061 38.6756 38.78C37.2229 41.7671 33.7712 44.1904 29.3665 43.5686C25.5777 43.0339 24.8397 41.1685 22.7013 41.1685H22.6897Z" fill="white"/>
<path d="M50.3154 29.1503H57.4397V26.9246H60.2348V29.1503H67.4229V31.376H50.3154V29.1503ZM52.1459 25.6809L56.6843 23.7051C57.1898 23.4959 57.399 23.1821 57.4804 22.9089H52.6049V20.6367H65.1276V22.9089H60.2522C60.3335 23.1821 60.5485 23.4959 61.0483 23.7051L65.5867 25.6809L64.622 27.9532L60.043 25.9773C59.5607 25.7681 59.183 25.495 58.8692 25.1986C58.5554 25.495 58.1777 25.7681 57.6896 25.9773L53.1105 27.9532L52.1459 25.6809ZM53.68 36.0019C53.68 33.6715 55.8242 32.0908 58.8924 32.0908C61.9606 32.0908 64.1223 33.6657 64.1223 36.0019C64.1223 38.338 61.9606 39.9536 58.8924 39.9536C55.8242 39.9536 53.68 38.2915 53.68 36.0019ZM61.3505 36.0019C61.3505 34.9732 60.3858 34.2585 58.8924 34.2585C57.399 34.2585 56.4518 34.9732 56.4518 36.0019C56.4518 37.0305 57.4164 37.7859 58.8924 37.7859C60.3684 37.7859 61.3505 37.0479 61.3505 36.0019Z" fill="white"/>
<path d="M79.1724 24.3789H77.9521C78.3938 25.053 78.6901 25.8492 78.6901 26.7325C78.6901 29.3825 76.7144 31.2537 73.9426 31.2537C71.1707 31.2537 69.195 29.3825 69.195 26.7325C69.195 25.8492 69.4914 25.053 69.9504 24.3789H68.6895V22.1067H72.577V20.1309H75.2907V22.1067H79.1783V24.3789H79.1724ZM74.4423 32.1138V33.5027H80.6833V32.1138H83.4551V39.0293H71.6647V32.1138H74.4365H74.4423ZM73.9193 29.0454C75.1803 29.0454 76.0229 28.1214 76.0229 26.7325C76.0229 25.3436 75.1803 24.3789 73.9193 24.3789C72.6584 24.3789 71.8622 25.3029 71.8622 26.7325C71.8622 28.1621 72.6816 29.0454 73.9193 29.0454ZM74.4423 36.8442H80.6833V35.5832H74.4423V36.8442ZM83.4609 20.3226V24.8206H85.9422V27.1103H83.4609V31.3758H80.6426V20.3226H83.4609Z" fill="white"/>
<path d="M103.887 30.9979V33.2469H99.976V39.2151H97.1403V33.2469H93.4445V39.2151H90.5855V33.2469H86.7793V30.9979H103.887ZM95.2691 20.1133C98.6976 20.1133 101.092 22.1531 101.092 25.0529C101.092 27.9528 98.6976 29.9925 95.2691 29.9925C91.8407 29.9925 89.5337 27.9528 89.5337 25.0529C89.5337 22.1531 91.9104 20.1133 95.2691 20.1133ZM95.2691 27.7435C97.117 27.7435 98.3141 26.6743 98.3141 25.0529C98.3141 23.4315 97.117 22.339 95.2691 22.339C93.4212 22.339 92.3055 23.4083 92.3055 25.0529C92.3055 26.6975 93.4852 27.7435 95.2691 27.7435Z" fill="white"/>
<path d="M115.155 24.2109C115.073 30.3476 110.576 33.0383 106.287 34.0669L105.7 31.5041C109.379 30.6208 112.423 28.8367 112.511 24.2109H106.229V21.9212H115.16V24.2109H115.155ZM120.745 20.3057V38.5881H117.95V20.3057H120.745Z" fill="white"/>
<path d="M130.117 23.8157H124.004V21.526H132.744V23.8564H136.23V20.3057H139.066V33.6717H136.23V30.4116H132.07V28.1626H136.23V26.0821H132.383C131.268 29.4643 127.653 31.2309 123.998 31.9225L123.533 29.3365C127.252 28.6449 130.088 27.1746 130.111 23.8099L130.117 23.8157ZM129.803 32.8697V36.6762H139.258V38.9019H126.962V32.8697H129.797H129.803Z" fill="white"/>
<path d="M148.573 34.1312V31.2081H143.721V21.416H146.493V24.2345H153.472V21.416H156.244V31.2081H151.392V34.1312H158.557V36.4034H141.449V34.1312H148.573ZM146.487 29.0056H153.466V26.4196H146.487V29.0056Z" fill="white"/>
<path d="M159.666 34.3864H166.79V32.5151C164.332 32.0095 162.711 30.0976 162.693 27.558C162.693 26.4655 163.094 25.4776 163.722 24.6814H161.345V22.4092H166.831V20.2881H169.521V22.4092H175.007V24.6814H172.63C173.258 25.4776 173.659 26.4655 173.659 27.558C173.682 30.0802 172.038 31.9688 169.579 32.4977V34.3864H176.768V36.6353H159.66V34.3864H159.666ZM170.933 27.5522C170.933 25.8495 169.818 24.7163 168.162 24.7163C166.505 24.7163 165.471 25.8495 165.471 27.5522C165.471 29.255 166.523 30.3475 168.162 30.3475C169.8 30.3475 170.933 29.255 170.933 27.5522Z" fill="white"/>
<path d="M177.681 29.5284L180.476 25.7859C181.022 25.0478 181.15 24.4841 181.15 23.9379V21.1659H183.881V23.9379C183.881 24.4841 184.009 25.0072 184.596 25.7859L187.391 29.5284L185.287 31.0858L182.533 27.4072L179.778 31.0858L177.675 29.5284H177.681ZM184.381 32.7246V36.6763H194.195V38.902H181.568V32.7246H184.386H184.381ZM187.559 24.4667V20.6022H190.186V33.5033H187.559V26.7157H185.374V24.4667H187.559ZM194.009 20.3232V34.0438H191.36V20.3232H194.009Z" fill="white"/>
<path d="M206.427 34.0028H196.949V21.8745H205.962V24.1642H199.744V26.727H205.48V29.0399H199.744V31.6899H206.427V34.0028ZM212 20.2822V38.6286H209.205V28.9818H206.241V26.7328H209.205V20.2822H212Z" fill="white"/>
<path d="M52.0762 12.594L53.2907 11.3039C53.5638 11.0075 53.6045 10.7228 53.6045 10.4438V10.1242H52.1575V9.53146H55.6615V10.1242H54.2843V10.4438C54.2843 10.7228 54.3192 11.0017 54.5981 11.3039L55.8126 12.594L55.3361 13.0357L54.1216 11.7456C54.0577 11.67 53.9996 11.6003 53.9473 11.5247C53.8892 11.6003 53.8311 11.67 53.7672 11.7456L52.5527 13.0357L52.0762 12.594ZM53.866 13.7621V15.5752H57.7419V16.1505H53.1512V13.7621H53.866ZM56.9806 11.4085H55.6441V10.8274H56.9806V9.08398H57.6954V13.9945H56.9806V11.4085Z" fill="white"/>
<path d="M63.4714 11.9199V9.91502H59.6303V9.32227H64.1978V11.9199H65.296V12.5011H62.3731V13.6343H64.2849V16.3133H63.5702V14.2212H59.6594V13.6401H61.6642V12.5069H58.7471V11.9257H63.4656L63.4714 11.9199Z" fill="white"/>
<path d="M65.7549 12.4546H68.6546V11.455H69.3693V12.4546H72.2748V13.0299H65.7549V12.4546ZM66.4231 11.3446L68.2187 10.4729C68.5906 10.2928 68.6604 10.0603 68.6604 9.91502H66.6323V9.32227H71.3683V9.91502H69.3403C69.3403 10.0603 69.4216 10.2928 69.7819 10.4729L71.5775 11.3446L71.2986 11.9025L69.503 11.0308C69.2821 10.9262 69.1194 10.7925 69.0032 10.6531C68.887 10.7925 68.7243 10.9262 68.4919 11.0308L66.6963 11.9025L66.4173 11.3446H66.4231ZM67.1786 14.9825C67.1786 14.0469 67.934 13.4715 69.0206 13.4715C70.1073 13.4715 70.8685 14.0469 70.8685 14.9825C70.8685 15.86 70.1073 16.5109 69.0206 16.5109C67.934 16.5109 67.1786 15.86 67.1786 14.9825ZM70.177 14.9825C70.177 14.4711 69.7005 14.0701 69.0206 14.0701C68.3408 14.0701 67.8701 14.4711 67.8701 14.9825C67.8701 15.4939 68.3408 15.9123 69.0206 15.9123C69.7005 15.9123 70.177 15.5113 70.177 14.9825Z" fill="white"/>
<path d="M76.918 10.3914H76.1684C76.4415 10.6645 76.6275 11.0132 76.6275 11.42C76.6275 12.3382 75.9127 12.9949 74.9132 12.9949C73.9137 12.9949 73.2397 12.3382 73.2397 11.42C73.2397 11.019 73.4314 10.6645 73.6929 10.3914H72.9375V9.79863H74.582V9.06641H75.2793V9.79863H76.9238V10.3914H76.918ZM74.9132 12.4312C75.5292 12.4312 75.965 12.0127 75.965 11.42C75.965 10.8272 75.5931 10.4495 75.0643 10.3914H74.7738C74.2566 10.4495 73.9137 10.8505 73.9137 11.42C73.9137 11.9895 74.3263 12.4312 74.9132 12.4312ZM74.6866 13.5934V14.3315H77.6676V13.5934H78.3766V16.2143H73.9835V13.5934H74.6866ZM74.6866 15.639H77.6676V14.8835H74.6866V15.639ZM78.3708 9.08965V10.9144H79.4225V11.513H78.3708V13.2854H77.656V9.08965H78.3708Z" fill="white"/>
<path d="M86.3029 13.3902V13.9829H84.6177V16.3074H83.8972V13.9829H82.1423V16.3074H81.4101V13.9829H79.7598V13.3902H86.3029ZM83.0023 9.2002C84.1761 9.2002 84.9955 9.94986 84.9955 11.0075C84.9955 12.0652 84.1761 12.8148 83.0023 12.8148C81.8285 12.8148 81.0498 12.0652 81.0498 11.0075C81.0498 9.94986 81.8633 9.2002 83.0023 9.2002ZM83.0023 12.2163C83.7751 12.2163 84.3098 11.7339 84.3098 11.0191C84.3098 10.3043 83.7751 9.79295 83.0023 9.79295C82.2294 9.79295 81.7355 10.2927 81.7355 11.0075C81.7355 11.7223 82.2527 12.2163 83.0023 12.2163Z" fill="white"/>
<path d="M90.6554 10.2753C90.6496 12.4022 88.9993 13.6981 87.3374 14.1572L87.1572 13.4947C88.6274 13.0937 89.9639 12.0651 89.9639 10.2753H87.3606V9.69412H90.6554V10.2753ZM92.6951 9.07812V16.0575H91.9861V9.07812H92.6951Z" fill="white"/>
<path d="M96.582 10.1242H94.1705V9.53141H97.2503V10.1242C97.2503 10.2462 97.2445 10.3682 97.227 10.4845H99.011V9.07812H99.7316V14.1456H99.011V12.7683H97.1399V12.1872H99.011V11.0714H97.0992C96.675 12.2976 95.4837 13.0647 94.1356 13.332L94.002 12.6811C95.4547 12.3964 96.5646 11.5537 96.5878 10.13L96.582 10.1242ZM95.9428 13.9306V15.5752H99.7432V16.1505H95.2164V13.9364H95.937L95.9428 13.9306Z" fill="white"/>
<path d="M107.31 12.7382V13.3136H104.451V14.685H103.73V13.3136H100.767V12.7382H107.31ZM102.458 14.1213V15.5742H106.368V16.1553H101.754V14.1213H102.458ZM102.487 9.30957V10.129H105.584V9.30957H106.299V12.0758H101.789V9.30957H102.487ZM102.487 11.5004H105.584V10.6869H102.487V11.5004Z" fill="white"/>
<path d="M107.926 11.0773C107.926 10.0603 108.664 9.34554 109.721 9.34554C110.779 9.34554 111.529 10.0603 111.529 11.0773C111.529 12.0943 110.779 12.8033 109.721 12.8033C108.664 12.8033 107.926 12.0885 107.926 11.0773ZM110.825 11.0773C110.825 10.4032 110.372 9.9383 109.727 9.9383C109.082 9.9383 108.629 10.409 108.629 11.0773C108.629 11.7456 109.082 12.2163 109.727 12.2163C110.372 12.2163 110.825 11.7456 110.825 11.0773ZM109.576 14.8837C109.576 13.9714 110.291 13.3321 111.325 13.3321C112.36 13.3321 113.092 13.9714 113.092 14.8837C113.092 15.7961 112.371 16.4295 111.325 16.4295C110.279 16.4295 109.576 15.7903 109.576 14.8837ZM112.4 14.8837C112.4 14.3142 111.959 13.9307 111.325 13.9307C110.692 13.9307 110.256 14.3142 110.256 14.8837C110.256 15.4532 110.698 15.8252 111.325 15.8252C111.953 15.8252 112.4 15.4416 112.4 14.8837ZM112.679 9.08984H113.394V10.1417H114.428V10.7344H113.394V11.6875H114.428V12.2803H113.394V13.3495H112.679V9.09566V9.08984Z" fill="white"/>
<path d="M114.794 12.6347L115.933 11.2575C116.177 10.9553 116.235 10.6647 116.235 10.4206V9.38622H116.915V10.4206C116.915 10.6763 116.961 10.9378 117.229 11.2575L118.368 12.6347L117.874 13.0474L116.735 11.6701C116.677 11.5945 116.619 11.5306 116.578 11.4667C116.531 11.5306 116.479 11.6061 116.421 11.6701L115.282 13.0474L114.788 12.6347H114.794ZM116.938 13.7331V15.5753H120.93V16.1506H116.223V13.7389H116.938V13.7331ZM118.78 10.7403V9.2235H119.454V14.1747H118.78V11.3272H117.699V10.7461H118.78V10.7403ZM120.872 9.08984V14.3723H120.198V9.08984H120.872Z" fill="white"/>
<path d="M125.76 14.1048H122.215V9.63011H125.591V10.2229H122.924V11.513H125.364V12.129H122.924V13.5179H125.765V14.1106L125.76 14.1048ZM127.735 9.07222V16.0749H127.038V12.0825H125.847V11.5072H127.038V9.06641H127.735V9.07222Z" fill="white"/>
</svg>
