<svg width="132" height="34" viewBox="0 0 132 34" fill="none" xmlns="http://www.w3.org/2000/svg">
<g clip-path="url(#clip0_44_207)">
<path d="M65.7768 17.7285V21.3714H61.0994C63.5883 23.6008 65.5208 26.0124 63.3741 29.3225C59.4057 35.4449 43.783 35.3939 39.0637 30.1167C37.3133 28.1568 36.9761 25.9274 38.4901 23.7198L40.91 21.3714H35.7402V17.7285H65.7744H65.7768ZM43.9528 28.0864C46.363 30.6558 55.3018 30.6437 57.7759 28.1714C58.9699 26.9789 58.9675 25.4757 57.7858 24.2759C55.4397 21.8935 49.3418 21.9979 46.3408 22.9621C44.0292 23.7028 41.8381 25.8351 43.9528 28.0888V28.0864Z" fill="#2E008B"/>
<path d="M126.584 8.49991V2.67134H132V18.0928L131.631 18.4571H126.584V12.1428H122.03C119.539 18.6586 110.469 20.1473 105.085 16.2301C100.77 13.0899 100.868 7.82234 105.048 4.62148C110.213 0.665339 119.3 2.14677 121.902 8.38334L126.582 8.50234L126.584 8.49991ZM111.008 6.12962C105.437 7.05491 106.498 15.2635 112.394 14.7923C118.775 14.2823 117.759 5.01005 111.008 6.12962Z" fill="#2E008B"/>
<path d="M53.7147 0V2.91429H65.2852V6.55714H61.5925C63.2173 8.91529 63.6924 10.7853 61.718 13.1167C57.6363 17.9374 45.4479 17.8184 40.7951 13.838C39.1776 12.4537 38.3086 10.3749 39.1358 8.32514C39.4238 7.61357 40.0516 7.26386 40.1722 6.55714H36.4795V2.91429H48.2962V0H53.7122H53.7147ZM48.983 6.62514C46.856 6.87771 43.0648 8.26686 44.4188 10.9941C46.0929 14.3674 57.496 14.0954 57.6708 10.0737C57.821 6.65186 51.3612 6.34343 48.983 6.62514Z" fill="#2E008B"/>
<path d="M111.567 20.1572V22.5858H126.584V20.1572H132V31.8144H107.013C106.912 31.8144 106.151 30.8478 106.151 30.7215V20.1572H111.567ZM126.584 28.1715L126.545 26.6294L126.215 26.2287H111.567V28.1715H126.584Z" fill="#2E008B"/>
<path d="M21.9565 6.55691H14.448C13.9285 6.99162 14.3101 8.30548 14.4357 8.99762C15.1545 12.9926 17.4933 16.1813 21.4642 17.4879C21.5651 17.8546 21.3681 17.8886 21.2229 18.0951C20.9546 18.4763 19.2214 20.3852 18.8866 20.3925C17.1117 20.4265 11.6735 15.6883 11.3683 13.5998C9.73608 15.7903 7.71247 17.7769 5.2925 19.1369C4.63028 19.5085 2.79622 20.6038 2.13646 20.1763C1.9469 20.0525 0.110385 17.9882 0.0488399 17.8449C-0.123487 17.4418 0.213781 17.5171 0.36149 17.4296C3.96312 15.3338 6.4274 14.2288 7.74939 9.90105C8.02265 9.00491 8.55687 7.30005 8.04973 6.55448H0.538741V2.91162H21.5872C22.3529 3.82476 21.794 5.40334 21.9565 6.55448V6.55691Z" fill="#2E008B"/>
<path d="M86.333 3.15723C86.4758 3.18637 86.946 3.52151 87.0592 3.65508C88.2507 5.08066 86.7195 10.4089 86.1385 12.1939C84.0484 18.6369 79.8929 24.7521 74.3809 28.7859L70.1145 26.7289L69.9619 26.2311C75.3902 22.6149 79.9741 16.1331 81.5127 9.81637C81.6408 9.2918 82.3621 6.55723 81.6555 6.55723H70.4543V3.15723H86.333Z" fill="#2E008B"/>
<path d="M96.7958 2.42871H91.626V32.0573H96.7958V2.42871Z" fill="#2E008B"/>
<path d="M9.40134 28.6572H29.8344V32.3001H4.84699C4.78544 32.3001 3.98535 31.5108 3.98535 31.4501V22.1001H9.03207L9.40134 22.4644V28.6572Z" fill="#2E008B"/>
<path d="M29.8349 2.42871H24.4189V23.0716H29.8349V2.42871Z" fill="#2E008B"/>
</g>
<defs>
<clipPath id="clip0_44_207">
<rect width="132" height="34" fill="white"/>
</clipPath>
</defs>
</svg>
