<svg width="132" height="34" viewBox="0 0 132 34" fill="none" xmlns="http://www.w3.org/2000/svg">
<g clip-path="url(#clip0_15_254)">
<path d="M65.7773 17.7285V21.3714H61.0999C63.5888 23.6008 65.5213 26.0124 63.3746 29.3225C59.4061 35.4449 43.7835 35.3939 39.0642 30.1167C37.3138 28.1568 36.9766 25.9274 38.4906 23.7198L40.9105 21.3714H35.7407V17.7285H65.7749H65.7773ZM43.9533 28.0864C46.3635 30.6558 55.3023 30.6437 57.7764 28.1714C58.9704 26.9789 58.9679 25.4757 57.7863 24.2759C55.4402 21.8935 49.3422 21.9979 46.3413 22.9621C44.0297 23.7028 41.8386 25.8351 43.9533 28.0888V28.0864Z" fill="#2E008B"/>
<path d="M126.584 8.49991V2.67134H132V18.0928L131.631 18.4571H126.584V12.1428H122.03C119.538 18.6586 110.469 20.1473 105.085 16.2301C100.769 13.0899 100.868 7.82234 105.048 4.62148C110.213 0.665339 119.3 2.14677 121.902 8.38334L126.582 8.50234L126.584 8.49991ZM111.008 6.12962C105.437 7.05491 106.498 15.2635 112.394 14.7923C118.775 14.2823 117.758 5.01005 111.008 6.12962Z" fill="#2E008B"/>
<path d="M53.7144 0V2.91429H65.2849V6.55714H61.5922C63.217 8.91529 63.6921 10.7853 61.7178 13.1167C57.6361 17.9374 45.4476 17.8184 40.7948 13.838C39.1774 12.4537 38.3084 10.3749 39.1355 8.32514C39.4236 7.61357 40.0513 7.26386 40.172 6.55714H36.4792V2.91429H48.296V0H53.7119H53.7144ZM48.9828 6.62514C46.8558 6.87771 43.0646 8.26686 44.4186 10.9941C46.0926 14.3674 57.4958 14.0954 57.6705 10.0737C57.8207 6.65186 51.3609 6.34343 48.9828 6.62514Z" fill="#2E008B"/>
<path d="M111.567 20.1572V22.5858H126.584V20.1572H132V31.8144H107.013C106.912 31.8144 106.151 30.8478 106.151 30.7215V20.1572H111.567ZM126.584 28.1715L126.545 26.6294L126.215 26.2287H111.567V28.1715H126.584Z" fill="#2E008B"/>
<path d="M21.957 6.55691H14.4485C13.929 6.99162 14.3106 8.30548 14.4362 8.99762C15.155 12.9926 17.4937 16.1813 21.4646 17.4879C21.5656 17.8546 21.3686 17.8886 21.2234 18.0951C20.955 18.4763 19.2219 20.3852 18.8871 20.3925C17.1122 20.4265 11.674 15.6883 11.3687 13.5998C9.73656 15.7903 7.71295 17.7769 5.29299 19.1369C4.63076 19.5085 2.79671 20.6038 2.13695 20.1763C1.94739 20.0525 0.110874 17.9882 0.0493282 17.8449C-0.122999 17.4418 0.21427 17.5171 0.361979 17.4296C3.96361 15.3338 6.42789 14.2288 7.74988 9.90105C8.02314 9.00491 8.55736 7.30005 8.05022 6.55448H0.539229V2.91162H21.5877C22.3534 3.82476 21.7945 5.40334 21.957 6.55448V6.55691Z" fill="#2E008B"/>
<path d="M86.3335 3.15723C86.4762 3.18637 86.9465 3.52151 87.0597 3.65508C88.2512 5.08066 86.72 10.4089 86.139 12.1939C84.0489 18.6369 79.8934 24.7521 74.3814 28.7859L70.115 26.7289L69.9624 26.2311C75.3907 22.6149 79.9746 16.1331 81.5132 9.81637C81.6412 9.2918 82.3626 6.55723 81.656 6.55723H70.4548V3.15723H86.3335Z" fill="#2E008B"/>
<path d="M96.796 2.42871H91.6262V32.0573H96.796V2.42871Z" fill="#2E008B"/>
<path d="M9.40159 28.6572H29.8346V32.3001H4.84723C4.78569 32.3001 3.9856 31.5108 3.9856 31.4501V22.1001H9.03231L9.40159 22.4644V28.6572Z" fill="#2E008B"/>
<path d="M29.8347 2.42871H24.4187V23.0716H29.8347V2.42871Z" fill="#2E008B"/>
</g>
<defs>
<clipPath id="clip0_15_254">
<rect width="132" height="34" fill="white"/>
</clipPath>
</defs>
</svg>
