<svg width="61" height="61" viewBox="0 0 61 61" fill="none" xmlns="http://www.w3.org/2000/svg">
<path d="M14.407 37.8593V30.3114L12.4508 26.0077C11.7416 24.2878 9.30447 24.2878 8.58718 26.0077L1.16157 42.3587C0.590994 43.7362 1.60172 45.2442 3.09337 45.2442H17.9527C18.2054 45.2442 18.4336 45.1871 18.6456 45.1137C16.1187 43.6792 14.407 40.973 14.407 37.8593Z" fill="#35763C"/>
<path d="M60.1346 41.0217L53.1329 17.889C52.2281 15.3703 49.1307 15.3703 48.2259 17.889L43.9711 30.4661C45.4383 32.1452 46.3349 34.346 46.3349 36.7505C46.3349 40.231 44.4764 43.2632 41.7051 44.9424C42.0474 45.138 42.4387 45.2521 42.8625 45.2521H57.6893C59.5803 45.2521 60.8682 43.0432 60.1428 41.0298L60.1346 41.0217Z" fill="#648943"/>
<path d="M31.0843 29.039V27.4333C31.0843 22.8279 27.3511 19.0947 22.7458 19.0947C18.1404 19.0947 14.4072 22.8279 14.4072 27.4333V30.3106L19.8847 42.3578C20.3575 43.499 19.7299 44.7298 18.6539 45.1129C19.8684 45.7976 21.2623 46.197 22.7539 46.197C25.4764 46.197 27.8809 44.8928 29.4052 42.8795C28.0195 41.2167 27.1881 39.0811 27.1881 36.7499C27.1881 33.5873 28.7286 30.7833 31.1006 29.039H31.0843Z" fill="#A4BC49"/>
<path d="M19.8847 42.3666L14.4072 30.3193V37.8672C14.4072 40.9809 16.1189 43.6952 18.6458 45.1216C19.7217 44.7386 20.3493 43.5159 19.8766 42.3666H19.8847Z" fill="#25602E"/>
<path d="M40.4006 41.0215L43.9707 30.4659C42.2182 28.4526 39.6344 27.1729 36.757 27.1729C34.6296 27.1729 32.6734 27.8738 31.0921 29.0394V37.8589C31.0921 39.7499 30.4563 41.4779 29.4048 42.8799C31.1654 44.9911 33.8064 46.3278 36.7652 46.3278C38.5747 46.3278 40.2701 45.8143 41.7129 44.9421C40.5065 44.2738 39.8463 42.5865 40.4087 41.0215H40.4006Z" fill="#68AC45"/>
<path d="M46.3346 36.7503C46.3346 34.3376 45.4379 32.1449 43.9707 30.4658L40.4006 41.0214C39.8382 42.5864 40.4902 44.2656 41.7048 44.9421C44.4761 43.263 46.3346 40.2308 46.3346 36.7503Z" fill="#33753C"/>
<path d="M31.0839 29.0391C28.7201 30.7834 27.1714 33.5792 27.1714 36.75C27.1714 39.0812 28.0028 41.2167 29.3885 42.8796C30.4481 41.4857 31.0757 39.7495 31.0757 37.8585V29.0391H31.0839Z" fill="#448C38"/>
</svg>
