<svg width="48" height="48" viewBox="0 0 48 48" fill="none" xmlns="http://www.w3.org/2000/svg">
<path d="M11.3917 31.5773V25.8532L9.87541 22.5893C9.32576 21.285 7.43673 21.285 6.88077 22.5893L1.12523 34.9895C0.682982 36.0342 1.46639 37.1778 2.62255 37.1778H14.1399C14.3358 37.1778 14.5127 37.1345 14.677 37.0789C12.7184 35.9909 11.3917 33.9386 11.3917 31.5773Z" fill="#35763C"/>
<path d="M46.8346 33.9758L41.4076 16.4326C40.7064 14.5225 38.3056 14.5225 37.6043 16.4326L34.3064 25.9707C35.4436 27.2441 36.1386 28.9131 36.1386 30.7367C36.1386 33.3762 34.6981 35.6757 32.55 36.9491C32.8154 37.0975 33.1187 37.184 33.4472 37.184H44.9393C46.405 37.184 47.4032 35.5088 46.841 33.982L46.8346 33.9758Z" fill="#648943"/>
<path d="M24.3179 24.8889V23.6711C24.3179 20.1786 21.4244 17.3474 17.8548 17.3474C14.2852 17.3474 11.3917 20.1786 11.3917 23.6711V25.8532L15.6372 34.9895C16.0037 35.855 15.5172 36.7884 14.6832 37.0789C15.6246 37.5982 16.7049 37.9011 17.8611 37.9011C19.9713 37.9011 21.835 36.912 23.0165 35.3852C21.9424 34.1241 21.298 32.5046 21.298 30.7366C21.298 28.3382 22.4921 26.2118 24.3306 24.8889H24.3179Z" fill="#A4BC49"/>
<path d="M15.6372 34.9955L11.3917 25.8591V31.5832C11.3917 33.9446 12.7184 36.0031 14.6769 37.0848C15.5109 36.7943 15.9974 35.8671 15.6309 34.9955H15.6372Z" fill="#25602E"/>
<path d="M31.5392 33.9758L34.3064 25.9707C32.9481 24.4439 30.9453 23.4734 28.7152 23.4734C27.0662 23.4734 25.5499 24.005 24.3243 24.889V31.5774C24.3243 33.0115 23.8315 34.322 23.0165 35.3852C24.3811 36.9863 26.4281 38 28.7215 38C30.124 38 31.4381 37.6106 32.5564 36.9492C31.6214 36.4423 31.1096 35.1627 31.5455 33.9758H31.5392Z" fill="#68AC45"/>
<path d="M36.1386 30.7367C36.1386 28.9069 35.4436 27.2441 34.3064 25.9707L31.5392 33.9758C31.1033 35.1627 31.6087 36.4361 32.5501 36.9491C34.6981 35.6757 36.1386 33.3762 36.1386 30.7367Z" fill="#33753C"/>
<path d="M24.318 24.8889C22.4858 26.2118 21.2854 28.332 21.2854 30.7367C21.2854 32.5046 21.9298 34.1242 23.0038 35.3852C23.8252 34.3281 24.3116 33.0115 24.3116 31.5774V24.8889H24.318Z" fill="#448C38"/>
</svg>
