<svg width="193" height="48" viewBox="0 0 193 48" fill="none" xmlns="http://www.w3.org/2000/svg">
<g clip-path="url(#clip0_32_78)">
<path d="M161.93 12.199C161.93 12.6252 161.995 13.0675 162.166 13.4776C162.922 15.3352 164.85 16.4771 167.298 15.5041C167.884 15.2709 184.094 8.81354 184.094 8.81354C184.094 8.81354 177.709 24.8162 177.465 25.4113C176.538 27.7112 177.652 29.7779 179.547 30.4775C179.97 30.6303 180.409 30.7026 180.84 30.7026C182.394 30.7026 183.76 29.7939 184.435 27.9846C184.533 27.7112 192.52 6.0392 192.699 5.5165C192.805 5.21092 192.984 4.47914 192.992 3.98057C192.992 2.903 192.593 1.89781 191.821 1.13386C191.056 0.385994 190.048 0 188.974 0C188.453 0 188.03 0.088457 187.388 0.297537C187.006 0.418161 166.428 7.9933 164.663 8.63662C162.898 9.28799 161.93 10.6711 161.93 12.2071" fill="#ED1C24"/>
<path d="M97.9518 40.6665V38.1817C100.636 37.4901 102.596 35.3993 102.596 32.9225C102.596 31.3544 101.807 29.9471 100.555 28.9419H103.296V26.1113H98.0657V23.3691H93.9908V26.1113H88.639V28.9419H91.502C90.2494 29.9471 89.4605 31.3544 89.4605 32.9225C89.4605 35.3269 91.3149 37.3614 93.8851 38.1093V40.6585H87.7768V43.5695H101.701C102.897 43.5695 104.215 43.3926 104.223 43.3846V40.5459C104.223 40.5459 103.247 40.6585 102.035 40.6585H97.96L97.9518 40.6665ZM96.0242 29.8345C97.5208 29.8345 98.7327 31.1855 98.7327 32.8501C98.7327 34.5147 97.5126 35.8657 96.0242 35.8657C94.5358 35.8657 93.3157 34.5147 93.3157 32.8501C93.3157 31.1855 94.5358 29.8345 96.0242 29.8345Z" fill="#454B52"/>
<path d="M109.241 24.0117H105.166V47.9916H109.241V34.2084H113.243V31.3054H109.241V24.0117Z" fill="#454B52"/>
<path d="M158.62 36.7899C159.815 36.7899 161.125 36.613 161.141 36.613V33.7743C161.141 33.7743 160.165 33.8869 158.945 33.8869H152.625C151.682 33.8708 151.21 33.4607 151.194 32.6324V27.6708H159.189V24.7598H147.07V33.3562C147.07 35.5033 149.006 36.7899 150.868 36.7899H158.612H158.62Z" fill="#454B52"/>
<path d="M53.5266 42.3628H43.1564V39.4196C46.5399 38.6878 49.0532 36.1788 49.0532 33.2034C49.0532 31.6032 48.3293 30.1396 47.1337 29.0138H51.4607V26.1027H43.1645V23.3525H39.0896V26.1027H30.7935V29.0138H35.1205C33.9249 30.1396 33.201 31.6032 33.201 33.2034C33.201 36.1788 35.7061 38.6878 39.0896 39.4196V42.3628H28.7194V45.2738H53.5266V42.3628ZM37.3897 33.115C37.3897 31.1287 39.0652 29.5124 41.123 29.5124C43.1808 29.5124 44.8563 31.1287 44.8563 33.115C44.8563 35.1012 43.1808 36.7176 41.123 36.7176C39.0652 36.7176 37.3897 35.1012 37.3897 33.115Z" fill="#454B52"/>
<path d="M7.68617 47.9758H20.3012V38.8567C20.3012 38.3581 19.8946 37.9561 19.3984 37.9561H3.87968V44.5421C3.87968 46.5283 5.48199 47.9678 7.67803 47.9678M7.95457 40.8751H16.2263V45.0728H9.38607C8.39378 45.0728 7.97084 44.6868 7.95457 43.8344V40.8751Z" fill="#454B52"/>
<path d="M24.8072 32.7775H19.7319C19.9759 31.8688 20.5778 29.0542 20.5778 24.1328V23.9961H3.66008V26.9071H16.3077C16.3077 27.1001 16.3077 27.3414 16.3077 27.5746C16.3077 30.2846 16.1694 32.0618 16.0962 32.7775H0V35.6885H24.8072V32.7775Z" fill="#454B52"/>
<path d="M66.7029 43.834V39.958H62.5792V44.5578C62.5792 46.7049 64.515 47.9915 66.3776 47.9915H79.4725V45.0885H68.1344C67.1909 45.0724 66.7192 44.6623 66.7029 43.834Z" fill="#454B52"/>
<path d="M58.9761 38.2372H69.8343V42.7485H73.9092V38.2372H83.7914V35.3262H58.9761V38.2372Z" fill="#454B52"/>
<path d="M66.7842 33.5739H79.3993V24.0205H62.9778V30.1482C62.9778 32.1344 64.5801 33.5739 66.7842 33.5739ZM67.0526 26.9235H75.3244V30.6628H68.4841C67.4918 30.6628 67.0689 30.2768 67.0526 29.4244V26.9235Z" fill="#454B52"/>
<path d="M154.756 43.8501V38.9287H150.681V44.5739C150.681 46.5601 152.284 47.9996 154.488 47.9996H167.038V45.0966H156.188C155.195 45.0966 154.772 44.7106 154.756 43.8501Z" fill="#454B52"/>
<path d="M166.981 23.9961H162.995V39.275H166.981V31.8286H170.991V28.9175H166.981V23.9961Z" fill="#454B52"/>
<path d="M136.423 31.2652H134.845V24.0117H131.063V47.9916H134.845V34.2406H136.423V47.9916H140.197V24.0117H136.423V31.2652Z" fill="#454B52"/>
<path d="M125.305 27.7431H129.542V24.832H117.545V27.7431H121.588L117.09 40.8428H120.962L123.41 33.4445C125.899 36.1063 126.492 40.8428 126.492 40.8428H129.949C129.949 40.8428 129.77 34.6106 124.711 29.5042L125.297 27.735L125.305 27.7431Z" fill="#454B52"/>
</g>
<defs>
<clipPath id="clip0_32_78">
<rect width="193" height="48" fill="white"/>
</clipPath>
</defs>
</svg>
