<svg width="127" height="31" viewBox="0 0 127 31" fill="none" xmlns="http://www.w3.org/2000/svg">
<path d="M13.407 21.8593V14.3114L11.4508 10.0077C10.7416 8.28781 8.30447 8.28781 7.58718 10.0077L0.161568 26.3587C-0.409006 27.7362 0.601724 29.2442 2.09337 29.2442H16.9527C17.2054 29.2442 17.4336 29.1871 17.6456 29.1137C15.1187 27.6792 13.407 24.973 13.407 21.8593Z" fill="#35763C"/>
<path d="M59.1346 25.0217L52.1329 1.88901C51.2281 -0.629669 48.1307 -0.629669 47.2259 1.88901L42.9711 14.4661C44.4383 16.1452 45.3349 18.346 45.3349 20.7505C45.3349 24.231 43.4764 27.2632 40.7051 28.9424C41.0474 29.138 41.4387 29.2521 41.8625 29.2521H56.6893C58.5803 29.2521 59.8682 27.0432 59.1428 25.0298L59.1346 25.0217Z" fill="#648943"/>
<path d="M30.0843 13.039V11.4333C30.0843 6.82791 26.3511 3.09473 21.7458 3.09473C17.1404 3.09473 13.4072 6.82791 13.4072 11.4333V14.3106L18.8847 26.3578C19.3575 27.499 18.7299 28.7298 17.6539 29.1129C18.8684 29.7976 20.2623 30.197 21.7539 30.197C24.4764 30.197 26.8809 28.8928 28.4052 26.8795C27.0195 25.2167 26.1881 23.0811 26.1881 20.7499C26.1881 17.5873 27.7286 14.7833 30.1006 13.039H30.0843Z" fill="#A4BC49"/>
<path d="M18.8847 26.3666L13.4072 14.3193V21.8672C13.4072 24.9809 15.1189 27.6952 17.6458 29.1216C18.7217 28.7386 19.3493 27.5159 18.8766 26.3666H18.8847Z" fill="#25602E"/>
<path d="M39.4006 25.0215L42.9707 14.4659C41.2182 12.4526 38.6344 11.1729 35.757 11.1729C33.6296 11.1729 31.6734 11.8738 30.0921 13.0394V21.8589C30.0921 23.7499 29.4563 25.4779 28.4048 26.8799C30.1654 28.9911 32.8064 30.3278 35.7652 30.3278C37.5747 30.3278 39.2701 29.8143 40.7129 28.9421C39.5065 28.2738 38.8463 26.5865 39.4087 25.0215H39.4006Z" fill="#68AC45"/>
<path d="M45.3346 20.7503C45.3346 18.3376 44.4379 16.1449 42.9707 14.4658L39.4006 25.0214C38.8382 26.5864 39.4902 28.2656 40.7048 28.9421C43.4761 27.263 45.3346 24.2308 45.3346 20.7503Z" fill="#33753C"/>
<path d="M30.0839 13.0391C27.7201 14.7834 26.1714 17.5792 26.1714 20.75C26.1714 23.0812 27.0028 25.2167 28.3885 26.8796C29.4481 25.4857 30.0757 23.7495 30.0757 21.8585V13.0391H30.0839Z" fill="#448C38"/>
<path d="M68.9726 5.10899V6.99188C68.9726 8.76066 69.8203 10.5294 71.9803 11.4179V4.44875H74.2626V8.13303H75.4771V4.13086H77.8165V14.2545H75.4771V10.1056H74.2626V13.7328H71.9803V11.4994L70.7251 13.2845C69.3638 12.7465 68.4183 11.7928 67.8314 10.6109C67.2201 12.0129 66.2257 13.1704 64.7014 13.8143L63.4136 11.9151C65.7203 10.9044 66.6006 8.85847 66.6006 6.97558V5.09268H68.9807L68.9726 5.10899ZM77.898 17.5882C77.898 19.5445 75.6483 20.7183 72.1678 20.7183C68.6873 20.7183 66.4539 19.5363 66.4539 17.5882C66.4539 15.6401 68.6873 14.4745 72.1678 14.4745C75.6483 14.4745 77.898 15.6564 77.898 17.5882ZM68.8829 17.5882C68.8829 18.4523 70.0648 18.8761 72.1678 18.8761C74.2708 18.8761 75.4282 18.4523 75.4282 17.5882C75.4282 16.7242 74.2871 16.3167 72.1678 16.3167C70.0485 16.3167 68.8829 16.7405 68.8829 17.5882Z" fill="#624A26"/>
<path d="M93.6948 4.13086V13.8225H91.2251V11.7602H88.3314V12.9584H80.4575V5.28831H88.3314V6.48651H91.2251V4.13086H93.6948ZM93.7519 17.4741C93.7519 19.5363 91.5593 20.7183 88.0543 20.7183C84.5493 20.7183 82.3567 19.5363 82.3567 17.4741C82.3567 15.4119 84.533 14.2463 88.0543 14.2463C91.5756 14.2463 93.7519 15.4445 93.7519 17.4741ZM82.8702 7.24456V11.043H85.9106V7.24456H82.8702ZM84.8102 17.4741C84.8102 18.3952 85.9187 18.8598 88.0543 18.8598C90.1899 18.8598 91.2984 18.3952 91.2984 17.4741C91.2984 16.5531 90.1899 16.1292 88.0543 16.1292C85.9187 16.1292 84.8102 16.5531 84.8102 17.4741ZM91.2251 9.81214V8.42646H88.3314V9.81214H91.2251Z" fill="#624A26"/>
<path d="M106.394 14.8825L106.582 16.6513C103.003 17.3522 99.0991 17.4093 96.2381 17.4093L95.9609 15.4204C98.8546 15.4204 102.93 15.4041 106.394 14.8825ZM105.783 9.31531C105.783 11.7117 103.81 13.4234 101.21 13.4234C98.61 13.4234 96.6212 11.7117 96.6212 9.31531C96.6212 6.9189 98.5937 5.20718 101.21 5.20718C103.827 5.20718 105.783 6.9189 105.783 9.31531ZM99.0176 9.31531C99.0176 10.5869 99.9794 11.3205 101.21 11.3205C102.441 11.3205 103.387 10.5869 103.387 9.31531C103.387 8.04374 102.449 7.31015 101.21 7.31015C99.9713 7.31015 99.0176 8.02744 99.0176 9.31531ZM109.744 4.09863V20.7431H107.291V4.09863H109.744Z" fill="#624A26"/>
<path d="M118.246 14.6947V13.4068H112.019V11.4343H127V13.4068H120.732V14.6947H125.451V16.6102H123.243V18.5257H125.623V20.4656H113.437V18.5257H115.792V16.6102H113.6V14.6947H118.246ZM120.765 4.29395V4.77486C120.765 6.45397 122.501 8.32872 126.275 8.77702L125.411 10.6925C122.574 10.3257 120.561 9.14382 119.509 7.57882C118.458 9.16827 116.453 10.3257 113.592 10.6925L112.728 8.77702C116.526 8.33687 118.238 6.47028 118.238 4.77486V4.29395H120.765ZM120.822 18.5257V16.6102H118.205V18.5257H120.822Z" fill="#624A26"/>
<path d="M69.1925 25.8124H66.6738V27.2633H68.8175V28.0458H66.6738V30.2955H65.769V25.0381H69.1925V25.8206V25.8124Z" fill="#624A26"/>
<path d="M74.9065 27.6622C74.9065 29.2353 73.8143 30.3439 72.2656 30.3439C70.7169 30.3439 69.6328 29.2353 69.6328 27.6622C69.6328 26.089 70.7251 24.9805 72.2656 24.9805C73.8062 24.9805 74.9065 26.089 74.9065 27.6622ZM74.0018 27.6622C74.0018 26.5129 73.3171 25.763 72.2656 25.763C71.2141 25.763 70.5376 26.5047 70.5376 27.6622C70.5376 28.8196 71.2223 29.5532 72.2656 29.5532C73.3089 29.5532 74.0018 28.8115 74.0018 27.6622Z" fill="#624A26"/>
<path d="M78.6723 30.2867L77.4415 28.4364H76.6509V30.2867H75.7461V25.0293H77.8817C78.8435 25.0293 79.5119 25.6895 79.5119 26.7003C79.5119 27.3523 79.251 27.9066 78.4359 28.2897L79.7646 30.2867H78.6723ZM78.599 26.7329C78.599 26.146 78.2485 25.8118 77.7105 25.8118H76.6427V27.6621H77.7105C78.2485 27.6621 78.599 27.3279 78.599 26.7329Z" fill="#624A26"/>
<path d="M84.0599 25.8124H81.4761V27.19H83.6931V27.9725H81.4761V29.5049H84.0599V30.2955H80.5713V25.0381H84.0599V25.8206V25.8124Z" fill="#624A26"/>
<path d="M86.6929 29.5696C87.345 29.5696 87.6547 29.268 87.6547 28.8279C87.6547 27.7764 85.0709 28.241 85.0709 26.407C85.0709 25.5104 85.7881 24.9724 86.7989 24.9806C87.4347 24.9806 88.152 25.3555 88.4698 26.2277L87.671 26.513C87.451 25.9342 87.1005 25.7631 86.7907 25.7549C86.2691 25.7549 85.9756 26.032 85.9756 26.407C85.9756 27.4503 88.5514 27.0917 88.5514 28.836C88.5514 29.7326 87.8422 30.3521 86.6848 30.344C85.9104 30.344 85.2828 29.8875 84.8345 29.1376L85.5762 28.7137C85.9104 29.3495 86.318 29.5696 86.6929 29.5696Z" fill="#624A26"/>
<path d="M92.9286 25.8118H91.5021V30.2867H90.5892V25.8118H89.1465V25.0293H92.9286V25.8118Z" fill="#624A26"/>
<path d="M98.8707 25.8124H96.352V27.2633H98.4958V28.0458H96.352V30.2955H95.4473V25.0381H98.8707V25.8206V25.8124Z" fill="#624A26"/>
<path d="M104.593 27.6622C104.593 29.2353 103.5 30.3439 101.952 30.3439C100.403 30.3439 99.3188 29.2353 99.3188 27.6622C99.3188 26.089 100.411 24.9805 101.952 24.9805C103.492 24.9805 104.593 26.089 104.593 27.6622ZM103.68 27.6622C103.68 26.5129 102.995 25.763 101.943 25.763C100.892 25.763 100.215 26.5047 100.215 27.6622C100.215 28.8196 100.9 29.5532 101.943 29.5532C102.987 29.5532 103.68 28.8115 103.68 27.6622Z" fill="#624A26"/>
<path d="M108.35 30.2867L107.119 28.4364H106.329V30.2867H105.424V25.0293H107.559C108.521 25.0293 109.19 25.6895 109.19 26.7003C109.19 27.3523 108.929 27.9066 108.114 28.2897L109.442 30.2867H108.35ZM108.277 26.7329C108.277 26.146 107.926 25.8118 107.388 25.8118H106.32V27.6621H107.388C107.926 27.6621 108.277 27.3279 108.277 26.7329Z" fill="#624A26"/>
<path d="M112.915 29.5049H115.214V30.2955H112.01V25.0381H112.915V29.5049Z" fill="#624A26"/>
<path d="M117.04 25.0293V30.2867H116.135V25.0293H117.04Z" fill="#624A26"/>
<path d="M121.506 25.8124H118.987V27.2633H121.131V28.0458H118.987V30.2955H118.083V25.0381H121.506V25.8206V25.8124Z" fill="#624A26"/>
<path d="M125.842 25.8124H123.258V27.19H125.475V27.9725H123.258V29.5049H125.842V30.2955H122.354V25.0381H125.842V25.8206V25.8124Z" fill="#624A26"/>
</svg>
