<svg width="100" height="24" viewBox="0 0 100 24" fill="none" xmlns="http://www.w3.org/2000/svg">
<path d="M10.5078 16.6068V10.8725L8.97462 7.60278C8.41883 6.29614 6.50868 6.29614 5.9465 7.60278L0.12663 20.0252C-0.320561 21.0717 0.471605 22.2173 1.64069 22.2173H13.2868C13.4849 22.2173 13.6637 22.174 13.8298 22.1183C11.8494 21.0284 10.5078 18.9724 10.5078 16.6068Z" fill="#35763C"/>
<path d="M46.347 19.0098L40.8593 1.43514C40.1502 -0.478379 37.7226 -0.478379 37.0135 1.43514L33.6787 10.9903C34.8286 12.266 35.5314 13.938 35.5314 15.7648C35.5314 18.4091 34.0748 20.7127 31.9027 21.9884C32.171 22.137 32.4777 22.2237 32.8099 22.2237H44.4305C45.9126 22.2237 46.922 20.5455 46.3534 19.016L46.347 19.0098Z" fill="#648943"/>
<path d="M23.5786 9.90655V8.6866C23.5786 5.18778 20.6527 2.35156 17.0432 2.35156C13.4337 2.35156 10.5078 5.18778 10.5078 8.6866V10.8726L14.8009 20.0253C15.1714 20.8922 14.6795 21.8273 13.8362 22.1184C14.7881 22.6386 15.8805 22.942 17.0496 22.942C19.1833 22.942 21.0679 21.9512 22.2626 20.4216C21.1765 19.1583 20.5249 17.5358 20.5249 15.7648C20.5249 13.362 21.7323 11.2318 23.5914 9.90655H23.5786Z" fill="#A4BC49"/>
<path d="M14.8009 20.0313L10.5078 10.8787V16.613C10.5078 18.9786 11.8494 21.0407 13.8298 22.1244C14.6731 21.8334 15.165 20.9045 14.7945 20.0313H14.8009Z" fill="#25602E"/>
<path d="M30.8806 19.0098L33.6787 10.9903C32.3052 9.46076 30.2801 8.48853 28.025 8.48853C26.3576 8.48853 24.8243 9.02109 23.585 9.90663V16.607C23.585 18.0437 23.0867 19.3566 22.2626 20.4217C23.6425 22.0256 25.7123 23.0412 28.0313 23.0412C29.4496 23.0412 30.7784 22.651 31.9091 21.9884C30.9636 21.4806 30.4462 20.1988 30.887 19.0098H30.8806Z" fill="#68AC45"/>
<path d="M35.5314 15.7647C35.5314 13.9317 34.8286 12.2659 33.6787 10.9902L30.8806 19.0097C30.4398 20.1986 30.9509 21.4743 31.9027 21.9883C34.0748 20.7126 35.5314 18.409 35.5314 15.7647Z" fill="#33753C"/>
<path d="M23.5786 9.90649C21.7259 11.2317 20.5121 13.3558 20.5121 15.7647C20.5121 17.5358 21.1638 19.1583 22.2498 20.4216C23.0803 19.3626 23.5722 18.0436 23.5722 16.6069V9.90649H23.5786Z" fill="#448C38"/>
<path d="M54.0578 3.88105V5.31155C54.0578 6.65534 54.7222 7.99914 56.4152 8.67413V3.37945H58.2039V6.17851H59.1558V3.13794H60.9893V10.8292H59.1558V7.67712H58.2039V10.4328H56.4152V8.73606L55.4314 10.0922C54.3645 9.68353 53.6234 8.95899 53.1635 8.06107C52.6843 9.12619 51.9049 10.0055 50.7103 10.4948L49.7009 9.05188C51.5089 8.284 52.1988 6.72965 52.1988 5.29916V3.86867H54.0642L54.0578 3.88105ZM61.0532 13.3619C61.0532 14.8482 59.29 15.7399 56.5621 15.7399C53.8342 15.7399 52.0838 14.842 52.0838 13.3619C52.0838 11.8819 53.8342 10.9964 56.5621 10.9964C59.29 10.9964 61.0532 11.8943 61.0532 13.3619ZM53.9876 13.3619C53.9876 14.0184 54.9139 14.3404 56.5621 14.3404C58.2103 14.3404 59.1175 14.0184 59.1175 13.3619C59.1175 12.7055 58.2231 12.3959 56.5621 12.3959C54.9011 12.3959 53.9876 12.7179 53.9876 13.3619Z" fill="white"/>
<path d="M73.434 3.13794V10.501H71.4983V8.93422H69.2304V9.84454H63.0592V4.01729H69.2304V4.9276H71.4983V3.13794H73.434ZM73.4787 13.2752C73.4787 14.842 71.7602 15.7399 69.0132 15.7399C66.2661 15.7399 64.5477 14.842 64.5477 13.2752C64.5477 11.7085 66.2534 10.823 69.0132 10.823C71.773 10.823 73.4787 11.7333 73.4787 13.2752ZM64.9501 5.50352V8.38927H67.333V5.50352H64.9501ZM66.4706 13.2752C66.4706 13.975 67.3394 14.328 69.0132 14.328C70.6869 14.328 71.5558 13.975 71.5558 13.2752C71.5558 12.5755 70.6869 12.2535 69.0132 12.2535C67.3394 12.2535 66.4706 12.5755 66.4706 13.2752ZM71.4983 7.45419V6.40145H69.2304V7.45419H71.4983Z" fill="white"/>
<path d="M83.3872 11.3061L83.5341 12.6499C80.7296 13.1825 77.6695 13.2258 75.4272 13.2258L75.21 11.7148C77.4779 11.7148 80.6721 11.7024 83.3872 11.3061ZM82.908 7.07655C82.908 8.89718 81.362 10.1976 79.3241 10.1976C77.2862 10.1976 75.7274 8.89718 75.7274 7.07655C75.7274 5.25592 77.2734 3.95548 79.3241 3.95548C81.3748 3.95548 82.908 5.25592 82.908 7.07655ZM77.6056 7.07655C77.6056 8.0426 78.3595 8.59994 79.3241 8.59994C80.2888 8.59994 81.0298 8.0426 81.0298 7.07655C81.0298 6.1105 80.2952 5.55317 79.3241 5.55317C78.3531 5.55317 77.6056 6.09812 77.6056 7.07655ZM86.0128 3.11328V15.7586H84.0899V3.11328H86.0128Z" fill="white"/>
<path d="M92.676 11.1637V10.1853H87.7952V8.68669H99.5372V10.1853H94.6244V11.1637H98.3234V12.619H96.5921V14.0743H98.4575V15.5481H88.9068V14.0743H90.753V12.619H89.0346V11.1637H92.676ZM94.65 3.26196V3.62733C94.65 4.903 96.0107 6.32731 98.9686 6.6679L98.2914 8.12316C96.0682 7.8445 94.4903 6.94657 93.6662 5.75759C92.8421 6.96514 91.2705 7.8445 89.0282 8.12316L88.351 6.6679C91.328 6.3335 92.6696 4.91539 92.6696 3.62733V3.26196H94.65ZM94.6947 14.0743V12.619H92.644V14.0743H94.6947Z" fill="white"/>
<path d="M54.2303 19.6103H52.2563V20.7126H53.9365V21.307H52.2563V23.0162H51.5472V19.022H54.2303V19.6165V19.6103Z" fill="white"/>
<path d="M58.7086 21.0159C58.7086 22.2111 57.8526 23.0533 56.6388 23.0533C55.425 23.0533 54.5753 22.2111 54.5753 21.0159C54.5753 19.8207 55.4314 18.9785 56.6388 18.9785C57.8462 18.9785 58.7086 19.8207 58.7086 21.0159ZM57.9995 21.0159C57.9995 20.1427 57.4629 19.573 56.6388 19.573C55.8147 19.573 55.2844 20.1365 55.2844 21.0159C55.2844 21.8952 55.8211 22.4526 56.6388 22.4526C57.4565 22.4526 57.9995 21.889 57.9995 21.0159Z" fill="white"/>
<path d="M61.6601 23.0099L60.6954 21.6041H60.0758V23.0099H59.3666V19.0156H61.0404C61.7943 19.0156 62.3181 19.5172 62.3181 20.2851C62.3181 20.7805 62.1137 21.2016 61.4748 21.4927L62.5161 23.0099H61.6601ZM61.6026 20.3099C61.6026 19.864 61.3279 19.6101 60.9063 19.6101H60.0694V21.0158H60.9063C61.3279 21.0158 61.6026 20.7619 61.6026 20.3099Z" fill="white"/>
<path d="M65.8829 19.6103H63.8577V20.6568H65.5954V21.2513H63.8577V22.4155H65.8829V23.0162H63.1486V19.022H65.8829V19.6165V19.6103Z" fill="white"/>
<path d="M67.9463 22.465C68.4574 22.465 68.7002 22.2359 68.7002 21.9015C68.7002 21.1027 66.675 21.4556 66.675 20.0623C66.675 19.3811 67.2372 18.9724 68.0294 18.9786C68.5277 18.9786 69.0898 19.2634 69.339 19.9261L68.7129 20.1428C68.5404 19.7031 68.2657 19.5731 68.023 19.5669C67.6141 19.5669 67.3841 19.7774 67.3841 20.0623C67.3841 20.8549 69.4029 20.5825 69.4029 21.9077C69.4029 22.5889 68.8471 23.0595 67.9399 23.0533C67.333 23.0533 66.8411 22.7065 66.4898 22.1368L67.0711 21.8148C67.333 22.2978 67.6524 22.465 67.9463 22.465Z" fill="white"/>
<path d="M72.8335 19.6101H71.7155V23.0099H71V19.6101H69.8692V19.0156H72.8335V19.6101Z" fill="white"/>
<path d="M77.4907 19.6103H75.5166V20.7126H77.1968V21.307H75.5166V23.0162H74.8075V19.022H77.4907V19.6165V19.6103Z" fill="white"/>
<path d="M81.9753 21.0159C81.9753 22.2111 81.1193 23.0533 79.9055 23.0533C78.6917 23.0533 77.842 22.2111 77.842 21.0159C77.842 19.8207 78.6981 18.9785 79.9055 18.9785C81.1129 18.9785 81.9753 19.8207 81.9753 21.0159ZM81.2598 21.0159C81.2598 20.1427 80.7232 19.573 79.8991 19.573C79.075 19.573 78.5447 20.1365 78.5447 21.0159C78.5447 21.8952 79.0814 22.4526 79.8991 22.4526C80.7168 22.4526 81.2598 21.889 81.2598 21.0159Z" fill="white"/>
<path d="M84.9204 23.0099L83.9557 21.6041H83.3361V23.0099H82.6269V19.0156H84.3007C85.0546 19.0156 85.5784 19.5172 85.5784 20.2851C85.5784 20.7805 85.374 21.2016 84.7351 21.4927L85.7765 23.0099H84.9204ZM84.8629 20.3099C84.8629 19.864 84.5882 19.6101 84.1666 19.6101H83.3297V21.0158H84.1666C84.5882 21.0158 84.8629 20.7619 84.8629 20.3099Z" fill="white"/>
<path d="M88.4979 22.4155H90.2995V23.0162H87.7888V19.022H88.4979V22.4155Z" fill="white"/>
<path d="M91.7305 19.0156V23.0099H91.0214V19.0156H91.7305Z" fill="white"/>
<path d="M95.2313 19.6103H93.2573V20.7126H94.9375V21.307H93.2573V23.0162H92.5482V19.022H95.2313V19.6165V19.6103Z" fill="white"/>
<path d="M98.63 19.6103H96.6049V20.6568H98.3425V21.2513H96.6049V22.4155H98.63V23.0162H95.8957V19.022H98.63V19.6165V19.6103Z" fill="white"/>
</svg>
