<svg width="212" height="44" viewBox="0 0 212 44" fill="none" xmlns="http://www.w3.org/2000/svg">
<path d="M11.3205 16.601C13.6634 15.1238 13.9781 11.4129 12.0235 8.31241C10.0688 5.21192 6.58502 3.89598 4.24215 5.37316C1.89927 6.85035 1.58454 10.5613 3.53918 13.6618C5.49381 16.7623 8.97763 18.0782 11.3205 16.601Z" fill="#D53885"/>
<path d="M27.1373 7.63182C27.514 3.98598 25.5861 0.799638 22.8311 0.514923C20.0761 0.230208 17.5374 2.95494 17.1607 6.60077C16.7839 10.2466 18.7119 13.433 21.4668 13.7177C24.2218 14.0024 26.7605 11.2777 27.1373 7.63182Z" fill="#D53885"/>
<path d="M41.279 13.4973C43.1115 10.3231 42.6526 6.62717 40.254 5.24227C37.8555 3.85737 34.4255 5.30789 32.593 8.48209C30.7605 11.6563 31.2193 15.3522 33.6179 16.7371C36.0165 18.122 39.4465 16.6715 41.279 13.4973Z" fill="#D53885"/>
<path d="M22.6901 41.1685C22.6901 41.1685 24.0732 39.1578 25.9617 38.5244C27.8503 37.8909 31.7495 35.1247 32.2492 33.6196C32.7489 32.1145 33.5044 26.0707 29.4832 25.8208C25.462 25.5709 24.4509 26.1985 22.6901 29.3425C22.6901 29.3425 20.174 26.0998 18.6631 25.7685C17.1523 25.4373 13.1253 24.6876 11.8701 28.7148C10.6149 32.7421 13.2531 35.5083 15.2695 36.7693C17.2859 38.0304 21.1851 40.0411 21.1851 41.1743C21.1851 41.1743 18.7096 42.0576 17.1174 42.8073C15.5252 43.557 10.4929 44.818 6.97147 40.4188C3.45002 36.0197 4.32747 25.1932 10.8706 21.0439C17.4138 16.8946 26.322 15.0989 34.2714 21.6715C40.8146 27.0819 40.4136 35.2061 38.6761 38.78C37.2234 41.7671 33.7717 44.1904 29.367 43.5686C25.5782 43.0339 24.8402 41.1685 22.7018 41.1685H22.6901Z" fill="#D53885"/>
<path d="M50.3154 29.1503H57.4397V26.9246H60.2348V29.1503H67.4229V31.376H50.3154V29.1503ZM52.1459 25.6809L56.6843 23.7051C57.1898 23.4959 57.399 23.1821 57.4804 22.9089H52.6049V20.6367H65.1276V22.9089H60.2522C60.3335 23.1821 60.5485 23.4959 61.0483 23.7051L65.5867 25.6809L64.622 27.9532L60.043 25.9773C59.5607 25.7681 59.183 25.495 58.8692 25.1986C58.5554 25.495 58.1777 25.7681 57.6896 25.9773L53.1105 27.9532L52.1459 25.6809ZM53.68 36.0019C53.68 33.6715 55.8242 32.0908 58.8924 32.0908C61.9606 32.0908 64.1223 33.6657 64.1223 36.0019C64.1223 38.338 61.9606 39.9536 58.8924 39.9536C55.8242 39.9536 53.68 38.2915 53.68 36.0019ZM61.3505 36.0019C61.3505 34.9732 60.3858 34.2585 58.8924 34.2585C57.399 34.2585 56.4518 34.9732 56.4518 36.0019C56.4518 37.0305 57.4164 37.7859 58.8924 37.7859C60.3684 37.7859 61.3505 37.0479 61.3505 36.0019Z" fill="#4E2A38"/>
<path d="M79.1729 24.3789H77.9526C78.3943 25.053 78.6906 25.8492 78.6906 26.7325C78.6906 29.3825 76.7149 31.2537 73.9431 31.2537C71.1712 31.2537 69.1955 29.3825 69.1955 26.7325C69.1955 25.8492 69.4919 25.053 69.9509 24.3789H68.6899V22.1067H72.5775V20.1309H75.2912V22.1067H79.1787V24.3789H79.1729ZM74.4428 32.1138V33.5027H80.6838V32.1138H83.4556V39.0293H71.6652V32.1138H74.437H74.4428ZM73.9198 29.0454C75.1808 29.0454 76.0234 28.1214 76.0234 26.7325C76.0234 25.3436 75.1808 24.3789 73.9198 24.3789C72.6588 24.3789 71.8627 25.3029 71.8627 26.7325C71.8627 28.1621 72.6821 29.0454 73.9198 29.0454ZM74.4428 36.8442H80.6838V35.5832H74.4428V36.8442ZM83.4614 20.3226V24.8206H85.9427V27.1103H83.4614V31.3758H80.6431V20.3226H83.4614Z" fill="#4E2A38"/>
<path d="M103.887 30.9979V33.2469H99.976V39.2151H97.1403V33.2469H93.4445V39.2151H90.5855V33.2469H86.7793V30.9979H103.887ZM95.2691 20.1133C98.6976 20.1133 101.092 22.1531 101.092 25.0529C101.092 27.9528 98.6976 29.9925 95.2691 29.9925C91.8407 29.9925 89.5337 27.9528 89.5337 25.0529C89.5337 22.1531 91.9104 20.1133 95.2691 20.1133ZM95.2691 27.7435C97.117 27.7435 98.3141 26.6743 98.3141 25.0529C98.3141 23.4315 97.117 22.339 95.2691 22.339C93.4212 22.339 92.3055 23.4083 92.3055 25.0529C92.3055 26.6975 93.4852 27.7435 95.2691 27.7435Z" fill="#4E2A38"/>
<path d="M115.154 24.2099C115.073 30.3467 110.575 33.0373 106.287 34.0659L105.7 31.5031C109.378 30.6198 112.423 28.8357 112.51 24.2099H106.229V21.9202H115.16V24.2099H115.154ZM120.744 20.3047V38.5871H117.949V20.3047H120.744Z" fill="#4E2A38"/>
<path d="M130.118 23.8147H124.004V21.5251H132.744V23.8554H136.231V20.3047H139.066V33.6707H136.231V30.4106H132.07V28.1616H136.231V26.0811H132.384C131.268 29.4633 127.654 31.23 123.999 31.9215L123.534 29.3355C127.253 28.6439 130.088 27.1737 130.112 23.8089L130.118 23.8147ZM129.804 32.8688V36.6752H139.258V38.9009H126.962V32.8688H129.798H129.804Z" fill="#4E2A38"/>
<path d="M148.573 34.1302V31.2071H143.721V21.415H146.493V24.2335H153.472V21.415H156.243V31.2071H151.391V34.1302H158.556V36.4024H141.449V34.1302H148.573ZM146.487 29.0046H153.466V26.4186H146.487V29.0046Z" fill="#4E2A38"/>
<path d="M159.666 34.3864H166.791V32.5151C164.333 32.0095 162.711 30.0976 162.694 27.558C162.694 26.4655 163.095 25.4776 163.723 24.6814H161.346V22.4092H166.831V20.2881H169.522V22.4092H175.007V24.6814H172.631C173.258 25.4776 173.659 26.4655 173.659 27.558C173.683 30.0802 172.038 31.9688 169.58 32.4977V34.3864H176.768V36.6353H159.661V34.3864H159.666ZM170.934 27.5522C170.934 25.8495 169.818 24.7163 168.162 24.7163C166.506 24.7163 165.472 25.8495 165.472 27.5522C165.472 29.255 166.523 30.3475 168.162 30.3475C169.801 30.3475 170.934 29.255 170.934 27.5522Z" fill="#4E2A38"/>
<path d="M177.68 29.5284L180.475 25.7859C181.021 25.0478 181.149 24.4841 181.149 23.9379V21.1659H183.88V23.9379C183.88 24.4841 184.008 25.0072 184.595 25.7859L187.39 29.5284L185.287 31.0858L182.532 27.4072L179.778 31.0858L177.674 29.5284H177.68ZM184.38 32.7246V36.6763H194.195V38.902H181.568V32.7246H184.386H184.38ZM187.559 24.4667V20.6022H190.185V33.5033H187.559V26.7157H185.374V24.4667H187.559ZM194.009 20.3232V34.0438H191.359V20.3232H194.009Z" fill="#4E2A38"/>
<path d="M206.427 34.0028H196.95V21.8745H205.963V24.1642H199.745V26.727H205.48V29.0399H199.745V31.6899H206.427V34.0028ZM212 20.2822V38.6286H209.205V28.9818H206.241V26.7328H209.205V20.2822H212Z" fill="#4E2A38"/>
<path d="M52.0762 12.594L53.2907 11.3039C53.5638 11.0075 53.6045 10.7228 53.6045 10.4438V10.1242H52.1575V9.53146H55.6615V10.1242H54.2843V10.4438C54.2843 10.7228 54.3192 11.0017 54.5981 11.3039L55.8126 12.594L55.3361 13.0357L54.1216 11.7456C54.0577 11.67 53.9996 11.6003 53.9473 11.5247C53.8892 11.6003 53.8311 11.67 53.7672 11.7456L52.5527 13.0357L52.0762 12.594ZM53.866 13.7621V15.5752H57.7419V16.1505H53.1512V13.7621H53.866ZM56.9806 11.4085H55.6441V10.8274H56.9806V9.08398H57.6954V13.9945H56.9806V11.4085Z" fill="#4E2A38"/>
<path d="M63.4714 11.9199V9.91502H59.6303V9.32227H64.1978V11.9199H65.296V12.5011H62.3731V13.6343H64.2849V16.3133H63.5702V14.2212H59.6594V13.6401H61.6642V12.5069H58.7471V11.9257H63.4656L63.4714 11.9199Z" fill="#4E2A38"/>
<path d="M65.7554 12.4546H68.655V11.455H69.3698V12.4546H72.2753V13.0299H65.7554V12.4546ZM66.4236 11.3446L68.2192 10.4729C68.5911 10.2928 68.6609 10.0603 68.6609 9.91502H66.6328V9.32227H71.3688V9.91502H69.3407C69.3407 10.0603 69.4221 10.2928 69.7824 10.4729L71.578 11.3446L71.299 11.9025L69.5034 11.0308C69.2826 10.9262 69.1199 10.7925 69.0037 10.6531C68.8875 10.7925 68.7248 10.9262 68.4923 11.0308L66.6967 11.9025L66.4178 11.3446H66.4236ZM67.1791 14.9825C67.1791 14.0469 67.9345 13.4715 69.0211 13.4715C70.1078 13.4715 70.869 14.0469 70.869 14.9825C70.869 15.86 70.1078 16.5109 69.0211 16.5109C67.9345 16.5109 67.1791 15.86 67.1791 14.9825ZM70.1775 14.9825C70.1775 14.4711 69.701 14.0701 69.0211 14.0701C68.3413 14.0701 67.8706 14.4711 67.8706 14.9825C67.8706 15.4939 68.3413 15.9123 69.0211 15.9123C69.701 15.9123 70.1775 15.5113 70.1775 14.9825Z" fill="#4E2A38"/>
<path d="M76.918 10.3914H76.1684C76.4415 10.6645 76.6275 11.0132 76.6275 11.42C76.6275 12.3382 75.9127 12.9949 74.9132 12.9949C73.9137 12.9949 73.2397 12.3382 73.2397 11.42C73.2397 11.019 73.4314 10.6645 73.6929 10.3914H72.9375V9.79863H74.582V9.06641H75.2793V9.79863H76.9238V10.3914H76.918ZM74.9132 12.4312C75.5292 12.4312 75.965 12.0127 75.965 11.42C75.965 10.8272 75.5931 10.4495 75.0643 10.3914H74.7738C74.2566 10.4495 73.9137 10.8505 73.9137 11.42C73.9137 11.9895 74.3263 12.4312 74.9132 12.4312ZM74.6866 13.5934V14.3315H77.6676V13.5934H78.3766V16.2143H73.9835V13.5934H74.6866ZM74.6866 15.639H77.6676V14.8835H74.6866V15.639ZM78.3708 9.08965V10.9144H79.4225V11.513H78.3708V13.2854H77.656V9.08965H78.3708Z" fill="#4E2A38"/>
<path d="M86.3029 13.3902V13.9829H84.6177V16.3074H83.8972V13.9829H82.1423V16.3074H81.4101V13.9829H79.7598V13.3902H86.3029ZM83.0023 9.2002C84.1761 9.2002 84.9955 9.94986 84.9955 11.0075C84.9955 12.0652 84.1761 12.8148 83.0023 12.8148C81.8285 12.8148 81.0498 12.0652 81.0498 11.0075C81.0498 9.94986 81.8633 9.2002 83.0023 9.2002ZM83.0023 12.2163C83.7751 12.2163 84.3098 11.7339 84.3098 11.0191C84.3098 10.3043 83.7751 9.79295 83.0023 9.79295C82.2294 9.79295 81.7355 10.2927 81.7355 11.0075C81.7355 11.7223 82.2527 12.2163 83.0023 12.2163Z" fill="#4E2A38"/>
<path d="M90.6554 10.2753C90.6496 12.4022 88.9993 13.6981 87.3374 14.1572L87.1572 13.4947C88.6274 13.0937 89.9639 12.0651 89.9639 10.2753H87.3606V9.69412H90.6554V10.2753ZM92.6951 9.07812V16.0575H91.9861V9.07812H92.6951Z" fill="#4E2A38"/>
<path d="M96.5825 10.1242H94.171V9.53141H97.2508V10.1242C97.2508 10.2462 97.245 10.3682 97.2275 10.4845H99.0115V9.07812H99.7321V14.1456H99.0115V12.7683H97.1404V12.1872H99.0115V11.0714H97.0997C96.6755 12.2976 95.4842 13.0647 94.1361 13.332L94.0024 12.6811C95.4552 12.3964 96.5651 11.5537 96.5883 10.13L96.5825 10.1242ZM95.9433 13.9306V15.5752H99.7437V16.1505H95.2169V13.9364H95.9375L95.9433 13.9306Z" fill="#4E2A38"/>
<path d="M107.309 12.7392V13.3145H104.45V14.686H103.73V13.3145H100.766V12.7392H107.309ZM102.457 14.1223V15.5752H106.368V16.1563H101.754V14.1223H102.457ZM102.486 9.31055V10.1299H105.583V9.31055H106.298V12.0767H101.789V9.31055H102.486ZM102.486 11.5014H105.583V10.6878H102.486V11.5014Z" fill="#4E2A38"/>
<path d="M107.925 11.0773C107.925 10.0603 108.663 9.34554 109.721 9.34554C110.778 9.34554 111.528 10.0603 111.528 11.0773C111.528 12.0943 110.778 12.8033 109.721 12.8033C108.663 12.8033 107.925 12.0885 107.925 11.0773ZM110.825 11.0773C110.825 10.4032 110.372 9.9383 109.727 9.9383C109.082 9.9383 108.628 10.409 108.628 11.0773C108.628 11.7456 109.082 12.2163 109.727 12.2163C110.372 12.2163 110.825 11.7456 110.825 11.0773ZM109.576 14.8837C109.576 13.9714 110.29 13.3321 111.325 13.3321C112.359 13.3321 113.091 13.9714 113.091 14.8837C113.091 15.7961 112.371 16.4295 111.325 16.4295C110.279 16.4295 109.576 15.7903 109.576 14.8837ZM112.4 14.8837C112.4 14.3142 111.958 13.9307 111.325 13.9307C110.691 13.9307 110.255 14.3142 110.255 14.8837C110.255 15.4532 110.697 15.8252 111.325 15.8252C111.952 15.8252 112.4 15.4416 112.4 14.8837ZM112.679 9.08984H113.393V10.1417H114.428V10.7344H113.393V11.6875H114.428V12.2803H113.393V13.3495H112.679V9.09566V9.08984Z" fill="#4E2A38"/>
<path d="M114.794 12.6347L115.933 11.2575C116.177 10.9553 116.235 10.6647 116.235 10.4206V9.38622H116.915V10.4206C116.915 10.6763 116.961 10.9378 117.229 11.2575L118.368 12.6347L117.874 13.0474L116.735 11.6701C116.677 11.5945 116.619 11.5306 116.578 11.4667C116.531 11.5306 116.479 11.6061 116.421 11.6701L115.282 13.0474L114.788 12.6347H114.794ZM116.938 13.7331V15.5753H120.93V16.1506H116.223V13.7389H116.938V13.7331ZM118.78 10.7403V9.2235H119.454V14.1747H118.78V11.3272H117.699V10.7461H118.78V10.7403ZM120.872 9.08984V14.3723H120.198V9.08984H120.872Z" fill="#4E2A38"/>
<path d="M125.76 14.1048H122.215V9.63011H125.591V10.2229H122.924V11.513H125.364V12.129H122.924V13.5179H125.765V14.1106L125.76 14.1048ZM127.735 9.07222V16.0749H127.038V12.0825H125.847V11.5072H127.038V9.06641H127.735V9.07222Z" fill="#4E2A38"/>
</svg>
